<?xml version="1.0" encoding="UTF-8" standalone="no"?>
<svg
   xmlns:svg="http://www.w3.org/2000/svg"
   xmlns="http://www.w3.org/2000/svg"
   version="1.1"
   viewBox="0 0 223.44092 40.724129"
   height="40.724129mm"
   width="223.44092mm">
  <path
     style="fill:#ffffff;fill-opacity:1;stroke-width:9.72661"
     d="M 5.9758606,0 C 2.6652432,0 0,2.66525 0,5.97587 v 28.77238 c 0,3.31063 2.6652432,5.97588 5.9758606,5.97588 H 150.08645 c 3.31062,0 5.97586,-2.66525 5.97586,-5.97588 V 5.97587 C 156.06231,2.66525 153.39707,0 150.08645,0 Z m 5.8812964,6.36084 h 19.784321 c 2.276428,0 4.10931,1.83238 4.10931,4.1088 v 19.78432 c 0,2.27642 -1.832882,4.10933 -4.10931,4.10933 H 11.857157 c -2.2764278,0 -4.1093103,-1.83291 -4.1093103,-4.10933 V 10.46964 c 0,-2.27642 1.8328825,-4.1088 4.1093103,-4.1088 z m 37.469548,0 h 19.784322 c 2.27643,0 4.10931,1.83238 4.10931,4.1088 v 19.78432 c 0,2.27642 -1.83288,4.10933 -4.10931,4.10933 H 49.326705 c -2.276425,0 -4.10931,-1.83291 -4.10931,-4.10933 V 10.46964 c 0,-2.27642 1.832885,-4.1088 4.10931,-4.1088 z m 37.469545,0 h 19.78432 c 2.27643,0 4.10931,1.83238 4.10931,4.1088 v 19.78432 c 0,2.27642 -1.83288,4.10933 -4.10931,4.10933 H 86.79625 c -2.27643,0 -4.10931,-1.83291 -4.10931,-4.10933 V 10.46964 c 0,-2.27642 1.83288,-4.1088 4.10931,-4.1088 z m 37.46955,0 h 19.78432 c 2.27642,0 4.10931,1.83238 4.10931,4.1088 v 19.78432 c 0,2.27642 -1.83289,4.10933 -4.10931,4.10933 H 124.2658 c -2.27643,0 -4.10931,-1.83291 -4.10931,-4.10933 V 10.46964 c 0,-2.27642 1.83288,-4.1088 4.10931,-4.1088 z M 91.671407,13.2607 c -1.154581,0 -2.084112,0.92951 -2.084112,2.0841 v 10.03453 c 0,1.15459 0.929531,2.0841 2.084112,2.0841 h 10.034533 c 1.15457,0 2.08359,-0.92951 2.08359,-2.0841 V 15.3448 c 0,-1.15459 -0.92902,-2.0841 -2.08359,-2.0841 z" />
  <path
     d="M 179.63376,40.659875 H 167.2245 q -1.58239,0 -2.33194,-0.451064 -0.66627,-0.507448 -0.66627,-1.578726 V 2.0938488 q 0,-1.0712785 0.66627,-1.52234313 0.74955,-0.50744771 2.33194,-0.50744771 h 13.40867 q 1.33253,0 2.16537,0.39468155 0.91611,0.39468157 1.66566,1.29681079 l 7.49552,9.1904417 q 0.41642,0.507448 0.66628,0.73298 0.33313,0.225533 0.83283,0.225533 h 0.74955 q 0.49971,0 0.74955,-0.225533 0.33315,-0.225532 0.74957,-0.73298 l 7.41223,-9.1904417 q 0.74955,-0.90212922 1.58239,-1.29681079 0.91612,-0.39468155 2.24866,-0.39468155 h 13.49194 q 1.58239,0 2.24866,0.50744771 0.74955,0.45106463 0.74955,1.52234313 V 38.630085 q 0,1.071278 -0.74955,1.578726 -0.66627,0.451064 -2.24866,0.451064 h -12.82567 q -1.58239,0 -2.33195,-0.451064 -0.66626,-0.507448 -0.66626,-1.578726 V 18.78324 l -4.91374,6.145756 q -0.74955,0.958512 -1.83223,1.409577 -0.99941,0.394682 -2.58179,0.394682 h -3.33136 q -1.58239,0 -2.66507,-0.394682 -0.9994,-0.451065 -1.74895,-1.409577 l -4.91374,-6.145756 v 19.846845 q 0,1.071278 -0.74955,1.578726 -0.66626,0.451064 -2.24865,0.451064 z"
     style="font-style:normal;font-variant:normal;font-weight:normal;font-stretch:normal;font-size:68.5258px;line-height:1.25;font-family:Bungee;-inkscape-font-specification:Bungee;letter-spacing:0px;word-spacing:0px;fill:#ffffff;fill-opacity:1;stroke:none;stroke-width:1.71315"/>
</svg>
