<?xml version="1.0" encoding="UTF-8" standalone="no"?>
<svg
   xmlns:dc="http://purl.org/dc/elements/1.1/"
   xmlns:cc="http://creativecommons.org/ns#"
   xmlns:rdf="http://www.w3.org/1999/02/22-rdf-syntax-ns#"
   xmlns:svg="http://www.w3.org/2000/svg"
   xmlns="http://www.w3.org/2000/svg"
   version="1.1"
   id="svg12067"
   viewBox="0 0 391.61651 49.318124"
   height="13.918671mm"
   width="110.52288mm">
  <defs
     id="defs12069" />
  <metadata
     id="metadata12072">
    <rdf:RDF>
      <cc:Work
         rdf:about="">
        <dc:format>image/svg+xml</dc:format>
        <dc:type
           rdf:resource="http://purl.org/dc/dcmitype/StillImage" />
        <dc:title></dc:title>
      </cc:Work>
    </rdf:RDF>
  </metadata>
  <g
     id="text2241"
     style="font-style:normal;font-weight:normal;font-size:15.1248064px;line-height:1.25;font-family:sans-serif;letter-spacing:0px;word-spacing:0px;fill:#000000;fill-opacity:1;stroke:none;stroke-width:0.37812009"
     transform="matrix(3.5307014,0,0,3.5559578,-753.91692,-1234.7758)"
     aria-label="Amici Hungariae">
    <path
       id="path2255"
       d="m 230.77788,352.95727 c 0.62406,-2.47024 4.68521,-7.73979 6.56818,-4.67395 -0.53214,1.24924 -0.84837,-2.08317 -1.94311,0.0987 -1.88076,1.30984 -5.64909,5.94276 -2.86218,7.09118 1.73163,-1.06458 3.05969,-6.48419 4.83703,-4.78829 -1.43057,1.78719 -0.85257,5.13811 0.7301,3.91562 -0.79563,1.9949 -4.05313,0.8499 -2.86209,-1.1701 -1.0716,1.73303 -5.30621,5.46862 -4.86558,1.02869 0.053,-0.50696 -0.094,-1.142 0.39765,-1.50189 z"
       style="font-style:normal;font-variant:normal;font-weight:normal;font-stretch:normal;font-family:'Rage Italic';-inkscape-font-specification:'Rage Italic, ';stroke-width:0.37812009" />
    <path
       id="path2257"
       d="m 240.83647,353.28222 c 1.49326,-1.41609 2.96924,2.33375 4.22811,-0.0237 0.64351,0.57488 0.76996,3.10331 1.84472,1.26615 0.49511,2.17653 -3.6106,1.84933 -2.51355,-0.23826 -0.663,1.66202 -3.39759,1.71071 -2.71554,-0.46871 -1.29441,0.54819 -4.06018,3.85432 -2.62387,0.50416 -2.52175,0.58138 0.50162,-2.75254 1.46998,-0.76575 l 0.31015,-0.27383 z"
       style="font-style:normal;font-variant:normal;font-weight:normal;font-stretch:normal;font-family:'Rage Italic';-inkscape-font-specification:'Rage Italic, ';stroke-width:0.37812009" />
    <path
       id="path2259"
       d="m 250.51103,350.38723 c 0.0387,-2.55062 1.60547,1.52218 0,0 z m -3.19039,3.69258 c 1.70485,-2.87436 3.13266,0.45471 2.99524,0.91383 3.38776,-1.07417 -2.11199,3.57557 -1.43693,0.0292 0.49362,-2.77906 -1.7609,0.69097 -1.55831,-0.94305 z"
       style="font-style:normal;font-variant:normal;font-weight:normal;font-stretch:normal;font-family:'Rage Italic';-inkscape-font-specification:'Rage Italic, ';stroke-width:0.37812009" />
    <path
       id="path2261"
       d="m 252.53456,354.50077 c -0.29169,-2.62955 5.7988,-1.69541 1.41399,-0.78759 -2.19728,2.1852 1.26677,2.67623 2.27522,0.83188 3.16913,-0.24481 -6.07697,5.03641 -3.68921,-0.0443 z"
       style="font-style:normal;font-variant:normal;font-weight:normal;font-stretch:normal;font-family:'Rage Italic';-inkscape-font-specification:'Rage Italic, ';stroke-width:0.37812009" />
    <path
       id="path2263"
       d="m 260.17082,350.38723 c 0.0387,-2.55062 1.60547,1.52217 0,0 z m -3.19039,3.69258 c 1.70484,-2.87436 3.13267,0.4547 2.99525,0.91383 3.38773,-1.07417 -2.11198,3.57558 -1.43694,0.0292 0.49361,-2.77905 -1.76086,0.69096 -1.55831,-0.94306 z"
       style="font-style:normal;font-variant:normal;font-weight:normal;font-stretch:normal;font-family:'Rage Italic';-inkscape-font-specification:'Rage Italic, ';stroke-width:0.37812009" />
    <path
       id="path2265"
       d="m 270.14817,347.72858 c 3.92233,-2.51812 0.0564,5.66797 3.82682,3.21437 1.82905,-0.42023 3.48474,-6.27803 3.05493,-2.12416 0.47285,2.95289 -3.11248,3.32856 -3.20285,6.57475 -1.45012,3.16314 -1.27162,-4.45645 -4.19421,-1.6893 -0.5223,0.7452 -1.66655,4.99389 -1.94288,2.00945 -0.45728,-3.12968 4.27053,-4.7502 3.01318,-7.64933 -0.99668,0.8959 -4.7548,2.38462 -1.98775,0.37927 0.47144,-0.25032 0.94604,-0.49546 1.43276,-0.71505 z m 1.51395,5.11053 c 1.5434,3.00593 3.69452,-3.22616 0.43256,-1.16805 -1.07168,-0.16639 -2.43309,1.50686 -0.43256,1.16805 z m -2.67342,-0.48004 c 0.27785,0.24852 0.15212,-0.37009 0,0 z"
       style="font-style:normal;font-variant:normal;font-weight:normal;font-stretch:normal;font-family:'Rage Italic';-inkscape-font-specification:'Rage Italic, ';stroke-width:0.37812009" />
    <path
       id="path2267"
       d="m 276.06368,353.64409 c 1.64245,-2.4147 2.31492,1.79075 1.76597,1.57949 1.4492,-2.25814 4.40909,-2.25628 4.01962,-0.28919 3.03121,-1.00716 -2.16868,3.41402 -2.03134,-0.36533 -0.4006,2.42766 -4.84762,1.32945 -3.75425,-0.92497 z"
       style="font-style:normal;font-variant:normal;font-weight:normal;font-stretch:normal;font-family:'Rage Italic';-inkscape-font-specification:'Rage Italic, ';stroke-width:0.37812009" />
    <path
       id="path2269"
       d="m 289.42343,355.18759 c 3.07079,-1.37214 -3.16361,3.749 -1.98033,-0.45748 -1.10907,-1.46542 -5.27003,3.68345 -3.34588,-0.26712 -2.66309,-0.10582 1.11556,-2.12122 2.0665,-0.61607 1.12199,-0.26896 2.60568,-1.89062 2.35601,0.63362 -0.17804,0.63809 0.16605,1.63254 0.9037,0.70705 z"
       style="font-style:normal;font-variant:normal;font-weight:normal;font-stretch:normal;font-family:'Rage Italic';-inkscape-font-specification:'Rage Italic, ';stroke-width:0.37812009" />
    <path
       id="path2271"
       d="m 290.42782,361.11048 c -3.16175,-2.52981 5.23718,-5.39548 2.87837,-5.77409 -2.06524,1.89602 -4.26837,-0.009 -1.61949,-1.80811 2.14358,-1.99333 5.5537,0.57955 2.98548,2.8474 -0.77507,2.0522 -2.65566,3.34934 -4.24436,4.7348 z m 2.54049,-6.15183 c 2.57429,-2.25523 -1.66399,-0.0866 -1.09106,0.48729 l 0.42194,-0.16413 z m 0.13293,2.35586 c -2.41327,-0.87903 -3.38855,4.84047 -0.85626,1.31081 0.31647,-0.41582 0.59183,-0.86079 0.85626,-1.31081 z"
       style="font-style:normal;font-variant:normal;font-weight:normal;font-stretch:normal;font-family:'Rage Italic';-inkscape-font-specification:'Rage Italic, ';stroke-width:0.37812009" />
    <path
       id="path2273"
       d="m 301.8822,354.72971 c 2.45375,-0.38602 -2.98214,3.05662 -1.74287,-0.0147 -1.93657,3.68095 -5.90197,-0.12593 -1.65565,-1.84127 1.2699,-0.44612 3.53011,0.22279 3.39852,1.85597 z m -2.45187,0 c 1.97719,-2.88032 -4.47406,2.09543 -0.45666,0.36767 0.15616,-0.11762 0.30451,-0.24502 0.45666,-0.36767 z"
       style="font-style:normal;font-variant:normal;font-weight:normal;font-stretch:normal;font-family:'Rage Italic';-inkscape-font-specification:'Rage Italic, ';stroke-width:0.37812009" />
    <path
       id="path2275"
       d="m 304.14206,353.05328 c 2.42806,-2.65257 1.45537,3.3943 1.93404,2.40811 1.96586,-1.32342 2.24525,-0.28997 0.55862,0.91704 -2.83535,1.79568 -1.69952,-3.70464 -2.03803,-2.68085 -1.66495,1.0627 -2.71089,0.79086 -0.45463,-0.6443 z"
       style="font-style:normal;font-variant:normal;font-weight:normal;font-stretch:normal;font-family:'Rage Italic';-inkscape-font-specification:'Rage Italic, ';stroke-width:0.37812009" />
    <path
       id="path2277"
       d="m 311.3352,350.38723 c 0.0386,-2.55066 1.60542,1.52204 0,0 z m -3.19039,3.69258 c 1.70484,-2.87435 3.13267,0.45469 2.99526,0.91383 3.38779,-1.07419 -2.112,3.57557 -1.4369,0.0292 0.49361,-2.77904 -1.76062,0.69093 -1.55836,-0.94305 z"
       style="font-style:normal;font-variant:normal;font-weight:normal;font-stretch:normal;font-family:'Rage Italic';-inkscape-font-specification:'Rage Italic, ';stroke-width:0.37812009" />
    <path
       id="path2279"
       d="m 318.33633,354.72971 c 2.45381,-0.3861 -2.982,3.05665 -1.74276,-0.0147 -1.93647,3.68103 -5.90201,-0.12598 -1.65565,-1.84128 1.26988,-0.44613 3.53009,0.2228 3.39841,1.85598 z m -2.45187,0 c 1.97727,-2.88032 -4.47412,2.09525 -0.45687,0.36767 0.15617,-0.1177 0.30465,-0.24503 0.45687,-0.36767 z"
       style="font-style:normal;font-variant:normal;font-weight:normal;font-stretch:normal;font-family:'Rage Italic';-inkscape-font-specification:'Rage Italic, ';stroke-width:0.37812009" />
    <path
       id="path2281"
       d="m 320.20478,353.62932 c 0.64517,-2.51611 4.70465,0.0792 1.50661,0.73876 -3.15675,3.01641 5.67954,-2.10379 1.67605,1.23986 -1.69442,1.52296 -5.50224,0.81368 -3.18266,-1.97862 z m 1.55826,-0.44311 c -2.37576,1.4526 1.40599,0.21181 0.18123,-0.0259 z"
       style="font-style:normal;font-variant:normal;font-weight:normal;font-stretch:normal;font-family:'Rage Italic';-inkscape-font-specification:'Rage Italic, ';stroke-width:0.37812009" />
  </g>
  <text
     transform="scale(1.0046853,0.99533655)"
     xml:space="preserve"
     style="font-style:normal;font-variant:normal;font-weight:normal;font-stretch:normal;font-size:38.96906281px;line-height:1.25;font-family:Lato;-inkscape-font-specification:Lato;letter-spacing:0px;word-spacing:0px;fill:#000000;fill-opacity:1;stroke:none;stroke-width:0.27494836"
     x="58.454147"
     y="48.843548"
     id="text2245"><tspan
       id="tspan2243"
       x="58.454147"
       y="48.843548"
       style="font-style:normal;font-variant:normal;font-weight:300;font-stretch:normal;font-size:15.5876236px;font-family:Lato;-inkscape-font-specification:'Lato Light';stroke-width:0.27494836">WWW.AMICIHUNGARIAE.PL</tspan></text>
  <g
     transform="matrix(3.5100652,0,0,3.5100652,387.04486,144.36068)"
     id="g1379">
    <rect
       style="fill:#ce253c;fill-opacity:1;stroke-width:0.2748327"
       id="rect869"
       width="7.0671268"
       height="7.0671268"
       x="-110.26714"
       y="-34.144276" />
    <rect
       y="-41.127636"
       x="-100.81097"
       height="4.6780839"
       width="4.6780839"
       id="rect873"
       style="fill:#ce253c;fill-opacity:1;stroke-width:0.18192551" />
    <rect
       y="-31.771482"
       x="-100.81097"
       height="4.6780839"
       width="4.6780839"
       id="rect877"
       style="fill:#41704c;fill-opacity:1;stroke-width:0.18192551" />
  </g>
</svg>
