<?xml version="1.0" encoding="UTF-8" standalone="no"?>
<svg
   xmlns:dc="http://purl.org/dc/elements/1.1/"
   xmlns:cc="http://creativecommons.org/ns#"
   xmlns:rdf="http://www.w3.org/1999/02/22-rdf-syntax-ns#"
   xmlns:svg="http://www.w3.org/2000/svg"
   xmlns="http://www.w3.org/2000/svg"
   version="1.1"
   id="svg7852"
   viewBox="0 0 550.03387 71.236126"
   height="20.104418mm"
   width="155.23178mm">
  <defs
     id="defs7854">
    <clipPath
       clipPathUnits="userSpaceOnUse"
       id="clipPath7261">
      <path
         d="m 150.346,394.906 295.856,0 0,295.858 -295.856,0 0,-295.858 z"
         id="path7263" />
    </clipPath>
    <clipPath
       clipPathUnits="userSpaceOnUse"
       id="clipPath6926">
      <path
         d="m 0,0.1099854 595,0 0,841.8900046 -595,0 L 0,0.1099854 Z"
         id="path6928" />
    </clipPath>
    <clipPath
       clipPathUnits="userSpaceOnUse"
       id="clipPath6926-9">
      <path
         d="m 0,0.1099854 595,0 0,841.8900046 -595,0 L 0,0.1099854 Z"
         id="path6928-4" />
    </clipPath>
    <clipPath
       clipPathUnits="userSpaceOnUse"
       id="clipPath7261-9">
      <path
         d="m 150.346,394.906 295.856,0 0,295.858 -295.856,0 0,-295.858 z"
         id="path7263-7" />
    </clipPath>
    <clipPath
       clipPathUnits="userSpaceOnUse"
       id="clipPath11087">
      <path
         d="m 0,595.28 841.89,0 L 841.89,0 0,0 0,595.28 Z"
         id="path11089" />
    </clipPath>
    <clipPath
       clipPathUnits="userSpaceOnUse"
       id="clipPath11148">
      <path
         d="m 0,108 467.72,0 0,-108 L 0,0 0,108 Z"
         id="path11150" />
    </clipPath>
  </defs>
  <metadata
     id="metadata7857">
    <rdf:RDF>
      <cc:Work
         rdf:about="">
        <dc:format>image/svg+xml</dc:format>
        <dc:type
           rdf:resource="http://purl.org/dc/dcmitype/StillImage" />
        <dc:title></dc:title>
      </cc:Work>
    </rdf:RDF>
  </metadata>
  <g
     id="g11126"
     transform="matrix(1.25,0,0,-1.25,-17.326875,103.25025)">
    <g
       id="g11128"
       transform="translate(54.9155,61.7939)">
      <path
         d="m 0,0 -10.256,0 0,5.132 -5.121,0 0,-5.132 -10.274,0 0,-5.128 5.133,0 0,-15.389 5.141,0 0,5.14 5.121,0 0,-5.14 5.125,0 0,15.389 5.131,0 L 0,0 Z m -41.054,-5.128 5.141,0 0,5.128 5.132,0 0,10.266 -5.132,0 0,5.141 5.132,0 0,-5.141 10.263,0 0,5.141 5.141,0 0,5.134 5.121,0 0,-5.134 5.125,0 0,-5.141 10.265,0 0,5.141 5.135,0 0,-5.141 -5.135,0 0,-10.266 5.135,0 0,-5.128 5.145,0 0,-5.122 -5.145,0 0,-5.127 -5.135,0 0,-10.278 5.135,0 0,-5.14 -5.135,0 0,5.14 -10.265,0 0,-5.14 -5.125,0 0,-5.122 -5.121,0 0,5.122 -5.141,0 0,5.14 -10.263,0 0,-5.14 -5.132,0 0,5.14 5.132,0 0,10.278 -5.132,0 0,5.127 -5.141,0 0,5.122 z"
         style="fill:#c92327;fill-opacity:1;fill-rule:nonzero;stroke:none"
         id="path11130" />
    </g>
    <g
       id="g11132"
       transform="translate(113.9551,56.666)">
      <path
         d="m 0,0 0,5.128 -5.141,0 0,5.132 -5.13,0 0,-5.132 -5.142,0 0,5.132 -5.125,0 0,-5.132 -5.127,0 0,-10.25 5.127,0 0,-5.127 5.125,0 0,-5.14 5.142,0 0,5.14 5.13,0 0,5.127 5.141,0 L 0,0 Z m -41.062,0 5.146,0 0,5.128 5.129,0 0,10.266 -5.129,0 0,5.141 5.129,0 0,-5.141 10.249,0 0,5.141 5.125,0 0,5.134 5.142,0 0,-5.134 5.13,0 0,-5.141 10.275,0 0,5.141 5.134,0 0,-5.141 -5.134,0 0,-10.266 5.134,0 0,-5.128 5.13,0 0,-5.122 -5.13,0 0,-5.127 -5.134,0 0,-10.278 5.134,0 0,-5.14 -5.134,0 0,5.14 -10.275,0 0,-5.14 -5.13,0 0,-5.122 -5.142,0 0,5.122 -5.125,0 0,5.14 -10.249,0 0,-5.14 -5.129,0 0,5.14 5.129,0 0,10.278 -5.129,0 0,5.127 -5.146,0 0,5.122 z"
         style="fill:#c92327;fill-opacity:1;fill-rule:nonzero;stroke:none"
         id="path11134" />
    </g>
    <g
       id="g11136"
       transform="translate(147.3203,61.7939)">
      <path
         d="m 0,0 10.254,0 0,5.132 5.133,0 0,-5.132 10.273,0 0,-5.128 -5.134,0 0,-15.389 -5.139,0 0,5.14 -5.133,0 0,-5.14 -5.13,0 0,15.389 L 0,-5.128 0,0 Z m 41.065,-5.128 -5.133,0 0,5.128 -5.131,0 0,10.266 5.131,0 0,5.141 -5.131,0 0,-5.141 -10.275,0 0,5.141 -5.139,0 0,5.134 -5.133,0 0,-5.134 -5.13,0 0,-5.141 -10.259,0 0,5.141 -5.134,0 0,-5.141 5.134,0 0,-10.266 -5.134,0 0,-5.128 -5.128,0 0,-5.122 5.128,0 0,-5.127 5.134,0 0,-10.278 -5.134,0 0,-5.14 5.134,0 0,5.14 10.259,0 0,-5.14 5.13,0 0,-5.122 5.133,0 0,5.122 5.139,0 0,5.14 10.275,0 0,-5.14 5.131,0 0,5.14 -5.131,0 0,10.278 5.131,0 0,5.127 5.133,0 0,5.122 z"
         style="fill:#c92327;fill-opacity:1;fill-rule:nonzero;stroke:none"
         id="path11138" />
    </g>
    <g
       id="g11140"
       transform="translate(386.5996,48.0439)">
      <path
         d="M 0,0 0,7.147 6.184,0 8.713,0 2.197,7.372 l 5.527,6.756 -2.011,0 L 0,7.171 l 0,6.957 -1.872,0 L -1.872,0 0,0 Z"
         style="fill:#000000;fill-opacity:1;fill-rule:nonzero;stroke:none"
         id="path11142" />
    </g>
    <g
       id="g11144">
      <g
         id="g11146"
         clip-path="url(#clipPath11148)">
        <g
           id="g11152"
           transform="translate(406.3936,48.0439)">
          <path
             d="m 0,0 0,10.343 -1.89,0 0,-6.701 C -2.907,2.135 -3.989,1.373 -5.134,1.373 c -0.519,0 -0.9,0.179 -1.122,0.502 -0.245,0.312 -0.354,0.879 -0.354,1.658 l 0,6.81 -1.872,0 0,-7.43 c 0,-0.958 0.262,-1.748 0.795,-2.293 0.545,-0.559 1.261,-0.865 2.169,-0.865 1.416,0 2.627,0.729 3.628,2.189 L -1.89,0 0,0 Z"
             style="fill:#000000;fill-opacity:1;fill-rule:nonzero;stroke:none"
             id="path11154" />
        </g>
        <path
           d="m 410.645,48.044 1.869,0 0,15.067 -1.869,0 0,-15.067 z"
           style="fill:#000000;fill-opacity:1;fill-rule:nonzero;stroke:none"
           id="path11156" />
        <g
           id="g11158"
           transform="translate(412.5137,48.0439)">
          <path
             d="M 0,0 -1.869,0 0,0 Z"
             style="fill:#000000;fill-opacity:1;fill-rule:nonzero;stroke:none"
             id="path11160" />
        </g>
        <g
           id="g11162"
           transform="translate(421.3848,49.3242)">
          <path
             d="m 0,0 c -0.346,-0.072 -0.646,-0.115 -0.902,-0.115 -1.162,0 -1.745,0.689 -1.745,2.026 l 0,5.75 2.705,0 0,1.402 -2.705,0 0,2.071 -1.898,-0.18 0,-1.891 -1.287,0 0,-1.402 1.287,0 0,-6.07 c 0,-0.996 0.282,-1.749 0.814,-2.303 0.536,-0.528 1.274,-0.813 2.234,-0.813 0.441,0 0.94,0.089 1.497,0.245 L 0,0 Z"
             style="fill:#000000;fill-opacity:1;fill-rule:nonzero;stroke:none"
             id="path11164" />
        </g>
        <g
           id="g11166"
           transform="translate(432.9277,48.0439)">
          <path
             d="m 0,0 0,10.343 -1.875,0 0,-6.701 C -2.896,2.135 -3.983,1.373 -5.117,1.373 c -0.53,0 -0.908,0.179 -1.13,0.502 -0.22,0.312 -0.347,0.879 -0.347,1.658 l 0,6.81 -1.875,0 0,-7.43 c 0,-0.958 0.266,-1.748 0.805,-2.293 0.525,-0.559 1.24,-0.865 2.149,-0.865 1.425,0 2.636,0.729 3.64,2.189 L -1.875,0 0,0 Z"
             style="fill:#000000;fill-opacity:1;fill-rule:nonzero;stroke:none"
             id="path11168" />
        </g>
        <g
           id="g11170"
           transform="translate(439.082,48.0439)">
          <path
             d="m 0,0 0,6.818 c 0.79,1.411 1.776,2.121 2.959,2.121 0.277,0 0.554,-0.057 0.883,-0.161 l 0,1.771 C 3.628,10.556 3.432,10.586 3.236,10.586 1.822,10.586 0.729,9.847 0,8.425 l 0,1.918 -1.897,0 L -1.897,0 0,0 Z"
             style="fill:#000000;fill-opacity:1;fill-rule:nonzero;stroke:none"
             id="path11172" />
        </g>
        <g
           id="g11174"
           transform="translate(448.2246,44.2773)">
          <path
             d="m 0,0 5.664,14.109 -1.779,0 -3.164,-7.767 -2.971,7.767 -2.033,0 L -0.263,3.772 -1.964,0 0,0 Z"
             style="fill:#000000;fill-opacity:1;fill-rule:nonzero;stroke:none"
             id="path11176" />
        </g>
        <g
           id="g11178"
           transform="translate(373.7041,49.3301)">
          <path
             d="m 0,0 c -0.337,-0.08 -0.648,-0.095 -0.908,-0.095 -1.151,0 -1.751,0.666 -1.751,2.016 l 0,5.749 2.722,0 0,1.414 -2.722,0 0,2.055 -1.88,-0.189 0,-1.866 -1.304,0 0,-1.414 1.304,0 0,-6.103 c 0,-0.953 0.265,-1.713 0.802,-2.27 0.53,-0.54 1.283,-0.811 2.226,-0.811 0.439,0 0.947,0.067 1.511,0.222 L 0,0 Z m -8.871,-1.292 0,10.376 -1.869,0 0,-6.722 c -1.018,-1.503 -2.103,-2.258 -3.253,-2.258 -0.531,0 -0.901,0.162 -1.131,0.504 -0.228,0.301 -0.338,0.863 -0.338,1.624 l 0,6.852 -1.883,0 0,-7.457 c 0,-0.961 0.272,-1.722 0.796,-2.287 0.548,-0.569 1.27,-0.854 2.175,-0.854 1.419,0 2.636,0.718 3.634,2.178 l 0,-1.956 1.869,0 z M -20.402,0 c -0.369,-0.08 -0.663,-0.095 -0.906,-0.095 -1.171,0 -1.759,0.666 -1.759,2.016 l 0,5.749 2.7,0 0,1.414 -2.7,0 0,2.055 -1.874,-0.189 0,-1.866 -1.307,0 0,-1.414 1.307,0 0,-6.103 c 0,-0.953 0.264,-1.713 0.795,-2.27 0.537,-0.54 1.281,-0.811 2.23,-0.811 0.424,0 0.926,0.067 1.514,0.222 l 0,1.292 z m -12.765,-5.038 5.667,14.122 -1.785,0 -3.155,-7.801 -2.971,7.801 -2.036,0 4.009,-10.37 -1.69,-3.752 1.961,0 z M -38.89,0 c -0.369,-0.08 -0.672,-0.095 -0.905,-0.095 -1.183,0 -1.762,0.666 -1.762,2.016 l 0,5.749 2.703,0 0,1.414 -2.703,0 0,2.055 -1.881,-0.189 0,-1.866 -1.294,0 0,-1.414 1.294,0 0,-6.103 c 0,-0.953 0.26,-1.713 0.793,-2.27 0.545,-0.54 1.281,-0.811 2.248,-0.811 0.423,0 0.925,0.067 1.507,0.222 l 0,1.292 z m -12.326,-1.514 c 1.125,0 2.042,0.297 2.763,0.868 0.704,0.597 1.067,1.353 1.067,2.254 0,0.708 -0.219,1.32 -0.637,1.791 -0.424,0.476 -1.139,0.946 -2.172,1.346 l -0.906,0.401 c -0.922,0.403 -1.381,0.874 -1.381,1.414 0,0.404 0.175,0.747 0.502,0.975 0.32,0.229 0.764,0.355 1.306,0.355 0.614,0 1.459,-0.144 2.515,-0.472 l 0,1.563 -0.392,0.099 c -0.868,0.147 -1.581,0.22 -2.146,0.22 -1.118,0 -1.985,-0.251 -2.636,-0.777 -0.646,-0.508 -0.957,-1.216 -0.957,-2.123 0,-1.257 0.812,-2.245 2.422,-2.906 l 1.107,-0.467 c 1.004,-0.414 1.506,-0.949 1.506,-1.608 0,-0.427 -0.187,-0.805 -0.539,-1.102 -0.355,-0.282 -0.805,-0.412 -1.352,-0.412 -0.907,0 -1.962,0.303 -3.208,0.903 l 0,-1.719 c 1.246,-0.406 2.273,-0.603 3.138,-0.603 m -13.474,0.222 0,6.73 c 1.011,1.491 2.099,2.237 3.241,2.237 0.519,0 0.906,-0.147 1.125,-0.493 0.214,-0.319 0.335,-0.867 0.335,-1.633 l 0,-6.841 1.874,0 0,7.453 c 0,0.964 -0.265,1.713 -0.796,2.297 -0.527,0.574 -1.237,0.842 -2.137,0.842 -1.439,0 -2.653,-0.715 -3.642,-2.164 l 0,1.948 -1.893,0 0,-10.376 1.893,0 z m -6.063,0 -2.008,0 2.008,0 z m -2.008,0 2.008,0 0,14.112 -2.008,0 0,-14.112 z m -10.867,12.242 -1.881,0 1.881,0 z m -1.881,0 1.875,0 0,1.871 -1.875,0 0,-1.871 z m 1.881,-12.242 -1.881,0 1.881,0 z m -1.881,0 1.875,0 0,10.376 -1.875,0 0,-10.376 z m -10.024,0 0,5.332 4.859,-5.332 2.423,0 -5.067,5.538 4.205,4.838 -2.033,0 -4.387,-5.042 0,9.739 -1.881,0 0,-15.073 1.881,0 z m -9.581,-0.222 c 1.11,0 2.033,0.297 2.748,0.868 0.729,0.597 1.085,1.353 1.085,2.254 0,0.708 -0.208,1.32 -0.632,1.791 -0.433,0.476 -1.165,0.946 -2.175,1.346 l -0.92,0.401 c -0.909,0.403 -1.352,0.874 -1.352,1.414 0,0.404 0.143,0.747 0.466,0.975 0.346,0.229 0.777,0.355 1.316,0.355 0.645,0 1.465,-0.144 2.515,-0.472 l 0,1.563 -0.393,0.099 c -0.848,0.147 -1.557,0.22 -2.151,0.22 -1.108,0 -1.979,-0.251 -2.624,-0.777 -0.623,-0.508 -0.947,-1.216 -0.947,-2.123 0,-1.257 0.814,-2.245 2.441,-2.906 l 1.078,-0.467 c 1.004,-0.414 1.5,-0.949 1.5,-1.608 0,-0.427 -0.167,-0.805 -0.536,-1.102 -0.353,-0.282 -0.802,-0.412 -1.333,-0.412 -0.911,0 -1.993,0.303 -3.219,0.903 l 0,-1.719 c 1.226,-0.406 2.278,-0.603 3.133,-0.603 m -9.36,0.222 0,6.841 c 0.811,1.413 1.797,2.118 2.996,2.118 0.243,0 0.526,-0.068 0.852,-0.175 l 0,1.777 c -0.211,0.009 -0.416,0.031 -0.598,0.031 -1.419,0 -2.485,-0.715 -3.25,-2.164 l 0,1.948 -1.848,0 0,-10.376 1.848,0 z m -9.641,9.182 c 1.43,0 2.157,-0.961 2.157,-2.887 l -4.568,0 c 0.155,1.926 0.957,2.887 2.411,2.887 m 3.982,-7.339 c -1.138,-0.439 -2.094,-0.646 -2.857,-0.646 -2.153,0 -3.352,1.214 -3.632,3.688 l 6.536,0 0.009,0.568 c 0,1.645 -0.347,2.901 -1.027,3.814 -0.675,0.894 -1.656,1.325 -2.89,1.325 -1.327,0 -2.423,-0.51 -3.271,-1.501 -0.847,-1.017 -1.275,-2.296 -1.275,-3.858 0,-1.625 0.485,-2.922 1.442,-3.941 0.966,-1.009 2.201,-1.514 3.739,-1.514 0.893,0 1.987,0.191 3.226,0.563 l 0,1.502 z m -11.824,10.399 -1.901,0 1.901,0 z m -1.901,0 1.901,0 0,1.871 -1.901,0 0,-1.871 z m 1.901,-12.242 -1.901,0 1.901,0 z m -1.901,0 1.901,0 0,10.376 -1.901,0 0,-10.376 z m -9.086,1.906 c -1.597,0 -2.399,1.108 -2.399,3.368 0,1.215 0.242,2.179 0.729,2.879 0.484,0.707 1.175,1.029 2.059,1.029 0.949,0 1.859,-0.427 2.682,-1.276 l 0,-4.298 c -0.953,-1.145 -1.967,-1.702 -3.071,-1.702 m -0.084,-5.897 c 1.725,0 3.02,0.443 3.83,1.314 0.469,0.486 0.788,1.143 0.958,1.905 0.161,0.778 0.252,1.969 0.252,3.585 l 0,7.563 -1.885,0 0,-1.194 c -0.84,0.939 -1.831,1.41 -2.981,1.41 -1.323,0 -2.414,-0.486 -3.227,-1.469 -0.854,-1.004 -1.279,-2.282 -1.279,-3.876 0,-1.525 0.385,-2.743 1.109,-3.649 0.731,-0.914 1.725,-1.362 2.994,-1.362 0.725,0 1.417,0.208 2.008,0.583 0.607,0.378 1.053,0.923 1.376,1.586 l 0,-1.603 c 0,-2.244 -1.054,-3.386 -3.158,-3.386 -1.066,0 -2.147,0.242 -3.238,0.753 l -0.213,-1.606 c 1.103,-0.358 2.254,-0.554 3.454,-0.554 m -11.651,1.978 c 0,-0.426 0.155,-0.813 0.533,-1.088 0.349,-0.291 0.814,-0.435 1.42,-0.435 0.489,0 0.926,0.099 1.301,0.277 l 0,0.784 c -0.206,-0.091 -0.509,-0.155 -0.884,-0.155 -0.712,0 -1.075,0.306 -1.075,0.951 0,0.641 0.414,1.195 1.235,1.679 l -1.044,0 c -0.994,-0.53 -1.486,-1.223 -1.486,-2.013 m 0.36,11.195 c 1.45,0 2.181,-0.961 2.181,-2.887 l -4.587,0 c 0.179,1.926 0.985,2.887 2.406,2.887 m 4.022,-7.339 c -1.145,-0.439 -2.113,-0.646 -2.908,-0.646 -2.127,0 -3.331,1.214 -3.596,3.688 l 6.522,0 0.016,0.568 c 0,1.645 -0.336,2.901 -1.038,3.814 -0.668,0.894 -1.637,1.325 -2.896,1.325 -1.326,0 -2.394,-0.51 -3.256,-1.501 -0.845,-1.017 -1.266,-2.296 -1.266,-3.858 0,-1.625 0.466,-2.922 1.441,-3.941 0.953,-1.009 2.204,-1.514 3.743,-1.514 0.895,0 1.964,0.191 3.238,0.563 l 0,1.502 z m -21.059,-1.843 2.606,10.875 2.503,-10.875 2.002,0 3.957,14.112 -1.641,0 -3.111,-10.994 -2.516,10.994 -1.917,0 -2.679,-11.121 -2.866,11.121 -1.942,0 3.641,-14.112 1.963,0 z"
             style="fill:#000000;fill-opacity:1;fill-rule:nonzero;stroke:none"
             id="path11180" />
        </g>
        <g
           id="g11182"
           transform="translate(355.5059,72.1812)">
          <path
             d="m 0,0 c -0.97,0 -1.506,0.828 -1.506,1.729 l 0,2.606 c 0,0.92 0.536,1.733 1.506,1.733 l 0.709,0 c 0.964,0 1.509,-0.813 1.509,-1.733 l 0,-2.606 C 2.218,0.828 1.673,0 0.709,0 L 0,0 Z m -0.199,7.334 c -1.543,0 -2.743,-1.266 -2.743,-2.804 l 0,-2.965 c 0,-1.538 1.2,-2.802 2.743,-2.802 l 1.104,0 c 1.54,0 2.741,1.264 2.741,2.802 l 0,2.965 c 0,1.538 -1.201,2.804 -2.741,2.804 l -1.104,0 z M -9.12,-3.272 c -0.854,0 -1.183,0.564 -1.183,1.005 l 0,0.19 c 0,0.558 0.301,0.942 0.981,0.986 l 2.394,0 c 0.646,0 1.114,-0.446 1.114,-0.958 l 0,-0.136 c 0,-0.618 -0.411,-1.087 -1.543,-1.087 l -1.763,0 z m 0.525,9.453 0.693,0 c 0.824,0 1.332,-0.622 1.332,-1.448 l 0,-0.598 c 0,-0.84 -0.491,-1.454 -1.332,-1.454 l -0.693,0 c -0.756,0 -1.327,0.562 -1.327,1.454 l 0,0.598 c 0,0.826 0.508,1.448 1.327,1.448 m 4.288,-0.176 0,1.185 -1.041,0 c -0.334,0 -0.666,-0.089 -0.945,-0.255 -0.361,0.255 -0.803,0.399 -1.281,0.399 l -1.263,0 c -1.466,0 -2.464,-1.128 -2.464,-2.471 l 0,-0.885 c 0,-0.676 0.243,-1.263 0.641,-1.689 C -10.908,1.964 -10.957,1.448 -10.957,1 l 0,-0.296 c 0,-0.371 0.147,-0.724 0.326,-0.974 -0.635,-0.284 -1.07,-0.908 -1.07,-1.733 l 0,-0.522 c 0,-0.859 0.744,-1.97 2.402,-1.97 l 2.088,0 c 1.939,0 2.807,0.917 2.807,2.254 l 0,0.26 c 0,1.195 -0.932,2.131 -2.267,2.131 l -2.108,0 c -0.436,0 -0.938,0.183 -0.938,0.799 l 0,0.107 c 0,0.178 0,0.375 0.072,0.597 0.231,-0.083 0.497,-0.124 0.773,-0.124 l 1.252,0 c 1.448,0 2.445,1.132 2.445,2.474 l 0,0.86 c 0,0.392 -0.097,0.786 -0.264,1.113 0.091,0.009 0.199,0.029 0.296,0.029 l 0.836,0 z M -18.303,4.478 c 0,0.92 0.525,1.671 1.5,1.671 l 0.686,0 c 0.97,0 1.482,-0.751 1.482,-1.671 l 0,-0.116 -3.668,0 0,0.116 z m 3.652,-2.412 0,-0.395 c 0,-0.915 -0.517,-1.746 -1.483,-1.746 l -0.62,0 c -0.973,0 -1.549,0.831 -1.549,1.728 l 0,1.618 5.035,0 0,1.286 c 0,1.546 -1.176,2.777 -2.711,2.777 l -0.876,0 c -1.557,0 -2.809,-1.258 -2.809,-2.777 l 0,-2.992 c 0,-1.591 1.165,-2.802 2.705,-2.802 l 0.98,0 c 1.535,0 2.711,1.211 2.711,2.831 l 0,0.472 -1.383,0 z m -8.791,6.154 1.442,0 0,1.376 -1.442,0 0,-1.376 z m 0,-9.355 1.442,0 0,8.348 -1.442,0 0,-8.348 z m -8.621,2.116 c 0,-1.211 1.064,-2.218 2.576,-2.218 l 1.298,0 c 1.43,0 2.56,0.998 2.56,2.282 l 0,0.403 c 0,1.388 -1.168,2.261 -2.89,2.261 l -0.311,0 c -1.171,0 -1.647,0.506 -1.647,1.213 l 0,0.085 c 0,0.642 0.458,1.123 1.381,1.123 l 0.502,0 c 0.895,0 1.397,-0.526 1.397,-1.208 l 0,-0.442 1.404,0 0,0.586 c 0,1.205 -1.035,2.268 -2.559,2.268 l -0.942,0 c -1.555,0 -2.61,-1.063 -2.61,-2.33 l 0,-0.306 c 0,-1.371 1.087,-2.275 2.898,-2.275 l 0.291,0 c 1.088,0 1.624,-0.475 1.624,-1.226 l 0,-0.128 c 0,-0.622 -0.505,-1.113 -1.41,-1.113 l -0.669,0 c -0.976,0 -1.488,0.546 -1.488,1.25 l 0,0.461 -1.405,0 0,-0.686 z m -8.217,0 c 0,-1.211 1.073,-2.218 2.579,-2.218 l 1.295,0 c 1.427,0 2.563,0.998 2.563,2.282 l 0,0.403 c 0,1.388 -1.171,2.261 -2.884,2.261 l -0.317,0 c -1.171,0 -1.644,0.506 -1.644,1.213 l 0,0.085 c 0,0.642 0.461,1.123 1.378,1.123 l 0.497,0 c 0.9,0 1.396,-0.526 1.396,-1.208 l 0,-0.442 1.413,0 0,0.586 c 0,1.205 -1.033,2.268 -2.567,2.268 l -0.929,0 c -1.568,0 -2.613,-1.063 -2.613,-2.33 l 0,-0.306 c 0,-1.371 1.079,-2.275 2.89,-2.275 l 0.294,0 c 1.085,0 1.621,-0.475 1.621,-1.226 l 0,-0.128 c 0,-0.622 -0.505,-1.113 -1.41,-1.113 l -0.673,0 c -0.971,0 -1.479,0.546 -1.479,1.25 l 0,0.461 -1.41,0 0,-0.686 z m -5.982,-1.096 c -0.605,0 -1.147,0.265 -1.147,1.009 0,0.671 0.427,1.054 1.181,1.054 l 2.302,0 0,-0.464 c -0.052,-1.233 -1.107,-1.599 -1.681,-1.599 l -0.655,0 z m 4.731,0.142 -0.194,0 c -0.522,0 -0.779,0.2 -0.779,0.848 l 0,3.988 c 0,1.361 -1.035,2.471 -2.494,2.471 l -0.895,0 c -1.516,0 -2.622,-1.166 -2.622,-2.553 l 0,-0.6 1.365,0 0,0.376 c 0,0.752 0.45,1.511 1.396,1.511 l 0.502,0 c 0.813,0 1.326,-0.714 1.326,-1.486 l 0,-1.506 -2.647,0 c -1.396,0 -2.296,-0.776 -2.296,-2.182 0,-1.401 1.018,-2.1 2.229,-2.1 l 0.851,0 c 0.791,0 1.569,0.272 2.048,0.812 0.225,-0.447 0.68,-0.741 1.46,-0.741 l 0.75,0 0,1.162 z m -10.891,-1.162 1.444,0 0,11.554 -1.444,0 0,-11.554 z m -6.359,1.02 c -0.601,0 -1.146,0.265 -1.146,1.009 0,0.671 0.427,1.054 1.189,1.054 l 2.293,0 0,-0.464 c -0.049,-1.233 -1.1,-1.599 -1.667,-1.599 l -0.669,0 z m 4.738,0.142 -0.208,0 c -0.519,0 -0.767,0.2 -0.767,0.848 l 0,3.988 c 0,1.361 -1.033,2.471 -2.495,2.471 l -0.902,0 c -1.512,0 -2.607,-1.166 -2.607,-2.553 l 0,-0.6 1.361,0 0,0.376 c 0,0.752 0.438,1.511 1.395,1.511 l 0.488,0 c 0.828,0 1.333,-0.714 1.333,-1.486 l 0,-1.506 -2.649,0 c -1.398,0 -2.298,-0.776 -2.298,-2.182 0,-1.401 1.015,-2.1 2.236,-2.1 l 0.85,0 c 0.793,0 1.564,0.272 2.036,0.812 0.24,-0.447 0.699,-0.741 1.471,-0.741 l 0.756,0 0,1.162 z m -14.706,0.142 0,3.877 2.345,0 c 1.069,0 1.776,-0.775 1.776,-1.701 l 0,-0.502 c 0,-0.922 -0.726,-1.674 -1.643,-1.674 l -2.478,0 z m 0,5.08 0,3.876 2.163,0 c 0.94,0 1.698,-0.768 1.698,-1.689 l 0,-0.513 c 0,-0.918 -0.758,-1.674 -1.678,-1.674 l -2.183,0 z m -1.416,-6.384 4.136,0 c 1.621,0 2.907,1.304 2.907,2.933 l 0,0.463 c 0,1.052 -0.617,2.074 -1.569,2.465 0.701,0.421 1.252,1.404 1.252,2.32 l 0,0.44 c 0,1.621 -1.316,2.933 -2.948,2.933 l -3.778,0 0,-11.554 z m -7.735,0 1.428,0 0,1.664 -1.428,0 0,-1.664 z m -11.499,7.019 0,-0.117 0,0.525 0,-0.408 z m 6.665,0.121 c 0.796,0 1.171,-0.651 1.171,-1.395 l 0,-5.745 1.433,0 0,6.273 c 0,1.178 -0.909,2.196 -2.102,2.196 l -0.612,0 c -0.727,0 -1.597,-0.211 -2.223,-1.042 -0.375,0.643 -1.025,1.042 -1.803,1.042 l -0.595,0 c -0.639,0 -1.476,-0.288 -1.934,-1.042 l 0,0.921 -1.394,0 0,-8.348 1.41,0 0,5.528 c 0.055,0.807 0.741,1.612 1.642,1.612 l 0.391,0 c 0.777,0 1.178,-0.651 1.178,-1.395 l 0,-5.745 1.419,0 0,5.47 c 0.031,0.842 0.703,1.67 1.626,1.67 l 0.393,0 z m -12.108,2.215 1.444,0 0,1.376 -1.444,0 0,-1.376 z m 0,-9.355 1.444,0 0,8.348 -1.444,0 0,-8.348 z m -12.206,7.111 1.035,0 0,-5.082 c 0,-1.133 0.907,-2.131 2.156,-2.131 l 0.919,0 c 1.235,0 2.189,0.998 2.189,2.186 l 0,0.822 -1.332,0 0,-0.565 c 0,-0.618 -0.272,-1.226 -1.134,-1.226 l -0.306,0 c -0.695,0 -1.073,0.535 -1.073,1.191 l 0,4.805 3.753,0 0,1.237 -3.753,0 0,1.428 -1.419,0 0,-1.428 -1.035,0 0,-1.237 z m -5.56,-5.921 c -0.79,0 -1.151,0.699 -1.151,1.429 l 0,5.729 -1.469,0 0,-6.232 c 0,-1.151 0.99,-2.218 2.187,-2.218 l 0.721,0 c 0.629,0 1.557,0.248 2.031,1.067 l 0,-0.965 1.378,0 0,8.348 -1.437,0 0,-5.443 c -0.04,-0.849 -0.812,-1.715 -1.724,-1.715 l -0.536,0 z m -10.748,5.921 1.034,0 0,-5.082 c 0,-1.133 0.901,-2.131 2.16,-2.131 l 0.923,0 c 1.225,0 2.183,0.998 2.183,2.186 l 0,0.822 -1.345,0 0,-0.565 c 0,-0.618 -0.273,-1.226 -1.117,-1.226 l -0.314,0 c -0.699,0 -1.084,0.535 -1.084,1.191 l 0,4.805 3.77,0 0,1.237 -3.77,0 0,1.428 -1.406,0 0,-1.428 -1.034,0 0,-1.237 z m -7.546,-10.343 1.152,0 c 1.256,0 2.098,0.481 2.548,1.861 l 0.456,1.371 2.415,8.348 -1.438,0 -1.987,-6.939 -1.994,6.939 -1.435,0 2.408,-8.348 0.633,0 -0.291,-0.868 c -0.262,-0.771 -0.619,-1.112 -1.405,-1.112 l -1.062,0 0,-1.252 z m -7.491,10.343 1.044,0 0,-5.082 c 0,-1.133 0.899,-2.131 2.141,-2.131 l 0.922,0 c 1.249,0 2.187,0.998 2.187,2.186 l 0,0.822 -1.324,0 0,-0.565 c 0,-0.618 -0.28,-1.226 -1.143,-1.226 l -0.308,0 c -0.681,0 -1.065,0.535 -1.065,1.191 l 0,4.805 3.765,0 0,1.237 -3.765,0 0,1.428 -1.41,0 0,-1.428 -1.044,0 0,-1.237 z m -7.834,-4.995 c 0,-1.211 1.074,-2.218 2.588,-2.218 l 1.292,0 c 1.43,0 2.558,0.998 2.558,2.282 l 0,0.403 c 0,1.388 -1.162,2.261 -2.886,2.261 l -0.319,0 c -1.168,0 -1.647,0.506 -1.647,1.213 l 0,0.085 c 0,0.642 0.47,1.123 1.391,1.123 l 0.484,0 c 0.926,0 1.404,-0.526 1.404,-1.208 l 0,-0.442 1.412,0 0,0.586 c 0,1.205 -1.027,2.268 -2.564,2.268 l -0.925,0 c -1.564,0 -2.62,-1.063 -2.62,-2.33 l 0,-0.306 c 0,-1.371 1.085,-2.275 2.898,-2.275 l 0.297,0 c 1.081,0 1.612,-0.475 1.612,-1.226 l 0,-0.128 c 0,-0.622 -0.502,-1.113 -1.405,-1.113 l -0.673,0 c -0.975,0 -1.482,0.546 -1.482,1.25 l 0,0.461 -1.415,0 0,-0.686 z m -4.775,5.054 c 0.793,0 1.165,-0.658 1.165,-1.4 l 0,-5.77 1.457,0 0,6.112 c 0,1.339 -0.906,2.357 -2.335,2.357 l -0.556,0 c -0.644,0 -1.562,-0.233 -2.017,-1.057 l 0,0.936 -1.421,0 0,-8.348 1.438,0 0,5.415 c 0.045,0.832 0.722,1.755 1.803,1.755 l 0.466,0 z m -7.76,-7.17 1.451,0 0,11.554 -1.451,0 0,-11.554 z"
             style="fill:#000000;fill-opacity:1;fill-rule:nonzero;stroke:none"
             id="path11184" />
        </g>
        <g
           id="g11186"
           transform="translate(201.6143,25.8418)">
          <path
             d="M 0,0 2.489,8.032 4.672,0 6.554,0 9.943,10.36 8.332,10.36 5.73,2.389 3.588,10.36 l -1.892,0 -2.452,-8.018 -2.281,8.018 -1.833,0 L -1.902,0 0,0 Z"
             style="fill:#000000;fill-opacity:1;fill-rule:nonzero;stroke:none"
             id="path11188" />
        </g>
        <g
           id="g11190"
           transform="translate(224.4839,25.8418)">
          <path
             d="M 0,0 2.616,10.861 5.082,0 l 2.003,0 3.957,14.127 -1.625,0 -3.125,-10.989 -2.498,10.989 -1.935,0 -2.659,-11.121 -2.89,11.121 -1.93,0 L -1.986,0 0,0 Z"
             style="fill:#000000;fill-opacity:1;fill-rule:nonzero;stroke:none"
             id="path11192" />
        </g>
        <g
           id="g11194"
           transform="translate(242.9902,28.1836)">
          <path
             d="m 0,0 c -0.843,-0.692 -1.65,-1.053 -2.44,-1.053 -0.448,0 -0.836,0.182 -1.154,0.496 -0.341,0.303 -0.487,0.684 -0.487,1.122 0,0.647 0.319,1.171 0.948,1.555 0.664,0.396 1.488,0.58 2.524,0.58 L 0,2.665 0,0 Z M 3.229,-1.234 2.875,-1.271 c -0.666,0 -0.995,0.539 -0.995,1.628 l 0,4.694 c 0,1.087 -0.271,1.894 -0.819,2.414 -0.542,0.542 -1.396,0.79 -2.533,0.79 -1.127,0 -2.321,-0.242 -3.588,-0.765 l 0,-1.554 C -3.905,6.55 -2.85,6.853 -1.863,6.853 -0.62,6.853 0,6.253 0,5.051 l 0,-1.273 -0.438,0 c -1.786,0 -3.144,-0.297 -4.111,-0.899 -0.937,-0.611 -1.413,-1.46 -1.413,-2.619 0,-0.817 0.285,-1.494 0.868,-2.025 0.545,-0.537 1.258,-0.807 2.123,-0.807 1.03,0 2.125,0.51 3.247,1.566 0.245,-1.056 0.796,-1.566 1.685,-1.566 0.518,0 0.975,0.094 1.413,0.302 l -0.145,1.036 z"
             style="fill:#000000;fill-opacity:1;fill-rule:nonzero;stroke:none"
             id="path11196" />
        </g>
        <g
           id="g11198"
           transform="translate(251.0937,25.8418)">
          <path
             d="m 0,0 0,6.818 c 0.803,1.422 1.777,2.123 2.977,2.123 0.259,0 0.531,-0.041 0.874,-0.15 l 0,1.765 C 3.635,10.573 3.438,10.597 3.248,10.597 1.823,10.597 0.733,9.861 0,8.445 l 0,1.915 -1.895,0 L -1.895,0 0,0 Z"
             style="fill:#000000;fill-opacity:1;fill-rule:nonzero;stroke:none"
             id="path11200" />
        </g>
        <g
           id="g11202"
           transform="translate(260.4355,25.6113)">
          <path
             d="M 0,0 C 1.113,0 2.045,0.303 2.761,0.886 3.481,1.459 3.828,2.215 3.828,3.114 3.828,3.83 3.626,4.441 3.199,4.92 2.783,5.396 2.051,5.843 1.019,6.284 L 0.11,6.656 c -0.909,0.393 -1.35,0.874 -1.35,1.448 0,0.404 0.138,0.721 0.485,0.969 0.315,0.211 0.755,0.352 1.309,0.352 0.62,0 1.445,-0.15 2.507,-0.473 l 0,1.552 -0.39,0.087 c -0.857,0.143 -1.577,0.236 -2.149,0.236 -1.127,0 -1.984,-0.242 -2.638,-0.764 -0.638,-0.534 -0.938,-1.238 -0.938,-2.137 0,-1.273 0.796,-2.247 2.411,-2.919 L 0.459,4.534 C 1.475,4.136 1.965,3.588 1.965,2.944 1.965,2.515 1.785,2.137 1.422,1.86 1.067,1.568 0.614,1.416 0.081,1.416 c -0.917,0 -1.981,0.309 -3.216,0.902 l 0,-1.721 C -1.9,0.199 -0.845,0 0,0"
             style="fill:#000000;fill-opacity:1;fill-rule:nonzero;stroke:none"
             id="path11204" />
        </g>
        <g
           id="g11206"
           transform="translate(276.293,25.8418)">
          <path
             d="m 0,0 0,1.416 -6.538,0 6.417,7.527 0,1.417 -8.437,0 0,-1.417 6.11,0 L -8.852,1.416 -8.852,0 0,0 Z"
             style="fill:#000000;fill-opacity:1;fill-rule:nonzero;stroke:none"
             id="path11208" />
        </g>
        <g
           id="g11210"
           transform="translate(294.2061,25.8418)">
          <path
             d="M 0,0 2.486,8.032 4.695,0 6.559,0 9.95,10.36 l -1.612,0 -2.609,-7.971 -2.147,7.971 -1.877,0 -2.458,-8.018 -2.278,8.018 -1.837,0 L -1.903,0 0,0 Z"
             style="fill:#000000;fill-opacity:1;fill-rule:nonzero;stroke:none"
             id="path11212" />
        </g>
        <path
           d="m 306.654,25.842 1.88,0 0,10.36 -1.88,0 0,-10.36 z"
           style="fill:#000000;fill-opacity:1;fill-rule:nonzero;stroke:none"
           id="path11214" />
        <g
           id="g11216"
           transform="translate(308.5234,25.8418)">
          <path
             d="M 0,0 -1.869,0 0,0 Z"
             style="fill:#000000;fill-opacity:1;fill-rule:nonzero;stroke:none"
             id="path11218" />
        </g>
        <path
           d="m 306.654,38.103 1.88,0 0,1.86 -1.88,0 0,-1.86 z"
           style="fill:#000000;fill-opacity:1;fill-rule:nonzero;stroke:none"
           id="path11220" />
        <g
           id="g11222"
           transform="translate(308.5234,38.1025)">
          <path
             d="M 0,0 -1.869,0 0,0 Z"
             style="fill:#000000;fill-opacity:1;fill-rule:nonzero;stroke:none"
             id="path11224" />
        </g>
        <g
           id="g11226"
           transform="translate(313.9658,32.1406)">
          <path
             d="M 0,0 C 0.167,1.936 0.986,2.896 2.414,2.896 3.855,2.896 4.577,1.936 4.577,0 L 0,0 Z m 6.463,-0.848 c 0,1.644 -0.34,2.908 -1.026,3.796 -0.678,0.9 -1.651,1.35 -2.908,1.35 -1.321,0 -2.411,-0.496 -3.248,-1.509 -0.856,-0.995 -1.289,-2.281 -1.289,-3.867 0,-1.615 0.487,-2.937 1.456,-3.938 0.952,-1.005 2.193,-1.513 3.73,-1.513 0.897,0 1.978,0.199 3.239,0.568 l 0,1.502 C 5.274,-4.895 4.323,-5.104 3.532,-5.104 c -2.134,0 -3.34,1.231 -3.622,3.691 l 6.553,0 0,0.565 z"
             style="fill:#000000;fill-opacity:1;fill-rule:nonzero;stroke:none"
             id="path11228" />
        </g>
        <g
           id="g11230"
           transform="translate(284.8965,28.1836)">
          <path
             d="m 0,0 c -0.843,-0.692 -1.661,-1.053 -2.44,-1.053 -0.47,0 -0.842,0.182 -1.168,0.496 -0.315,0.303 -0.476,0.684 -0.476,1.122 0,0.647 0.312,1.171 0.969,1.555 0.629,0.396 1.476,0.58 2.517,0.58 L 0,2.665 0,0 Z M 3.235,-1.234 2.866,-1.271 c -0.651,0 -0.992,0.539 -0.992,1.628 l 0,4.694 c 0,1.087 -0.273,1.894 -0.818,2.414 -0.54,0.542 -1.403,0.79 -2.556,0.79 -1.113,0 -2.313,-0.242 -3.564,-0.765 l 0,-1.554 C -3.911,6.55 -2.847,6.853 -1.887,6.853 -0.626,6.853 0,6.253 0,5.051 l 0,-1.273 -0.444,0 c -1.771,0 -3.144,-0.297 -4.09,-0.899 -0.96,-0.611 -1.428,-1.46 -1.428,-2.619 0,-0.817 0.28,-1.494 0.84,-2.025 0.588,-0.537 1.292,-0.807 2.143,-0.807 1.055,0 2.131,0.51 3.252,1.566 0.246,-1.056 0.797,-1.566 1.673,-1.566 0.526,0 0.99,0.094 1.419,0.302 l -0.13,1.036 z"
             style="fill:#000000;fill-opacity:1;fill-rule:nonzero;stroke:none"
             id="path11232" />
        </g>
      </g>
    </g>
  </g>
</svg>
