<?xml version="1.0" encoding="UTF-8" standalone="no"?>
<svg
   xmlns:dc="http://purl.org/dc/elements/1.1/"
   xmlns:cc="http://creativecommons.org/ns#"
   xmlns:rdf="http://www.w3.org/1999/02/22-rdf-syntax-ns#"
   xmlns:svg="http://www.w3.org/2000/svg"
   xmlns="http://www.w3.org/2000/svg"
   version="1.1"
   id="svg4354"
   viewBox="0 0 639.17186 15.003649"
   height="4.2343631mm"
   width="180.3885mm">
  <defs
     id="defs4356" />
  <metadata
     id="metadata4359">
    <rdf:RDF>
      <cc:Work
         rdf:about="">
        <dc:format>image/svg+xml</dc:format>
        <dc:type
           rdf:resource="http://purl.org/dc/dcmitype/StillImage" />
        <dc:title></dc:title>
      </cc:Work>
    </rdf:RDF>
  </metadata>
  <path
     id="path4324"
     d="m 417.16602,0 c -19.47313,0.805298 -35.93618,4.813708 -42.97657,10.293365 -17.72784,5.592269 6.9442,-4.727748 -9.77734,-2.504886 -3.01178,6.112101 -33.52468,-0.107712 -30.73633,2.668608 C 328.52719,13.484452 302.23023,11.076552 294.5,8.042333 274.28992,11.974289 251.60925,5.099092 231.4961,7.702909 212.21101,7.11776 192.60836,5.818616 174.00391,4.16321 159.46355,-1.208718 133.3661,10.318168 133.99414,1.625238 125.49949,5.098367 114.8686,5.424408 104.79883,5.19517 92.03957,1.847419 86.73689,8.015135 82.42969,2.755317 83.5646,6.854703 70.83923,2.803302 62.63086,3.121553 55.60289,6.309074 50.0699,10.099748 33.20313,7.787909 19.09534,8.452152 34.7255,10.781107 19.76172,9.199794 24.24601,13.475698 6.54407,14.28092 0,10.037799 l 0,4.96585 639.17188,0 0,-1.15233 c -1.17962,-0.454379 -3.42701,-0.511757 -7.53321,0.114663 -13.57944,-6.939966 -34.34378,0.998593 -52.84961,-2.62183 -15.94553,-1.738548 6.60699,2.005405 -1.83789,2.077042 -18.60001,-0.678701 -36.46449,-5.425208 -45.88867,-6.469008 1.53751,2.846616 -11.71428,3.572747 -20.27734,1.794664 -1.04881,1.502887 -13.44714,0.68586 -19.28516,1.183132 -8.2223,5.877659 -1.25257,-3.560965 -5.86133,-2.501463 -1.39503,-2.266044 11.70563,-2.53902 -1.95312,-3.411347 -4.42088,3.902524 -10.15676,0.858616 -17.17774,-2.380526 -2.30699,6.337914 -4.84219,-1.956129 -14.59375,0.266974 -18.79609,-4.074559 3.77201,4.407265 -12.67578,3.864292 C 439.65552,1.778002 429.61778,1.856862 417.16602,0 Z m -29.52344,0.882499 c -1.35569,0.02418 -2.21609,0.543897 -0.97461,2.029695 9.33609,0.262821 3.95712,-2.082884 0.97461,-2.029695 z M 410.04102,2.4718 c 4.61844,-0.04706 9.28534,0.729119 5.57812,2.841456 l -3.41992,0.403315 -1.82812,-0.07017 C 398.24505,3.954004 404.10302,2.532296 410.04102,2.471796 Z m 14.85742,0.01539 C 425.18125,2.50568 425.54751,2.599569 426,2.814633 424.03921,3.746574 423.67295,2.4071 424.89844,2.48719 Z M 103.77149,2.5431 c -0.56054,0.02217 -1.03263,0.200846 -1.10352,0.661162 5.25352,0.615797 2.78512,-0.727653 1.10352,-0.661162 z m 10.67578,0.254994 c -0.8505,-0.01209 -1.53478,0.252385 -1.38477,1.060484 6.81607,0.808177 3.55826,-1.029595 1.38477,-1.060484 z m 59.69922,3.313799 c 3.31273,0.06382 5.48916,0.893601 2.27343,3.243629 L 174.6543,9.048615 172.32617,8.870634 C 157.35235,8.659206 167.82218,5.99006 174.14649,6.111893 Z m 7.08984,1.086155 c 0.33102,5.84e-4 0.83638,0.10623 1.56445,0.383918 -1.16109,1.576791 -2.99889,-0.386664 -1.56445,-0.383918 z M 47.11328,7.409686 C 46.86477,7.399201 46.4927,7.534399 46,7.943635 47.49885,8.781008 47.85882,7.441169 47.11328,7.409686 Z m 155.04688,0.08899 c 1.56225,0.01732 3.28535,0.609639 4.38281,2.305796 -11.30844,1.360857 -8.37524,-2.350051 -4.38281,-2.305796 z m 125.77344,0.11067 c -0.23263,-0.01197 -0.54228,0.0271 -0.9336,0.153453 1.5037,0.914596 1.94166,-0.101566 0.9336,-0.153453 z m -24.83008,0.135199 c -0.28281,0.01849 -0.65103,0.112378 -1.10352,0.327442 1.96079,0.931942 2.32901,-0.407532 1.10352,-0.327442 z m 301.50586,0.846562 c -0.46875,-0.03649 -0.93536,0.121042 -1.01172,0.694817 3.08412,0.40517 2.04296,-0.614529 1.01172,-0.694817 z M 240.19922,9.542063 c 0.3937,0.01273 0.92935,0.146507 1.625,0.477472 -2.35404,1.686842 -3.33104,-0.532625 -1.625,-0.477472 z m -6.35352,0.15288 c 0.45917,-0.01621 1.16952,0.12559 2.1543,0.567608 -2.63539,0.951221 -3.5318,-0.518986 -2.1543,-0.567608 z m 44.14454,0.551637 c 0.49292,-0.0058 1.21024,0.02366 2.21093,0.103824 1.87241,1.712515 -5.66137,-0.0629 -2.21093,-0.103824 z m 236.95507,0.215061 c 0.29511,-0.0065 0.66629,0.133893 1.05469,0.548783 -2.13391,0.809296 -1.94001,-0.529252 -1.05469,-0.548783 z m 17.83008,0.2704 c 1.58684,-0.02801 2.95565,0.346638 1.64453,1.54423 -7.53983,-0.332916 -4.28925,-1.497533 -1.64453,-1.54423 z m 103.86133,0.0046 c -0.73542,0.01723 -1.47466,0.194715 -1.91016,0.662874 6.27612,0.677249 4.11641,-0.714574 1.91016,-0.662874 z M 25.25391,11.346418 c 0.1567,0.0036 0.12776,0.106029 -0.23438,0.370229 -4.58901,1.45178 -0.44468,-0.385893 0.23438,-0.370229 z m 584.375,1.39135 c 0.28207,0.01069 0.58561,0.09504 0.87109,0.299491 -2.90344,0.996525 -2.09341,-0.34582 -0.87109,-0.299491 z"
     style="fill:#000000;fill-opacity:1" />
</svg>
