<?xml version="1.0" encoding="UTF-8" standalone="no"?>
<svg
   xmlns:dc="http://purl.org/dc/elements/1.1/"
   xmlns:cc="http://creativecommons.org/ns#"
   xmlns:rdf="http://www.w3.org/1999/02/22-rdf-syntax-ns#"
   xmlns:svg="http://www.w3.org/2000/svg"
   xmlns="http://www.w3.org/2000/svg"
   id="svg1130"
   version="1.1"
   viewBox="0 0 159.48312 99.466698"
   height="99.466698mm"
   width="159.48312mm">
  <defs
     id="defs1124" />
  <metadata
     id="metadata1127">
    <rdf:RDF>
      <cc:Work
         rdf:about="">
        <dc:format>image/svg+xml</dc:format>
        <dc:type
           rdf:resource="http://purl.org/dc/dcmitype/StillImage" />
        <dc:title></dc:title>
      </cc:Work>
    </rdf:RDF>
  </metadata>
  <path
     id="path1343"
     d="m 5.462887,64.368424 c 0.48347,0.714793 2.43433,1.684276 0.36929,2.559893 1.17198,1.09996 2.09266,2.447435 3.17248,3.346443 -0.21975,1.496385 0.75919,2.444051 2.14847,2.997528 1.70238,-0.14902 1.52454,2.667507 2.88427,2.578793 0.58416,0.854365 2.5716,0.452265 3.09027,1.98915 0.22497,1.598812 0.64647,3.269879 2.40291,3.693134 0.54845,1.028585 2.7143,1.611728 3.98357,2.588077 0.94677,1.082067 1.70126,2.135993 1.48181,3.098374 1.33236,0.163783 1.91012,1.963098 1.61343,2.640849 1.0979,0.982223 2.09118,1.142956 1.96319,2.362488 1.4161,0.407336 1.53813,-0.08031 2.76281,-0.01002 1.70183,0.04295 3.62052,0.349517 4.03875,2.236404 0.30898,1.883642 2.17232,1.509678 3.3749,2.30827 1.73184,-0.06516 1.49219,2.357482 3.28005,0.831551 1.68582,-0.586284 3.27806,1.574273 5.01283,0.478068 1.20064,-0.652513 2.88439,0.618527 4.35037,0.750948 1.66423,-0.903412 2.66666,1.347996 3.6736,0.269259 0.70287,-1.245601 2.2417,-1.145137 3.38074,-2.123418 0.90543,-1.382227 1.61131,-2.123095 2.08149,-3.53073 1.79779,0.151237 2.9304,2.242345 4.01374,0.298804 0.96059,-1.462617 4.17529,0.157866 3.84935,-1.266707 2.1556,-0.868065 1.52521,-1.173468 2.59292,-3.308478 1.11199,1.154859 2.12143,2.008701 4.19006,1.505815 0.39437,0.0531 1.61987,-2.441913 3.47211,-1.7387 0.75515,-1.596807 2.69507,-2.018245 2.37524,-3.49943 1.03419,-1.210995 2.50375,-0.967156 3.83373,-1.160836 1.15237,-0.400198 2.09146,1.494921 3.3596,1.653175 1.63237,-0.534739 2.76375,-2.190059 4.77282,-1.708596 0.78642,2.649853 1.90768,-0.950351 3.35438,1.143747 1.28873,-1.287371 2.66488,2.453845 3.44856,-0.313246 1.282393,-1.143212 3.151613,0.982515 4.593333,-0.319121 0.27452,-2.288616 2.3488,0.162847 3.39444,0.589765 0.87367,0.838538 2.55434,-1.380009 2.89973,-2.358569 -0.0884,-1.182143 1.02881,-3.650016 3.17781,-2.57098 1.29011,0.633545 2.69314,-6.08e-4 4.15275,1.010942 1.65648,-0.363873 1.23301,-2.643826 3.12177,-2.124955 0.16276,-1.162131 -0.0653,-4.337773 2.11986,-3.697205 2.26118,-0.973991 -0.77873,-2.371036 -0.0577,-3.949246 0.89746,-1.243129 0.0836,-3.418935 1.82367,-3.892932 1.24328,0.905083 2.76349,-1.023488 1.73029,-2.114081 1.46606,0.686597 3.33461,-1.478748 1.30607,-2.35092 0.46943,-2.013421 1.31154,-3.081366 2.60664,-4.390255 -0.89774,-1.337876 1.47556,-2.155854 1.58283,-3.104553 -0.45264,-2.039825 -0.23097,-2.421184 0.98779,-4.267067 2.20905,-0.355404 1.67974,-2.593691 3.1598,-3.750153 -0.65897,-1.521781 0.76324,-2.652494 0.61488,-4.039886 0.62027,-1.957958 2.04615,-2.318714 3.14634,-3.159586 0.44711,-1.752806 -1.62341,-3.324151 0.16869,-4.752679 0.74872,-0.0325 1.57842,-2.457983 3.08525,-2.316534 0.28231,-1.735274 1.2583,-3.079158 1.73881,-4.522777 1.02301,-0.85445 2.10531,-1.386675 3.69238,-0.879263 -0.0104,-1.845883 1.36411,-3.242691 3.03818,-1.148406 1.68908,-0.0908 3.26749,-0.118551 3.60678,-2.079614 2.50063,-0.0651 0.0921,-2.3407 2.3121,-2.58694 1.51158,-0.434688 2.42744,-2.675241 0.58143,-3.149755 1.42574,-1.61897 0.0189,-3.391328 -0.92438,-4.3301 -1.38134,-0.497424 -2.72902,1.139074 -4.21963,0.823945 -1.51382,-0.45475 -1.07963,-2.969915 -2.06962,-3.73737 -1.24588,-1.340161 -1.58986,-1.433382 -3.46611,-1.366358 -0.9519,1.053246 -2.18258,-2.3339814 -2.03948,-3.3957884 -2.26139,0.418115 -0.93871,-2.094073 -2.16226,-2.119371 -1.5012,-1.249144 -2.15089,2.27073 -3.57587,1.161067 -1.49868,-0.168467 -2.90024,0.510286 -4.14918,0.80025 -1.64002,0.321004 -1.54639,1.804097 -3.56885,0.660053 -1.44924,-0.341454 -1.7355,-2.388454 -2.99159,-3.943292 0.58417,-2.62651 -2.16578,-0.365543 -2.42131,-2.488694 -1.35132,-2.162149 -2.14731,-0.449081 -3.92382,-0.548494 -0.92153,1.541714 -1.9261,0.719817 -3.5824,1.354073 -1.75645,1.326071 -1.71109,0.747418 -3.56399,0.114255 -1.89505,0.217442 -3.11409,-0.920368 -4.76708,-1.662549 -1.95108,0.01027 -4.08009,0.561295 -5.75312,1.469744 -2.37699,-0.730419 -1.14646,1.512595 -2.47947,2.362852 -0.67647,1.235729 -1.62934,2.418704 -1.62488,3.952132 -1.00637,0.755055 -1.460903,3.9843324 -3.135673,3.0015444 -0.8557,0.730528 -3.09846,0.294108 -2.97424,1.742728 -1.53477,1.125684 -1.50849,1.769588 -3.23776,2.072165 -1.70217,1.411256 -1.65096,1.198359 -2.82864,-0.108284 -1.74216,0.48299 -1.50097,0.157702 -2.55039,-1.229853 -1.37025,0.351157 -1.94263,-0.605696 -3.19685,-1.435023 -0.93739,1.225783 -2.53236,1.172702 -2.7848,2.827432 -0.0628,2.218177 -0.89802,2.582147 -2.55747,2.941086 -1.24731,-0.596775 -2.87789,-0.271719 -3.55204,1.008804 -1.33708,-0.345852 -3.19464,-1.162398 -4.3335,-0.184724 -1.42652,-1.08219 -1.77757,0.324394 -3.54174,0.317279 -2.27717,-1.036806 -1.53898,2.14679 -3.12655,2.149992 -0.1202,1.006629 -0.61306,2.841049 0.0335,4.167156 2.02743,1.098654 1.82166,2.090191 -0.53514,1.951687 -0.99498,1.782523 -3.12918,2.181463 -4.98871,1.750524 -1.40616,0.552273 -2.76622,-0.319753 -4.34739,0.731092 -1.61126,0.443322 -3.07646,-0.05219 -4.57503,-0.120791 -1.70727,-0.693238 -3.64643,-0.562646 -5.00839,-0.04976 -1.70763,0.0024 -3.3083,0.09097 -5.06909,-0.314959 -1.41194,-0.443012 -2.28905,-3.049407 -3.69718,-2.240456 -0.43247,-1.999714 -2.71689,-1.760219 -3.10889,-3.622579 -1.05654,-1.622945 -2.34059,-2.954544 -4.39594,-3.199143 -0.50666,-1.473354 -3.92187,0.632384 -3.31541,1.788312 0.46021,1.289054 -0.89682,3.057329 -2.37095,3.144634 2.08054,1.288457 0.71114,2.44065 1.33626,4.611437 0.98661,0.743737 -4.10928,1.69975 -4.64517,0.888132 0.12923,-1.649943 -3.28378,2.74113 -3.53282,-1.018718 -0.96793,-0.809012 -2.86891,-1.945322 -4.19672,-0.747376 0.4016,1.467358 -2.22833,1.620204 -2.37383,2.133794 -0.86615,1.450274 2.53047,0.962223 3.31541,2.290616 1.94722,-1.601565 1.60524,1.711251 2.38106,2.029424 0.4456,1.603205 -0.84416,2.199994 -1.41569,3.879706 -0.97078,1.146724 -2.70955,1.319753 -3.59083,1.53511 -1.16893,-1.722131 -0.70611,1.393631 -1.07985,1.67656 0.58127,0.810992 1.37972,2.388115 0.39786,3.438383 -0.75357,0.03159 -1.75878,2.434392 -0.14206,2.600124 -1.23658,2.078776 2.96474,0.160606 0.80987,2.273312 -2.39859,0.789875 2.37536,2.516593 -1.00877,2.244898 -0.71973,0.663012 2.37432,1.958717 -0.49729,1.733414 -1.389,-0.607846 -2.72718,-0.127572 -3.73673,-0.539971 0.10268,2.113393 -2.16612,1.72946 -2.50065,3.211056 -2.36960001,1.21364 -1.27834001,2.510318 0.89513,1.52027 1.42496,-0.778495 3.91139,1.536592 2.32179,2.415381 -0.68376,0.391267 0.32726,2.966719 0.8327,2.883376 z"
     style="color:#000000;display:inline;overflow:visible;visibility:visible;fill:#000000;fill-opacity:1;fill-rule:evenodd;stroke:#ffffff;stroke-width:0.16074714px;stroke-linecap:butt;stroke-linejoin:miter;stroke-miterlimit:4;stroke-dashoffset:0pt;stroke-opacity:1;marker:none" />
  <path
     style="fill:#650a32;stroke-width:1.09656107"
     id="path1095"
     d="m 82.684387,57.706179 c -4.243695,0 -7.675921,3.432209 -7.675921,7.675919 0,5.756931 7.675921,14.255278 7.675921,14.255278 0,0 7.675921,-8.498347 7.675921,-14.255278 0,-4.24371 -3.432209,-7.675919 -7.675921,-7.675919 z m 0,10.417326 c -1.513246,0 -2.741398,-1.228175 -2.741398,-2.741407 0,-1.513275 1.228152,-2.741418 2.741398,-2.741418 1.51328,0 2.741415,1.228143 2.741415,2.741418 0,1.513232 -1.228135,2.741407 -2.741415,2.741407 z" />
</svg>
