<?xml version="1.0" encoding="UTF-8" standalone="no"?>
<svg
   xmlns:dc="http://purl.org/dc/elements/1.1/"
   xmlns:cc="http://creativecommons.org/ns#"
   xmlns:rdf="http://www.w3.org/1999/02/22-rdf-syntax-ns#"
   xmlns:svg="http://www.w3.org/2000/svg"
   xmlns="http://www.w3.org/2000/svg"
   version="1.1"
   id="svg4158"
   viewBox="0 0 274.68916 275.7773"
   height="77.830482mm"
   width="77.523384mm">
  <defs
     id="defs4160" />
  <metadata
     id="metadata4163">
    <rdf:RDF>
      <cc:Work
         rdf:about="">
        <dc:format>image/svg+xml</dc:format>
        <dc:type
           rdf:resource="http://purl.org/dc/dcmitype/StillImage" />
        <dc:title></dc:title>
      </cc:Work>
    </rdf:RDF>
  </metadata>
  <path
     id="path4147"
     d="m 132.50813,267.67583 -3.72443,-8.10145 -0.31094,3.70826 c -0.17105,2.03953 -0.34051,5.57222 -0.37656,7.85041 l -0.0656,4.14215 -2.00832,0 -2.00832,0 0,-3.138 c 0,-1.72589 0.14953,-6.36711 0.33007,-10.3138 l 0.32826,-7.17578 3.28185,0.14667 3.28185,0.14666 3.79372,8.11208 3.79377,8.11208 0.4348,-7.98656 0.43475,-7.98656 2.02796,0 2.02795,0 -0.32891,6.85748 c -0.18106,3.77161 -0.32902,8.40329 -0.32902,10.29266 l 0,3.43516 -3.43021,0 -3.43022,0 -3.72443,-8.10146 z m 20.10672,7.46132 c -0.01,-0.0621 -0.89134,-4.51875 -1.95927,-9.90357 -1.06787,-5.38482 -1.79102,-9.95192 -1.60696,-10.14915 0.18406,-0.19722 1.11608,-0.42317 2.07124,-0.50208 l 1.73659,-0.14348 0.73379,3.92231 c 0.66426,3.5507 0.83205,3.89828 1.77084,3.66894 0.57037,-0.13944 2.56212,-0.53134 4.42609,-0.87108 1.86397,-0.33977 3.38106,-0.8611 3.37137,-1.15855 -0.01,-0.29746 -0.33408,-2.0094 -0.72083,-3.80434 -0.38676,-1.79493 -0.54506,-3.42489 -0.35176,-3.62212 0.19326,-0.19722 1.11693,-0.42316 2.0526,-0.50208 l 1.70115,-0.14348 1.9176,9.77963 c 1.05467,5.3788 1.75452,9.92414 1.55519,10.10073 -0.19928,0.17664 -1.08404,0.45579 -1.96604,0.62039 -1.83576,0.34257 -1.81136,0.3862 -2.69668,-4.82728 -0.46954,-2.76542 -0.73319,-3.36247 -1.40246,-3.17603 -0.45333,0.12632 -2.46225,0.5088 -4.4643,0.85009 -2.00204,0.34127 -3.64008,0.79548 -3.64008,1.00935 0,0.21384 0.34417,2.02508 0.76487,4.0249 0.42064,1.99984 0.59009,3.79221 0.37656,3.98306 -0.36974,0.3304 -3.63251,1.0807 -3.66951,0.84381 z m -48.52949,-3.41396 c -3.59137,-1.13816 -5.175483,-2.76454 -5.175483,-5.31369 0,-0.93563 0.82356,-4.99101 1.830133,-9.01195 l 1.83013,-7.31079 1.80995,0.33802 c 0.99548,0.18593 1.89519,0.42195 1.99937,0.52451 0.10419,0.10256 -0.65691,3.58547 -1.69131,7.7398 -1.52087,6.10806 -1.76187,7.69654 -1.25954,8.3018 0.85286,1.02763 3.9036,1.87489 6.02496,1.67325 l 1.75728,-0.16701 1.95672,-7.68037 1.95672,-7.6804 1.55784,0.32759 c 0.85682,0.18018 1.74307,0.50032 1.96945,0.71141 0.22636,0.21108 -0.50473,3.95375 -1.62467,8.31702 -2.45734,9.57373 -2.94594,10.28541 -7.03326,10.24424 -1.53969,-0.0161 -4.19843,-0.47155 -5.90829,-1.01343 z m 73.40839,-2.11156 c -0.23804,-0.73022 -1.26344,-16.3366 -1.26344,-19.22919 0,-1.95659 0.0762,-2.04856 2.38488,-2.87601 1.31169,-0.47013 2.54706,-0.85367 2.74528,-0.8523 0.46287,0.003 13.9489,15.56318 13.9489,16.09401 0,0.21946 -0.81,0.66658 -1.80001,0.99331 -1.67313,0.55219 -1.90123,0.497 -3.23751,-0.78322 l -1.43751,-1.37723 -3.66609,1.48014 c -3.65485,1.4756 -3.6669,1.48676 -3.91714,3.62973 -0.21678,1.85602 -0.47687,2.24412 -1.90439,2.84141 -1.27513,0.53353 -1.69904,0.55168 -1.85297,0.0795 z m 8.1703,-10.45776 c 1.11472,-0.42429 1.05487,-0.55083 -1.98321,-4.1913 -1.72294,-2.0646 -3.20715,-3.67929 -3.29822,-3.5882 -0.0911,0.0911 -0.0142,2.3182 0.17064,4.94912 l 0.33625,4.78352 1.81256,-0.75782 c 0.99688,-0.41682 2.3298,-0.95471 2.96197,-1.19532 z m -97.887695,7.57115 c -1.532985,-0.80976 -1.97262,-1.42164 -2.599433,-3.61787 -0.414925,-1.45384 -1.119864,-3.92218 -1.566536,-5.48521 -1.188737,-4.15973 -1.938016,-4.09405 -3.991214,0.34983 -0.952237,2.06099 -1.961349,3.74725 -2.242468,3.74725 -1.011096,0 -3.068776,-1.17766 -3.068776,-1.75635 0,-0.49588 7.84536,-17.74935 8.293196,-18.23836 0.121775,-0.13297 3.156545,1.25144 3.645075,1.66281 0.07665,0.0645 -0.662647,1.78682 -1.642895,3.82727 -1.671059,3.47843 -1.720649,3.71969 -0.794793,3.8667 0.543106,0.0862 3.023449,-0.78917 5.511871,-1.94533 4.435677,-2.06091 4.561336,-2.0874 6.407874,-1.3509 1.035911,0.41317 1.951961,0.9567 2.035671,1.20786 0.0837,0.25115 -2.335343,1.68399 -5.375693,3.18412 -4.663716,2.30109 -5.480664,2.87633 -5.225718,3.6796 0.776131,2.44538 3.211989,11.17409 3.211989,11.50992 0,0.57042 -0.570919,0.42951 -2.59815,-0.64134 z M 197.56005,250.84954 c -2.75667,-4.5975 -5.08523,-8.54462 -5.17449,-8.77139 -0.19557,-0.49663 2.9564,-2.48976 3.4525,-2.18317 0.19174,0.11851 2.10021,3.16124 4.24108,6.76163 2.14082,3.6004 4.09276,6.66999 4.33757,6.82131 0.24486,0.15132 2.17034,-0.77224 4.27888,-2.05236 2.97664,-1.80715 3.933,-2.17947 4.27798,-1.66541 1.43018,2.1311 1.43229,2.33893 0.0336,3.30595 -1.70371,1.17794 -9.98412,6.14253 -10.2451,6.14253 -0.10449,0 -2.44544,-3.7616 -5.20211,-8.35909 z m -136.3507,1.91175 c -3.24099,-2.05537 -6.00495,-4.59742 -6.54597,-6.02041 -0.53188,-1.39895 0.18598,-4.16508 1.3266,-5.1117 0.55696,-0.46224 1.02817,-0.36228 2.18913,0.46439 1.35172,0.96251 1.43172,1.17972 0.92697,2.51694 -0.67361,1.7846 -0.15555,2.54082 3.01247,4.39741 l 2.19996,1.28927 1.22911,-1.15469 c 0.676001,-0.63508 1.229099,-1.48025 1.229099,-1.87816 0,-0.39791 -1.581549,-2.22259 -3.514569,-4.05485 -2.72094,-2.57912 -3.51456,-3.64872 -3.51456,-4.73682 0,-1.9026 1.13854,-3.9694 3.09219,-5.61329 2.11363,-1.7785 3.900422,-1.50723 7.882068,1.19666 4.962839,3.3702 5.984268,5.40272 4.326308,8.60886 -0.920988,1.781 -1.089843,1.7992 -2.941846,0.31725 -1.24848,-0.99902 -1.369811,-1.30611 -0.878642,-2.22386 0.789847,-1.47584 0.825465,-1.40878 -1.654452,-3.11501 -2.715874,-1.86856 -4.017986,-1.92962 -5.124876,-0.24029 l -0.84529,1.29008 3.846393,3.60521 c 2.115516,1.98287 3.846301,4.00786 3.846197,4.49998 -5.03e-4,2.9389 -3.883252,7.38956 -6.44642,7.38956 -0.76476,0 -2.4027,-0.64194 -3.63987,-1.42653 z m 157.79802,-5.3321 c -0.29301,-0.64301 -2.14488,-5.0559 -4.1154,-9.80642 -3.98336,-9.60328 -3.96639,-9.08211 -0.37872,-11.63936 l 1.38007,-0.98369 9.01702,5.18004 c 4.95935,2.84902 9.0265,5.44708 9.0381,5.77346 0.0115,0.32636 -0.65898,1.07768 -1.49023,1.66956 l -1.51131,1.07617 -1.63558,-1.01085 -1.63553,-1.01083 -3.20392,2.87458 c -2.89158,2.59435 -3.14769,2.97967 -2.62704,3.95251 0.92574,1.72977 0.67706,2.88933 -0.86398,4.02867 l -1.44082,1.06526 -0.53266,-1.1691 z m 3.59611,-10.74326 1.89183,-1.93739 -3.90874,-2.30347 c -2.14981,-1.26691 -3.98366,-2.22856 -4.07524,-2.13699 -0.34754,0.34752 3.17335,8.31524 3.67443,8.31524 0.28925,0 1.3772,-0.87183 2.41772,-1.93739 z m -178.32381,2.79332 c -0.60541,-0.64443 -1.10074,-1.44981 -1.10074,-1.78973 0,-0.33993 3.0931,-3.78008 6.87356,-7.64477 l 6.87356,-7.02671 1.49303,1.49303 1.49302,1.49302 -6.91499,7.18825 c -3.80324,3.95355 -7.07287,7.24909 -7.26584,7.32343 -0.19297,0.0744 -0.84619,-0.39209 -1.4516,-1.03652 z m -9.03188,-8.82787 -1.47804,-2.04038 1.12103,-5.53332 c 1.43554,-7.08575 1.11996,-7.47018 -3.3032,-4.02365 l -3.22003,2.50907 -1.12968,-1.28846 c -0.62132,-0.70866 -1.12022,-1.55828 -1.10866,-1.88806 0.0179,-0.50826 12.68285,-10.75034 14.95795,-12.09633 0.55877,-0.33058 1.07305,-0.0625 1.92659,1.00416 0.6404,0.80031 1.16548,1.58019 1.16685,1.73306 0.002,0.15288 -1.34792,1.28255 -2.99842,2.51041 -4.30929,3.20579 -3.97235,3.68416 2.81005,3.98974 5.50612,0.24807 5.58772,0.26971 6.89809,1.82976 0.72934,0.8683 1.32606,1.71556 1.32606,1.8828 0,0.16725 -2.80898,0.30408 -6.24218,0.30408 -5.51109,0 -6.27264,0.10291 -6.50233,0.87864 -0.14308,0.48325 -0.72941,3.35137 -1.30295,6.37361 -0.57353,3.02223 -1.13285,5.58502 -1.24294,5.69511 -0.11008,0.11008 -0.86526,-0.71803 -1.67819,-1.84024 z m 200.74899,-2.49148 c -2.1838,-1.17119 -2.27779,-1.51776 -0.88397,-3.25974 1.0612,-1.32633 1.23487,-1.37799 2.57698,-0.76649 1.38454,0.63084 1.51352,0.57182 3.4026,-1.55691 2.33473,-2.6309 2.41536,-4.34633 0.25969,-5.52707 -1.39839,-0.76595 -1.41542,-0.75671 -4.35444,2.36675 -1.62283,1.72464 -3.56267,3.36841 -4.31072,3.65283 -2.67674,1.01769 -7.7467,-2.69594 -7.75293,-5.67885 -0.005,-2.4837 5.41399,-9.50834 7.79656,-10.10633 1.36175,-0.34178 4.7536,0.95806 4.7536,1.8217 0,0.27109 -0.46091,1.14014 -1.02419,1.93123 -0.90827,1.27552 -1.16378,1.37474 -2.25736,0.87648 -1.42465,-0.64912 -2.5593,0.1259 -4.29434,2.93329 -1.15368,1.86663 -0.73831,3.37713 1.0879,3.95676 0.82974,0.26333 1.79906,-0.40035 4.7168,-3.22952 4.57692,-4.43795 5.80847,-4.55457 9.65571,-0.91432 2.95435,2.79534 2.64175,4.95703 -1.46763,10.14837 -2.09011,2.6404 -4.15371,4.26689 -5.42056,4.2724 -0.41853,0.002 -1.53617,-0.41244 -2.48369,-0.92058 z m -136.584823,-11.97766 0,-5.37033 -1.66835,1.61702 c -1.619817,1.56999 -1.693145,1.58961 -2.521272,0.67454 -0.813317,-0.8987 -0.748011,-1.0392 1.406086,-3.02477 1.610016,-1.48406 2.694976,-2.08229 3.776479,-2.08229 l 1.51746,0 0,6.77808 0,6.77809 -1.2552,0 -1.255203,0 0,-5.37034 z m 20.973553,4.4917 c -1.30076,-1.4813 -1.5188,-3.03207 -0.66652,-4.74051 0.53863,-1.07971 0.63107,-1.76009 0.28602,-2.10514 -0.87536,-0.87536 -0.58074,-3.75265 0.49433,-4.82772 1.27748,-1.27747 6.21734,-1.41627 7.92155,-0.22257 1.18316,0.82871 1.55153,3.77771 0.64985,5.20226 -0.29186,0.46113 -0.18085,1.12374 0.31505,1.88059 0.97243,1.48416 0.48722,4.47231 -0.84174,5.18356 -0.52226,0.2795 -2.39798,0.50818 -4.16827,0.50818 -2.43681,0 -3.40615,-0.21345 -3.99027,-0.87864 z m 6.64091,-3.16551 c 0,-1.51649 -0.0265,-1.53203 -2.38489,-1.38072 -2.18403,0.14013 -2.39829,0.26932 -2.54377,1.53375 -0.1548,1.34546 -0.0939,1.38072 2.38486,1.38072 2.50182,0 2.5438,-0.0254 2.5438,-1.53375 z m -0.25105,-5.49538 c 0,-1.09587 -0.24743,-1.27548 -1.94898,-1.41497 -2.27655,-0.18663 -3.05577,0.38579 -2.57731,1.89331 0.29067,0.91581 0.66369,1.05816 2.43478,0.92918 1.85559,-0.13513 2.09151,-0.29389 2.09151,-1.40752 z m 19.48123,8.91193 c 0.1422,-0.34518 1.37896,-2.66103 2.74834,-5.14633 1.36937,-2.48529 2.39357,-4.68817 2.27593,-4.89528 -0.11763,-0.2071 -1.7978,-0.37656 -3.73372,-0.37656 -3.36304,0 -3.51271,-0.0503 -3.35942,-1.12968 0.15287,-1.07661 0.40221,-1.13641 5.30679,-1.27277 l 5.14632,-0.14308 0,1.28113 c 0,0.70463 -1.24455,3.76267 -2.76566,6.79566 -2.62623,5.23651 -2.84408,5.51452 -4.32141,5.51452 -1.04779,0 -1.47134,-0.20493 -1.29717,-0.6276 z m 29.97371,-0.6056 c 0,-1.1826 -0.14942,-1.23926 -3.64009,-1.38072 -3.55493,-0.14407 -3.6438,-0.17978 -3.79884,-1.52672 -0.12156,-1.05651 0.56856,-2.31934 2.94973,-5.39736 2.93712,-3.79678 3.21562,-4.01817 5.05399,-4.01817 l 1.94561,0 0,4.26768 c 0,3.45878 0.14273,4.26769 0.75312,4.26769 0.46859,0 0.75312,0.47418 0.75312,1.2552 0,0.78101 -0.28453,1.2552 -0.75312,1.2552 -0.46864,0 -0.75312,0.47418 -0.75312,1.2552 0,1.00416 -0.25104,1.2552 -1.2552,1.2552 -0.99824,0 -1.2552,-0.25252 -1.2552,-1.2332 z m 0,-6.84611 0,-3.05851 -2.25937,2.77361 c -1.24264,1.52548 -2.25936,2.90181 -2.25936,3.0585 0,0.1567 1.01672,0.28491 2.25936,0.28491 l 2.25937,0 0,-3.05851 z m 70.89543,-12.72141 c -0.91037,-0.6437 -1.7851,-1.30022 -1.94381,-1.45895 -0.3157,-0.31571 2.19821,-4.85268 2.6889,-4.85268 0.1665,0 1.27237,0.61344 2.45748,1.36319 l 2.15473,1.3632 -1.34899,2.4019 c -0.74192,1.32105 -1.57488,2.39105 -1.85102,2.37779 -0.27614,-0.0134 -1.24697,-0.55077 -2.15729,-1.19446 z M 19.52068,199.8376 c -0.32883,-0.62133 -0.92228,-1.62991 -1.31878,-2.2413 -0.68477,-1.05591 -0.60079,-1.1878 1.67565,-2.63148 l 2.39656,-1.51985 1.41281,2.1294 c 0.77705,1.17116 1.41203,2.35533 1.41109,2.63147 -0.002,0.53346 -3.60748,2.76144 -4.46899,2.76144 -0.28076,0 -0.77951,-0.50836 -1.10834,-1.12968 z m 33.19778,-1.12823 0,-2.26082 84.88052,0 84.88048,0 -0.1544,2.13385 -0.1544,2.13384 -84.7261,0.12697 -84.72612,0.12696 0,-2.26082 z m 2.51041,-6.5285 0,-2.25936 82.0902,0 82.09017,0 0,2.25936 0,2.25936 -82.09017,0 -82.0902,0 0,-2.25936 z m 3.3472,-4.10033 c -0.18411,-0.18408 -0.33472,-1.2008 -0.33472,-2.25936 l 0,-1.92464 79.07772,0 79.07769,0 0,2.25936 0,2.25936 -78.74301,0 c -43.308625,0 -78.89359,-0.15062 -79.07768,-0.33472 z M 6.70402,180.14006 c -2.49686,-7.5507 -2.51237,-8.1348 -0.2231,-8.40454 1.00763,-0.11873 1.31052,0.21627 1.99765,2.20942 0.44545,1.29216 0.9297,2.46631 1.0761,2.60923 0.1464,0.14292 3.74664,-0.85782 8.00053,-2.22386 4.25389,-1.36604 7.78805,-2.4837 7.85369,-2.4837 0.42078,0 1.22823,3.68323 0.87901,4.00967 -0.23691,0.22144 -3.70683,1.46485 -7.71092,2.76309 -4.00409,1.29824 -7.36206,2.43962 -7.46216,2.53639 -0.10009,0.0968 0.18759,1.26059 0.63928,2.58624 0.76841,2.25516 0.76587,2.45081 -0.0395,3.0397 -2.06897,1.51287 -2.50533,0.93446 -5.01059,-6.64164 z m 249.3571,2.27461 c -5.06936,-1.3776 -8.76517,-2.63124 -8.7362,-2.96334 0.34995,-4.01235 0.1422,-3.97051 8.11066,-1.63351 3.86708,1.13414 7.20597,2.06207 7.41979,2.06207 0.21384,0 -2.52661,-2.07565 -6.08973,-4.61257 -3.56317,-2.53691 -6.61948,-4.82006 -6.79179,-5.07366 -0.17236,-0.25359 -0.0866,-1.20007 0.19063,-2.10325 l 0.50399,-1.64216 6.33641,-0.62254 c 10.6783,-1.04913 10.66701,-1.03696 2.74578,-2.96512 -3.8242,-0.93087 -7.10384,-1.7769 -7.2881,-1.88007 -0.28433,-0.15922 0.42295,-3.65622 0.82778,-4.09267 0.18336,-0.19765 18.89933,4.81174 19.23615,5.14863 0.14533,0.14543 -0.0161,1.5213 -0.36064,3.05749 -0.74473,3.32783 -1.00346,3.46688 -7.31832,3.9333 -2.48529,0.18357 -5.48337,0.46744 -6.66241,0.63086 l -2.14363,0.29711 4.65404,3.26199 c 2.55974,1.7941 5.36614,3.79578 6.2365,4.44818 l 1.58246,1.18619 -0.81041,3.02455 c -0.6643,2.47943 -0.99478,3.0157 -1.83345,2.97541 -0.56274,-0.027 -4.977,-1.12363 -9.80951,-2.43688 z M 61.58856,182.05558 c -0.18411,-0.18409 -0.33473,-1.20081 -0.33473,-2.25937 l 0,-1.92464 76.06524,0 76.0652,0 0,2.25937 0,2.25936 -75.73052,0 c -41.651759,0 -75.8811,-0.15063 -76.06519,-0.33472 z m 8.535364,-7.02913 c -0.184108,-0.18408 -0.334722,-1.20081 -0.334722,-2.25936 l 0,-1.92464 10.543691,0 10.543693,0 0,2.25936 0,2.25936 -10.208969,0 c -5.614938,0 -10.359598,-0.15063 -10.543693,-0.33472 z m 37.823406,-1.92464 0,-2.25936 10.54369,0 10.54372,0 0,2.25936 0,2.25936 -10.54372,0 -10.54369,0 0,-2.25936 z m 37.65607,0 0,-2.25936 10.54369,0 10.54369,0 0,2.25936 0,2.25936 -10.54369,0 -10.54369,0 0,-2.25936 z m 38.15812,0 0,-2.25936 10.54369,0 10.54369,0 0,2.25936 0,2.25936 -10.54369,0 -10.54369,0 0,-2.25936 z M 71.797525,165.2211 c 0,-5.19623 1.387796,-50.30096 1.800547,-58.51945 l 0.308889,-6.15048 6.45374,0 6.453736,0 0.251178,1.63176 c 0.345888,2.2472 2.163245,65.74621 1.903979,66.52567 -0.156033,0.46908 -2.351137,0.6276 -8.690408,0.6276 l -8.48165,0 0,-4.1151 z m 38.172835,-1.28226 c 0.0107,-3.92533 1.8338,-62.33524 1.97455,-63.26215 0.0104,-0.069 2.93998,-0.12553 6.50998,-0.12553 l 6.4909,0 0.27168,2.63593 c 0.30436,2.954 2.0384,63.7468 1.86889,65.52151 -0.0452,0.47512 -2.13374,0.6276 -8.59534,0.6276 l -8.53537,0 0.0147,-5.39737 z m 37.65923,0 c 0.0142,-4.15316 1.82868,-62.68232 1.96163,-63.26215 0.0155,-0.069 2.94972,-0.12553 6.51972,-0.12553 l 6.49089,0 0.2763,2.63593 c 0.34382,3.28002 2.11778,64.96568 1.88797,65.65041 -0.10202,0.30396 -3.48393,0.4987 -8.66089,0.4987 l -8.49349,0 0.0182,-5.39737 z m 38.12906,1.2552 c -0.0171,-6.3039 1.51638,-57.9314 1.82681,-61.50487 l 0.27258,-3.138 6.43618,0 6.43611,0 0.29282,3.38904 c 0.51237,5.92936 2.00586,63.67859 1.66952,64.55506 -0.28378,0.7396 -1.32288,0.84093 -8.62278,0.84093 l -8.30005,0 -0.011,-4.14216 z M 1.38072,159.50592 c -0.20711,-0.20827 -0.37656,-1.24478 -0.37656,-2.30333 l 0,-1.92464 2.13384,-0.006 c 1.17362,-0.003 2.98111,-0.14557 4.01665,-0.31674 2.10776,-0.34839 2.20134,-0.71801 1.55157,-6.12899 l -0.3225,-2.68563 -3.93396,0.17864 C 0.19005,146.51266 0,146.40033 0,143.68855 c 0,-0.8298 0.27216,-1.47138 0.6276,-1.47948 0.34518,-0.008 4.79491,-0.33293 9.8883,-0.72236 5.09338,-0.38943 9.44265,-0.59559 9.66504,-0.45814 0.22241,0.13745 0.40436,1.10783 0.40436,2.1564 l 0,1.90651 -4.12075,0.34366 c -2.26642,0.18901 -4.16628,0.39094 -4.22193,0.44874 -0.0556,0.0578 0.0203,2.03726 0.16868,4.3988 l 0.26984,4.29371 4.45416,-0.21296 4.45417,-0.21296 0,2.03898 c 0,2.02279 -0.0169,2.04106 -2.13385,2.30212 -1.17361,0.14471 -4.28023,0.38928 -6.9036,0.54344 -2.62338,0.15416 -6.12539,0.40827 -7.78225,0.56471 -1.65687,0.15643 -3.18194,0.11401 -3.38905,-0.0943 z m 262.84926,-12.21773 c -6.9121,-0.28499 -7.1887,-0.33868 -8.49853,-1.64985 -1.20715,-1.20837 -1.37801,-1.81386 -1.57598,-5.5856 -0.25615,-4.88101 0.38359,-7.39025 2.26072,-8.8668 1.17437,-0.92377 2.02494,-1.01202 9.75422,-1.01202 l 8.46769,0 0,2.30671 0,2.30671 -7.8226,-0.17287 c -8.99147,-0.1987 -9.24814,-0.085 -9.24814,4.09482 0,4.02853 0.23638,4.14149 9.23989,4.41515 l 7.88191,0.23956 -0.15094,2.06586 c -0.17772,2.43021 0.51841,2.30472 -10.3081,1.85834 z M 7.63645,129.92202 c -4.64812,-0.84235 -5.93894,-1.69259 -6.6664,-4.39101 -0.45913,-1.70307 -0.41915,-2.93002 0.19753,-6.06285 1.37427,-6.9815 2.77149,-7.80127 11.26439,-6.60908 8.26095,1.15963 9.49587,2.42156 9.02942,9.22689 -0.28687,4.18544 -1.19136,6.54434 -2.99326,7.80643 -1.36684,0.95738 -5.64775,0.96909 -10.83168,0.0296 z m 8.92416,-3.76474 c 0.63665,0 1.51429,-2.94664 1.51429,-5.08416 0,-2.53019 -1.10059,-3.21037 -6.43946,-3.97967 -5.08446,-0.73263 -6.41111,-0.31387 -6.87725,2.17084 -0.56731,3.02406 -0.11511,5.06835 1.26678,5.72679 1.36252,0.64922 8.36907,1.65004 9.45507,1.35058 0.36777,-0.10141 0.85402,-0.18438 1.08057,-0.18438 z m 235.05017,-11.76085 c -0.86609,-3.45823 -1.57462,-6.61373 -1.57462,-7.01219 0,-0.5252 2.64219,-1.36267 9.60461,-3.04424 5.28258,-1.27585 9.70838,-2.21601 9.83513,-2.08926 0.3824,0.38241 3.13104,11.5202 3.1429,12.73524 0.008,0.77406 -0.30514,1.1534 -0.99318,1.205 -0.5523,0.0414 -1.27238,0.0979 -1.60007,0.12552 -0.34403,0.029 -1.06654,-1.82197 -1.70914,-4.37851 -0.61225,-2.43578 -1.22503,-4.54055 -1.36174,-4.67724 -0.3039,-0.30392 -4.36651,0.75104 -4.36651,1.13389 0,0.15047 0.46488,2.09437 1.03308,4.31981 0.56822,2.22544 0.84582,4.23353 0.6169,4.46243 -0.22883,0.22888 -0.95819,0.47914 -1.62081,0.55612 -1.11407,0.12943 -1.28306,-0.16863 -2.24867,-3.96664 -0.57421,-2.25861 -1.19066,-4.25041 -1.36993,-4.4262 -0.46943,-0.4604 -4.44385,0.69345 -4.44385,1.29014 0,0.2755 0.48159,2.42111 1.07018,4.76803 0.58864,2.34692 0.98403,4.34578 0.87864,4.44191 -0.10534,0.0961 -0.8951,0.32533 -1.75492,0.50934 l -1.56338,0.33456 -1.57462,-6.2877 z M 15.5645,102.05981 c -4.55638,-1.88859 -8.60822,-3.637105 -9.00408,-3.885605 -0.59811,-0.37546 -0.34807,-1.37952 1.4795,-5.941035 3.11161,-7.766441 5.18063,-9.452645 9.38375,-7.64754 2.94213,1.263553 4.1658,2.423768 4.1658,3.949794 0,1.472054 0,1.472054 1.00416,0.467893 0.55229,-0.552287 1.33459,-1.004162 1.73844,-1.004162 1.19774,0 6.29485,2.042827 6.29485,2.522857 0,0.366688 -0.95215,2.847228 -1.31036,3.413761 -0.0566,0.08947 -1.21442,-0.232096 -2.57299,-0.714628 -1.35857,-0.482519 -2.83157,-0.738606 -3.27334,-0.569084 -0.44177,0.169522 -1.24997,1.318194 -1.79601,2.552594 -1.82931,4.13547 -1.84236,4.053 0.79177,5.006675 3.78782,1.37137 3.83196,1.42417 2.9519,3.53046 -0.42059,1.0066 -0.94568,1.81255 -1.16689,1.791 -0.2212,-0.0214 -4.13012,-1.58438 -8.6865,-3.47298 z m 2.44072,-7.327242 c 1.40876,-3.681324 1.36859,-4.058056 -0.55792,-5.232668 -3.17477,-1.935696 -3.91907,-1.504184 -5.84845,3.390691 l -0.99631,2.527654 2.6065,1.02766 c 1.43357,0.56521 2.85756,1.04231 3.16442,1.06022 0.30685,0.0179 1.04115,-1.23019 1.63176,-2.773557 z m 52.128802,3.485657 c -0.189648,-0.18965 -0.34482,-1.21091 -0.34482,-2.26946 0,-1.718232 0.134622,-1.924642 1.255201,-1.924642 1.152927,0 1.255203,-0.184108 1.255203,-2.259362 l 0,-2.259364 -3.012484,0 -3.012484,0 0,-2.510403 0,-2.510403 -2.510398,0 -2.51041,0 0,-2.215972 0,-2.215972 21.463947,-9.158132 C 131.74949,49.973894 136.8322,47.832714 137.46151,47.832714 c 0.81974,0 74.92463,31.537705 75.8226,32.268745 0.37741,0.307232 0.58929,1.29136 0.50208,2.331838 -0.15052,1.795665 -0.15762,1.800646 -2.7868,1.952014 l -2.63592,0.15175 0,2.484164 0,2.484164 -3.01249,0 -3.01248,0 0,2.259364 c 0,2.08881 0.0969,2.259362 1.28407,2.259362 1.20012,0 1.27398,0.139439 1.12968,2.13384 l -0.1544,2.13384 -10.29265,0 -10.29265,0 -0.15735,-1.63176 -0.15734,-1.631759 -8.4717,0 -8.47176,0 -0.15734,1.631759 -0.1573,1.63176 -10.29265,0 -10.29265,0 -0.15734,-1.63176 -0.15735,-1.631759 -8.22066,0 -8.22072,0 -0.15734,1.631759 -0.15729,1.63176 -10.29268,0 -10.29265,0 -0.15735,-1.63176 -0.15734,-1.631759 -8.471753,0 -8.471743,0 -0.157345,1.631759 -0.157344,1.63176 -10.073354,0.13562 c -5.540348,0.0746 -10.228526,-0.0195 -10.418171,-0.20922 z M 204.8489,84.986672 c 0,-0.33223 -22.84466,-0.502081 -67.52983,-0.502081 -44.685203,0 -67.529868,0.169843 -67.529868,0.502081 0,0.332232 22.844665,0.50208 67.529868,0.50208 44.68517,0 67.52983,-0.169843 67.52983,-0.50208 z M 170.78424,65.669344 137.4727,51.415484 104.50958,65.492504 c -18.129704,7.74236 -33.057236,14.166201 -33.172298,14.275192 -0.115058,0.109008 29.708528,0.188577 66.274648,0.176855 l 66.48385,-0.02141 -33.31154,-14.253867 z m -90.953425,12.40127 c 0,-0.213976 12.925898,-5.893961 28.724215,-12.62223 26.78192,-11.40601 28.8274,-12.19478 30.25035,-11.66498 5.25768,1.9576 56.48878,23.992911 56.49561,24.299661 0.005,0.207098 -25.97429,0.376561 -57.73088,0.376561 -31.75662,0 -57.739295,-0.175062 -57.739295,-0.389012 z M 244.33649,91.18323 c -3.56352,-7.734103 -3.57261,-7.817189 -0.9289,-8.520819 0.67303,-0.17913 4.4177,0.558022 8.98799,1.769321 4.30891,1.142009 7.91511,1.995616 8.01382,1.896897 0.0988,-0.09871 -0.7552,-2.173969 -1.89752,-4.611676 -1.96806,-4.199699 -2.02911,-4.467216 -1.16378,-5.099952 1.92603,-1.408332 2.44841,-0.844245 5.64213,6.09223 1.71184,3.717996 3.11249,6.875304 3.11249,7.016234 0,0.140911 -0.64878,0.591731 -1.44176,1.001785 -1.34402,0.695031 -2.00758,0.597855 -9.79057,-1.433967 -4.59183,-1.198742 -8.3488,-2.121273 -8.3488,-2.050079 0,0.07119 1.0135,2.247358 2.25223,4.835909 l 2.25228,4.706452 -1.05271,0.87864 c -0.57894,0.48325 -1.32117,0.87864 -1.64933,0.87864 -0.32811,0 -2.12255,-3.311825 -3.98757,-7.359615 z M 48.41115,81.897552 c -0.43315,-0.837607 -0.7144,-1.591484 -0.625,-1.675282 0.58697,-0.550209 89.18181,-38.061926 89.78396,-38.015196 0.73851,0.0573 88.8299,37.553112 89.27745,38.000634 0.43837,0.438362 -1.05979,3.323072 -1.61067,3.101284 -0.90299,-0.363578 -83.19395,-35.479948 -85.60333,-36.529868 l -2.20419,-0.96051 -38.966413,16.63637 C 77.031433,71.604989 57.17953,80.065411 54.34761,81.255912 l -5.14893,2.164561 -0.78753,-1.522921 z M 26.82724,75.898377 c -9.82676,-7.124723 -9.246,-6.343119 -6.97416,-9.386163 1.03658,-1.38847 2.13375,-2.44083 2.43814,-2.33858 2.93678,0.98652 13.53917,3.72698 13.7199,3.54626 0.12865,-0.12865 -1.62015,-2.96944 -3.88621,-6.31286 l -4.12012,-6.07896 1.3715,-1.97909 c 2.19963,-3.17406 2.5398,-3.32308 4.44631,-1.94774 0.91584,0.66068 4.51636,3.23466 8.00116,5.71996 3.48479,2.4853 6.33686,4.74466 6.33792,5.0208 0.001,0.27615 -0.51637,1.13544 -1.14986,1.90953 l -1.1518,1.40746 -5.73375,-4.36762 c -3.15356,-2.40219 -6.06876,-4.6171 -6.4782,-4.92202 -0.85758,-0.63864 -0.52863,-0.0975 4.94641,8.13699 3.73777,5.621621 3.76762,5.692526 2.95931,7.029129 -0.44911,0.742622 -1.1329,1.415954 -1.51954,1.496285 -0.38663,0.08034 -3.94682,-0.761852 -7.91155,-1.87153 -3.96471,-1.109677 -7.28457,-1.941595 -7.37746,-1.8487 -0.0929,0.0929 2.5481,2.054846 5.86887,4.359896 3.32077,2.305052 6.03777,4.339906 6.03777,4.521894 0,0.510972 -2.03391,2.976711 -2.4554,2.976711 -0.20581,0 -3.52196,-2.282244 -7.36924,-5.071652 z m 208.76802,-2.334038 c -1.98603,-1.075727 -5.94915,-6.235765 -6.71944,-8.748775 -0.86534,-2.82328 0.3875,-4.40327 7.78064,-9.81237 6.02808,-4.41038 6.49501,-4.65882 7.16112,-3.8104 1.89235,2.41016 1.86709,2.51131 -1.18054,4.72959 -11.16306,8.12519 -10.85548,7.69822 -8.19315,11.3735 2.42038,3.341206 2.76973,3.273935 9.89229,-1.90474 l 6.33455,-4.60569 1.17085,1.4314 c 0.64402,0.78727 1.17904,1.58851 1.18898,1.78052 0.0262,0.49977 -12.30976,9.381056 -13.83543,9.96111 -1.66922,0.63465 -1.70843,0.630357 -3.59987,-0.394145 z m 14.80857,-17.062635 c -1.49309,-0.82108 -2.376,-1.64842 -2.376,-2.22638 0,-1.17777 0.86182,-1.16026 3.74607,0.0761 2.16814,0.92936 2.28362,1.07175 1.73093,2.13384 -0.32575,0.62592 -0.62208,1.17968 -0.65858,1.23057 -0.0366,0.0509 -1.13561,-0.49545 -2.44242,-1.21411 z m -197.14,-1.74648 c -0.24658,-0.63172 -1.93874,-4.90523 -3.76037,-9.49668 -1.82163,-4.59144 -3.31205,-8.67697 -3.31205,-9.07893 0,-0.63476 3.52455,-3.9114 4.20733,-3.9114 0.57201,0 17.884221,10.63755 17.884221,10.98903 0,0.21109 -0.561197,0.911 -1.247099,1.55537 -1.238932,1.16392 -1.260162,1.1657 -3.243352,0.27141 l -1.99625,-0.90018 -3.05866,2.64976 c -2.15033,1.86286 -2.96595,2.88925 -2.74646,3.4562 0.95999,2.47965 0.8227,3.32082 -0.72929,4.46826 l -1.54971,1.14575 -0.44831,-1.14859 z m 5.4796,-12.49975 c 0,-0.45824 -7.52838,-5.13664 -7.81099,-4.85403 -0.12135,0.12135 0.36977,1.67076 1.09136,3.44315 0.7216,1.77238 1.511,3.74295 1.75423,4.37904 0.44222,1.15648 0.44233,1.15645 2.70382,-0.73392 1.24387,-1.03975 2.26158,-2.04516 2.26158,-2.23424 z m 159.71848,11.20551 -1.61424,-1.36059 4.78277,-5.89945 c 2.6305,-3.24469 4.64606,-5.89944 4.47907,-5.89944 -0.16698,0 -3.2815,1.80749 -6.92114,4.01664 -3.63958,2.20916 -6.82985,4.00913 -7.08942,3.99995 -0.25959,-0.009 -1.00758,-0.46285 -1.66219,-1.00813 l -1.19018,-0.99142 2.52044,-8.06254 c 1.38625,-4.43439 2.37369,-7.92002 2.19434,-7.74584 -0.17934,0.17418 -2.24651,2.83008 -4.59373,5.90199 -2.34723,3.07191 -4.49362,5.65437 -4.76977,5.73882 -0.27614,0.0844 -1.13927,-0.35631 -1.9181,-0.97944 l -1.41596,-1.13297 6.0946,-7.7763 c 3.35204,-4.27697 6.26526,-7.83835 6.47388,-7.91419 0.46613,-0.16944 5.07488,3.30142 5.07488,3.82188 0,0.20595 -1.01671,3.40579 -2.25937,7.11074 -1.24264,3.70495 -2.25936,6.90465 -2.25936,7.11044 0,0.20579 2.86884,-1.42284 6.37527,-3.61918 3.50643,-2.19633 6.51947,-3.99334 6.6957,-3.99334 0.46874,0 5.00529,3.59406 4.99625,3.95829 -0.005,0.17017 -1.52924,2.23453 -3.38904,4.58746 -1.85976,2.35294 -4.64344,5.90237 -6.18594,7.88763 l -2.80452,3.60957 -1.61424,-1.36058 z M 76.421245,35.498564 c -0.946071,-0.66266 -3.117478,-4.11376 -3.117478,-4.95474 0,-0.14198 0.725938,-0.63354 1.613195,-1.09236 1.516327,-0.78412 1.644464,-0.78132 2.133842,0.0466 0.286357,0.48447 0.893086,1.35873 1.348282,1.9428 0.805288,1.03327 0.876466,1.03866 2.635923,0.19963 1.259204,-0.60047 1.808287,-1.1945 1.808287,-1.95627 0,-0.60168 -1.468585,-3.86977 -3.263523,-7.26243 -1.794937,-3.39266 -3.263522,-6.48275 -3.263522,-6.86686 0,-0.65719 1.972844,-1.86374 3.047413,-1.86374 0.721222,0 7.998358,14.95729 7.998358,16.43968 0,1.7136 -2.858335,4.32971 -5.840988,5.34601 -2.953074,1.00621 -3.689656,1.00933 -5.099789,0.0217 z m 108.846515,-3.9052 c -4.31498,-1.52812 -5.16671,-2.02038 -6.74887,-3.9007 -1.07144,-1.2733 -1.2682,-1.89376 -0.99894,-3.14932 0.64774,-3.01984 1.02154,-3.35714 2.85634,-2.57716 1.36661,0.58097 1.60465,0.92416 1.48305,2.13819 -0.1816,1.81269 1.04071,2.98205 4.06996,3.89372 2.02263,0.60873 2.33925,0.59171 2.98367,-0.16037 1.93647,-2.26013 1.40095,-3.31183 -2.76004,-5.42037 -4.75495,-2.40952 -5.82368,-4.54381 -4.20955,-8.40691 1.10277,-2.63928 3.17762,-3.98558 5.55628,-3.60522 2.84931,0.45562 8.18783,3.13219 9.13721,4.58109 0.77326,1.18014 0.74961,4.82845 -0.0362,5.61446 -0.16478,0.16476 -1.0749,-0.0702 -2.02248,-0.52205 -1.40788,-0.67136 -1.70511,-1.07802 -1.62548,-2.22382 0.0834,-1.20016 -0.22808,-1.56204 -2.16191,-2.51121 -1.24265,-0.60994 -2.64953,-1.1183 -3.12641,-1.12968 -1.02409,-0.0244 -2.61719,2.19448 -2.25439,3.13996 0.13888,0.3619 2.08002,1.71986 4.31368,3.0177 4.30855,2.50342 4.98445,3.48138 4.40575,6.3747 -0.56162,2.80816 -3.40546,6.06853 -5.24503,6.01333 -0.19409,-0.006 -1.8215,-0.53068 -3.61644,-1.16634 z m -89.044428,-3.75534 c -0.34886,-0.62453 1.097925,-20.79291 1.518625,-21.16983 0.45435,-0.40707 5.233423,-1.64841 5.426173,-1.40942 0.23172,0.28734 11.12659,16.72491 11.4779,17.31724 0.23499,0.39622 -0.28864,0.7807 -1.53952,1.13039 -1.79649,0.50221 -1.96386,0.44716 -3.19934,-1.05227 l -1.30369,-1.5822 -3.96816,0.97592 c -3.94049,0.9691 -3.96928,0.98801 -4.12948,2.71117 -0.0887,0.9544 -0.32989,1.90866 -0.535943,2.12059 -0.57044,0.58671 -3.531127,1.34409 -3.746565,0.95841 z m 8.023038,-9.19464 c 1.20709,-0.30395 2.19469,-0.69526 2.19465,-0.86959 -1.8e-4,-0.8185 -5.22669,-8.25726 -5.33779,-7.59712 -0.0697,0.41421 -0.21277,2.73887 -0.31795,5.1659 -0.16042,3.70225 -0.0739,4.36774 0.53758,4.13311 0.40084,-0.15381 1.71641,-0.52835 2.92351,-0.8323 z m 52.30906,4.29544 c -1.3509,-0.41568 -2.81833,-1.30961 -3.44533,-2.09887 -0.97599,-1.2285 -1.06486,-1.8022 -0.83556,-5.39144 0.36742,-5.74964 1.70065,-10.5932 3.25178,-11.81331 1.52763,-1.20164 5.15149,-1.30874 9.062,-0.26782 5.78221,1.53913 6.55566,3.24318 5.15958,11.36732 -0.90892,5.28903 -1.88506,7.60008 -3.59731,8.51645 -1.31726,0.70496 -6.8774,0.52398 -9.59516,-0.31233 z m 6.92219,-3.10479 c 1.06034,-0.70801 1.65892,-2.4952 2.28421,-6.82 0.78786,-5.44922 0.44474,-5.95625 -4.23244,-6.25407 -2.95675,-0.18827 -3.20222,-0.12111 -3.72127,1.01807 -0.73063,1.60354 -1.80945,8.35609 -1.58567,9.92509 0.13441,0.94255 0.64718,1.37335 2.184,1.83486 2.34266,0.70354 4.29058,0.81725 5.07117,0.29605 z m -40.63524,1.55577 c -0.18406,-0.18408 -0.33471,-4.82612 -0.33471,-10.31559 l 0,-9.98087 3.36522,0.14846 3.36524,0.14846 4.18564,7.78224 4.1857,7.78225 -0.13545,-8.03329 -0.13543,-8.03327996 1.99854,0 1.99858,0 0.13591,10.16712996 0.1359,10.16713 -1.70491,0 c -0.93774,0 -2.3749,0.13398 -3.19369,0.29775 -1.43274,0.28654 -1.56614,0.14905 -3.54479,-3.65422 -1.13082,-2.17358 -3.10374,-5.86607 -4.3843,-8.20552 l -2.32825,-4.25355 0.31531,8.15881 0.31526,8.15881 -1.95255,0 c -1.07384,0 -2.10311,-0.15063 -2.28722,-0.33472 z M 97.571607,4.367324 c -0.19348,-0.50417 0.38947,-1.49727 1.61643,-2.7538 1.840513,-1.88484996 1.958323,-1.92969996 2.879513,-1.09602996 0.9362,0.84724996 0.90681,0.91685996 -1.16317,2.75379996 -2.348573,2.08417 -2.885793,2.26085 -3.332773,1.09603 z"
     style="fill:#ffffff" />
</svg>
