<?xml version="1.0" encoding="UTF-8" standalone="no"?>
<svg
   xmlns:dc="http://purl.org/dc/elements/1.1/"
   xmlns:cc="http://creativecommons.org/ns#"
   xmlns:rdf="http://www.w3.org/1999/02/22-rdf-syntax-ns#"
   xmlns:svg="http://www.w3.org/2000/svg"
   xmlns="http://www.w3.org/2000/svg"
   id="svg5728"
   version="1.1"
   viewBox="0 0 6.1877222 10.337447"
   height="10.337447mm"
   width="6.1877222mm">
  <defs
     id="defs5722">
    <clipPath
       id="clipPath1025"
       clipPathUnits="userSpaceOnUse">
      <path
         id="path1023"
         d="m 359.103,133.448 h 17.687 v 29.553 h -17.687 z" />
    </clipPath>
  </defs>
  <metadata
     id="metadata5725">
    <rdf:RDF>
      <cc:Work
         rdf:about="">
        <dc:format>image/svg+xml</dc:format>
        <dc:type
           rdf:resource="http://purl.org/dc/dcmitype/StillImage" />
        <dc:title></dc:title>
      </cc:Work>
    </rdf:RDF>
  </metadata>
  <g
     id="g1019"
     transform="matrix(0.35277777,0,0,-0.35277777,-126.71979,57.472543)">
    <g
       id="g1021"
       clip-path="url(#clipPath1025)">
      <g
         id="g1027"
         transform="translate(360.5117,154.3393)">
        <path
           d="M 0,0 C 0,3.355 2.986,4.288 6.531,4.288 L 6.344,2.983 4.665,3.169 h -0.56 c -1.493,0 -3.359,-1.305 -3.359,-2.796 0,-3.356 3.359,-3.356 6.718,-3.356 l 3.172,5.779 -0.187,0.187 H 9.516 l 0.56,1.305 h 3.546 l -0.56,-1.305 h -1.306 c 0.373,-1.305 1.866,-5.966 3.358,-5.966 l -0.373,-1.491 h -2.985 l 0.373,1.491 h 0.933 l -2.053,5.22 -2.052,-5.22 H 9.33 L 9.143,-4.288 C 4.852,-4.288 0,-4.847 0,-0.559 Z m -1.306,-8.948 h 17.54 V 8.575 h -17.54 z m 2.426,-2.55 2.052,2.237 H -1.12 Z m 4.851,0 2.053,2.237 H 3.732 Z m 4.852,0 2.052,2.237 H 8.583 Z m 4.851,0 c 0.373,0.186 0.56,0.186 0.56,0.745 v 1.492 h -2.799 z m 0.187,-0.214 0.373,-0.373 v 0.559 z m -17.167,0.4 0.373,-0.559 -0.373,-0.559 v -1.492 l 2.052,2.051 -2.052,2.05 z m 0,-3.637 h 17.54 v 0.373 h -17.54 z m 4.851,-0.373 0.187,-0.559 -0.56,-0.746 c 0.187,-0.745 0.373,-1.118 0.373,-2.05 v -1.864 h 0.56 l 0.187,1.677 v 0.373 c 0,0.746 -0.373,0.932 -0.373,1.305 l 0.186,1.864 z m 7.091,-5.219 c 0.187,0.186 0.187,5.406 -0.373,5.406 -0.373,0 -0.373,-4.847 0.373,-5.406 m -10.823,2.982 c -0.186,0.373 -0.373,0.373 -0.373,0.932 v 1.492 h -0.373 c -0.187,-0.56 -0.187,-0.373 -0.187,-0.932 l 0.187,-4.474 c 0.746,0.186 0.746,2.05 0.746,2.982 m 0,0 0.56,-1.305 v -1.677 c 0.373,0.373 0.747,0.559 0.747,1.305 0,0 -0.56,1.677 -0.747,2.05 0,0.187 0.56,1.305 0.56,1.491 0,0.373 -0.187,0.373 -0.56,0.373 z m 2.986,1.305 c 0,0.559 0,0.559 0.187,0.932 -0.56,0 -0.747,0 -0.747,-0.559 v -1.118 l 0.187,-3.542 0.746,0.932 c -0.186,0.745 -0.373,0.932 -0.373,1.677 z m -0.933,0.746 c 0.187,0 0,0.373 0,0.373 -0.373,-0.373 -0.746,-0.746 -0.746,-1.492 l 0.186,-3.914 c 0.373,0.186 0.56,0 0.56,0.559 v 1.305 z m 4.665,-2.051 -0.56,2.424 H 5.598 c 0,-1.305 0.56,-2.051 0.56,-3.356 0,-0.745 -0.374,-0.745 -0.374,-1.491 v -0.559 c 1.12,0.373 0.374,1.305 1.12,2.237 0,-1.305 -0.373,-2.051 0.746,-2.237 l -0.373,3.355 0.187,2.051 H 7.091 l -0.374,-2.424 z m 8.21,2.424 c -0.373,-0.187 -0.746,-0.187 -0.746,-0.746 v -0.559 c 0,-0.559 0,-0.746 0.186,-1.119 -0.186,-0.373 -0.186,-0.186 -0.186,-0.932 v -0.186 c 0,-0.932 0.186,-1.491 0.746,-1.864 v 3.355 z m -9.889,-2.051 c 0.186,0.373 0.373,0.932 0.373,1.305 0,0.373 0,0.186 -0.187,0.746 H 4.665 l -0.373,-2.237 c 0,-0.187 0.56,-1.305 0.56,-1.492 0,-1.118 -1.12,-1.491 0.373,-1.677 l 0.186,1.491 c 0.187,0.746 -0.373,1.491 -0.559,1.864 m 4.105,-3.355 c 1.119,0 0.559,0.932 0.559,2.423 v 2.796 c -1.119,-0.186 -0.746,-1.677 -0.559,-2.423 0.186,-1.119 0,-2.051 0,-2.796 m -1.12,1.491 c 0,-0.932 0,-1.305 0.746,-1.491 l -0.186,2.796 v 2.423 h -0.56 z m 3.545,2.983 c 0,0.186 0.187,0.186 0.374,0.745 l -0.933,-0.373 v -1.118 l 0.559,-1.491 -0.373,-2.237 c 0.747,0.186 0.933,1.305 0.933,2.237 0,0.372 -0.56,1.305 -0.56,2.237 m 1.68,-1.305 h -0.373 v 1.677 c 0,0.373 0,0.373 -0.187,0.56 -0.373,-0.187 -0.373,0 -0.373,-0.56 v -0.372 -3.729 h -0.187 l 0.56,-0.932 0.187,1.119 c 0,0.745 0.186,1.305 0.373,1.677 l 0.186,-2.609 h 0.56 c 0,0.559 -0.186,0.745 -0.186,1.305 v 1.118 l 0.186,2.423 -0.746,0.373 z m 2.799,1.305 c 0,0.559 -0.374,0.745 -0.747,0.932 l 0.187,-0.932 c -0.747,-1.492 0.186,-3.542 -0.187,-4.474 h 0.747 l -0.374,3.542 c 0.187,0.372 0.374,0.372 0.374,0.745 z M 1.12,-12.069 3.172,-14.306 H -1.12 Z m 4.851,0 2.053,-2.237 H 3.732 Z m 4.852,0 2.052,-2.237 H 8.583 Z m 4.851,0 c 0.373,-0.187 0.56,-0.187 0.56,-0.746 v -1.491 H 13.435 Z M 1.427,-11.781 3.5,-9.62 5.585,-11.749 3.494,-13.921 Z m 1.674,0.008 0.404,0.421 0.406,-0.415 -0.407,-0.423 z m 3.184,-0.008 2.073,2.161 2.085,-2.129 -2.091,-2.172 z m 1.674,0.008 0.404,0.421 0.406,-0.415 -0.407,-0.423 z m 3.184,-0.008 2.073,2.161 2.085,-2.129 -2.091,-2.172 z m 1.673,0.008 0.405,0.421 0.406,-0.415 -0.407,-0.423 z"
           style="fill:#86271c;fill-opacity:1;fill-rule:evenodd;stroke:none"
           id="path1029" />
      </g>
    </g>
  </g>
</svg>
