<?xml version="1.0" encoding="UTF-8" standalone="no"?>
<svg
   xmlns:dc="http://purl.org/dc/elements/1.1/"
   xmlns:cc="http://creativecommons.org/ns#"
   xmlns:rdf="http://www.w3.org/1999/02/22-rdf-syntax-ns#"
   xmlns:svg="http://www.w3.org/2000/svg"
   xmlns="http://www.w3.org/2000/svg"
   version="1.1"
   id="svg7852"
   viewBox="0 0 424.72874 201.78738"
   height="56.948883mm"
   width="119.86789mm">
  <defs
     id="defs7854">
    <clipPath
       clipPathUnits="userSpaceOnUse"
       id="clipPath7261">
      <path
         d="m 150.346,394.906 295.856,0 0,295.858 -295.856,0 0,-295.858 z"
         id="path7263" />
    </clipPath>
    <clipPath
       clipPathUnits="userSpaceOnUse"
       id="clipPath6926">
      <path
         d="m 0,0.1099854 595,0 0,841.8900046 -595,0 L 0,0.1099854 Z"
         id="path6928" />
    </clipPath>
    <clipPath
       clipPathUnits="userSpaceOnUse"
       id="clipPath6926-9">
      <path
         d="m 0,0.1099854 595,0 0,841.8900046 -595,0 L 0,0.1099854 Z"
         id="path6928-4" />
    </clipPath>
    <clipPath
       clipPathUnits="userSpaceOnUse"
       id="clipPath7261-9">
      <path
         d="m 150.346,394.906 295.856,0 0,295.858 -295.856,0 0,-295.858 z"
         id="path7263-7" />
    </clipPath>
    <clipPath
       clipPathUnits="userSpaceOnUse"
       id="clipPath11087">
      <path
         d="m 0,595.28 841.89,0 L 841.89,0 0,0 0,595.28 Z"
         id="path11089" />
    </clipPath>
  </defs>
  <metadata
     id="metadata7857">
    <rdf:RDF>
      <cc:Work
         rdf:about="">
        <dc:format>image/svg+xml</dc:format>
        <dc:type
           rdf:resource="http://purl.org/dc/dcmitype/StillImage" />
        <dc:title></dc:title>
      </cc:Work>
    </rdf:RDF>
  </metadata>
  <g
     id="g11049"
     transform="matrix(1.25,0,0,-1.25,-290.9685,472.93937)">
    <g
       id="g11051"
       transform="translate(408.042,378.3511)">
      <path
         d="m 0,0 -12.709,-66.321 -6.85,-35.744 13.604,0.003 L 8.49,-26.707 13.534,0 0,0 Z"
         style="fill:#33bdf2;fill-opacity:1;fill-rule:nonzero;stroke:none"
         id="path11053" />
    </g>
    <g
       id="g11055"
       transform="translate(388.4404,348.5005)">
      <path
         d="m 0,0 -15.682,0 6.453,-34.138 7.196,-38.076 2.076,0 13.603,0 L 6.893,-36.471 0,0 Z"
         style="fill:#4763b8;fill-opacity:1;fill-rule:nonzero;stroke:none"
         id="path11057" />
    </g>
    <g
       id="g11059"
       transform="translate(370.6846,348.5005)">
      <path
         d="m 0,0 -19.514,-72.214 17.745,0 L 8.526,-34.138 17.756,0 2.074,0 0,0 Z"
         style="fill:#ec008c;fill-opacity:1;fill-rule:nonzero;stroke:none"
         id="path11061" />
    </g>
    <g
       id="g11063"
       transform="translate(416.5322,351.6445)">
      <path
         d="m 0,0 18.126,-75.358 11.532,0 -24.539,102.065 -11.543,0 L 0,0 Z"
         style="fill:#80cc28;fill-opacity:1;fill-rule:nonzero;stroke:none"
         id="path11065" />
    </g>
    <g
       id="g11067"
       transform="translate(372.7588,348.5005)">
      <path
         d="M 0,0 6.452,-34.138 15.682,0 0,0 Z"
         style="fill:#542791;fill-opacity:1;fill-rule:nonzero;stroke:none"
         id="path11069" />
    </g>
    <g
       id="g11071"
       transform="translate(410.1084,378.3511)">
      <path
         d="M 0,0 6.424,-26.707 11.543,0 0,0 Z"
         style="fill:#12ab4a;fill-opacity:1;fill-rule:nonzero;stroke:none"
         id="path11073" />
    </g>
    <g
       id="g11075"
       transform="translate(388.4834,276.2861)">
      <path
         d="m 0,0 13.604,0 0,0.003 L 6.85,35.744 0,0 Z"
         style="fill:#344885;fill-opacity:1;fill-rule:nonzero;stroke:none"
         id="path11077" />
    </g>
    <g
       id="g11079"
       transform="translate(446.1914,276.2861)">
      <path
         d="m 0,0 9.564,0 0,45.239 L 0,0 Z"
         style="fill:#fbbc09;fill-opacity:1;fill-rule:nonzero;stroke:none"
         id="path11081" />
    </g>
    <g
       id="g11083">
      <g
         id="g11085"
         clip-path="url(#clipPath11087)">
        <g
           id="g11091"
           transform="translate(550.0508,230.3086)">
          <path
             d="M 0,0 12.2,0 6.072,18.402 0,0 Z m 13.705,-4.463 -15.21,0 -2.729,-8.322 c -0.484,-0.067 -0.967,-0.117 -1.449,-0.151 -0.483,-0.033 -0.966,-0.05 -1.449,-0.05 -0.52,0 -1.03,0.017 -1.532,0.05 -0.501,0.034 -0.956,0.084 -1.364,0.151 L 3.008,23.266 c 0.482,0.066 1.003,0.117 1.56,0.15 0.557,0.033 1.132,0.051 1.727,0.051 0.519,0 1.059,-0.018 1.616,-0.051 0.557,-0.033 1.095,-0.084 1.615,-0.15 l 12.981,-36.051 c -0.445,-0.067 -0.946,-0.117 -1.504,-0.151 -0.557,-0.033 -1.096,-0.05 -1.615,-0.05 -0.484,0 -0.976,0.017 -1.477,0.05 -0.502,0.034 -0.975,0.084 -1.421,0.151 l -2.785,8.322 z m -47.04,9.979 12.869,17.75 c 0.52,0.066 1.03,0.117 1.532,0.15 0.501,0.033 0.955,0.051 1.366,0.051 0.481,0 1.002,-0.018 1.559,-0.051 0.557,-0.033 1.133,-0.084 1.727,-0.15 L -26.984,5.967 -12.666,-12.785 c -0.595,-0.067 -1.18,-0.117 -1.755,-0.151 -0.576,-0.033 -1.124,-0.05 -1.643,-0.05 -0.446,0 -0.929,0.017 -1.449,0.05 -0.52,0.034 -1.058,0.084 -1.616,0.151 L -33.335,5.516 Z m -7.354,17.75 c 0.446,0.066 0.91,0.117 1.393,0.15 0.482,0.033 0.965,0.051 1.448,0.051 0.483,0 0.965,-0.018 1.449,-0.051 0.482,-0.033 0.947,-0.084 1.392,-0.15 l 0,-36.051 c -0.445,-0.067 -0.91,-0.117 -1.392,-0.151 -0.484,-0.033 -0.966,-0.05 -1.449,-0.05 -0.52,0 -1.022,0.017 -1.505,0.05 -0.482,0.034 -0.928,0.084 -1.336,0.151 l 0,36.051 z M -70.705,-7.32 c 1.226,-0.401 2.508,-0.752 3.845,-1.053 1.337,-0.301 2.97,-0.451 4.902,-0.451 3.045,0 5.32,0.558 6.825,1.679 1.504,1.12 2.256,2.633 2.256,4.538 0,0.935 -0.158,1.738 -0.474,2.406 -0.315,0.668 -0.789,1.246 -1.42,1.73 -0.632,0.485 -1.42,0.928 -2.368,1.328 -0.947,0.403 -2.052,0.836 -3.315,1.305 l -3.175,1.152 c -1.078,0.403 -2.061,0.844 -2.953,1.332 -0.892,0.481 -1.663,1.075 -2.312,1.778 -0.65,0.701 -1.162,1.512 -1.532,2.431 -0.372,0.92 -0.557,2.014 -0.557,3.286 0,3.041 1.151,5.421 3.454,7.144 2.302,1.721 5.534,2.582 9.694,2.582 1.782,0 3.472,-0.135 5.069,-0.4 1.597,-0.27 3.009,-0.604 4.235,-1.004 -0.187,-1.404 -0.595,-2.791 -1.226,-4.162 -1.003,0.334 -2.164,0.635 -3.482,0.902 -1.319,0.268 -2.814,0.402 -4.485,0.402 -2.339,0 -4.141,-0.425 -5.404,-1.279 -1.263,-0.851 -1.894,-2.131 -1.894,-3.836 0,-0.701 0.158,-1.328 0.473,-1.879 0.316,-0.552 0.734,-1.037 1.254,-1.455 0.52,-0.418 1.133,-0.795 1.839,-1.129 0.705,-0.334 1.448,-0.634 2.228,-0.902 l 3.12,-1.102 c 1.485,-0.535 2.803,-1.095 3.956,-1.679 1.15,-0.586 2.134,-1.272 2.952,-2.057 0.816,-0.785 1.439,-1.713 1.866,-2.783 0.427,-1.07 0.642,-2.324 0.642,-3.76 0,-3.443 -1.32,-6.16 -3.956,-8.148 -2.638,-1.989 -6.333,-2.983 -11.087,-2.983 -1.152,0 -2.192,0.033 -3.119,0.1 -0.93,0.066 -1.793,0.168 -2.591,0.301 -0.8,0.134 -1.57,0.3 -2.313,0.502 -0.743,0.199 -1.504,0.416 -2.284,0.65 0.074,0.736 0.241,1.488 0.502,2.258 0.259,0.767 0.538,1.519 0.835,2.256 m -28.217,30.586 c 0.408,0.066 0.845,0.117 1.31,0.15 0.464,0.033 0.956,0.051 1.476,0.051 0.483,0 0.965,-0.018 1.448,-0.051 0.483,-0.033 0.948,-0.084 1.393,-0.15 l 0,-31.539 15.711,0 c 0.074,-0.368 0.12,-0.752 0.14,-1.153 0.017,-0.402 0.027,-0.769 0.027,-1.103 0,-0.803 -0.056,-1.555 -0.167,-2.256 l -21.338,0 0,36.051 z m -23.226,-32.241 c 1.856,0 3.462,0.327 4.819,0.977 1.354,0.652 2.478,1.596 3.37,2.834 0.892,1.236 1.56,2.723 2.006,4.463 0.445,1.736 0.668,3.709 0.668,5.916 0,2.172 -0.223,4.137 -0.668,5.89 -0.446,1.756 -1.114,3.243 -2.006,4.463 -0.892,1.221 -2.016,2.157 -3.37,2.809 -1.357,0.652 -2.963,0.977 -4.819,0.977 -1.858,0 -3.464,-0.325 -4.82,-0.977 -1.356,-0.652 -2.479,-1.588 -3.37,-2.809 -0.891,-1.22 -1.56,-2.707 -2.006,-4.463 -0.445,-1.753 -0.669,-3.718 -0.669,-5.89 0,-2.207 0.224,-4.18 0.669,-5.916 0.446,-1.74 1.115,-3.227 2.006,-4.463 0.891,-1.238 2.014,-2.182 3.37,-2.834 1.356,-0.65 2.962,-0.977 4.82,-0.977 m 0,-4.412 c -2.898,0 -5.405,0.459 -7.522,1.379 -2.117,0.918 -3.872,2.205 -5.265,3.86 -1.392,1.654 -2.432,3.619 -3.12,5.892 -0.687,2.272 -1.03,4.764 -1.03,7.471 0,2.707 0.343,5.197 1.03,7.471 0.688,2.273 1.728,4.236 3.12,5.89 1.393,1.656 3.148,2.951 5.265,3.887 2.117,0.935 4.624,1.404 7.522,1.404 2.896,0 5.404,-0.469 7.52,-1.404 2.117,-0.936 3.872,-2.231 5.266,-3.887 1.392,-1.654 2.423,-3.617 3.091,-5.89 0.668,-2.274 1.003,-4.764 1.003,-7.471 0,-2.707 -0.335,-5.199 -1.003,-7.471 -0.668,-2.273 -1.699,-4.238 -3.091,-5.892 -1.394,-1.655 -3.149,-2.942 -5.266,-3.86 -2.116,-0.92 -4.624,-1.379 -7.52,-1.379 m -41.292,18.1 c 0.593,-0.067 1.115,-0.117 1.56,-0.151 0.445,-0.033 1.095,-0.05 1.949,-0.05 1.152,0 2.293,0.109 3.426,0.326 1.133,0.217 2.145,0.609 3.037,1.18 0.891,0.566 1.606,1.343 2.145,2.33 0.537,0.986 0.808,2.265 0.808,3.836 0,1.371 -0.232,2.523 -0.697,3.462 -0.465,0.934 -1.105,1.686 -1.922,2.254 -0.818,0.569 -1.803,0.969 -2.953,1.204 -1.152,0.234 -2.394,0.351 -3.732,0.351 -1.374,0 -2.582,-0.051 -3.621,-0.15 l 0,-14.592 z m -5.682,18.601 c 0.557,0.069 1.215,0.135 1.976,0.202 0.762,0.066 1.561,0.125 2.397,0.175 0.836,0.051 1.671,0.092 2.507,0.125 0.835,0.034 1.643,0.051 2.423,0.051 2.043,0 3.982,-0.183 5.822,-0.553 1.838,-0.367 3.453,-1.002 4.846,-1.904 1.395,-0.902 2.499,-2.098 3.317,-3.586 0.816,-1.486 1.225,-3.351 1.225,-5.59 0,-2.338 -0.438,-4.287 -1.309,-5.841 -0.873,-1.555 -2.025,-2.799 -3.456,-3.735 -1.43,-0.937 -3.055,-1.597 -4.875,-1.98 -1.82,-0.385 -3.676,-0.578 -5.57,-0.578 -0.705,0 -1.328,0.007 -1.866,0.025 -0.539,0.018 -1.125,0.059 -1.755,0.125 l 0,-13.035 c -0.891,-0.102 -1.838,-0.151 -2.841,-0.151 -0.447,0 -0.919,0.008 -1.421,0.024 -0.502,0.017 -0.975,0.06 -1.42,0.127 l 0,36.099 z m -24.275,-32.289 c 1.857,0 3.462,0.327 4.819,0.977 1.355,0.652 2.479,1.596 3.37,2.834 0.893,1.236 1.561,2.723 2.006,4.463 0.445,1.736 0.669,3.709 0.669,5.916 0,2.172 -0.224,4.137 -0.669,5.89 -0.445,1.756 -1.113,3.243 -2.006,4.463 -0.891,1.221 -2.015,2.157 -3.37,2.809 -1.357,0.652 -2.962,0.977 -4.819,0.977 -1.858,0 -3.463,-0.325 -4.819,-0.977 -1.356,-0.652 -2.479,-1.588 -3.371,-2.809 -0.891,-1.22 -1.559,-2.707 -2.006,-4.463 -0.445,-1.753 -0.668,-3.718 -0.668,-5.89 0,-2.207 0.223,-4.18 0.668,-5.916 0.447,-1.74 1.115,-3.227 2.006,-4.463 0.892,-1.238 2.015,-2.182 3.371,-2.834 1.356,-0.65 2.961,-0.977 4.819,-0.977 m 0,-4.412 c -2.897,0 -5.405,0.459 -7.521,1.379 -2.117,0.918 -3.872,2.205 -5.265,3.86 -1.392,1.654 -2.433,3.619 -3.12,5.892 -0.688,2.272 -1.03,4.764 -1.03,7.471 0,2.707 0.342,5.197 1.03,7.471 0.687,2.273 1.728,4.236 3.12,5.89 1.393,1.656 3.148,2.951 5.265,3.887 2.116,0.935 4.624,1.404 7.521,1.404 2.897,0 5.404,-0.469 7.521,-1.404 2.117,-0.936 3.872,-2.231 5.265,-3.887 1.393,-1.654 2.423,-3.617 3.092,-5.89 0.668,-2.274 1.002,-4.764 1.002,-7.471 0,-2.707 -0.334,-5.199 -1.002,-7.471 -0.669,-2.273 -1.699,-4.238 -3.092,-5.892 -1.393,-1.655 -3.148,-2.942 -5.265,-3.86 -2.117,-0.92 -4.624,-1.379 -7.521,-1.379 m -41.676,13.739 c -0.594,-0.37 -1.19,-0.745 -1.783,-1.129 -0.594,-0.385 -1.189,-0.76 -1.783,-1.129 -0.111,0.469 -0.194,0.869 -0.251,1.205 -0.054,0.332 -0.083,0.701 -0.083,1.101 0,0.334 0.029,0.704 0.083,1.104 0.057,0.402 0.14,0.769 0.251,1.103 l 3.566,2.207 0,18.452 c 0.816,0.099 1.763,0.15 2.842,0.15 1.002,0 1.93,-0.051 2.785,-0.15 l 0,-14.893 7.299,4.514 c 0.185,-0.77 0.278,-1.522 0.278,-2.258 0,-0.4 -0.028,-0.785 -0.083,-1.152 -0.057,-0.37 -0.121,-0.737 -0.195,-1.104 l -7.299,-4.512 0,-12.134 15.711,0 c 0.074,-0.368 0.13,-0.752 0.167,-1.153 0.036,-0.402 0.055,-0.769 0.055,-1.103 0,-0.369 -0.019,-0.744 -0.055,-1.129 -0.037,-0.385 -0.093,-0.76 -0.167,-1.127 l -21.338,0 0,13.137 z M -264.569,0 -252.368,0 -258.496,18.402 -264.569,0 Z m 13.705,-4.463 -15.209,0 -2.73,-8.322 c -0.483,-0.067 -0.966,-0.117 -1.448,-0.151 -0.483,-0.033 -0.967,-0.05 -1.449,-0.05 -0.52,0 -1.03,0.017 -1.531,0.05 -0.502,0.034 -0.957,0.084 -1.366,0.151 l 13.036,36.051 c 0.483,0.066 1.003,0.117 1.56,0.15 0.558,0.033 1.133,0.051 1.728,0.051 0.52,0 1.058,-0.018 1.616,-0.051 0.556,-0.033 1.095,-0.084 1.615,-0.15 l 12.98,-36.051 c -0.445,-0.067 -0.947,-0.117 -1.503,-0.151 -0.557,-0.033 -1.096,-0.05 -1.616,-0.05 -0.483,0 -0.974,0.017 -1.476,0.05 -0.502,0.034 -0.975,0.084 -1.421,0.151 l -2.786,8.322 z m -64.629,27.729 c 0.445,0.066 0.955,0.117 1.531,0.15 0.576,0.033 1.123,0.051 1.645,0.051 0.519,0 1.086,-0.018 1.699,-0.051 0.612,-0.033 1.123,-0.084 1.531,-0.15 l 10.363,-22.565 10.418,22.565 c 0.371,0.066 0.836,0.117 1.393,0.15 0.557,0.033 1.095,0.051 1.615,0.051 0.483,0 1.022,-0.018 1.615,-0.051 0.594,-0.033 1.096,-0.084 1.505,-0.15 l 1.894,-36.051 c -0.445,-0.067 -0.901,-0.117 -1.364,-0.151 -0.465,-0.033 -0.939,-0.05 -1.421,-0.05 -0.483,0 -0.957,0.017 -1.42,0.05 -0.465,0.034 -0.902,0.084 -1.31,0.151 l -1.282,28.027 -9.805,-20.556 c -0.743,-0.102 -1.504,-0.151 -2.284,-0.151 -0.706,0 -1.411,0.049 -2.116,0.151 l -9.472,20.707 -1.281,-28.178 c -0.409,-0.067 -0.836,-0.117 -1.282,-0.151 -0.446,-0.033 -0.873,-0.05 -1.282,-0.05 -0.482,0 -0.947,0.017 -1.392,0.05 -0.445,0.034 -0.873,0.084 -1.281,0.151 l 1.783,36.051 z"
             style="fill:#2e2a2b;fill-opacity:1;fill-rule:nonzero;stroke:none"
             id="path11093" />
        </g>
      </g>
    </g>
  </g>
</svg>
