<?xml version="1.0" encoding="UTF-8" standalone="no"?>
<svg
   xmlns:dc="http://purl.org/dc/elements/1.1/"
   xmlns:cc="http://creativecommons.org/ns#"
   xmlns:rdf="http://www.w3.org/1999/02/22-rdf-syntax-ns#"
   xmlns:svg="http://www.w3.org/2000/svg"
   xmlns="http://www.w3.org/2000/svg"
   version="1.1"
   id="svg7852"
   viewBox="0 0 369.82 369.82251"
   height="104.37213mm"
   width="104.37142mm">
  <defs
     id="defs7854">
    <clipPath
       clipPathUnits="userSpaceOnUse"
       id="clipPath7261">
      <path
         d="m 150.346,394.906 295.856,0 0,295.858 -295.856,0 0,-295.858 z"
         id="path7263" />
    </clipPath>
    <clipPath
       clipPathUnits="userSpaceOnUse"
       id="clipPath6926">
      <path
         d="m 0,0.1099854 595,0 0,841.8900046 -595,0 L 0,0.1099854 Z"
         id="path6928" />
    </clipPath>
    <clipPath
       clipPathUnits="userSpaceOnUse"
       id="clipPath6926-9">
      <path
         d="m 0,0.1099854 595,0 0,841.8900046 -595,0 L 0,0.1099854 Z"
         id="path6928-4" />
    </clipPath>
    <clipPath
       clipPathUnits="userSpaceOnUse"
       id="clipPath7261-9">
      <path
         d="m 150.346,394.906 295.856,0 0,295.858 -295.856,0 0,-295.858 z"
         id="path7263-7" />
    </clipPath>
  </defs>
  <metadata
     id="metadata7857">
    <rdf:RDF>
      <cc:Work
         rdf:about="">
        <dc:format>image/svg+xml</dc:format>
        <dc:type
           rdf:resource="http://purl.org/dc/dcmitype/StillImage" />
        <dc:title></dc:title>
      </cc:Work>
    </rdf:RDF>
  </metadata>
  <path
     id="path7255"
     style="fill:#ffffff;fill-opacity:1;fill-rule:nonzero;stroke:none"
     d="M -7.2329061e-7,369.82251 369.82,369.82251 369.82,5.3245879e-6 l -369.8200007232906,0 0,369.8225046754121 z" />
  <g
     transform="matrix(1.25,0,0,-1.25,-186.27556,863.15019)"
     id="g6922">
    <g
       clip-path="url(#clipPath6926-9)"
       id="g6924">
      <path
         id="path6930"
         style="fill:#91979a;fill-opacity:1;fill-rule:nonzero;stroke:none"
         d="m 188.7979,645.1017 0.078,14.032 c 0,0.714 0,2.419 0.038,4.995 -0.506,-2.418 -0.934,-4.122 -1.168,-5.074 l -3.467,-13.953 -6.272,0 -3.505,13.636 c -0.39,1.546 -0.741,3.33 -1.131,5.391 0.078,-2.457 0.117,-4.202 0.117,-5.272 l 0,-13.755 -8.142,0 0,28.501 10.947,0 3.895,-14.231 c 0.078,-0.356 0.39,-1.743 0.935,-4.162 0.391,2.061 0.701,3.449 0.897,4.122 l 3.972,14.271 10.948,0 0,-28.501 -8.142,0 z" />
      <path
         id="path6932"
         style="fill:#91979a;fill-opacity:1;fill-rule:nonzero;stroke:none"
         d="m 202.781,666.151 8.299,0 0,-21.049 -8.299,0 0,21.049 z m 0,8.166 8.299,0 0,-6.025 -8.299,0 0,6.025 z" />
      <path
         id="path6934"
         style="fill:#91979a;fill-opacity:1;fill-rule:nonzero;stroke:none"
         d="m 230.6367,645.1017 0,10.901 c 0,2.893 -0.547,4.203 -2.805,4.203 -2.066,0 -3.078,-1.389 -3.078,-4.243 l 0,-10.861 -8.219,0 0,21.049 7.479,0 0,-3.092 c 1.91,2.458 4.244,3.647 7.245,3.647 2.532,0 4.519,-0.873 5.882,-2.537 1.598,-1.943 1.715,-4.479 1.715,-8.127 l 0,-10.94 -8.219,0 z" />
      <path
         id="path6936"
         style="fill:#91979a;fill-opacity:1;fill-rule:nonzero;stroke:none"
         d="m 244.115,666.151 8.297,0 0,-21.049 -8.297,0 0,21.049 z m 0,8.166 8.297,0 0,-6.025 -8.297,0 0,6.025 z" />
      <path
         id="path6938"
         style="fill:#91979a;fill-opacity:1;fill-rule:nonzero;stroke:none"
         d="m 266.8311,644.3488 c -6.7,0 -10.206,2.458 -10.557,7.3729 l 7.986,0 c 0,-1.784 0.896,-2.656 2.687,-2.656 1.753,0 2.689,0.6341 2.689,1.7431 0,1.5069 -1.169,1.665 -3.467,2.1809 -6.39,1.3871 -9.349,2.537 -9.349,6.977 0,4.4801 3.467,6.937 10.166,6.937 6.196,0 9.583,-2.26 10.089,-6.6199 l -7.4,0 c -0.117,1.229 -1.131,2.062 -2.611,2.062 -1.48,0 -2.22,-0.5561 -2.22,-1.4681 0,-1.5059 1.363,-1.5059 3.933,-2.0999 6.157,-1.4281 9,-2.576 9,-7.136 0,-4.796 -3.701,-7.293 -10.946,-7.293" />
      <path
         id="path6940"
         style="fill:#91979a;fill-opacity:1;fill-rule:nonzero;stroke:none"
         d="m 290.2432,644.7443 c -5.103,0 -7.013,1.4669 -7.013,6.026 l 0,10.544 -2.921,0 0,4.8369 2.921,0 0,6.5 8.182,0 0,-6.5 3.855,0 0,-4.8369 -3.855,0 0,-8.403 c 0,-1.5071 0.778,-1.943 2.766,-1.943 0.351,0 0.74,0 1.168,0.0399 l 0,-6.0659 c -1.791,-0.1191 -3.505,-0.198 -5.103,-0.198" />
      <path
         id="path6942"
         style="fill:#91979a;fill-opacity:1;fill-rule:nonzero;stroke:none"
         d="m 312.5264,658.4601 c -3.313,0 -4.832,-1.467 -4.832,-4.717 l 0,-8.641 -8.257,0 0,21.049 7.596,0 0,-3.846 c 1.091,3.093 3.077,4.4 6.427,4.4 l 0.74,0 0,-8.364 c -0.623,0.079 -1.169,0.119 -1.674,0.119" />
      <path
         id="path6944"
         style="fill:#91979a;fill-opacity:1;fill-rule:nonzero;stroke:none"
         d="m 332.04,645.2204 c -1.051,-3.251 -1.831,-5.59 -3.078,-6.818 -1.596,-1.624 -3.621,-1.745 -6.504,-1.745 -0.975,0 -2.376,0.041 -4.168,0.159 l 0,6.224 2.338,0 c 1.518,0 2.259,0.474 2.259,1.783 0,0.594 -0.158,1.269 -0.429,2.062 l -6.934,19.266 8.336,0 3.623,-12.765 3.506,12.765 7.751,0 -6.7,-20.931 z" />
      <path
         id="path6946"
         style="fill:#91979a;fill-opacity:1;fill-rule:nonzero;stroke:none"
         d="m 366.248,661.0768 c -2.494,0 -3.39,-1.705 -3.39,-5.431 0,-3.726 0.896,-5.47 3.39,-5.47 2.492,0 3.428,1.744 3.428,5.47 0,3.726 -0.936,5.431 -3.428,5.431 m 0,-16.728 c -7.284,0 -11.688,4.32 -11.688,11.297 0,6.977 4.404,11.258 11.688,11.258 7.285,0 11.687,-4.281 11.687,-11.258 0,-6.977 -4.402,-11.297 -11.687,-11.297" />
      <path
         id="path6948"
         style="fill:#91979a;fill-opacity:1;fill-rule:nonzero;stroke:none"
         d="m 391.0234,661.3937 0,-16.292 -8.181,0 0,16.292 -2.571,0 0,4.757 2.571,0 0,1.308 c 0,4.717 2.259,6.858 7.091,6.858 l 4.596,0 0,-5.272 c -0.312,0 -0.584,0.039 -0.858,0.039 -1.946,0 -2.687,-0.555 -2.687,-2.299 0,-0.198 0.039,-0.396 0.039,-0.634 l 3.506,0 0,-4.757 -3.506,0 z" />
      <path
         id="path6950"
         style="fill:#b92423;fill-opacity:1;fill-rule:nonzero;stroke:none"
         d="m 183.1387,594.48 c -12.148,0 -19.512,7.7601 -19.512,20.282 0,12.5771 7.416,20.283 19.248,20.283 10.993,0 17.461,-5.619 18.198,-15.5739 l -11.623,0 c -0.368,3.9079 -2.524,5.9409 -6.416,5.9409 -4.786,0 -7.153,-3.533 -7.153,-10.65 0,-7.01 2.577,-10.6499 7.469,-10.6499 3.734,0 6.048,2.2489 6.416,6.3689 l 11.518,0 c -0.685,-10.113 -7.259,-16.001 -18.145,-16.001" />
      <path
         id="path6952"
         style="fill:#b92423;fill-opacity:1;fill-rule:nonzero;stroke:none"
         d="m 226.6152,595.5514 0,4.173 c -2.578,-3.317 -5.733,-4.923 -9.783,-4.923 -3.418,0 -6.1,1.179 -7.94,3.425 -2.157,2.623 -2.261,6.101 -2.261,11.025 l 0,14.716 11.095,0 0,-14.664 c 0,-3.905 0.736,-5.725 3.787,-5.725 2.788,0 4.155,1.926 4.155,5.78 l 0,14.609 11.095,0 0,-28.416 -10.148,0 z" />
      <path
         id="path6954"
         style="fill:#b92423;fill-opacity:1;fill-rule:nonzero;stroke:none"
         d="m 243.969,595.551 11.203,0 0,38.47699 -11.203,0 0,-38.47699 z" />
      <path
         id="path6956"
         style="fill:#b92423;fill-opacity:1;fill-rule:nonzero;stroke:none"
         d="m 273.6816,595.0699 c -6.888,0 -9.467,1.98 -9.467,8.133 l 0,14.2361 -3.943,0 0,6.5279 3.943,0 0,8.7771 11.046,0 0,-8.7771 5.206,0 0,-6.5279 -5.206,0 0,-11.346 c 0,-2.0331 1.052,-2.6221 3.733,-2.6221 0.475,0 1,0 1.577,0.0541 l 0,-8.188 c -2.417,-0.161 -4.733,-0.2671 -6.889,-0.2671" />
      <path
         id="path6958"
         style="fill:#b92423;fill-opacity:1;fill-rule:nonzero;stroke:none"
         d="m 305.708,595.5514 0,4.173 c -2.575,-3.317 -5.729,-4.923 -9.781,-4.923 -3.419,0 -6.1,1.179 -7.941,3.425 -2.156,2.623 -2.26,6.101 -2.26,11.025 l 0,14.716 11.095,0 0,-14.664 c 0,-3.905 0.738,-5.725 3.786,-5.725 2.788,0 4.155,1.926 4.155,5.78 l 0,14.609 11.096,0 0,-28.416 -10.15,0 z" />
      <path
         id="path6960"
         style="fill:#b92423;fill-opacity:1;fill-rule:nonzero;stroke:none"
         d="m 340.5244,613.5856 c -4.472,0 -6.521,-1.979 -6.521,-6.368 l 0,-11.666 -11.152,0 0,28.415 10.257,0 0,-5.19 c 1.471,4.173 4.154,5.94 8.677,5.94 l 0.999,0 0,-11.292 c -0.842,0.107 -1.577,0.161 -2.26,0.161" />
      <path
         id="path6962"
         style="fill:#b92423;fill-opacity:1;fill-rule:nonzero;stroke:none"
         d="m 362.2412,618.2408 c -2.893,0 -4.681,-1.926 -4.838,-5.2979 l 9.888,0 c -0.212,3.532 -1.893,5.2979 -5.05,5.2979 m -4.838,-10.9699 c 0.106,-3.64 1.945,-5.6721 5.153,-5.6721 2.157,0 3.628,0.8551 4.156,2.353 l 10.623,0 c -1.527,-6.153 -6.784,-9.418 -15.41,-9.418 -9.676,0 -15.619,5.94 -15.619,14.984 0,9.526 6.1,15.4671 16.04,15.4671 9.888,0 15.882,-6.315 15.882,-17.018 l 0,-0.696 -20.825,0 z" />
      <path
         id="path6964"
         style="fill:#91979a;fill-opacity:1;fill-rule:nonzero;stroke:none"
         d="m 178.9033,565.3053 c -3.818,-1.467 -6.233,-1.188 -6.233,-3.211 0,-1.189 0.818,-1.903 2.337,-1.903 2.766,0 3.935,1.269 3.935,4.043 0,0.357 0,0.714 -0.039,1.071 m 0.739,-9.395 -0.506,2.022 c -2.103,-1.903 -4.479,-2.775 -7.517,-2.775 -4.715,0 -7.324,2.457 -7.324,6.699 0,4.678 2.882,5.986 8.999,6.779 3.971,0.516 5.687,0.317 5.687,2.259 0,1.23 -0.974,1.744 -2.961,1.744 -1.714,0 -2.61,-0.673 -2.765,-2.101 l -8.025,0 c 0.078,4.718 3.817,7.175 11.063,7.175 3.779,0 6.662,-0.832 8.064,-1.783 2.181,-1.506 2.649,-3.092 2.649,-5.907 l 0,-11.734 c 0,-0.753 0.311,-1.387 0.895,-1.783 l 0,-0.595 -8.259,0 z" />
      <path
         id="path6966"
         style="fill:#91979a;fill-opacity:1;fill-rule:nonzero;stroke:none"
         d="m 204.6563,555.9108 0,10.901 c 0,2.893 -0.545,4.202 -2.803,4.202 -2.065,0 -3.078,-1.388 -3.078,-4.242 l 0,-10.861 -8.219,0 0,21.049 7.479,0 0,-3.092 c 1.908,2.4579 4.246,3.647 7.245,3.647 2.532,0 4.519,-0.873 5.882,-2.537 1.599,-1.942 1.714,-4.4801 1.714,-8.127 l 0,-10.94 -8.22,0 z" />
      <path
         id="path6968"
         style="fill:#91979a;fill-opacity:1;fill-rule:nonzero;stroke:none"
         d="m 226.5547,571.0919 c -2.298,0 -3.351,-1.5851 -3.351,-4.875 0,-3.131 1.287,-4.876 3.351,-4.876 2.064,0 3.39,1.745 3.39,4.876 0,3.2899 -1.092,4.875 -3.39,4.875 m 4.053,-15.1811 0,2.5771 c -1.793,-2.261 -4.014,-3.331 -6.78,-3.331 -5.219,0 -8.882,4.322 -8.882,11.179 0,6.8579 3.741,11.258 8.804,11.258 2.494,0 4.481,-0.9521 6.117,-2.8941 l 0,9.7121 8.024,0 0,-28.5011 -7.283,0 z" />
      <path
         id="path6970"
         style="fill:#91979a;fill-opacity:1;fill-rule:nonzero;stroke:none"
         d="m 271.1992,555.9108 -7.869,13.161 c -0.429,0.713 -1.014,2.1 -1.637,4.0819 0.235,-1.427 0.235,-2.7349 0.235,-3.885 l 0,-13.3579 -8.533,0 0,28.5009 8.533,0 7.867,-13.2399 c 0.468,-0.753 1.013,-2.1 1.638,-4.0831 -0.195,1.2301 -0.234,2.5371 -0.234,3.8851 l 0,13.4379 8.57,0 0,-28.5009 -8.57,0 z" />
      <path
         id="path6972"
         style="fill:#91979a;fill-opacity:1;fill-rule:nonzero;stroke:none"
         d="m 297.46,565.3053 c -3.817,-1.467 -6.233,-1.188 -6.233,-3.211 0,-1.189 0.818,-1.903 2.337,-1.903 2.766,0 3.934,1.269 3.934,4.043 0,0.357 0,0.714 -0.038,1.071 m 0.74,-9.395 -0.507,2.022 c -2.103,-1.903 -4.478,-2.775 -7.517,-2.775 -4.715,0 -7.324,2.457 -7.324,6.699 0,4.678 2.882,5.986 8.998,6.779 3.974,0.516 5.689,0.317 5.689,2.259 0,1.23 -0.975,1.744 -2.962,1.744 -1.714,0 -2.608,-0.673 -2.766,-2.101 l -8.025,0 c 0.079,4.718 3.819,7.175 11.064,7.175 3.778,0 6.661,-0.832 8.063,-1.783 2.183,-1.506 2.649,-3.092 2.649,-5.907 l 0,-11.734 c 0,-0.753 0.311,-1.387 0.895,-1.783 l 0,-0.595 -8.257,0 z" />
      <path
         id="path6974"
         style="fill:#91979a;fill-opacity:1;fill-rule:nonzero;stroke:none"
         d="m 317.4209,555.5533 c -5.103,0 -7.012,1.467 -7.012,6.0251 l 0,10.5459 -2.922,0 0,4.8351 2.922,0 0,6.5009 8.181,0 0,-6.5009 3.858,0 0,-4.8351 -3.858,0 0,-8.4049 c 0,-1.505 0.78,-1.9421 2.766,-1.9421 0.35,0 0.742,0 1.169,0.04 l 0,-6.066 c -1.791,-0.1179 -3.505,-0.198 -5.104,-0.198" />
      <path
         id="path6976"
         style="fill:#91979a;fill-opacity:1;fill-rule:nonzero;stroke:none"
         d="m 326.793,576.96 8.295,0 0,-21.0491 -8.295,0 0,21.0491 z m 0,8.165 8.295,0 0,-6.026 -8.295,0 0,6.026 z" />
      <path
         id="path6978"
         style="fill:#91979a;fill-opacity:1;fill-rule:nonzero;stroke:none"
         d="m 349.6514,571.8859 c -2.492,0 -3.39,-1.706 -3.39,-5.4311 0,-3.7259 0.898,-5.4699 3.39,-5.4699 2.493,0 3.429,1.744 3.429,5.4699 0,3.7251 -0.936,5.4311 -3.429,5.4311 m 0,-16.729 c -7.282,0 -11.687,4.322 -11.687,11.2979 0,6.9771 4.405,11.2581 11.687,11.2581 7.286,0 11.688,-4.281 11.688,-11.2581 0,-6.9759 -4.402,-11.2979 -11.688,-11.2979" />
      <path
         id="path6980"
         style="fill:#91979a;fill-opacity:1;fill-rule:nonzero;stroke:none"
         d="m 378.5781,555.9108 0,10.901 c 0,2.893 -0.546,4.202 -2.804,4.202 -2.065,0 -3.077,-1.388 -3.077,-4.242 l 0,-10.861 -8.221,0 0,21.049 7.481,0 0,-3.092 c 1.909,2.4579 4.245,3.647 7.245,3.647 2.531,0 4.52,-0.873 5.882,-2.537 1.598,-1.942 1.716,-4.4801 1.716,-8.127 l 0,-10.94 -8.222,0 z" />
      <path
         id="path6982"
         style="fill:#91979a;fill-opacity:1;fill-rule:nonzero;stroke:none"
         d="m 404.8555,565.3053 c -3.816,-1.467 -6.231,-1.188 -6.231,-3.211 0,-1.189 0.818,-1.903 2.338,-1.903 2.766,0 3.932,1.269 3.932,4.043 0,0.357 0,0.714 -0.039,1.071 m 0.742,-9.395 -0.507,2.022 c -2.104,-1.903 -4.481,-2.775 -7.517,-2.775 -4.715,0 -7.325,2.457 -7.325,6.699 0,4.678 2.881,5.986 8.999,6.779 3.973,0.516 5.686,0.317 5.686,2.259 0,1.23 -0.974,1.744 -2.959,1.744 -1.715,0 -2.612,-0.673 -2.767,-2.101 l -8.024,0 c 0.077,4.718 3.817,7.175 11.064,7.175 3.778,0 6.66,-0.832 8.063,-1.783 2.182,-1.506 2.649,-3.092 2.649,-5.907 l 0,-11.734 c 0,-0.753 0.311,-1.387 0.895,-1.783 l 0,-0.595 -8.257,0 z" />
      <path
         id="path6984"
         style="fill:#91979a;fill-opacity:1;fill-rule:nonzero;stroke:none"
         d="m 417.694,555.911 8.298,0 0,28.50098 -8.298,0 0,-28.50098 z" />
      <path
         id="path6986"
         style="fill:#91979a;fill-opacity:1;fill-rule:nonzero;stroke:none"
         d="m 183.0176,516.525 0,10.963 -8.518,0 0,-10.963 -9.154,0 0,28.253 9.154,0 0,-9.588 8.518,0 0,9.588 9.152,0 0,-28.253 -9.152,0 z" />
      <path
         id="path6988"
         style="fill:#91979a;fill-opacity:1;fill-rule:nonzero;stroke:none"
         d="m 206.8105,533.1857 c -2.178,0 -3.525,-1.414 -3.645,-3.89 l 7.45,0 c -0.159,2.593 -1.427,3.89 -3.805,3.89 m -3.645,-8.054 c 0.081,-2.673 1.467,-4.166 3.883,-4.166 1.625,0 2.735,0.629 3.13,1.7289 l 8.004,0 c -1.149,-4.5189 -5.112,-6.9149 -11.61,-6.9149 -7.288,0 -11.766,4.3599 -11.766,11.003 0,6.993 4.596,11.355 12.084,11.355 7.448,0 11.965,-4.637 11.965,-12.4951 l 0,-0.5109 -15.69,0 z" />
      <path
         id="path6990"
         style="fill:#91979a;fill-opacity:1;fill-rule:nonzero;stroke:none"
         d="m 234.4648,529.7677 c -3.367,0 -4.914,-1.454 -4.914,-4.676 l 0,-8.567 -8.399,0 0,20.866 7.726,0 0,-3.812 c 1.109,3.065 3.13,4.362 6.54,4.362 l 0.75,0 0,-8.291 c -0.634,0.079 -1.188,0.118 -1.703,0.118" />
      <path
         id="path6992"
         style="fill:#91979a;fill-opacity:1;fill-rule:nonzero;stroke:none"
         d="m 239.218,537.391 8.44,0 0,-20.866 -8.44,0 0,20.866 z m 0,8.094 8.44,0 0,-5.973 -8.44,0 0,5.973 z" />
      <path
         id="path6994"
         style="fill:#91979a;fill-opacity:1;fill-rule:nonzero;stroke:none"
         d="m 260.6924,516.172 c -5.19,0 -7.132,1.454 -7.132,5.973 l 0,10.452 -2.972,0 0,4.794 2.972,0 0,6.444 8.321,0 0,-6.444 3.921,0 0,-4.794 -3.921,0 0,-8.33 c 0,-1.493 0.792,-1.926 2.812,-1.926 0.357,0 0.754,0 1.188,0.04 l 0,-6.013 c -1.823,-0.117 -3.565,-0.196 -5.189,-0.196" />
      <path
         id="path6996"
         style="fill:#91979a;fill-opacity:1;fill-rule:nonzero;stroke:none"
         d="m 283.2354,525.8385 c -3.883,-1.454 -6.339,-1.179 -6.339,-3.183 0,-1.179 0.832,-1.885 2.375,-1.885 2.815,0 4.004,1.256 4.004,4.007 0,0.354 0,0.707 -0.04,1.061 m 0.753,-9.313 -0.516,2.004 c -2.138,-1.886 -4.556,-2.75 -7.646,-2.75 -4.793,0 -7.447,2.435 -7.447,6.64 0,4.637 2.931,5.933 9.151,6.719 4.042,0.511 5.784,0.315 5.784,2.24 0,1.219 -0.99,1.729 -3.012,1.729 -1.742,0 -2.654,-0.667 -2.811,-2.082 l -8.161,0 c 0.078,4.676 3.882,7.112 11.25,7.112 3.843,0 6.775,-0.825 8.201,-1.769 2.221,-1.493 2.695,-3.065 2.695,-5.854 l 0,-11.631 c 0,-0.747 0.318,-1.376 0.91,-1.769 l 0,-0.589 -8.398,0 z" />
      <path
         id="path6998"
         style="fill:#91979a;fill-opacity:1;fill-rule:nonzero;stroke:none"
         d="m 305.8193,531.8107 c -2.261,0 -3.37,-1.5721 -3.37,-4.714 0,-3.301 1.07,-4.952 3.37,-4.952 2.454,0 3.524,1.611 3.524,4.9119 0,3.065 -1.306,4.7541 -3.524,4.7541 m -0.159,-23.693 c -6.024,0 -9.589,2.318 -10.144,6.1679 l 8.28,0 c 0.199,-1.0219 0.951,-1.4129 2.458,-1.4129 2.773,0 3.129,1.178 3.129,4.36 l 0,1.14 c -1.426,-1.375 -3.368,-2.044 -5.864,-2.044 -5.666,0 -9.389,4.166 -9.389,10.57 0,6.877 3.644,11.042 8.993,11.042 3.013,0 5.231,-1.0221 6.894,-3.261 l 0,2.711 7.408,0 0,-19.254 c 0,-7.269 -3.249,-10.019 -11.765,-10.019" />
      <path
         id="path7000"
         style="fill:#91979a;fill-opacity:1;fill-rule:nonzero;stroke:none"
         d="m 331.6484,533.1857 c -2.18,0 -3.524,-1.414 -3.646,-3.89 l 7.45,0 c -0.158,2.593 -1.426,3.89 -3.804,3.89 m -3.646,-8.054 c 0.081,-2.673 1.466,-4.166 3.885,-4.166 1.624,0 2.733,0.629 3.13,1.7289 l 8.001,0 c -1.145,-4.5189 -5.108,-6.9149 -11.607,-6.9149 -7.29,0 -11.767,4.3599 -11.767,11.003 0,6.993 4.597,11.355 12.083,11.355 7.449,0 11.966,-4.637 11.966,-12.4951 l 0,-0.5109 -15.691,0 z" />
      <path
         id="path7002"
         style="fill:#91979a;fill-opacity:1;fill-rule:nonzero;stroke:none"
         d="m 233.832,455.9913 c -0.813,0.611 -1.948,0.917 -3.409,0.917 l -5.773,0 0,-8.12 5.773,0 c 1.461,0 2.596,0.329 3.409,0.99 0.811,0.662 1.217,1.71 1.217,3.145 0,1.434 -0.406,2.456 -1.217,3.068 m 4.889,-9.935 c -1.795,-1.347 -4.358,-2.021 -7.688,-2.021 l -6.383,0 0,-9.917 -6.361,0 0,27.581 13.16,0 c 3.035,0 5.453,-0.712 7.258,-2.135 1.803,-1.422 2.705,-3.623 2.705,-6.605 0,-3.255 -0.898,-5.556 -2.691,-6.903" />
      <g
         transform="translate(233.832,455.9913)"
         id="g7004">
        <path
           id="path7006"
           style="fill:none;stroke:#91979a;stroke-width:1.70000005;stroke-linecap:butt;stroke-linejoin:miter;stroke-miterlimit:4;stroke-dasharray:none;stroke-opacity:1"
           d="m 0,0 c -0.8130035,0.6109924 -1.947998,0.9169922 -3.408997,0.9169922 l -5.77301,0 0,-8.1199952 5.77301,0 c 1.460999,0 2.5959935,0.32901 3.408997,0.98999 0.8110046,0.662018 1.216995,1.710022 1.216995,3.14502 C 1.216995,-1.634003 0.8110046,-0.6119995 0,0 Z M 4.889008,-9.934998 C 3.093994,-11.28201 0.5310059,-11.95599 -2.798996,-11.95599 l -6.383011,0 0,-9.917 -6.360993,0 0,27.580998 13.160004,0 c 3.0349888,0 5.453003,-0.712006 7.257996,-2.13501 1.802994,-1.421997 2.705002,-3.62298579 2.705002,-6.605011 0,-3.254974 -0.897995,-5.556 -2.690994,-6.902985 z" />
      </g>
      <path
         id="path7008"
         style="fill:#91979a;fill-opacity:1;fill-rule:nonzero;stroke:none"
         d="m 199.3711,494.9567 c 1.105,-0.424 2.012,-1.074 2.721,-1.947 0.601,-0.741 0.97,-1.503 1.103,-2.284 0.135,-0.782 0.2,-2.0601 0.2,-3.831 l 0,-11.646 -5.864,0 0,12.068 c 0,1.067 -0.201,1.929 -0.601,2.584 -0.521,0.923 -1.508,1.383 -2.962,1.383 -1.507,0 -2.652,-0.458 -3.433,-1.373 -0.779,-0.917 -1.17,-2.224 -1.17,-3.923 l 0,-10.739 -5.746,0 0,26.709 5.746,0 0,-9.456 c 0.829,1.152 1.79,1.955 2.881,2.411 1.09,0.453 2.237,0.681 3.441,0.681 1.352,0 2.58,-0.213 3.684,-0.637" />
      <g
         transform="translate(199.3711,494.9567)"
         id="g7010">
        <path
           id="path7012"
           style="fill:none;stroke:#91979a;stroke-width:2.0999999;stroke-linecap:butt;stroke-linejoin:miter;stroke-miterlimit:4;stroke-dasharray:none;stroke-opacity:1"
           d="M 0,0 C 1.104996,-0.4240112 2.011993,-1.074005 2.720993,-1.946991 3.322006,-2.687988 3.690994,-3.450012 3.824005,-4.230988 3.959,-5.013 4.024002,-6.291016 4.024002,-8.062012 l 0,-11.645998 -5.863998,0 0,12.067995 c 0,1.067017 -0.201004,1.929016 -0.600998,2.584015 -0.521012,0.923004 -1.508011,1.382996 -2.962006,1.382996 -1.507004,0 -2.651993,-0.458008 -3.432999,-1.372986 C -9.615005,-5.963013 -10.006,-7.269989 -10.006,-8.968994 l 0,-10.739016 -5.746,0 0,26.709017 5.746,0 0,-9.455994 C -9.177002,-1.303009 -8.216003,-0.5 -7.125,-0.04400635 -6.035004,0.4089966 -4.888,0.6369934 -3.684006,0.6369934 -2.332001,0.6369934 -1.104004,0.4240112 0,0 Z" />
      </g>
      <path
         id="path7014"
         style="fill:#91979a;fill-opacity:1;fill-rule:nonzero;stroke:none"
         d="m 254.1816,497.3932 0,-7.2001 6.684,0 c 1.326,0 2.322,0.1451 2.987,0.4371 1.171,0.509 1.761,1.514 1.761,3.018 0,1.6229 -0.569,2.716 -1.704,3.273 -0.638,0.314 -1.597,0.472 -2.872,0.472 l -6.856,0 z m 12.836,3.9639 c 1.094,-0.4259 2.018,-1.048 2.781,-1.8729 0.628,-0.681 1.125,-1.43 1.492,-2.254 0.37,-0.824 0.552,-1.7651 0.552,-2.819 0,-1.272 -0.355,-2.525 -1.069,-3.755 -0.711,-1.231 -1.889,-2.098 -3.528,-2.6101 1.371,-0.495 2.342,-1.2009 2.915,-2.1169 0.57,-0.916 0.855,-2.311 0.855,-4.191 l 0,-1.8 c 0,-1.2231 0.057,-2.0551 0.166,-2.4911 0.163,-0.6909 0.543,-1.1999 1.144,-1.526 l 0,-0.6729 -6.853,0 c -0.19,0.593 -0.322,1.073 -0.404,1.437 -0.161,0.75 -0.249,1.5209 -0.263,2.309 l -0.041,2.491 c -0.025,1.707 -0.353,2.847 -0.979,3.416 -0.631,0.571 -1.81,0.856 -3.54,0.856 l -6.064,0 0,-10.509 -6.068,0 0,26.798 14.213,0 c 2.033,-0.035 3.595,-0.266 4.691,-0.6891" />
      <g
         transform="translate(254.1816,497.3932)"
         id="g7016">
        <path
           id="path7018"
           style="fill:none;stroke:#91979a;stroke-width:1.89999998;stroke-linecap:butt;stroke-linejoin:miter;stroke-miterlimit:4;stroke-dasharray:none;stroke-opacity:1"
           d="m 0,0 0,-7.200012 6.684006,0 c 1.325989,0 2.321991,0.145019 2.986999,0.437012 1.170995,0.509002 1.760985,1.514007 1.760985,3.018005 0,1.622986 -0.569,2.716003 -1.703978,3.2730101 C 9.090012,-0.1579895 8.130997,0 6.856003,0 L 0,0 Z m 12.83601,3.963989 c 1.094,-0.425995 2.01798,-1.048004 2.78098,-1.872986 0.62802,-0.680999 1.125,-1.4299923 1.492,-2.2539974 0.37,-0.8240051 0.55201,-1.7650146 0.55201,-2.8190006 0,-1.272003 -0.35498,-2.524994 -1.069,-3.755005 -0.711,-1.230987 -1.88901,-2.097991 -3.52799,-2.610015 1.371,-0.494995 2.34198,-1.200985 2.91498,-2.116975 C 16.549,-12.38 16.834,-13.77499 16.834,-15.655 l 0,-1.79999 c 0,-1.22302 0.05701,-2.05502 0.16598,-2.49102 0.16303,-0.69098 0.54303,-1.19999 1.14402,-1.52601 l 0,-0.67297 -6.853,0 c -0.19,0.59299 -0.32199,1.073 -0.40399,1.43698 -0.16101,0.75 -0.24902,1.521 -0.263,2.30902 l -0.04102,2.491 c -0.02499,1.707 -0.35299,2.84699 -0.979001,3.41599 -0.630982,0.57101 -1.809998,0.85601 -3.539978,0.85601 l -6.064011,0 0,-10.509 -6.067993,0 0,26.798005 14.212997,0 C 10.17799,4.618011 11.74001,4.386993 12.83601,3.963989 Z" />
      </g>
      <path
         id="path7020"
         style="fill:#91979a;fill-opacity:1;fill-rule:nonzero;stroke:none"
         d="m 317.5605,489.2116 c -0.782,1.175 -2.046,1.764 -3.798,1.764 -2.103,0 -3.551,-0.893 -4.338,-2.673 -0.41,-0.946 -0.611,-2.147 -0.611,-3.6 0,-2.302 0.683,-3.921 2.054,-4.855 0.815,-0.545 1.778,-0.818 2.895,-0.818 1.614,0 2.847,0.557 3.696,1.672 0.848,1.115 1.273,2.601 1.273,4.455 0,1.528 -0.391,2.879 -1.171,4.055 m 4.41,3.727 c 1.793,-1.709 2.687,-4.218 2.687,-7.526 0,-3.493 -0.875,-6.152 -2.626,-7.983 -1.751,-1.83 -4.008,-2.745 -6.768,-2.745 -1.759,0 -3.221,0.394 -4.385,1.182 -0.634,0.437 -1.256,1.073 -1.866,1.908 l 0,-10.326 -5.684,0 0,27.618 5.504,0 0,-2.928 c 0.622,0.861 1.284,1.539 1.989,2.037 1.285,0.883 2.814,1.326 4.587,1.326 2.583,0 4.769,-0.854 6.562,-2.563" />
      <g
         transform="translate(317.5605,489.2116)"
         id="g7022">
        <path
           id="path7024"
           style="fill:none;stroke:#91979a;stroke-width:1.89999998;stroke-linecap:butt;stroke-linejoin:miter;stroke-miterlimit:4;stroke-dasharray:none;stroke-opacity:1"
           d="m 0,0 c -0.7820129,1.174988 -2.04599,1.764008 -3.798004,1.764008 -2.102997,0 -3.550995,-0.8930058 -4.337982,-2.6730046 C -8.54599,-1.855011 -8.747009,-3.056 -8.747009,-4.509003 c 0,-2.302002 0.683014,-3.92099 2.054016,-4.855011 0.815002,-0.544983 1.777984,-0.817996 2.894989,-0.817996 1.614014,0 2.8470152,0.55701 3.6960143,1.672 C 0.7460022,-7.394989 1.17099,-5.908997 1.17099,-4.054993 1.17099,-2.527008 0.7799988,-1.175995 0,0 Z m 4.410004,3.72699 c 1.792999,-1.708985 2.686981,-4.2179873 2.686981,-7.526001 0,-3.492981 -0.875,-6.151978 -2.625977,-7.982999 -1.751007,-1.82999 -4.0079953,-2.745 -6.768005,-2.745 -1.759003,0 -3.221008,0.39401 -4.38501,1.18201 -0.634003,0.43701 -1.255981,1.073 -1.865997,1.90799 l 0,-10.32599 -5.683986,0 0,27.618011 5.503993,0 0,-2.928009 c 0.622009,0.860992 1.283997,1.539001 1.988983,2.036987 1.285004,0.883026 2.814026,1.32602 4.587006,1.32602 2.5830078,0 4.769012,-0.854004 6.562012,-2.563019 z" />
      </g>
      <path
         id="path7026"
         style="fill:#91979a;fill-opacity:1;fill-rule:nonzero;stroke:none"
         d="m 369.0908,480.612 c 0.826,1.078 1.24,2.497 1.24,4.254 0,1.406 -0.204,2.571 -0.612,3.49 -0.772,1.746 -2.194,2.619 -4.268,2.619 -2.098,0 -3.543,-0.855 -4.33,-2.563 -0.406,-0.911 -0.609,-2.086 -0.609,-3.529 0,-1.696 0.42,-3.102 1.262,-4.217 0.839,-1.115 2.12,-1.672 3.841,-1.672 1.49,0 2.65,0.54 3.476,1.618 m 4.802,12.072 c 1.644,-1.879 2.466,-4.302 2.466,-7.272 0,-3.079 -0.811,-5.632 -2.431,-7.654 -1.622,-2.026 -3.886,-3.038 -6.79,-3.038 -1.822,0 -3.288,0.328 -4.398,0.982 -0.66,0.389 -1.378,1.066 -2.148,2.036 l 0,-2.489 -5.663,0 0,26.762 5.745,0 0,-9.526 c 0.729,0.92 1.534,1.624 2.415,2.107 1.042,0.606 2.366,0.91 3.975,0.91 2.91,0 5.186,-0.939 6.829,-2.818" />
      <g
         transform="translate(369.0908,480.612)"
         id="g7028">
        <path
           id="path7030"
           style="fill:none;stroke:#91979a;stroke-width:1.89999998;stroke-linecap:butt;stroke-linejoin:miter;stroke-miterlimit:4;stroke-dasharray:none;stroke-opacity:1"
           d="m 0,0 c 0.8259888,1.078003 1.23999,2.497009 1.23999,4.253998 0,1.406006 -0.203979,2.571014 -0.6119993,3.48999 -0.7720032,1.746002 -2.1940007,2.619022 -4.2680057,2.619022 -2.097992,0 -3.542999,-0.855014 -4.329986,-2.563022 -0.406006,-0.91098 -0.609009,-2.085999 -0.609009,-3.528992 0,-1.695984 0.420013,-3.10199 1.262024,-4.2170104 C -6.477997,-1.061005 -5.196991,-1.618011 -3.476013,-1.618011 -1.985992,-1.618011 -0.8259888,-1.078003 0,0 Z m 4.802002,12.07199 c 1.644012,-1.879 2.466003,-4.302001 2.466003,-7.272002 0,-3.07898 -0.811004,-5.6319887 -2.430999,-7.653992 -1.62201,-2.026001 -3.8860172,-3.037994 -6.790009,-3.037994 -1.821991,0 -3.287994,0.328003 -4.39801,0.981994 -0.659973,0.389008 -1.377991,1.06601 -2.14798,2.036011 l 0,-2.489014 -5.662997,0 0,26.761997 5.744998,0 0,-9.526 c 0.729004,0.92001 1.533996,1.62402 2.414978,2.10702 1.042023,0.60599 2.366028,0.91 3.975006,0.91 2.9100036,0 5.186005,-0.93902 6.82901,-2.81802 z" />
      </g>
      <path
         id="path7032"
         style="fill:#91979a;fill-opacity:1;fill-rule:nonzero;stroke:none"
         d="m 420.1299,487.9577 c -0.106,0.739 -0.384,1.405 -0.828,2 -0.645,0.799 -1.651,1.199 -3.012,1.199 -1.938,0 -3.267,-0.866 -3.981,-2.599 -0.376,-0.919 -0.565,-2.141 -0.565,-3.664 0,-1.451 0.189,-2.617 0.565,-3.502 0.685,-1.648 1.981,-2.471 3.882,-2.471 1.347,0 2.303,0.329 2.868,0.981 0.565,0.654 0.91,1.504 1.031,2.547 l 5.868,0 c -0.138,-1.577 -0.768,-3.068 -1.898,-4.474 -1.801,-2.267 -4.474,-3.4 -8.011,-3.4 -3.54,0 -6.142,0.947 -7.813,2.838 -1.669,1.89 -2.499,4.341 -2.499,7.355 0,3.398 0.92,6.044 2.764,7.936 1.841,1.889 4.385,2.835 7.629,2.835 2.757,0 5.012,-0.558 6.769,-1.674 1.755,-1.115 2.794,-3.083 3.12,-5.907 l -5.889,0 z" />
      <g
         transform="translate(420.1299,487.9577)"
         id="g7034">
        <path
           id="path7036"
           style="fill:none;stroke:#91979a;stroke-width:1.89999998;stroke-linecap:butt;stroke-linejoin:miter;stroke-miterlimit:4;stroke-dasharray:none;stroke-opacity:1"
           d="M 0,0 C -0.1059875,0.7390137 -0.3840027,1.404999 -0.8280029,2 -1.472992,2.799011 -2.479004,3.199005 -3.839996,3.199005 c -1.938019,0 -3.266999,-0.865997 -3.981018,-2.5989989 -0.375977,-0.9190063 -0.564972,-2.1409911 -0.564972,-3.6640011 0,-1.45102 0.188995,-2.617005 0.564972,-3.502015 0.685028,-1.647979 1.981018,-2.470977 3.882019,-2.470977 1.346985,0 2.303009,0.328979 2.867981,0.980987 0.565002,0.653992 0.9100033,1.503998 1.03100546,2.546997 l 5.86801154,0 C 5.690002,-7.085999 5.059998,-8.576996 3.929993,-9.983002 2.128998,-12.25 -0.5440063,-13.383 -4.080994,-13.383 c -3.540008,0 -6.141996,0.947 -7.813016,2.83799 -1.66898,1.890011 -2.499,4.341 -2.499,7.355008 0,3.3980098 0.92002,6.044006 2.76401,7.936004 1.841006,1.889008 4.385012,2.834992 7.629,2.834992 2.756989,0 5.011993,-0.557984 6.769012,-1.673981 C 4.523987,4.791992 5.562988,2.824005 5.889008,0 L 0,0 Z" />
      </g>
      <path
         id="path7038"
         style="fill:#b92423;fill-opacity:1;fill-rule:evenodd;stroke:none"
         d="m 365.532,433.364 12.58499,0 0,12.58401 -12.58499,0 0,-12.58401 z" />
      <path
         id="path7040"
         style="fill:#91979a;fill-opacity:1;fill-rule:nonzero;stroke:none"
         d="m 393.123,544.1315 c 0.3,-0.02 0.706,-0.0461 1.223,-0.083 l 0,-4.26 c -0.327,0.0369 -0.873,0.065 -1.639,0.083 -0.768,0.017 -1.297,-0.136 -1.59,-0.459 -0.291,-0.325 -0.436,-0.683 -0.436,-1.0741 l 0,-1.6899 3.807,0 0,-3.691 -3.807,0 0,-16.139 -5.762,0 0,16.139 -3.258,0 0,3.691 3.177,0 0,1.2859 c 0,2.1421 0.399,3.6171 1.2,4.4241 0.841,1.2 2.871,1.7999 6.087,1.7999 0.368,0 0.699,-0.01 0.998,-0.0269" />
      <g
         transform="translate(393.123,544.1315)"
         id="g7042">
        <path
           id="path7044"
           style="fill:none;stroke:#91979a;stroke-width:1.70000005;stroke-linecap:butt;stroke-linejoin:miter;stroke-miterlimit:4;stroke-dasharray:none;stroke-opacity:1"
           d="m 0,0 c 0.2999878,-0.02001953 0.7059937,-0.04602051 1.222992,-0.08300781 l 0,-4.26001019 C 0.8959961,-4.30603 0.3500061,-4.278015 -0.4159851,-4.26001 -1.18399,-4.242981 -1.713013,-4.395996 -2.006012,-4.718994 -2.296997,-5.044006 -2.441986,-5.401978 -2.441986,-5.79303 l 0,-1.689941 3.806976,0 0,-3.691039 -3.806976,0 0,-16.13898 -5.762024,0 0,16.13898 -3.258,0 0,3.691039 3.177006,0 0,1.28595 c 0,2.142028 0.399018,3.617004 1.200013,4.424011 0.841003,1.200012 2.871002,1.79998754 6.0870052,1.79998754 C -0.6300049,0.02697754 -0.2990112,0.01702881 0,0 Z" />
      </g>
      <path
         id="path7046"
         style="fill:#91979a;fill-opacity:1;fill-rule:nonzero;stroke:none"
         d="m 367.4902,532.2448 c -2.493,0 -3.39,-1.706 -3.39,-5.4321 0,-3.7249 0.897,-5.4689 3.39,-5.4689 2.492,0 3.428,1.744 3.428,5.4689 0,3.7261 -0.936,5.4321 -3.428,5.4321 m 0,-16.7291 c -7.284,0 -11.688,4.321 -11.688,11.297 0,6.9781 4.404,11.258 11.688,11.258 7.285,0 11.688,-4.2799 11.688,-11.258 0,-6.976 -4.403,-11.297 -11.688,-11.297" />
      <path
         id="path7048"
         style="fill:#91979a;fill-opacity:1;fill-rule:nonzero;stroke:none"
         d="m 175.9766,449.4948 c -2.492,0 -3.389,-1.705 -3.389,-5.431 0,-3.726 0.897,-5.47 3.389,-5.47 2.494,0 3.428,1.744 3.428,5.47 0,3.726 -0.934,5.431 -3.428,5.431 m 0,-16.729 c -7.283,0 -11.687,4.322 -11.687,11.298 0,6.978 4.404,11.259 11.687,11.259 7.286,0 11.688,-4.281 11.688,-11.259 0,-6.976 -4.402,-11.298 -11.688,-11.298" />
      <path
         id="path7050"
         style="fill:#91979a;fill-opacity:1;fill-rule:nonzero;stroke:none"
         d="m 218.6738,491.8463 c -2.188,0 -3.541,-1.419 -3.66,-3.904 l 7.476,0 c -0.158,2.601 -1.431,3.904 -3.816,3.904 m -3.66,-8.085 c 0.08,-2.683 1.472,-4.181 3.898,-4.181 1.63,0 2.742,0.631 3.141,1.736 l 8.033,0 c -1.153,-4.538 -5.129,-6.942 -11.65,-6.942 -7.318,0 -11.813,4.376 -11.813,11.044 0,7.019 4.613,11.396 12.129,11.396 7.48,0 12.011,-4.653 12.011,-12.54 l 0,-0.513 -15.749,0 z" />
      <path
         id="path7052"
         style="fill:#91979a;fill-opacity:1;fill-rule:nonzero;stroke:none"
         d="m 287.6523,491.8463 c -2.188,0 -3.541,-1.419 -3.658,-3.904 l 7.474,0 c -0.157,2.601 -1.431,3.904 -3.816,3.904 m -3.658,-8.085 c 0.076,-2.683 1.47,-4.181 3.893,-4.181 1.632,0 2.747,0.631 3.146,1.736 l 8.029,0 c -1.152,-4.538 -5.127,-6.942 -11.649,-6.942 -7.318,0 -11.813,4.376 -11.813,11.044 0,7.019 4.613,11.396 12.13,11.396 7.477,0 12.011,-4.653 12.011,-12.54 l 0,-0.513 -15.747,0 z" />
      <path
         id="path7054"
         style="fill:#91979a;fill-opacity:1;fill-rule:nonzero;stroke:none"
         d="m 254.9277,449.4948 c -2.493,0 -3.39,-1.705 -3.39,-5.431 0,-3.726 0.897,-5.47 3.39,-5.47 2.492,0 3.428,1.744 3.428,5.47 0,3.726 -0.936,5.431 -3.428,5.431 m 0,-16.729 c -7.283,0 -11.688,4.322 -11.688,11.298 0,6.978 4.405,11.259 11.688,11.259 7.285,0 11.687,-4.281 11.687,-11.259 0,-6.976 -4.402,-11.298 -11.687,-11.298" />
      <path
         id="path7056"
         style="fill:#91979a;fill-opacity:1;fill-rule:nonzero;stroke:none"
         d="m 379.753,474.155 8.44199,0 0,28.99701 -8.44199,0 0,-28.99701 z" />
      <path
         id="path7058"
         style="fill:#91979a;fill-opacity:1;fill-rule:nonzero;stroke:none"
         d="m 269.585,433.359 8.20599,0 0,28.181 -8.20599,0 0,-28.181 z" />
      <path
         id="path7060"
         style="fill:#91979a;fill-opacity:1;fill-rule:nonzero;stroke:none"
         d="m 173.2627,474.2912 c -5.103,0 -7.011,1.468 -7.011,6.027 l 0,10.542 -2.922,0 0,4.838 2.922,0 0,6.5 8.18,0 0,-6.5 3.857,0 0,-4.838 -3.857,0 0,-8.402 c 0,-1.507 0.78,-1.943 2.766,-1.943 0.351,0 0.741,0 1.169,0.04 l 0,-6.065 c -1.792,-0.119 -3.505,-0.199 -5.104,-0.199" />
      <path
         id="path7062"
         style="fill:#91979a;fill-opacity:1;fill-rule:nonzero;stroke:none"
         d="m 323.2451,433.5202 0,10.901 c 0,2.893 -0.546,4.202 -2.804,4.202 -2.064,0 -3.077,-1.388 -3.077,-4.242 l 0,-10.861 -8.222,0 0,21.049 7.482,0 0,-3.092 c 1.908,2.458 4.244,3.647 7.245,3.647 2.532,0 4.519,-0.873 5.882,-2.537 1.597,-1.943 1.715,-4.48 1.715,-8.127 l 0,-10.94 -8.221,0 z" />
      <path
         id="path7064"
         style="fill:#91979a;fill-opacity:1;fill-rule:nonzero;stroke:none"
         d="m 346.4678,448.5368 c -2.3,0 -3.351,-1.585 -3.351,-4.875 0,-3.132 1.285,-4.876 3.351,-4.876 2.063,0 3.39,1.744 3.39,4.876 0,3.29 -1.092,4.875 -3.39,4.875 m 4.052,-15.182 0,2.578 c -1.793,-2.262 -4.013,-3.331 -6.779,-3.331 -5.22,0 -8.882,4.322 -8.882,11.179 0,6.858 3.74,11.257 8.803,11.257 2.495,0 4.481,-0.951 6.118,-2.893 l 0,9.712 8.022,0 0,-28.502 -7.282,0 z" />
      <path
         id="path7066"
         style="fill:#91979a;fill-opacity:1;fill-rule:nonzero;stroke:none"
         d="m 296.5059,442.7501 c -3.816,-1.466 -6.233,-1.188 -6.233,-3.2091 0,-1.1899 0.819,-1.9039 2.338,-1.9039 2.766,0 3.934,1.269 3.934,4.043 0,0.3569 0,0.714 -0.039,1.07 m 0.741,-9.3941 -0.507,2.0211 c -2.103,-1.902 -4.48,-2.774 -7.517,-2.774 -4.715,0 -7.324,2.457 -7.324,6.699 0,4.677 2.881,5.986 8.998,6.779 3.974,0.515 5.687,0.317 5.687,2.259 0,1.229 -0.974,1.744 -2.961,1.744 -1.715,0 -2.609,-0.673 -2.765,-2.101 l -8.025,0 c 0.077,4.7179 3.818,7.175 11.064,7.175 3.778,0 6.66,-0.8321 8.063,-1.783 2.183,-1.507 2.649,-3.092 2.649,-5.9071 l 0,-11.7339 c 0,-0.7531 0.31,-1.3871 0.896,-1.7831 l 0,-0.595 -8.258,0 z" />
      <path
         id="path7068"
         style="fill:#91979a;fill-opacity:1;fill-rule:nonzero;stroke:none"
         d="m 200.1699,449.7296 0,-16.292 -8.18,0 0,16.292 -2.57,0 0,4.757 2.57,0 0,1.307 c 0,4.718 2.26,6.858 7.09,6.858 l 4.598,0 0,-5.271 c -0.312,0 -0.584,0.039 -0.858,0.039 -1.947,0 -2.688,-0.555 -2.688,-2.299 0,-0.198 0.038,-0.397 0.038,-0.634 l 3.508,0 0,-4.757 -3.508,0 z" />
      <path
         id="path7070"
         style="fill:#91979a;fill-opacity:1;fill-rule:nonzero;stroke:none"
         d="m 392.943,495.201 8.295,0 0,-21.049 -8.295,0 0,21.049 z m 0,8.165 8.295,0 0,-6.025 -8.295,0 0,6.025 z" />
      <path
         id="path7072"
         style="fill:#91979a;fill-opacity:1;fill-rule:nonzero;stroke:none"
         d="m 343.1445,474.3483 0,3.176 c -1.963,-2.526 -4.364,-3.746 -7.443,-3.746 -2.603,0 -4.643,0.897 -6.044,2.605 -1.643,1.997 -1.721,4.644 -1.721,8.39 l 0,11.198 8.444,0 0,-11.158 c 0,-2.972 0.558,-4.357 2.88,-4.357 2.122,0 3.163,1.466 3.163,4.399 l 0,11.116 8.444,0 0,-21.623 -7.723,0 z" />
    </g>
  </g>
</svg>
