<?xml version="1.0" encoding="UTF-8" standalone="no"?>
<svg
   xmlns:dc="http://purl.org/dc/elements/1.1/"
   xmlns:cc="http://creativecommons.org/ns#"
   xmlns:rdf="http://www.w3.org/1999/02/22-rdf-syntax-ns#"
   xmlns:svg="http://www.w3.org/2000/svg"
   xmlns="http://www.w3.org/2000/svg"
   version="1.1"
   id="svg7852"
   viewBox="0 0 369.82 369.82251"
   height="104.37213mm"
   width="104.37142mm">
  <defs
     id="defs7854">
    <clipPath
       clipPathUnits="userSpaceOnUse"
       id="clipPath7261">
      <path
         d="m 150.346,394.906 295.856,0 0,295.858 -295.856,0 0,-295.858 z"
         id="path7263" />
    </clipPath>
  </defs>
  <metadata
     id="metadata7857">
    <rdf:RDF>
      <cc:Work
         rdf:about="">
        <dc:format>image/svg+xml</dc:format>
        <dc:type
           rdf:resource="http://purl.org/dc/dcmitype/StillImage" />
        <dc:title></dc:title>
      </cc:Work>
    </rdf:RDF>
  </metadata>
  <path
     id="path7255"
     style="fill:#ffffff;fill-opacity:1;fill-rule:nonzero;stroke:none"
     d="m 0,369.8225 369.82,0 L 369.82,0 0,0 0,369.8225 Z" />
  <g
     transform="matrix(1.25,0,0,-1.25,-187.9325,863.455)"
     id="g7257">
    <g
       clip-path="url(#clipPath7261)"
       id="g7259">
      <path
         id="path7265"
         style="fill:#91979a;fill-opacity:1;fill-rule:nonzero;stroke:none"
         d="m 188.896,647.145 0.073,13.196 c 0,0.671 0,2.274 0.037,4.697 -0.476,-2.274 -0.88,-3.877 -1.099,-4.771 l -3.261,-13.122 -5.897,0 -3.297,12.823 c -0.366,1.454 -0.696,3.132 -1.062,5.07 0.073,-2.311 0.11,-3.951 0.11,-4.958 l 0,-12.935 -7.657,0 0,26.802 10.294,0 3.663,-13.382 c 0.073,-0.336 0.366,-1.64 0.879,-3.914 0.366,1.938 0.659,3.243 0.843,3.876 l 3.736,13.42 10.294,0 0,-26.802 -7.656,0 z" />
      <path
         id="path7267"
         style="fill:#91979a;fill-opacity:1;fill-rule:nonzero;stroke:none"
         d="m 202.266,666.939 7.803,0 0,-19.794 -7.803,0 0,19.794 z m 0,7.679 7.803,0 0,-5.666 -7.803,0 0,5.666 z" />
      <path
         id="path7269"
         style="fill:#91979a;fill-opacity:1;fill-rule:nonzero;stroke:none"
         d="m 228.677,647.145 0,10.251 c 0,2.721 -0.512,3.952 -2.637,3.952 -1.941,0 -2.894,-1.305 -2.894,-3.989 l 0,-10.214 -7.729,0 0,19.794 7.033,0 0,-2.908 c 1.795,2.312 3.993,3.429 6.814,3.429 2.381,0 4.249,-0.819 5.531,-2.385 1.502,-1.827 1.611,-4.212 1.611,-7.641 l 0,-10.289 -7.729,0 z" />
      <path
         id="path7271"
         style="fill:#91979a;fill-opacity:1;fill-rule:nonzero;stroke:none"
         d="m 241.586,666.939 7.803,0 0,-19.794 -7.803,0 0,19.794 z m 0,7.679 7.803,0 0,-5.666 -7.803,0 0,5.666 z" />
      <path
         id="path7273"
         style="fill:#91979a;fill-opacity:1;fill-rule:nonzero;stroke:none"
         d="m 263.382,646.437 c -6.301,0 -9.598,2.312 -9.927,6.934 l 7.509,0 c 0,-1.678 0.842,-2.498 2.527,-2.498 1.649,0 2.528,0.597 2.528,1.64 0,1.416 -1.099,1.566 -3.26,2.05 -6.008,1.305 -8.792,2.386 -8.792,6.561 0,4.212 3.26,6.523 9.561,6.523 5.824,0 9.011,-2.124 9.487,-6.225 l -6.959,0 c -0.111,1.156 -1.063,1.938 -2.455,1.938 -1.392,0 -2.088,-0.522 -2.088,-1.379 0,-1.416 1.282,-1.416 3.7,-1.976 5.788,-1.341 8.462,-2.422 8.462,-6.709 0,-4.511 -3.48,-6.859 -10.293,-6.859" />
      <path
         id="path7275"
         style="fill:#91979a;fill-opacity:1;fill-rule:nonzero;stroke:none"
         d="m 285.288,646.81 c -4.8,0 -6.595,1.379 -6.595,5.666 l 0,9.915 -2.747,0 0,4.548 2.747,0 0,6.113 7.693,0 0,-6.113 3.627,0 0,-4.548 -3.627,0 0,-7.902 c 0,-1.417 0.733,-1.827 2.6,-1.827 0.33,0 0.697,0 1.1,0.037 l 0,-5.703 c -1.685,-0.111 -3.297,-0.186 -4.798,-0.186" />
      <path
         id="path7277"
         style="fill:#91979a;fill-opacity:1;fill-rule:nonzero;stroke:none"
         d="m 303.857,662.95 c -2.013,0 -3.259,-1.342 -3.368,-3.69 l 6.887,0 c -0.147,2.46 -1.319,3.69 -3.519,3.69 m -3.368,-7.641 c 0.072,-2.535 1.355,-3.951 3.589,-3.951 1.502,0 2.528,0.596 2.894,1.639 l 7.399,0 c -1.061,-4.286 -4.726,-6.56 -10.732,-6.56 -6.74,0 -10.88,4.138 -10.88,10.437 0,6.636 4.25,10.773 11.174,10.773 6.885,0 11.062,-4.399 11.062,-11.854 l 0,-0.484 -14.506,0 z" />
      <path
         id="path7279"
         style="fill:#91979a;fill-opacity:1;fill-rule:nonzero;stroke:none"
         d="m 330.563,659.707 c -3.113,0 -4.541,-1.379 -4.541,-4.435 l 0,-8.127 -7.767,0 0,19.794 7.144,0 0,-3.616 c 1.024,2.908 2.894,4.137 6.042,4.137 l 0.698,0 0,-7.865 c -0.587,0.075 -1.1,0.112 -1.576,0.112" />
      <path
         id="path7281"
         style="fill:#91979a;fill-opacity:1;fill-rule:nonzero;stroke:none"
         d="m 344.63,646.437 c -6.301,0 -9.597,2.312 -9.927,6.934 l 7.508,0 c 0,-1.678 0.843,-2.498 2.529,-2.498 1.648,0 2.528,0.597 2.528,1.64 0,1.416 -1.1,1.566 -3.261,2.05 -6.008,1.305 -8.792,2.386 -8.792,6.561 0,4.212 3.261,6.523 9.561,6.523 5.824,0 9.011,-2.124 9.488,-6.225 l -6.96,0 c -0.11,1.156 -1.063,1.938 -2.454,1.938 -1.392,0 -2.089,-0.522 -2.089,-1.379 0,-1.416 1.283,-1.416 3.7,-1.976 5.788,-1.341 8.461,-2.422 8.461,-6.709 0,-4.511 -3.479,-6.859 -10.292,-6.859" />
      <path
         id="path7283"
         style="fill:#91979a;fill-opacity:1;fill-rule:nonzero;stroke:none"
         d="m 366.646,646.81 c -4.798,0 -6.593,1.379 -6.593,5.666 l 0,9.915 -2.748,0 0,4.548 2.748,0 0,6.113 7.692,0 0,-6.113 3.628,0 0,-4.548 -3.628,0 0,-7.902 c 0,-1.417 0.734,-1.827 2.601,-1.827 0.33,0 0.697,0 1.1,0.037 l 0,-5.703 c -1.686,-0.111 -3.296,-0.186 -4.8,-0.186" />
      <path
         id="path7285"
         style="fill:#91979a;fill-opacity:1;fill-rule:nonzero;stroke:none"
         d="m 401.263,647.145 -7.583,0 -2.821,11.444 -2.82,-11.444 -7.582,0 -6.41,19.794 7.655,0 2.894,-12.078 3.003,12.078 6.522,0 3.003,-12.078 2.894,12.078 7.362,0 -6.117,-19.794 z" />
      <path
         id="path7287"
         style="fill:#91979a;fill-opacity:1;fill-rule:nonzero;stroke:none"
         d="m 419.101,662.168 c -2.344,0 -3.186,-1.603 -3.186,-5.107 0,-3.504 0.842,-5.144 3.186,-5.144 2.345,0 3.223,1.64 3.223,5.144 0,3.504 -0.878,5.107 -3.223,5.107 m 0,-15.731 c -6.848,0 -10.989,4.063 -10.989,10.624 0,6.56 4.141,10.586 10.989,10.586 6.851,0 10.99,-4.026 10.99,-10.586 0,-6.561 -4.139,-10.624 -10.99,-10.624" />
      <path
         id="path7289"
         style="fill:#b92423;fill-opacity:1;fill-rule:nonzero;stroke:none"
         d="m 189.608,601.483 -8.704,14.492 -2.819,-2.968 0,-11.524 -11.325,0 0,36.181 11.325,0 0,-11.976 10.237,11.976 13.253,0 -12.709,-13.335 14.341,-22.846 -13.599,0 z" />
      <path
         id="path7291"
         style="fill:#b92423;fill-opacity:1;fill-rule:nonzero;stroke:none"
         d="m 223.406,601.483 0,3.925 c -2.423,-3.12 -5.39,-4.63 -9.198,-4.63 -3.215,0 -5.737,1.107 -7.468,3.221 -2.027,2.466 -2.126,5.736 -2.126,10.366 l 0,13.839 10.435,0 0,-13.789 c 0,-3.673 0.692,-5.384 3.56,-5.384 2.621,0 3.907,1.812 3.907,5.435 l 0,13.738 10.435,0 0,-26.721 -9.545,0 z" />
      <path
         id="path7293"
         style="fill:#b92423;fill-opacity:1;fill-rule:nonzero;stroke:none"
         d="m 239.577,637.664 10.534,0 0,-36.182 -10.534,0 0,36.182 z" />
      <path
         id="path7295"
         style="fill:#b92423;fill-opacity:1;fill-rule:nonzero;stroke:none"
         d="m 267.37,601.03 c -6.479,0 -8.902,1.862 -8.902,7.649 l 0,13.385 -3.709,0 0,6.14 3.709,0 0,8.252 10.385,0 0,-8.252 4.896,0 0,-6.14 -4.896,0 0,-10.668 c 0,-1.912 0.989,-2.466 3.512,-2.466 0.444,0 0.938,0 1.483,0.05 l 0,-7.699 c -2.275,-0.151 -4.451,-0.251 -6.478,-0.251" />
      <path
         id="path7297"
         style="fill:#b92423;fill-opacity:1;fill-rule:nonzero;stroke:none"
         d="m 297.337,601.483 0,3.925 c -2.423,-3.12 -5.39,-4.63 -9.199,-4.63 -3.214,0 -5.736,1.107 -7.467,3.221 -2.028,2.466 -2.127,5.736 -2.127,10.366 l 0,13.839 10.436,0 0,-13.789 c 0,-3.673 0.691,-5.384 3.56,-5.384 2.621,0 3.907,1.812 3.907,5.435 l 0,13.738 10.434,0 0,-26.721 -9.544,0 z" />
      <path
         id="path7299"
         style="fill:#b92423;fill-opacity:1;fill-rule:nonzero;stroke:none"
         d="m 329.925,618.441 c -4.203,0 -6.132,-1.862 -6.132,-5.988 l 0,-10.97 -10.483,0 0,26.721 9.643,0 0,-4.881 c 1.385,3.925 3.907,5.585 8.159,5.585 l 0.941,0 0,-10.618 c -0.791,0.101 -1.483,0.151 -2.128,0.151" />
      <path
         id="path7301"
         style="fill:#b92423;fill-opacity:1;fill-rule:nonzero;stroke:none"
         d="m 355.913,601.634 c -1.336,-4.127 -2.324,-7.096 -3.906,-8.656 -2.027,-2.063 -4.599,-2.214 -8.26,-2.214 -1.236,0 -3.015,0.051 -5.291,0.201 l 0,7.901 2.967,0 c 1.929,0 2.868,0.604 2.868,2.264 0,0.755 -0.198,1.611 -0.544,2.617 l -8.802,24.457 10.582,0 4.6,-16.204 4.45,16.204 9.841,0 -8.505,-26.57 z" />
      <path
         id="path7303"
         style="fill:#91979a;fill-opacity:1;fill-rule:nonzero;stroke:none"
         d="m 166.624,583.069 7.803,0 0,-19.794 -7.803,0 0,19.794 z m 0,7.678 7.803,0 0,-5.666 -7.803,0 0,5.666 z" />
      <path
         id="path7305"
         style="fill:#91979a;fill-opacity:1;fill-rule:nonzero;stroke:none"
         d="m 202.852,583.292 -2.38,0 0,-13.233 2.271,0 c 4.175,0 5.604,1.603 5.604,6.598 0,4.845 -1.502,6.635 -5.495,6.635 m 7.254,-18.898 c -2.235,-1.045 -5.348,-1.119 -9.451,-1.119 l -8.645,0 0,26.801 10.22,0 c 3.773,0 6.703,-0.112 9.121,-1.528 3.663,-2.162 5.495,-6.114 5.495,-11.891 0,-6.076 -2.308,-10.251 -6.74,-12.263" />
      <path
         id="path7307"
         style="fill:#91979a;fill-opacity:1;fill-rule:nonzero;stroke:none"
         d="m 219.175,563.275 0,5.331 8.864,8.684 -8.095,0 0,5.779 17.217,0 0,-5.294 -8.645,-8.722 9.085,0 0,-5.778 -18.426,0 z" />
      <path
         id="path7309"
         style="fill:#91979a;fill-opacity:1;fill-rule:nonzero;stroke:none"
         d="m 241.044,583.069 7.803,0 0,-19.794 -7.803,0 0,19.794 z m 0,7.678 7.803,0 0,-5.666 -7.803,0 0,5.666 z" />
      <path
         id="path7311"
         style="fill:#91979a;fill-opacity:1;fill-rule:nonzero;stroke:none"
         d="m 263.792,579.08 c -2.014,0 -3.26,-1.342 -3.37,-3.691 l 6.887,0 c -0.147,2.46 -1.319,3.691 -3.517,3.691 m -3.37,-7.642 c 0.073,-2.535 1.356,-3.951 3.589,-3.951 1.503,0 2.529,0.596 2.895,1.64 l 7.399,0 c -1.062,-4.286 -4.725,-6.56 -10.733,-6.56 -6.74,0 -10.879,4.138 -10.879,10.437 0,6.635 4.249,10.772 11.172,10.772 6.887,0 11.063,-4.398 11.063,-11.853 l 0,-0.485 -14.506,0 z" />
      <path
         id="path7313"
         style="fill:#91979a;fill-opacity:1;fill-rule:nonzero;stroke:none"
         d="m 288.555,577.551 c -2.162,0 -3.151,-1.49 -3.151,-4.585 0,-2.944 1.209,-4.585 3.151,-4.585 1.941,0 3.187,1.641 3.187,4.585 0,3.095 -1.026,4.585 -3.187,4.585 m 3.808,-14.276 0,2.423 c -1.684,-2.125 -3.772,-3.131 -6.373,-3.131 -4.908,0 -8.351,4.062 -8.351,10.511 0,6.449 3.516,10.586 8.278,10.586 2.344,0 4.213,-0.894 5.751,-2.721 l 0,9.133 7.546,0 0,-26.801 -6.851,0 z" />
      <path
         id="path7315"
         style="fill:#91979a;fill-opacity:1;fill-rule:nonzero;stroke:none"
         d="m 302.255,563.275 0,5.331 8.863,8.684 -8.094,0 0,5.779 17.217,0 0,-5.294 -8.646,-8.722 9.084,0 0,-5.778 -18.424,0 z" />
      <path
         id="path7317"
         style="fill:#91979a;fill-opacity:1;fill-rule:nonzero;stroke:none"
         d="m 324.123,583.069 7.803,0 0,-19.794 -7.803,0 0,19.794 z m 0,7.678 7.803,0 0,-5.666 -7.803,0 0,5.666 z" />
      <path
         id="path7319"
         style="fill:#91979a;fill-opacity:1;fill-rule:nonzero;stroke:none"
         d="m 345.983,562.567 c -6.961,0 -11.175,4.138 -11.175,10.623 0,6.561 4.214,10.586 11.101,10.586 6.336,0 10.367,-3.28 10.55,-8.238 l -7.73,0 c -0.145,1.864 -1.061,2.759 -2.858,2.759 -2.269,0 -3.26,-1.64 -3.26,-5.107 0,-3.504 0.954,-5.144 3.187,-5.144 1.795,0 2.822,1.007 3.006,2.945 l 7.728,0 c -0.33,-5.181 -4.287,-8.424 -10.549,-8.424" />
      <path
         id="path7321"
         style="fill:#91979a;fill-opacity:1;fill-rule:nonzero;stroke:none"
         d="m 367.778,562.939 c -4.799,0 -6.594,1.379 -6.594,5.667 l 0,9.914 -2.746,0 0,4.549 2.746,0 0,6.112 7.694,0 0,-6.112 3.626,0 0,-4.549 -3.626,0 0,-7.902 c 0,-1.417 0.731,-1.827 2.6,-1.827 0.329,0 0.696,0 1.098,0.038 l 0,-5.704 c -1.684,-0.11 -3.296,-0.186 -4.798,-0.186" />
      <path
         id="path7323"
         style="fill:#91979a;fill-opacity:1;fill-rule:nonzero;stroke:none"
         d="m 401.922,563.275 -7.583,0 -2.821,11.443 -2.82,-11.443 -7.582,0 -6.41,19.794 7.655,0 2.894,-12.078 3.003,12.078 6.521,0 3.004,-12.078 2.894,12.078 7.362,0 -6.117,-19.794 z" />
      <path
         id="path7325"
         style="fill:#91979a;fill-opacity:1;fill-rule:nonzero;stroke:none"
         d="m 422.215,572.109 c -3.588,-1.379 -5.86,-1.118 -5.86,-3.018 0,-1.12 0.769,-1.791 2.199,-1.791 2.601,0 3.698,1.193 3.698,3.803 0,0.335 0,0.67 -0.037,1.006 m 0.697,-8.834 -0.476,1.901 c -1.978,-1.79 -4.214,-2.609 -7.069,-2.609 -4.434,0 -6.888,2.311 -6.888,6.299 0,4.399 2.71,5.629 8.462,6.374 3.737,0.485 5.347,0.298 5.347,2.125 0,1.155 -0.915,1.64 -2.783,1.64 -1.612,0 -2.455,-0.633 -2.6,-1.976 l -7.547,0 c 0.074,4.436 3.59,6.747 10.404,6.747 3.553,0 6.263,-0.782 7.583,-1.676 2.051,-1.417 2.49,-2.909 2.49,-5.554 l 0,-11.035 c 0,-0.708 0.293,-1.304 0.842,-1.677 l 0,-0.559 -7.765,0 z" />
      <path
         id="path7327"
         style="fill:#91979a;fill-opacity:1;fill-rule:nonzero;stroke:none"
         d="m 183.584,525.999 -7.399,12.376 c -0.404,0.67 -0.953,1.975 -1.539,3.839 0.22,-1.342 0.22,-2.572 0.22,-3.652 l 0,-12.563 -8.023,0 0,26.801 8.023,0 7.399,-12.45 c 0.44,-0.708 0.953,-1.975 1.539,-3.838 -0.183,1.154 -0.22,2.384 -0.22,3.653 l 0,12.635 8.059,0 0,-26.801 -8.059,0 z" />
      <path
         id="path7329"
         style="fill:#91979a;fill-opacity:1;fill-rule:nonzero;stroke:none"
         d="m 208.933,534.834 c -3.59,-1.38 -5.861,-1.118 -5.861,-3.019 0,-1.119 0.77,-1.789 2.198,-1.789 2.601,0 3.7,1.191 3.7,3.802 0,0.334 0,0.67 -0.037,1.006 m 0.696,-8.835 -0.476,1.901 c -1.978,-1.789 -4.212,-2.608 -7.07,-2.608 -4.432,0 -6.886,2.31 -6.886,6.298 0,4.399 2.71,5.629 8.461,6.374 3.736,0.486 5.349,0.299 5.349,2.125 0,1.157 -0.916,1.64 -2.785,1.64 -1.611,0 -2.454,-0.633 -2.6,-1.975 l -7.546,0 c 0.073,4.435 3.589,6.747 10.403,6.747 3.553,0 6.264,-0.783 7.583,-1.677 2.051,-1.416 2.49,-2.908 2.49,-5.554 l 0,-11.034 c 0,-0.709 0.293,-1.305 0.843,-1.678 l 0,-0.559 -7.766,0 z" />
      <path
         id="path7331"
         style="fill:#91979a;fill-opacity:1;fill-rule:nonzero;stroke:none"
         d="m 233.119,538.562 c -3.114,0 -4.543,-1.38 -4.543,-4.437 l 0,-8.126 -7.765,0 0,19.794 7.142,0 0,-3.616 c 1.027,2.907 2.894,4.137 6.045,4.137 l 0.696,0 0,-7.864 c -0.586,0.074 -1.099,0.112 -1.575,0.112" />
      <path
         id="path7333"
         style="fill:#91979a;fill-opacity:1;fill-rule:nonzero;stroke:none"
         d="m 247.331,541.021 c -2.343,0 -3.187,-1.602 -3.187,-5.107 0,-3.504 0.844,-5.144 3.187,-5.144 2.345,0 3.224,1.64 3.224,5.144 0,3.505 -0.879,5.107 -3.224,5.107 m 0,-15.729 c -6.849,0 -10.989,4.062 -10.989,10.622 0,6.562 4.14,10.587 10.989,10.587 6.851,0 10.99,-4.025 10.99,-10.587 0,-6.56 -4.139,-10.622 -10.99,-10.622" />
      <path
         id="path7335"
         style="fill:#91979a;fill-opacity:1;fill-rule:nonzero;stroke:none"
         d="m 271.289,540.276 c -2.162,0 -3.151,-1.492 -3.151,-4.585 0,-2.944 1.209,-4.584 3.151,-4.584 1.941,0 3.187,1.64 3.187,4.584 0,3.093 -1.026,4.585 -3.187,4.585 m 3.809,-14.277 0,2.423 c -1.685,-2.124 -3.773,-3.13 -6.374,-3.13 -4.908,0 -8.352,4.062 -8.352,10.51 0,6.449 3.516,10.587 8.278,10.587 2.345,0 4.213,-0.895 5.752,-2.721 l 0,9.132 7.546,0 0,-26.801 -6.85,0 z" />
      <path
         id="path7337"
         style="fill:#91979a;fill-opacity:1;fill-rule:nonzero;stroke:none"
         d="m 295.941,541.021 c -2.345,0 -3.187,-1.602 -3.187,-5.107 0,-3.504 0.842,-5.144 3.187,-5.144 2.344,0 3.223,1.64 3.223,5.144 0,3.505 -0.879,5.107 -3.223,5.107 m 0,-15.729 c -6.85,0 -10.99,4.062 -10.99,10.622 0,6.562 4.14,10.587 10.99,10.587 6.85,0 10.989,-4.025 10.989,-10.587 0,-6.56 -4.139,-10.622 -10.989,-10.622" />
      <path
         id="path7339"
         style="fill:#91979a;fill-opacity:1;fill-rule:nonzero;stroke:none"
         d="m 334.59,525.999 -7.582,0 -2.821,11.444 -2.819,-11.444 -7.583,0 -6.411,19.794 7.656,0 2.893,-12.077 3.004,12.077 6.521,0 3.004,-12.077 2.893,12.077 7.362,0 -6.117,-19.794 z" />
      <path
         id="path7341"
         style="fill:#91979a;fill-opacity:1;fill-rule:nonzero;stroke:none"
         d="m 352.54,541.804 c -2.014,0 -3.259,-1.341 -3.37,-3.691 l 6.887,0 c -0.146,2.461 -1.318,3.691 -3.517,3.691 m -3.37,-7.642 c 0.074,-2.535 1.356,-3.951 3.59,-3.951 1.502,0 2.529,0.596 2.895,1.641 l 7.398,0 c -1.061,-4.288 -4.725,-6.56 -10.733,-6.56 -6.74,0 -10.878,4.136 -10.878,10.437 0,6.634 4.249,10.772 11.171,10.772 6.887,0 11.063,-4.399 11.063,-11.853 l 0,-0.486 -14.506,0 z" />
      <path
         id="path7343"
         style="fill:#91979a;fill-opacity:1;fill-rule:nonzero;stroke:none"
         d="m 376.753,540.499 c -2.087,0 -3.114,-1.491 -3.114,-4.473 0,-3.13 0.99,-4.697 3.114,-4.697 2.272,0 3.26,1.53 3.26,4.66 0,2.907 -1.209,4.51 -3.26,4.51 m -0.147,-22.476 c -5.568,0 -8.864,2.198 -9.378,5.851 l 7.657,0 c 0.183,-0.969 0.88,-1.341 2.271,-1.341 2.564,0 2.893,1.118 2.893,4.137 l 0,1.081 c -1.318,-1.304 -3.112,-1.938 -5.42,-1.938 -5.238,0 -8.682,3.951 -8.682,10.027 0,6.523 3.369,10.474 8.314,10.474 2.786,0 4.837,-0.969 6.374,-3.094 l 0,2.573 6.852,0 0,-18.266 c 0,-6.895 -3.004,-9.504 -10.881,-9.504" />
      <path
         id="path7345"
         style="fill:#91979a;fill-opacity:1;fill-rule:nonzero;stroke:none"
         d="m 401.15,541.021 c -2.345,0 -3.187,-1.602 -3.187,-5.107 0,-3.504 0.842,-5.144 3.187,-5.144 2.344,0 3.223,1.64 3.223,5.144 0,3.505 -0.879,5.107 -3.223,5.107 m 0,-15.729 c -6.851,0 -10.99,4.062 -10.99,10.622 0,6.562 4.139,10.587 10.99,10.587 6.848,0 10.988,-4.025 10.988,-10.587 0,-6.56 -4.14,-10.622 -10.988,-10.622" />
      <path
         id="path7347"
         style="fill:#b92423;fill-opacity:1;fill-rule:evenodd;stroke:none"
         d="m 417.789,537.866 11.835,0 0,-11.834 -11.835,0 0,11.834 z" />
    </g>
  </g>
</svg>
