<?xml version="1.0" encoding="UTF-8" standalone="no"?>
<svg
   xmlns:dc="http://purl.org/dc/elements/1.1/"
   xmlns:cc="http://creativecommons.org/ns#"
   xmlns:rdf="http://www.w3.org/1999/02/22-rdf-syntax-ns#"
   xmlns:svg="http://www.w3.org/2000/svg"
   xmlns="http://www.w3.org/2000/svg"
   id="svg8"
   version="1.1"
   viewBox="0 0 101.657 25.818001"
   height="25.818001mm"
   width="101.657mm">
  <defs
     id="defs2" />
  <metadata
     id="metadata5">
    <rdf:RDF>
      <cc:Work
         rdf:about="">
        <dc:format>image/svg+xml</dc:format>
        <dc:type
           rdf:resource="http://purl.org/dc/dcmitype/StillImage" />
        <dc:title></dc:title>
      </cc:Work>
    </rdf:RDF>
  </metadata>
  <path
     id="path875"
     style="fill:#231f20;fill-opacity:1;fill-rule:evenodd;stroke:none;stroke-width:0.352777"
     d="m 11.943786,15.00028 0.484716,-0.66559 0.595595,0.66559 z m 17.062698,5.264608 0.0944,0.0104 0.1022,0.004 0.10191,-0.004 0.0946,-0.0104 v -2.49312 l -0.096,-0.0101 -0.1005,-0.004 -0.10008,0.004 -0.0965,0.0101 z m 1.09072,0 0.0869,0.0104 0.0981,0.004 0.0942,-0.004 0.0907,-0.0104 v -1.86172 l 1.20939,1.86172 0.0909,0.0104 0.0906,0.004 0.0904,-0.004 0.0906,-0.0104 v -2.49312 l -0.0884,-0.0101 -0.0892,-0.004 -0.0994,0.004 -0.0966,0.0101 v 1.8729 l -1.20572,-1.8729 -0.0909,-0.0101 -0.0903,-0.004 -0.0907,0.004 -0.0906,0.0101 z m 2.5122,-0.22141 c -0.0181,0.0527 -0.0296,0.1046 -0.0346,0.15579 0.0539,0.0165 0.10639,0.031 0.15811,0.0451 0.0514,0.0139 0.10439,0.0254 0.15949,0.0347 0.055,0.009 0.11508,0.0165 0.17918,0.0209 0.0645,0.005 0.13631,0.007 0.21583,0.007 0.32847,0 0.58448,-0.0685 0.76648,-0.2063 0.18249,-0.1373 0.27389,-0.32501 0.27389,-0.56321 0,-0.0994 -0.0151,-0.18598 -0.0445,-0.2601 -0.0297,-0.0741 -0.0726,-0.1385 -0.1289,-0.19258 -0.0566,-0.0544 -0.12471,-0.1015 -0.20451,-0.14161 -0.0795,-0.0409 -0.17078,-0.0797 -0.27329,-0.1167 l -0.2158,-0.0761 c -0.0543,-0.0187 -0.10551,-0.0392 -0.15381,-0.0624 -0.049,-0.0231 -0.0914,-0.0491 -0.12718,-0.0782 -0.0365,-0.0288 -0.065,-0.0626 -0.0869,-0.10029 -0.022,-0.0386 -0.0329,-0.0817 -0.0329,-0.1305 0,-0.11779 0.0438,-0.2062 0.13109,-0.26539 0.087,-0.0588 0.21188,-0.0882 0.37338,-0.0882 0.11603,0 0.21933,0.009 0.31063,0.0277 0.0909,0.0186 0.17137,0.0398 0.24027,0.0626 0.044,-0.0949 0.0723,-0.19039 0.0854,-0.28769 -0.0854,-0.0279 -0.1827,-0.0509 -0.29287,-0.0695 -0.11081,-0.0182 -0.2274,-0.0275 -0.35081,-0.0275 -0.28762,0 -0.5111,0.0595 -0.6702,0.17871 -0.15971,0.1185 -0.23922,0.28321 -0.23922,0.49389 0,0.0877 0.0128,0.16362 0.0385,0.22712 0.0257,0.0638 0.0612,0.1197 0.1059,0.1681 0.0452,0.0484 0.0985,0.0898 0.15999,0.12308 0.0617,0.0335 0.12989,0.0643 0.2045,0.0924 l 0.21918,0.0795 c 0.0872,0.0325 0.16401,0.0622 0.22921,0.0901 0.0659,0.0276 0.12033,0.0585 0.16389,0.0915 0.0438,0.0338 0.0766,0.0736 0.0983,0.1197 0.0215,0.0465 0.0326,0.1022 0.0326,0.16619 0,0.13219 -0.0516,0.23689 -0.15578,0.31419 -0.10393,0.0772 -0.26152,0.11631 -0.47241,0.11631 -0.13331,0 -0.2461,-0.0107 -0.33902,-0.0312 -0.0921,-0.0208 -0.18097,-0.0451 -0.26567,-0.073 -0.0205,0.0511 -0.0392,0.10262 -0.0575,0.15631 z m 2.7238,0.22141 c 0.0618,0.007 0.12869,0.0104 0.2008,0.0104 0.0688,0 0.13328,-0.003 0.1923,-0.0104 v -2.18451 h 0.7203 l 0.0116,-0.0775 0.004,-0.082 -0.004,-0.076 -0.0116,-0.0731 h -1.83392 l -0.0114,0.0747 -0.004,0.0784 0.004,0.0794 0.0114,0.0761 h 0.72052 z m 2.17688,0 0.0943,0.0104 0.10181,0.004 0.10051,-0.004 0.10019,-0.0104 v -0.9119 l 0.86699,-1.58122 -0.10429,-0.0101 -0.10759,-0.004 -0.10421,0.004 -0.10002,0.0101 -0.63948,1.23811 -0.64748,-1.23811 c -0.0308,-0.005 -0.0662,-0.008 -0.10591,-0.0101 -0.04,-0.002 -0.0765,-0.004 -0.10992,-0.004 -0.0387,0 -0.0768,0.001 -0.11529,0.004 -0.0388,0.002 -0.0745,0.005 -0.10809,0.0101 l 0.87848,1.58122 z m 2.1692,0 c 0.0615,0.007 0.12872,0.0104 0.20009,0.0104 0.0696,0 0.13353,-0.003 0.19283,-0.0104 v -2.18451 h 0.7202 l 0.0121,-0.0775 0.004,-0.082 -0.004,-0.076 -0.0121,-0.0731 h -1.83381 l -0.0114,0.0747 -0.004,0.0784 0.004,0.0794 0.0114,0.0761 h 0.72069 z m 1.54142,-1.01551 c 0,0.16669 0.0172,0.3157 0.0518,0.44669 0.0345,0.13211 0.0909,0.24331 0.16909,0.3333 0.0786,0.0903 0.1808,0.159 0.30671,0.20662 0.12551,0.0469 0.27858,0.0706 0.45829,0.0706 0.18002,0 0.33281,-0.0237 0.45882,-0.0706 0.12538,-0.0476 0.2279,-0.11631 0.306,-0.20662 0.0784,-0.09 0.13497,-0.20119 0.16948,-0.3333 0.0349,-0.13099 0.0522,-0.28 0.0522,-0.44669 v -1.47761 c -0.0617,-0.007 -0.12842,-0.0101 -0.20049,-0.0101 -0.0665,0 -0.13211,0.003 -0.19643,0.0101 v 1.41482 c 0,0.14379 -0.0105,0.26599 -0.0306,0.3677 -0.0205,0.1017 -0.0543,0.18439 -0.10019,0.24789 -0.0465,0.0637 -0.10671,0.1106 -0.18101,0.14051 -0.0748,0.03 -0.16739,0.0452 -0.27781,0.0452 -0.1101,0 -0.20348,-0.0152 -0.27929,-0.0452 -0.0755,-0.0299 -0.1367,-0.0768 -0.18271,-0.14051 -0.0464,-0.0635 -0.08,-0.14619 -0.10029,-0.24789 -0.0205,-0.10171 -0.0306,-0.22391 -0.0306,-0.3677 v -1.41482 c -0.0594,-0.007 -0.1234,-0.0101 -0.19311,-0.0101 -0.0718,0 -0.1385,0.003 -0.19988,0.0101 z m 4.165,0.72129 c -0.0876,0.0159 -0.18542,0.0238 -0.2933,0.0238 -0.13871,0 -0.2637,-0.0194 -0.37531,-0.0587 -0.11219,-0.0393 -0.20769,-0.0982 -0.28741,-0.1766 -0.0793,-0.0786 -0.14108,-0.1784 -0.18468,-0.2982 -0.044,-0.12051 -0.0658,-0.26229 -0.0658,-0.42679 0,-0.32142 0.0779,-0.56741 0.2334,-0.73872 0.15529,-0.17099 0.37288,-0.25658 0.65288,-0.25658 0.0642,0 0.12122,0.002 0.17142,0.006 0.0501,0.003 0.0963,0.008 0.1367,0.0154 0.0413,0.007 0.0795,0.0151 0.11589,0.0241 0.0357,0.009 0.073,0.0196 0.11179,0.0313 0.023,-0.0505 0.0427,-0.0986 0.0598,-0.14379 0.0165,-0.0448 0.0274,-0.0943 0.0323,-0.1476 -0.0822,-0.0249 -0.17551,-0.0472 -0.28102,-0.0658 -0.10569,-0.0182 -0.23107,-0.0275 -0.37747,-0.0275 -0.19791,0 -0.37631,0.0304 -0.53541,0.0917 -0.15949,0.061 -0.29461,0.14848 -0.4052,0.26169 -0.11011,0.11349 -0.19481,0.25029 -0.25351,0.4113 -0.0595,0.1602 -0.0892,0.34029 -0.0892,0.53891 0,0.19688 0.0297,0.37309 0.0892,0.53089 0.0587,0.1572 0.1434,0.29069 0.25351,0.40009 0.11059,0.10982 0.2462,0.19381 0.40668,0.25301 0.1603,0.0591 0.34131,0.0884 0.54112,0.0884 0.13109,0 0.2533,-0.009 0.36608,-0.0275 0.11331,-0.0184 0.22401,-0.0488 0.33161,-0.0903 -0.0153,-0.0926 -0.0513,-0.18831 -0.1076,-0.2879 -0.0773,0.03 -0.15949,0.0531 -0.24648,0.0698 z m 1.3522,-0.3193 c 0,0.0788 -0.0131,0.14101 -0.0388,0.1874 -0.0256,0.0463 -0.0592,0.0809 -0.0999,0.10392 -0.0416,0.0233 -0.0857,0.038 -0.13321,0.0452 -0.0476,0.007 -0.0943,0.0106 -0.14069,0.0106 -0.0435,0 -0.0852,-0.004 -0.1252,-0.0121 -0.0395,-0.008 -0.0748,-0.0157 -0.10569,-0.0232 -0.0205,0.0536 -0.0363,0.10569 -0.0464,0.15649 -0.0103,0.0509 -0.0156,0.0993 -0.0156,0.14521 0.0517,0.0121 0.10791,0.0217 0.17,0.0296 0.0614,0.008 0.12291,0.0121 0.18489,0.0121 0.11533,0 0.2195,-0.0121 0.31182,-0.0363 0.0926,-0.0243 0.17089,-0.0643 0.2351,-0.12111 0.064,-0.0567 0.1131,-0.13239 0.1464,-0.2274 0.0332,-0.0942 0.0499,-0.21149 0.0499,-0.35009 v -1.79991 h -0.87799 l -0.0119,0.0747 -0.004,0.0784 0.004,0.0794 0.0119,0.0761 h 0.48542 z m 2.62777,0.61352 0.098,0.0104 0.10203,0.004 c 0.0358,0 0.0733,-8.7e-4 0.11158,-0.004 0.0388,-0.002 0.0731,-0.005 0.10389,-0.0104 l -0.8975,-2.49312 c -0.0358,-0.005 -0.0731,-0.008 -0.1119,-0.0101 -0.0385,-0.002 -0.0755,-0.004 -0.11126,-0.004 -0.0413,0 -0.0813,0.001 -0.11981,0.004 -0.0383,0.002 -0.0743,0.005 -0.1077,0.0101 l -0.9017,2.49312 0.0948,0.0104 0.10541,0.004 0.10029,-0.004 0.10051,-0.0104 0.18859,-0.5751 h 1.05171 z m -0.72079,-2.15632 0.42372,1.2724 h -0.84371 z m 3.98381,2.15632 c 0.0386,0.005 0.0759,0.008 0.11169,0.0104 l 0.10001,0.004 c 0.0358,0 0.0741,-8.7e-4 0.11381,-0.004 0.0398,-0.002 0.0805,-0.005 0.1215,-0.0104 l -0.99043,-1.29622 0.87863,-1.1969 c -0.0413,-0.005 -0.0808,-0.008 -0.11931,-0.0101 -0.0386,-0.002 -0.0748,-0.004 -0.10791,-0.004 l -0.0946,0.004 -0.1057,0.0101 -0.88992,1.22781 z m -1.49109,0 0.0929,0.0104 0.10362,0.004 0.1,-0.004 0.0966,-0.0104 v -2.49312 l -0.0966,-0.0101 -0.1,-0.004 -0.0999,0.004 -0.0966,0.0101 z m 2.30777,-1.01551 c 0,0.16669 0.0172,0.3157 0.0523,0.44669 0.0343,0.13211 0.0909,0.24331 0.16941,0.3333 0.0783,0.0903 0.18069,0.159 0.30589,0.20662 0.12601,0.0469 0.27901,0.0706 0.45879,0.0706 0.17981,0 0.3326,-0.0237 0.45833,-0.0706 0.12587,-0.0476 0.22839,-0.11631 0.30667,-0.20662 0.0783,-0.09 0.13483,-0.20119 0.16933,-0.3333 0.0346,-0.13099 0.0522,-0.28 0.0522,-0.44669 v -1.47761 c -0.0617,-0.007 -0.12848,-0.0101 -0.20048,-0.0101 -0.067,0 -0.13212,0.003 -0.19661,0.0101 v 1.41482 c 0,0.14379 -0.0103,0.26599 -0.0309,0.3677 -0.0205,0.1017 -0.0538,0.18439 -0.10019,0.24789 -0.0459,0.0637 -0.10639,0.1106 -0.18101,0.14051 -0.074,0.03 -0.1669,0.0452 -0.27731,0.0452 -0.11039,0 -0.20349,-0.0152 -0.27898,-0.0452 -0.0761,-0.0299 -0.13713,-0.0768 -0.1833,-0.14051 -0.0466,-0.0635 -0.0797,-0.14619 -0.10041,-0.24789 -0.0203,-0.10171 -0.0307,-0.22391 -0.0307,-0.3677 v -1.41482 c -0.059,-0.007 -0.12291,-0.0101 -0.19262,-0.0101 -0.0718,0 -0.13849,0.003 -0.20041,0.0101 z m 2.64301,1.01551 h 1.47592 c 0.008,-0.048 0.0116,-0.0999 0.0116,-0.15572 l -0.002,-0.0761 -0.009,-0.0798 h -1.08652 v -2.18151 l -0.0965,-0.0101 -0.1003,-0.004 -0.10191,0.004 -0.0907,0.0101 v 2.49312 z m 2.03842,0 c 0.0614,0.007 0.12838,0.0104 0.20049,0.0104 0.0691,0 0.13359,-0.003 0.1924,-0.0104 v -2.18451 h 0.72069 l 0.0114,-0.0775 0.004,-0.082 -0.004,-0.076 -0.0114,-0.0731 h -1.83388 l -0.0119,0.0747 -0.004,0.0784 0.004,0.0794 0.0119,0.0761 h 0.7203 z m 1.5415,-1.01551 c 0,0.16669 0.0173,0.3157 0.0516,0.44669 0.0349,0.13211 0.0914,0.24331 0.16972,0.3333 0.0785,0.0903 0.17999,0.159 0.30639,0.20662 0.12569,0.0469 0.2788,0.0706 0.45829,0.0706 0.1795,0 0.3326,-0.0237 0.45851,-0.0706 0.12569,-0.0476 0.228,-0.11631 0.30621,-0.20662 0.0783,-0.09 0.13458,-0.20119 0.16958,-0.3333 0.0346,-0.13099 0.0519,-0.28 0.0519,-0.44669 v -1.47761 c -0.0615,-0.007 -0.12841,-0.0101 -0.19981,-0.0101 -0.0671,0 -0.133,0.003 -0.19699,0.0101 v 1.41482 c 0,0.14379 -0.01,0.26599 -0.0304,0.3677 -0.0212,0.1017 -0.054,0.18439 -0.10051,0.24789 -0.0464,0.0637 -0.10668,0.1106 -0.18091,0.14051 -0.0748,0.03 -0.167,0.0452 -0.2776,0.0452 -0.11059,0 -0.20369,-0.0152 -0.27929,-0.0452 -0.0758,-0.0299 -0.13681,-0.0768 -0.1832,-0.14051 -0.0462,-0.0635 -0.0793,-0.14619 -0.10001,-0.24789 -0.0205,-0.10171 -0.0309,-0.22391 -0.0309,-0.3677 v -1.41482 c -0.0592,-0.007 -0.12319,-0.0101 -0.19279,-0.0101 -0.0716,0 -0.1385,0.003 -0.20031,0.0101 v 1.47761 h 2.7e-4 z m 2.65049,1.01551 0.10001,0.009 0.10047,0.001 0.0983,-0.003 0.0941,-0.007 v -2.22261 c 0.0464,-0.004 0.0879,-0.008 0.1251,-0.0101 0.0373,-0.003 0.0784,-0.004 0.12132,-0.004 0.18549,0 0.33239,0.0405 0.44129,0.12149 0.10911,0.081 0.16422,0.2044 0.16422,0.3713 0,0.0902 -0.0223,0.1668 -0.0657,0.2303 -0.0442,0.0636 -0.0985,0.118 -0.16418,0.1628 -0.0652,0.0453 -0.13611,0.0816 -0.2134,0.1095 -0.0773,0.0277 -0.15032,0.0496 -0.21971,0.0658 l -0.0309,0.007 v 0.0135 l 0.88621,1.15461 c 0.0694,0.007 0.13829,0.0104 0.20789,0.0104 0.0872,0 0.16599,-0.003 0.2351,-0.0104 l -0.80529,-1.0504 0.0467,-0.0207 c 0.0613,-0.0277 0.12502,-0.0633 0.19043,-0.1058 0.0655,-0.0426 0.12379,-0.0931 0.17529,-0.15109 0.0511,-0.0576 0.0938,-0.1234 0.12739,-0.19742 0.0331,-0.0739 0.0497,-0.15599 0.0497,-0.24599 0,-0.15039 -0.0311,-0.2746 -0.0948,-0.37281 -0.0625,-0.098 -0.144,-0.17639 -0.24402,-0.23439 -0.1005,-0.0575 -0.2148,-0.098 -0.34268,-0.12111 -0.12863,-0.0234 -0.25863,-0.0346 -0.38972,-0.0346 -0.0592,0 -0.11278,9e-4 -0.16168,0.003 -0.0489,0.002 -0.0958,0.005 -0.14051,0.008 -0.0452,0.004 -0.0904,0.008 -0.13702,0.0123 -0.0462,0.005 -0.0973,0.009 -0.15388,0.0139 z m 2.8436,0 0.0943,0.0104 0.1022,0.004 0.0998,-0.004 0.1003,-0.0104 v -0.9119 l 0.86691,-1.58122 -0.10372,-0.0101 -0.10759,-0.004 -0.1045,0.004 -0.1005,0.0101 -0.63931,1.23811 -0.6472,-1.23811 c -0.0309,-0.005 -0.0661,-0.008 -0.10591,-0.0101 -0.0402,-0.002 -0.0766,-0.004 -0.11017,-0.004 -0.0385,0 -0.077,0.001 -0.1155,0.004 -0.0383,0.002 -0.0748,0.005 -0.1077,0.0101 l 0.87859,1.58122 z m -21.4787,0.80059 h 0.5032 l -0.45801,0.33031 -0.10438,0.0104 -0.10781,0.003 -0.1004,-0.003 -0.0998,-0.0104 z m -14.15221,3.1206 c 0.0308,0.004 0.0664,0.008 0.10569,0.0107 0.0402,0.002 0.0756,0.003 0.1064,0.003 0.0356,0 0.0748,-10e-4 0.1173,-0.003 0.0427,-0.003 0.0814,-0.006 0.11783,-0.0107 l 0.5545,-1.9522 0.54729,1.9522 c 0.0357,0.004 0.0758,0.008 0.11921,0.0107 0.0437,0.002 0.0839,0.003 0.11949,0.003 0.0334,0 0.0706,-10e-4 0.11161,-0.003 0.0413,-0.003 0.077,-0.006 0.10848,-0.0107 l 0.66612,-2.49311 -0.098,-0.0107 -0.11011,-0.003 -0.0943,0.003 -0.0907,0.0107 -0.48122,2.098 -0.57408,-2.098 c -0.0287,-0.005 -0.062,-0.008 -0.10029,-0.0107 -0.039,-0.002 -0.0736,-0.003 -0.10393,-0.003 l -0.10618,0.003 -0.10199,0.0107 -0.5702,2.0768 -0.47403,-2.0768 -0.10219,-0.0107 -0.10968,-0.003 c -0.0361,0 -0.0753,0.001 -0.11773,0.003 -0.0423,0.003 -0.0776,0.006 -0.10597,0.0107 z m 4.65822,-0.0537 c 0.14647,-0.0636 0.26769,-0.15261 0.36417,-0.26681 0.096,-0.11451 0.16771,-0.2504 0.2141,-0.4077 0.0459,-0.1572 0.0686,-0.32939 0.0686,-0.51629 0,-0.18761 -0.0227,-0.3598 -0.0686,-0.5171 -0.0464,-0.15692 -0.11807,-0.29302 -0.2141,-0.40711 -0.0965,-0.11451 -0.2177,-0.20429 -0.36417,-0.26899 -0.14672,-0.0648 -0.32,-0.0971 -0.52003,-0.0971 -0.20048,0 -0.37359,0.0323 -0.52027,0.0971 -0.14662,0.0647 -0.2679,0.15448 -0.36372,0.26899 -0.0966,0.11409 -0.1687,0.25019 -0.2165,0.40711 -0.0474,0.1573 -0.0709,0.32949 -0.0709,0.5171 0,0.1869 0.0235,0.35909 0.0709,0.51629 0.0478,0.1573 0.11991,0.29319 0.2165,0.4077 0.0958,0.1142 0.2171,0.2032 0.36372,0.26681 0.14668,0.0633 0.31979,0.0953 0.52027,0.0953 0.20003,0 0.37331,-0.032 0.52003,-0.0953 z m -0.85312,-0.2775 c -0.0943,-0.045 -0.17138,-0.11031 -0.23358,-0.196 -0.0614,-0.0851 -0.10791,-0.18821 -0.13832,-0.30861 -0.0309,-0.1198 -0.0464,-0.2564 -0.0464,-0.40869 0,-0.15071 0.0155,-0.28632 0.0464,-0.40792 0.0304,-0.1215 0.0769,-0.22419 0.13832,-0.3084 0.0622,-0.0846 0.13928,-0.1488 0.23358,-0.19438 0.0931,-0.0446 0.2044,-0.0675 0.33309,-0.0675 0.12841,0 0.23933,0.0229 0.33292,0.0675 0.094,0.0456 0.17148,0.10979 0.23311,0.19438 0.0619,0.0842 0.10838,0.1869 0.13917,0.3084 0.0303,0.1216 0.046,0.25721 0.046,0.40792 0,0.15229 -0.0157,0.28889 -0.046,0.40869 -0.0308,0.1204 -0.0773,0.22348 -0.13917,0.30861 -0.0616,0.0857 -0.1391,0.15099 -0.23311,0.196 -0.0936,0.0452 -0.20451,0.0675 -0.33292,0.0675 -0.12869,0 -0.23999,-0.0223 -0.33309,-0.0675 z m 2.51372,-0.2825 c 0,0.0789 -0.0126,0.14118 -0.0385,0.18669 -0.0255,0.0466 -0.0593,0.0814 -0.1,0.10421 -0.0413,0.0234 -0.0855,0.0385 -0.13342,0.0458 -0.0474,0.007 -0.0943,0.01 -0.14048,0.01 -0.0432,0 -0.0851,-0.004 -0.12492,-0.0121 -0.0402,-0.008 -0.0753,-0.0155 -0.10569,-0.0225 -0.0208,0.0532 -0.0365,0.10541 -0.0465,0.1561 -0.0108,0.0512 -0.0155,0.0993 -0.0155,0.1457 0.0511,0.0119 0.10763,0.0216 0.16972,0.0295 0.0612,0.008 0.12291,0.0121 0.18489,0.0121 0.1155,0 0.2195,-0.0121 0.31189,-0.0367 0.0926,-0.0239 0.17061,-0.0642 0.23502,-0.12121 0.064,-0.0562 0.11328,-0.13229 0.14619,-0.22719 0.0334,-0.0948 0.0502,-0.21131 0.0502,-0.34981 v -1.7998 h -0.8781 l -0.0116,0.0745 -0.004,0.0777 0.004,0.0803 0.0116,0.0763 h 0.48521 z m 1.07089,0.61369 h 1.55289 l 0.009,-0.0762 0.002,-0.0795 c 0,-0.0559 -0.004,-0.10679 -0.0118,-0.15318 h -1.15952 v -0.85291 h 0.90121 l 0.0116,-0.0762 0.004,-0.0796 -0.004,-0.0777 -0.0116,-0.0747 h -0.90121 v -0.7143 h 1.12861 l 0.01,-0.0763 0.002,-0.0803 c 0,-0.0554 -0.004,-0.1059 -0.0119,-0.15222 h -1.52199 v 2.49311 z m 2.51608,0 c 0.0309,0.004 0.0662,0.008 0.1059,0.0107 0.0398,0.002 0.0751,0.003 0.10601,0.003 0.0356,0 0.0755,-10e-4 0.1178,-0.003 0.0422,-0.003 0.0817,-0.006 0.1173,-0.0107 l 0.5546,-1.9522 0.54712,1.9522 c 0.0364,0.004 0.0758,0.008 0.1198,0.0107 0.0433,0.002 0.0835,0.003 0.1191,0.003 0.0333,0 0.0711,-10e-4 0.11229,-0.003 0.0405,-0.003 0.0768,-0.006 0.1076,-0.0107 l 0.6665,-2.49311 -0.0983,-0.0107 -0.11007,-0.003 -0.0941,0.003 -0.0908,0.0107 -0.48129,2.098 -0.57411,-2.098 c -0.0279,-0.005 -0.062,-0.008 -0.10047,-0.0107 -0.038,-0.002 -0.0731,-0.003 -0.10372,-0.003 l -0.1064,0.003 -0.10181,0.0107 -0.57009,2.0768 -0.4742,-2.0768 -0.10171,-0.0107 -0.10978,-0.003 c -0.0358,0 -0.0751,10e-4 -0.11762,0.003 -0.0425,0.003 -0.0775,0.006 -0.10569,0.0107 z m 4.65833,-0.0537 c 0.14608,-0.0636 0.26768,-0.15261 0.36368,-0.26681 0.0965,-0.11451 0.16742,-0.2504 0.2141,-0.4077 0.0461,-0.1572 0.0694,-0.32939 0.0694,-0.51629 0,-0.18761 -0.0233,-0.3598 -0.0694,-0.5171 -0.0467,-0.15692 -0.11758,-0.29302 -0.2141,-0.40711 -0.096,-0.11451 -0.2176,-0.20429 -0.36368,-0.26899 -0.14672,-0.0648 -0.31952,-0.0971 -0.52053,-0.0971 -0.20027,0 -0.37338,0.0323 -0.51978,0.0971 -0.14619,0.0647 -0.26822,0.15448 -0.364,0.26899 -0.0968,0.11409 -0.16859,0.25019 -0.21579,0.40711 -0.0477,0.1573 -0.0716,0.32949 -0.0716,0.5171 0,0.1869 0.0239,0.35909 0.0716,0.51629 0.0472,0.1573 0.11899,0.29319 0.21579,0.4077 0.0958,0.1142 0.21781,0.2032 0.364,0.26681 0.1464,0.0633 0.31951,0.0953 0.51978,0.0953 0.20101,0 0.37381,-0.032 0.52053,-0.0953 z m -0.85341,-0.2775 c -0.0941,-0.045 -0.17141,-0.11031 -0.23329,-0.196 -0.0618,-0.0851 -0.1077,-0.18821 -0.13882,-0.30861 -0.0306,-0.1198 -0.0462,-0.2564 -0.0462,-0.40869 0,-0.15071 0.0156,-0.28632 0.0462,-0.40792 0.0311,-0.1215 0.077,-0.22419 0.13882,-0.3084 0.0619,-0.0846 0.13921,-0.1488 0.23329,-0.19438 0.0933,-0.0446 0.20451,-0.0675 0.33288,-0.0675 0.12862,0 0.24003,0.0229 0.33352,0.0675 0.0939,0.0456 0.17141,0.10979 0.2329,0.19438 0.0618,0.0842 0.1082,0.1869 0.139,0.3084 0.0304,0.1216 0.0459,0.25721 0.0459,0.40792 0,0.15229 -0.0155,0.28889 -0.0459,0.40869 -0.0308,0.1204 -0.0772,0.22348 -0.139,0.30861 -0.0615,0.0857 -0.13899,0.15099 -0.2329,0.196 -0.0935,0.0452 -0.2049,0.0675 -0.33352,0.0675 -0.12837,0 -0.23957,-0.0223 -0.33288,-0.0675 z m 2.0973,0.33119 c 0.0853,0.0119 0.18651,0.0216 0.3048,0.0295 0.118,0.008 0.23749,0.0121 0.35849,0.0121 0.48521,0 0.85062,-0.10519 1.0958,-0.31549 0.24501,-0.2105 0.36851,-0.5328 0.36851,-0.96731 0,-0.4161 -0.12079,-0.73519 -0.36099,-0.95688 -0.23982,-0.22221 -0.6028,-0.33341 -1.08822,-0.33341 -0.11811,0 -0.23879,0.004 -0.36198,0.0121 -0.12351,0.008 -0.22843,0.0169 -0.31641,0.0263 z m 0.39321,-2.20151 c 0.0437,-0.007 0.0946,-0.0112 0.15257,-0.0125 0.0575,-0.001 0.11063,-0.002 0.15953,-0.002 0.14887,0 0.28518,0.0176 0.40859,0.0519 0.12329,0.0345 0.2292,0.0908 0.3176,0.1681 0.0892,0.0774 0.15748,0.1778 0.20641,0.2999 0.0489,0.12269 0.0734,0.2709 0.0734,0.44411 0,0.18948 -0.0245,0.34749 -0.0734,0.47329 -0.0489,0.1258 -0.1185,0.22609 -0.20821,0.29961 -0.0903,0.0743 -0.19699,0.1269 -0.3217,0.15829 -0.1247,0.031 -0.26239,0.0466 -0.4138,0.0466 -0.0598,0 -0.11512,-10e-4 -0.16771,-0.005 -0.0528,-0.003 -0.097,-0.007 -0.13328,-0.0117 z m 1.99979,2.20151 h 1.87639 l 0.0116,-0.0728 0.004,-0.0797 -0.004,-0.0816 -0.0116,-0.0748 h -1.29858 l 1.3988,-2.15322 -0.0274,-0.031 h -1.79881 l -0.0119,0.0763 -0.003,0.0794 0.003,0.08 0.0119,0.0731 h 1.2216 l -1.39521,2.15318 z m 2.9011,0 c 0.0618,0.007 0.12841,0.0107 0.20031,0.0107 0.0696,0 0.1336,-0.004 0.19307,-0.0107 v -2.18429 h 0.72023 l 0.0114,-0.0782 0.004,-0.0816 -0.004,-0.0762 -0.0114,-0.0728 h -1.83412 l -0.0108,0.0745 -0.005,0.0777 0.005,0.0803 0.0108,0.0763 h 0.72051 z m 2.00011,0 c 0.0304,0.004 0.0657,0.008 0.10537,0.0107 0.0403,0.002 0.0756,0.003 0.10601,0.003 0.036,0 0.0753,-10e-4 0.11751,-0.003 0.042,-0.003 0.0818,-0.006 0.11751,-0.0107 l 0.55489,-1.9522 0.54691,1.9522 c 0.0361,0.004 0.0763,0.008 0.11959,0.0107 0.0439,0.002 0.0837,0.003 0.1197,0.003 0.0333,0 0.0706,-10e-4 0.11141,-0.003 0.0412,-0.003 0.077,-0.006 0.10781,-0.0107 l 0.66699,-2.49311 -0.0985,-0.0107 -0.10957,-0.003 -0.0944,0.003 -0.0906,0.0107 -0.482,2.098 -0.57383,-2.098 c -0.0282,-0.005 -0.0618,-0.008 -0.10008,-0.0107 -0.0387,-0.002 -0.0733,-0.003 -0.10421,-0.003 l -0.1059,0.003 -0.10167,0.0107 -0.57062,2.0768 -0.4736,-2.0768 -0.10231,-0.0107 -0.10957,-0.003 c -0.0363,0 -0.0756,10e-4 -0.11783,0.003 -0.0427,0.003 -0.078,0.006 -0.1059,0.0107 z m 4.6076,0 0.0985,0.0107 0.1017,0.003 c 0.0364,0 0.0734,-10e-4 0.11219,-0.003 0.0385,-0.003 0.0726,-0.006 0.10389,-0.0107 l -0.89778,-2.49311 c -0.036,-0.005 -0.0731,-0.008 -0.11191,-0.0107 -0.0384,-0.002 -0.0758,-0.003 -0.11151,-0.003 -0.0413,0 -0.0811,10e-4 -0.1198,0.003 -0.0381,0.003 -0.0743,0.006 -0.10767,0.0107 l -0.9017,2.49311 0.0945,0.0107 0.10573,0.003 0.10047,-0.003 0.10029,-0.0107 0.18891,-0.57531 h 1.05142 z m -0.72052,-2.1566 0.42341,1.2725 h -0.84339 z m 2.5739,2.1566 0.0886,0.0102 0.0964,0.004 0.0886,-0.004 0.0884,-0.0102 0.0889,-1.94899 0.65479,1.43189 c 0.0487,0.007 0.0981,0.0107 0.14599,0.0107 0.0548,0 0.10692,-0.003 0.15822,-0.0107 l 0.67828,-1.42159 0.0887,1.93869 0.0904,0.0102 0.0983,0.004 0.0985,-0.004 0.0941,-0.0102 -0.13119,-2.49311 c -0.0281,-0.005 -0.0627,-0.008 -0.1039,-0.011 -0.041,-0.002 -0.0783,-0.003 -0.11162,-0.003 -0.0358,0 -0.0733,4.3e-4 -0.11179,0.003 -0.0383,0.003 -0.0707,0.006 -0.0964,0.011 l -0.72002,1.5603 -0.71709,-1.5603 c -0.0284,-0.005 -0.0637,-0.008 -0.10591,-0.011 -0.0423,-0.002 -0.0815,-0.003 -0.11761,-0.003 -0.0357,0 -0.074,4.3e-4 -0.11328,0.003 -0.0402,0.003 -0.0755,0.006 -0.1064,0.011 z m 4.76621,0 0.098,0.0102 0.10199,0.004 c 0.0363,0 0.0731,-0.001 0.11179,-0.004 0.0385,-0.002 0.0731,-0.006 0.10421,-0.0102 l -0.89799,-2.49311 c -0.0356,-0.005 -0.0731,-0.008 -0.11169,-0.011 -0.0387,-0.002 -0.0758,-0.003 -0.1113,-0.003 -0.0413,0 -0.081,4.3e-4 -0.11981,0.003 -0.038,0.003 -0.0748,0.006 -0.10781,0.011 l -0.90159,2.49311 0.0946,0.0102 0.10569,0.004 0.10019,-0.004 0.10019,-0.0102 0.1887,-0.5758 h 1.05191 z m -0.72059,-2.15681 0.42348,1.27222 h -0.84349 z m 1.63319,2.15681 h 1.47609 l 0.0114,-0.0782 0.004,-0.078 -0.004,-0.0763 -0.0114,-0.0798 h -1.08698 v -0.8388 l 0.50518,-0.31211 0.0136,-0.0764 0.005,-0.08 c 0,-0.0508 -0.007,-0.10291 -0.0191,-0.156 l -0.50518,0.31238 v -1.02989 c -0.059,-0.007 -0.12291,-0.011 -0.19251,-0.011 -0.0744,0 -0.14001,0.004 -0.1966,0.011 v 1.2755 l -0.2462,0.15261 -0.0172,0.0763 -0.006,0.0768 0.006,0.0761 0.0172,0.0832 c 0.041,-0.0254 0.0822,-0.0517 0.12319,-0.078 0.041,-0.0268 0.0823,-0.0526 0.12301,-0.078 z m 3.3831,-0.0539 c 0.14619,-0.0639 0.26769,-0.1524 0.364,-0.26709 0.0965,-0.11402 0.16789,-0.25012 0.21399,-0.40721 0.0462,-0.15709 0.0692,-0.3296 0.0692,-0.51679 0,-0.18711 -0.023,-0.35951 -0.0692,-0.5166 -0.0461,-0.15741 -0.11751,-0.29281 -0.21399,-0.40771 -0.0963,-0.11391 -0.21781,-0.20391 -0.364,-0.2685 -0.1464,-0.0647 -0.32,-0.097 -0.51999,-0.097 -0.20052,0 -0.37391,0.0323 -0.52,0.097 -0.147,0.0646 -0.26849,0.15459 -0.3648,0.2685 -0.0958,0.1149 -0.16793,0.2503 -0.2153,0.40771 -0.0476,0.15709 -0.0713,0.32949 -0.0713,0.5166 0,0.18719 0.0237,0.3597 0.0713,0.51679 0.0474,0.15709 0.11948,0.29319 0.2153,0.40721 0.0963,0.11469 0.2178,0.2032 0.3648,0.26709 0.14609,0.0635 0.31948,0.0955 0.52,0.0955 0.19999,0 0.37359,-0.032 0.51999,-0.0955 z m -0.85379,-0.27729 c -0.0931,-0.0456 -0.1712,-0.1108 -0.23262,-0.19621 -0.0618,-0.0858 -0.1083,-0.18849 -0.13861,-0.3084 -0.0308,-0.1204 -0.0464,-0.25679 -0.0464,-0.40919 0,-0.15021 0.0156,-0.28621 0.0464,-0.40742 0.0303,-0.12128 0.0768,-0.22419 0.13861,-0.30889 0.0614,-0.084 0.13952,-0.14919 0.23262,-0.1941 0.0942,-0.0449 0.20539,-0.0673 0.3338,-0.0673 0.12837,0 0.23929,0.0224 0.33309,0.0673 0.0933,0.0449 0.17159,0.1101 0.23301,0.1941 0.0621,0.0847 0.10777,0.18761 0.1391,0.30889 0.0306,0.12121 0.0457,0.25721 0.0457,0.40742 0,0.1524 -0.0151,0.28879 -0.0457,0.40919 -0.0313,0.11991 -0.077,0.2226 -0.1391,0.3084 -0.0614,0.0854 -0.1397,0.1506 -0.23301,0.19621 -0.0938,0.0452 -0.20472,0.0675 -0.33309,0.0675 -0.12841,0 -0.23961,-0.0223 -0.3338,-0.0675 z m 2.07507,0.33119 0.0982,0.008 0.0983,0.002 c 0.0694,0 0.13483,-0.004 0.19632,-0.0102 v -0.9017 c 0.0437,0.004 0.0843,0.008 0.12129,0.009 0.0378,0.002 0.0803,0.002 0.12961,0.002 0.13091,0 0.2595,-0.0134 0.38499,-0.04 0.1259,-0.0266 0.23801,-0.072 0.337,-0.1367 0.0988,-0.0646 0.17883,-0.15099 0.23901,-0.25831 0.0603,-0.10749 0.0907,-0.24229 0.0907,-0.404 0,-0.1548 -0.0282,-0.28409 -0.0847,-0.38678 -0.0569,-0.10231 -0.13321,-0.1856 -0.22969,-0.2479 -0.0958,-0.0624 -0.20789,-0.10612 -0.33482,-0.1318 -0.12739,-0.0254 -0.2612,-0.0379 -0.40249,-0.0379 -0.054,0 -0.1101,10e-4 -0.1676,0.003 -0.0581,0.003 -0.1161,0.005 -0.1736,0.009 -0.0578,0.003 -0.1131,0.007 -0.1657,0.0119 -0.0528,0.004 -0.0981,0.009 -0.13681,0.0139 z m 0.39282,-2.21939 c 0.0721,-0.007 0.15561,-0.0104 0.2509,-0.0104 0.0923,0 0.1778,0.008 0.25781,0.0242 0.08,0.0162 0.14771,0.0437 0.2044,0.083 0.0561,0.0396 0.10057,0.0912 0.13289,0.15638 0.0318,0.0648 0.0482,0.1445 0.0482,0.23922 0,0.10838 -0.0188,0.19699 -0.0558,0.26519 -0.0373,0.0682 -0.087,0.1217 -0.14873,0.1615 -0.0615,0.0391 -0.13138,0.0661 -0.20959,0.0812 -0.0788,0.015 -0.15758,0.0228 -0.23731,0.0228 -0.059,0 -0.10418,-10e-4 -0.13459,-0.004 -0.0309,-0.002 -0.0669,-0.006 -0.10819,-0.0102 z m 3.33721,2.16549 c 0.1457,-0.0639 0.2674,-0.1524 0.3635,-0.26709 0.0965,-0.11402 0.16789,-0.25012 0.21428,-0.40721 0.0457,-0.1572 0.0689,-0.3296 0.0689,-0.51679 0,-0.18711 -0.0232,-0.35951 -0.0689,-0.5166 -0.0464,-0.15741 -0.11779,-0.29281 -0.21428,-0.40771 -0.0961,-0.11391 -0.2178,-0.20391 -0.3635,-0.2685 -0.1469,-0.0647 -0.32032,-0.097 -0.52052,-0.097 -0.20028,0 -0.37388,0.0323 -0.52,0.097 -0.14689,0.0646 -0.2679,0.15459 -0.36428,0.2685 -0.0963,0.1149 -0.16841,0.2503 -0.216,0.40771 -0.0474,0.15709 -0.0711,0.32949 -0.0711,0.5166 0,0.18719 0.0237,0.35959 0.0711,0.51679 0.0476,0.15709 0.1197,0.29319 0.216,0.40721 0.0964,0.11469 0.21739,0.2032 0.36428,0.26709 0.14612,0.0635 0.31972,0.0955 0.52,0.0955 0.2002,0 0.37362,-0.032 0.52052,-0.0955 z m -0.85411,-0.27729 c -0.0931,-0.0456 -0.1711,-0.1108 -0.2328,-0.19621 -0.0615,-0.0858 -0.1077,-0.18849 -0.13829,-0.3084 -0.0309,-0.1204 -0.0464,-0.25679 -0.0464,-0.40919 0,-0.15021 0.0155,-0.28621 0.0464,-0.40742 0.0306,-0.12128 0.0768,-0.22419 0.13829,-0.30889 0.0617,-0.084 0.1397,-0.14919 0.2328,-0.1941 0.0941,-0.0449 0.20521,-0.0673 0.33359,-0.0673 0.12862,0 0.23932,0.0224 0.33312,0.0673 0.0939,0.0449 0.17128,0.1101 0.23308,0.1941 0.062,0.0847 0.10771,0.18761 0.13932,0.30889 0.0303,0.12121 0.0457,0.25721 0.0457,0.40742 0,0.1524 -0.0154,0.28879 -0.0457,0.40919 -0.0316,0.11991 -0.0773,0.2226 -0.13932,0.3084 -0.0618,0.0854 -0.1392,0.1506 -0.23308,0.19621 -0.0938,0.0452 -0.2045,0.0675 -0.33312,0.0675 -0.12838,0 -0.23951,-0.0223 -0.33359,-0.0675 z m 2.0749,0.33119 h 1.4756 c 0.008,-0.049 0.0119,-0.10079 0.0119,-0.15621 l -0.002,-0.0763 -0.01,-0.0798 h -1.08642 v -2.1808 l -0.0963,-0.011 -0.10029,-0.003 -0.10171,0.003 -0.0909,0.011 v 2.49311 z m 1.78029,-0.22221 c -0.0183,0.053 -0.0296,0.10541 -0.0348,0.15571 0.0538,0.0169 0.1064,0.0314 0.15808,0.0453 0.0513,0.014 0.1047,0.0256 0.1597,0.0352 0.0551,0.009 0.11511,0.016 0.17921,0.0205 0.0643,0.005 0.1361,0.007 0.2159,0.007 0.3284,0 0.58448,-0.069 0.76641,-0.20619 0.18249,-0.1378 0.27369,-0.32551 0.27369,-0.5636 0,-0.0997 -0.0149,-0.1863 -0.0448,-0.26049 -0.0289,-0.0735 -0.0723,-0.1378 -0.12831,-0.19202 -0.0569,-0.0542 -0.12478,-0.10178 -0.20429,-0.14238 -0.08,-0.0407 -0.17078,-0.0792 -0.27358,-0.11621 l -0.2153,-0.0763 c -0.0548,-0.0186 -0.10591,-0.0393 -0.15431,-0.0624 -0.0489,-0.023 -0.0916,-0.0493 -0.1271,-0.0779 -0.0366,-0.0289 -0.0653,-0.0622 -0.087,-0.1004 -0.0222,-0.0386 -0.0328,-0.0818 -0.0328,-0.1305 0,-0.11779 0.0434,-0.2063 0.13081,-0.26539 0.0872,-0.0582 0.21187,-0.0879 0.37408,-0.0879 0.11529,0 0.21862,0.009 0.30992,0.0274 0.0909,0.0186 0.17159,0.0396 0.24098,0.0627 0.0435,-0.0945 0.0716,-0.19089 0.0847,-0.2878 -0.0847,-0.0279 -0.18271,-0.0507 -0.2926,-0.0692 -0.11091,-0.0187 -0.22771,-0.0278 -0.3509,-0.0278 -0.28759,0 -0.51128,0.0591 -0.67039,0.1784 -0.15952,0.11881 -0.23901,0.2843 -0.23901,0.4941 0,0.0881 0.0131,0.16351 0.0386,0.22712 0.0256,0.0638 0.0609,0.11959 0.10612,0.16799 0.045,0.0489 0.0983,0.0899 0.15999,0.1234 0.0612,0.0332 0.12971,0.0642 0.20369,0.0921 l 0.2195,0.0796 c 0.0882,0.0323 0.16422,0.0623 0.22969,0.0899 0.0654,0.0279 0.12023,0.0584 0.16341,0.0917 0.044,0.0339 0.0768,0.0739 0.0988,0.1198 0.0213,0.0464 0.0324,0.10199 0.0324,0.16658 0,0.1318 -0.0519,0.2365 -0.15558,0.31401 -0.10442,0.077 -0.26201,0.11589 -0.4724,0.11589 -0.13381,0 -0.2467,-0.0101 -0.33902,-0.0312 -0.0926,-0.0206 -0.1813,-0.0449 -0.266,-0.0726 -0.0207,0.0506 -0.0397,0.10291 -0.0575,0.15579 z m 3.67972,0.22221 c 0.0381,0.004 0.0753,0.008 0.1113,0.0102 l 0.10047,0.004 c 0.0356,0 0.0736,-0.001 0.11342,-0.004 0.04,-0.002 0.0802,-0.006 0.12149,-0.0102 l -0.99038,-1.29681 0.87848,-1.1963 c -0.041,-0.005 -0.081,-0.008 -0.1192,-0.011 -0.039,-0.002 -0.0744,-0.003 -0.10799,-0.003 l -0.0943,0.003 -0.10611,0.011 -0.88988,1.2272 z m -1.4914,0 0.0925,0.0102 0.10399,0.004 0.1003,-0.004 0.0963,-0.0102 v -2.49311 l -0.0963,-0.011 -0.1003,-0.003 -0.10029,0.003 -0.0962,0.011 z m 2.31588,0 0.0941,0.0102 0.10198,0.004 0.1022,-0.004 0.0945,-0.0102 v -2.49311 l -0.0965,-0.011 -0.10019,-0.003 -0.10008,0.003 -0.096,0.011 z m 1.07061,0 h 1.55271 l 0.01,-0.0762 0.002,-0.08 c 0,-0.0554 -0.004,-0.10629 -0.0118,-0.15268 h -1.15962 v -0.85291 h 0.9016 l 0.0118,-0.0762 0.003,-0.08 -0.003,-0.0778 -0.0118,-0.0746 h -0.9016 v -0.71438 h 1.12882 l 0.01,-0.0763 0.002,-0.0798 c 0,-0.0552 -0.004,-0.1064 -0.0118,-0.15222 h -1.52192 v 2.49311 z m 3.66811,-0.31531 c -0.0437,0.0111 -0.0965,0.0209 -0.1578,0.0293 -0.0614,0.008 -0.1336,0.0118 -0.21611,0.0118 -0.13621,0 -0.26,-0.0191 -0.37179,-0.057 -0.11141,-0.0379 -0.20892,-0.097 -0.2909,-0.17691 -0.0825,-0.0798 -0.1457,-0.17929 -0.19033,-0.29831 -0.045,-0.119 -0.0677,-0.26049 -0.0677,-0.42478 0,-0.15921 0.0215,-0.3012 0.0656,-0.42471 0.0438,-0.12369 0.10449,-0.2279 0.18309,-0.31239 0.0779,-0.0838 0.17301,-0.14841 0.28462,-0.19201 0.1124,-0.0441 0.23608,-0.0665 0.37208,-0.0665 0.12569,0 0.2304,0.009 0.31422,0.0248 0.0834,0.0163 0.1609,0.0345 0.23298,0.0556 0.0233,-0.0514 0.043,-0.0991 0.0598,-0.14401 0.0165,-0.0452 0.0277,-0.0942 0.033,-0.14739 -0.0876,-0.0302 -0.1856,-0.0537 -0.2933,-0.0709 -0.1081,-0.0178 -0.23531,-0.0261 -0.38122,-0.0261 -0.19289,0 -0.36819,0.0305 -0.52599,0.0915 -0.15829,0.061 -0.29428,0.14891 -0.40858,0.26179 -0.11413,0.11321 -0.2025,0.25072 -0.26381,0.4111 -0.0617,0.16062 -0.0928,0.3406 -0.0928,0.53922 0,0.19858 0.0306,0.3768 0.0906,0.5341 0.0608,0.15709 0.14749,0.29048 0.26049,0.40058 0.1126,0.10982 0.2516,0.19361 0.4161,0.25121 0.16439,0.058 0.34918,0.0869 0.55478,0.0869 0.0613,0 0.127,-0.002 0.19632,-0.007 0.0697,-0.005 0.13878,-0.011 0.20768,-0.0192 0.0699,-0.008 0.13681,-0.0197 0.20101,-0.0346 0.0637,-0.0147 0.12319,-0.0327 0.1771,-0.0538 v -1.21702 l -0.0926,-0.0102 -0.10058,-0.004 -0.0997,0.004 -0.0963,0.0102 z m 2.60847,0.26141 c 0.14651,-0.0639 0.26741,-0.1524 0.36421,-0.26709 0.096,-0.11402 0.1674,-0.25012 0.21382,-0.40721 0.0457,-0.1572 0.0689,-0.3296 0.0689,-0.51679 0,-0.18711 -0.0232,-0.35951 -0.0689,-0.5166 -0.0464,-0.15741 -0.11783,-0.29281 -0.21382,-0.40771 -0.0968,-0.11391 -0.2177,-0.20391 -0.36421,-0.2685 -0.14636,-0.0647 -0.31997,-0.097 -0.52017,-0.097 -0.20062,0 -0.37391,0.0323 -0.5201,0.097 -0.1464,0.0646 -0.2679,0.15459 -0.3647,0.2685 -0.0958,0.1149 -0.16771,0.2503 -0.2153,0.40771 -0.0477,0.15709 -0.0714,0.32949 -0.0714,0.5166 0,0.18719 0.0237,0.35959 0.0714,0.51679 0.0476,0.15709 0.11949,0.29319 0.2153,0.40721 0.0968,0.11469 0.2183,0.2032 0.3647,0.26709 0.14619,0.0635 0.31948,0.0955 0.5201,0.0955 0.2002,0 0.37381,-0.032 0.52017,-0.0955 z m -0.85329,-0.27729 c -0.0941,-0.0456 -0.17188,-0.1108 -0.23319,-0.19621 -0.0617,-0.0858 -0.10792,-0.18849 -0.13871,-0.3084 -0.0307,-0.1204 -0.0462,-0.25679 -0.0462,-0.40919 0,-0.15021 0.0155,-0.28621 0.0462,-0.40742 0.0308,-0.12128 0.077,-0.22419 0.13871,-0.30889 0.0613,-0.084 0.1391,-0.14919 0.23319,-0.1941 0.0935,-0.0449 0.20461,-0.0673 0.33312,-0.0673 0.1288,0 0.23919,0.0224 0.3331,0.0673 0.0942,0.0449 0.17148,0.1101 0.23279,0.1941 0.062,0.0847 0.10841,0.18761 0.13949,0.30889 0.0308,0.12121 0.046,0.25721 0.046,0.40742 0,0.1524 -0.0152,0.28879 -0.046,0.40919 -0.0311,0.11991 -0.0775,0.2226 -0.13949,0.3084 -0.0613,0.0854 -0.1386,0.1506 -0.23279,0.19621 -0.0939,0.0452 -0.2043,0.0675 -0.3331,0.0675 -0.12851,0 -0.2396,-0.0223 -0.33312,-0.0675 z m -9.28939,-9.338618 -0.31428,-0.85609 h -1.4883 l -0.3024,0.8618 h -0.85662 l 1.73119,-4.30939 h 0.33799 l 1.74601,4.30939 h -0.13339 c -0.0414,0 -0.1021,0.0406 -0.18211,0.12189 -0.0801,0.0815 -0.12029,0.184 -0.12029,0.30762 0,0.0851 0.0378,0.15638 0.11278,0.21339 0.0751,0.057 0.16101,0.0857 0.25781,0.0857 0.1028,0 0.19562,-0.038 0.27852,-0.1131 l 0.1929,0.359798 c -0.15409,0.11201 -0.35362,0.16821 -0.59881,0.16821 -0.24102,0 -0.4318,-0.0575 -0.5721,-0.17269 -0.14029,-0.115318 -0.2106,-0.264618 -0.2106,-0.448198 0,-0.20902 0.0407,-0.3852 0.1217,-0.52832 z m -5.8432,-0.2291 0.2847,-0.6761 c 0.3042,0.20871 0.60381,0.31331 0.8981,0.31331 0.45261,0 0.67881,-0.1548 0.67881,-0.4643 0,-0.14541 -0.0534,-0.2837 -0.15981,-0.415 -0.10689,-0.13169 -0.3267,-0.2794 -0.65979,-0.4427 -0.3331,-0.16359 -0.55732,-0.2981 -0.67282,-0.40351 -0.11589,-0.10548 -0.20479,-0.23068 -0.26698,-0.3755 -0.0622,-0.14538 -0.0933,-0.306 -0.0933,-0.48189 0,-0.3289 0.12319,-0.6017 0.36921,-0.8188 0.24578,-0.2165 0.5617,-0.3247 0.94711,-0.3247 0.50196,0 0.87048,0.0919 1.10549,0.2757 l -0.2341,0.65031 c -0.27061,-0.1899 -0.55629,-0.2848 -0.85683,-0.2848 -0.1778,0 -0.31559,0.0461 -0.41327,0.1378 -0.0978,0.0922 -0.14701,0.21149 -0.14701,0.35849 0,0.24381 0.2758,0.49749 0.8272,0.76031 0.29069,0.13959 0.5001,0.26758 0.6284,0.38488 0.12869,0.1167 0.22648,0.25322 0.29369,0.40901 0.0671,0.15561 0.10072,0.32949 0.10072,0.5208 0,0.34449 -0.13882,0.62791 -0.41632,0.85041 -0.27809,0.22239 -0.64989,0.33359 -1.11608,0.33359 -0.40552,0 -0.77093,-0.10241 -1.09711,-0.30731 z m -37.9954,-4.01658 h 0.77089 v 2.88198 c 0,0.2281 0.0711,0.41381 0.21329,0.55672 0.14252,0.14319 0.33804,0.21509 0.5872,0.21509 0.27852,0 0.4953,-0.0705 0.65063,-0.21061 0.15508,-0.14009 0.23259,-0.33239 0.23259,-0.57609 v -2.86709 h 0.77089 v 2.92509 c 0,0.4373 -0.1499,0.77971 -0.4492,1.0275 -0.2995,0.24751 -0.69899,0.3713 -1.19919,0.3713 -0.50402,0 -0.89299,-0.12079 -1.16629,-0.36269 -0.27382,-0.2418 -0.41081,-0.58791 -0.41081,-1.0389 z m 55.48331,0.22648 -0.31732,0.62371 c -0.17188,-0.1681 -0.44838,-0.25231 -0.82988,-0.25231 -0.36181,0 -0.65832,0.14831 -0.88971,0.44521 -0.23089,0.297 -0.3466,0.6731 -0.3466,1.12769 0,0.45452 0.1071,0.8153 0.32159,1.08221 0.2146,0.2672 0.50059,0.4008 0.8581,0.4008 0.40891,0 0.72923,-0.14341 0.96083,-0.42969 l 0.35877,0.60939 c -0.3145,0.32699 -0.77509,0.4904 -1.3818,0.4904 -0.60639,0 -1.07809,-0.1953 -1.4139,-0.58611 -0.33598,-0.39098 -0.50397,-0.92378 -0.50397,-1.59889 0,-0.6289 0.18619,-1.15461 0.55858,-1.57759 0.37261,-0.42242 0.84971,-0.63391 1.43041,-0.63391 0.49841,0 0.89631,0.0996 1.1949,0.29909 z m -44.51432,-0.22648 h 0.77072 v 2.88198 c 0,0.2281 0.0711,0.41381 0.21329,0.55672 0.1422,0.14319 0.33778,0.21509 0.5873,0.21509 0.27848,0 0.49519,-0.0705 0.65059,-0.21061 0.15512,-0.14009 0.23252,-0.33239 0.23252,-0.57609 v -2.86709 h 0.771 v 2.92509 c 0,0.4373 -0.14972,0.77971 -0.4492,1.0275 -0.29933,0.24751 -0.69903,0.3713 -1.19912,0.3713 -0.50419,0 -0.89278,-0.12079 -1.16668,-0.36269 -0.2735,-0.2418 -0.41042,-0.58791 -0.41042,-1.0389 z m 53.92491,3.26749 h 0.68792 c 0.0649,0.2478 0.27679,0.37169 0.634296,0.37169 0.2528,0 0.43137,-0.0805 0.53498,-0.24109 0.10379,-0.16041 0.1559,-0.4041 0.1559,-0.7312 v -2.66689 h 0.77092 v 2.64389 c 0,0.5649 -0.12273,0.98379 -0.36791,1.25659 -0.24501,0.27252 -0.63832,0.40901 -1.1798,0.40901 -0.359786,0 -0.650196,-0.0918 -0.871706,-0.27541 -0.22119,-0.18408 -0.3429,-0.43949 -0.3646,-0.76659 z m -45.7605,0.98679 h -0.7475 l -0.45039,-2.29249 -0.87433,2.3477 h -0.27587 l -0.8745,-2.3477 -0.46852,2.29249 h -0.74419 l 0.87489,-4.25428 h 0.4089 l 0.9397,2.8643 0.91909,-2.8643 h 0.40591 z m 15.07621,0 h -0.74701 l -0.4506,-2.29249 -0.87461,2.3477 h -0.27559 l -0.87461,-2.3477 -0.46838,2.29249 h -0.74433 l 0.87472,-4.25428 h 0.40911 l 0.9398,2.8643 0.91899,-2.8643 h 0.40629 z m -34.68402,0 h -0.74701 l -0.45057,-2.29249 -0.87443,2.3477 h -0.27598 l -0.87411,-2.3477 -0.4687,2.29249 h -0.74401 l 0.87443,-4.25428 h 0.40909 l 0.9398,2.8643 0.91909,-2.8643 h 0.40622 z m 63.25602,-3.58418 v 1.33078 h 1.43461 v 0.64142 h -1.43461 v 0.9391 h 1.96829 v 0.66999 h -2.73921 v -4.25139 h 2.77153 v 0.6701 z m -54.4957,0 0.0215,1.33078 h 1.43471 v 0.64142 h -1.43471 l -0.0215,0.9391 h 1.9686 v 0.66999 h -2.73942 v -4.25139 h 2.77202 v 0.6701 z m 19.19128,0 v 1.33078 h 1.43489 v 0.64142 h -1.43489 v 0.9391 h 1.9684 v 0.66999 h -2.73929 v -4.25139 h 2.77171 v 0.6701 z m -23.57,3.58129 v -0.2437 l 1.81152,-3.33759 h -1.78181 v -0.6701 h 2.8315 v 0.24369 l -1.81741,3.33771 h 1.88242 v 0.66999 z m 42.20799,0 h -0.96318 v -4.24861 c 0.61461,-0.0214 1.00079,-0.0319 1.15908,-0.0319 0.63232,0 1.13383,0.18151 1.50421,0.5443 0.37059,0.36269 0.55612,0.84399 0.55612,1.4435 0,1.52869 -0.75212,2.2927 -2.25623,2.2927 z m 12.57001,0 -1.2095,-1.81109 -0.4832,0.64749 v 1.1636 h -0.7711 v -4.25139 h 0.7711 v 2.03439 l 1.4761,-2.03439 h 0.8776 l -1.3608,1.8573 1.6215,2.39409 z m -37.27648,0 v -0.2437 l 1.8112,-3.33759 h -1.7815 v -0.6701 h 2.83119 v 0.24369 l -1.8173,3.33771 h 1.88249 v 0.66999 z m 3.62268,0 h 0.77092 v -4.25161 h -0.77092 z m 9.66731,0 h 0.77089 v -4.25161 h -0.77089 z m 25.4611,0 h 0.77061 v -4.25161 h -0.77061 z m -10.33579,-3.58129 v 1.33078 h 1.43489 v 0.64142 h -1.43489 v 0.9391 h 1.96829 v 0.66999 h -2.73911 v -4.25139 h 2.77192 v 0.6701 z m -3.90141,-0.009 v 2.9022 c 0.1245,0.0116 0.2588,0.0177 0.40298,0.0177 0.38943,0 0.69462,-0.1385 0.91472,-0.4154 0.2202,-0.27651 0.33048,-0.66361 0.33048,-1.16071 0,-0.9095 -0.43148,-1.363911 -1.29529,-1.363911 -0.083,0 -0.20081,0.007 -0.35289,0.0201 z m -3.14519,0.5806 -0.52211,1.5699 h 1.0438 z m -63.384321,-6.968909 1.62821,0.22031 0.0731,-0.54081 -0.987213,-0.13339 0.09211,-0.6109 0.748912,0.1016 0.06339,-0.46891 -0.748806,-0.101 0.124107,-0.99198 0.987213,0.1336 0.0737,-0.54141 -0.987496,-0.13349 v -0.002 l -0.640821,-0.087 -0.426402,3.15578 z m -0.566208,-0.0342 -2.243596,0.2975 1.071915,-2.7069 -1.264709,0.17219 0.04371,-0.66258 2.254214,-0.3035 -1.090506,2.70958 1.332194,-0.1815 z M 9.629493,5.09467 9.896475,1.76455 9.185593,1.98867 9.084275,4.02526 7.537591,2.68255 6.909188,3.08246 9.495684,5.15475 Z m 6.642982,0.0601 2.658709,-2.017889 -0.641491,-0.380791 -1.586018,1.28129 -0.02889,-2.04819 -0.717303,-0.20172 0.1778,3.304821 z M 6.155902,3.46807 6.585691,5.67818 4.433006,5.01708 4.338886,5.10178 6.488502,7.49217 6.969197,7.05948 6.181797,6.18417 7.369705,6.55029 7.131404,5.33049 7.918381,6.20559 8.399393,5.77329 6.250095,3.38308 Z m 15.171702,1.5181 -2.142596,0.69332 0.396769,-2.217 -0.0955,-0.0831 -2.113385,2.4221 0.487397,0.42541 0.773783,-0.8873 -0.219675,1.2235 1.181982,-0.38421 -0.774382,0.88759 0.48768,0.42481 2.113209,-2.42199 z M 4.106581,7.80258 C 4.344106,7.78348 4.552809,7.96048 4.572,8.19818 4.5913,8.43609 4.414309,8.64437 4.176501,8.66378 3.938694,8.68308 3.730308,8.50587 3.710976,8.26828 3.691786,8.03047 3.869091,7.82187 4.106581,7.80258 Z m 17.566921,0 c 0.237773,-0.0191 0.446192,0.1579 0.465492,0.3956 0.0192,0.23791 -0.15812,0.44619 -0.395818,0.4656 -0.237596,0.0193 -0.445982,-0.15791 -0.465173,-0.3955 -0.01961,-0.23781 0.157692,-0.4463 0.395499,-0.4657 z m 1.258602,1.92179 c 0.14859,-0.0343 0.38788,-0.0885 0.5526,-0.0566 0.3998,0.0778 0.7028,0.41261 0.77829,0.81481 0.0511,0.27168 -0.0711,0.68319 -0.1773,0.8055 l -0.54032,-0.16732 c 0.10601,-0.0774 0.18571,-0.38308 0.17861,-0.4899 -0.0215,-0.32929 -0.31238,-0.4105 -0.60317,-0.33299 v 3.44e-4 l -2.075715,0.50691 -0.145203,-0.6302 2.032208,-0.45061 z m -21.527801,2.13381 0.358704,-2.2188 2.285295,1.80471 0.197802,-1.26101 0.604203,0.3416 -0.338808,2.1373 -2.282296,-1.8228 -0.208421,1.328 z m 3.161806,1.66031 -0.03553,-0.6459 -3.179903,0.17509 0.03602,0.646 z m 19.851685,0.0286 0.003,-1.6431 -0.54578,-10e-4 -0.002,0.99621 -0.57291,-0.002 10e-4,-0.75572 -0.47279,-10e-4 -0.002,0.75611 -1.04352,-0.002 0.0021,-0.996 -0.546382,-0.001 -0.0021,0.99621 -0.0021,-10e-5 -0.0014,0.64671 3.184312,0.007 z m -3.226997,0.678 -0.119521,0.63571 3.130018,0.587508 0.11921,-0.635598 z m -19.621817,0.69452 0.35821,1.603688 0.532695,-0.1191 -0.217382,-0.9719 0.563598,-0.126398 0.165205,0.737798 0.461399,-0.1034 -0.165206,-0.737408 1.014201,-0.22698 0.217487,0.972398 0.533118,-0.11942 -0.217311,-0.972078 0.0023,-4.23e-4 -0.141111,-0.6313 z m 20.532904,2.015488 1.84531,-0.448 -0.28469,0.6065 -1.3092,0.27721 0.17008,0.29559 0.71292,0.33511 -0.27481,0.5854 -2.882618,-1.3534 0.274603,-0.5854 1.363803,0.63969 -0.937401,-1.54739 0.284727,-0.606698 z m -15.677906,1.2561 -2.251992,0.0101 1.050995,-1.99179 -0.06601,-0.1082 -2.748985,1.66639 0.335386,0.55301 1.006898,-0.61059 -0.58099,1.09859 1.242695,-0.007 -1.006898,0.61098 0.335315,0.55291 2.748986,-1.66631 z M 12.909197,5.72149 c 3.96681,0 7.187212,3.22051 7.187212,7.18771 0,3.967088 -3.220402,7.187488 -7.187212,7.187488 -3.967091,0 -7.187706,-3.2204 -7.187706,-7.187488 0,-3.9672 3.220615,-7.18771 7.187706,-7.18771 z m 0,-0.68989 c 4.347598,0 7.877599,3.52979 7.877599,7.8776 0,4.347588 -3.530001,7.877588 -7.877599,7.877588 -4.347915,0 -7.877598,-3.52989 -7.877598,-7.877588 0,-4.34781 3.53,-7.8776 7.877598,-7.8776 z m 7.189188,12.786598 0.205705,0.5267 c -0.126189,-0.0345 -0.38989,0.11169 -0.458082,0.1941 -0.373804,0.45219 -0.324909,0.98979 0.17018,1.39689 0.484893,0.39882 1.000301,0.309 1.37541,-0.14199 0.1004,-0.12121 0.135502,-0.33729 0.144392,-0.4585 l 0.550404,0.0661 c 0,0 0.022,0.42259 -0.217488,0.77219 -0.497311,0.7263 -1.438628,0.87531 -2.221724,0.2256 -0.831779,-0.69031 -0.849806,-1.5682 -0.288784,-2.21781 0.180481,-0.20919 0.578309,-0.37009 0.739987,-0.36329 z m -12.743003,1.4017 -0.450674,-0.46451 -2.285718,2.21682 0.450286,0.46419 z m 0.567196,1.8531 c 0.237525,-0.0193 0.446228,0.15829 0.465208,0.3955 0.01951,0.23809 -0.157798,0.44679 -0.395394,0.4657 -0.23749,0.0193 -0.446404,-0.1579 -0.465384,-0.3956 -0.01951,-0.2376 0.157798,-0.4462 0.39557,-0.4656 z m 10.637731,1.95711 1.364298,-0.9149 -0.304024,-0.45321 -0.827194,0.55471 -0.323003,-0.45911 0.627698,-0.42111 -0.26349,-0.39299 -0.627592,0.42139 -0.577814,-0.8835 0.827687,-0.55499 -0.304483,-0.45399 -0.827405,0.55499 -0.0014,-0.002 -0.536998,0.36022 1.773908,2.6446 z m -5.910403,0.38329 0.820102,-0.008 -0.419311,-0.96721 z m 2.549489,-1.79391 c 0.554814,-0.14848 1.009192,0.0594 1.177396,0.65521 0.171591,0.6083 -0.06971,1.04289 -0.618913,1.2076 z m -5.13722,0.6936 c -0.100083,-0.15918 -0.192899,-0.3289 -0.208174,-0.52328 -0.04022,-0.5117 0.346992,-0.89221 0.822783,-0.8981 0.437515,-0.005 0.82931,0.28349 0.971409,0.67448 l -0.487715,0.35041 c -2.91e-4,-0.005 -3.44e-4,-0.009 -7.14e-4,-0.0137 -0.0145,-0.18792 -0.223026,-0.47371 -0.47632,-0.49251 -0.207398,-0.0159 -0.291395,0.15201 -0.267406,0.32311 0.01383,0.10029 0.183233,0.34678 0.254106,0.4348 l 0.371828,0.53618 c 0.03217,0.0449 0.06368,0.0932 0.09289,0.14111 0.07528,0.1257 0.139489,0.26529 0.151413,0.41649 0.03997,0.51121 -0.379307,0.93712 -0.905299,0.93991 -0.437233,0.003 -0.829133,-0.28321 -0.971126,-0.6743 -0.0472,-0.11331 -0.0817,-0.2292 -0.100295,-0.34749 l 0.541796,-0.12241 c 2.12e-4,0.005 0.035,0.13529 0.0363,0.1397 0.06082,0.20091 0.21851,0.44591 0.471593,0.4651 0.207398,0.0155 0.338314,-0.12971 0.301025,-0.31619 -0.02043,-0.10192 -0.08812,-0.24042 -0.184397,-0.38541 l -0.413634,-0.64752 z m 4.95942,-1.2875 c 0.825712,-0.23319 1.708997,0.005 2.013197,1.0559 0.300285,1.03822 -0.272415,1.763 -1.099114,1.9939 l -0.619478,0.18591 -0.914118,-3.05001 0.615104,-0.18478 z m -1.000301,3.35862 c -0.05331,0.1706 -0.03849,0.35429 0.08918,0.47738 l 0.0133,0.0118 c -0.247368,0.0253 -0.496993,0.0436 -0.748877,0.0533 C 6.742287,25.184078 1.148502,20.007378 0.891397,13.37488 0.634399,6.74198 5.810389,1.14848 12.443,0.89138 c 6.632892,-0.257 12.226184,4.9192 12.483784,11.5516 0.2414,6.235208 -4.318284,11.550998 -10.376008,12.380098 l 0.03602,-0.12771 c -0.075,0.006 -0.197309,-0.032 -0.243417,-0.0781 -0.0756,-0.076 -0.0823,-0.16069 -0.05898,-0.23608 l 0.343605,-0.004 -1.489392,-2.99632 -0.200025,-0.002 -1.418096,3.03371 0.724993,-0.009 0.219499,-0.51449 1.200714,-0.013 0.231211,0.50952 z M 12.909197,0 c 7.124806,0 12.909197,5.78411 12.909197,12.90891 0,7.124698 -5.784391,12.909198 -12.909197,12.909198 C 5.784498,25.818108 0,20.033608 0,12.90891 0,5.78411 5.784498,0 12.909197,0 Z m 0.0551,12.05921 -0.640009,0.92139 c -0.402696,-0.42309 0,-1.1006 0.640009,-0.92139 z m 0.126401,-1.8433 1.019104,-1.68991 0.481295,1.6933 -1.500399,-0.004 z m -1.626412,-0.005 0.48641,-1.68441 1.013601,1.6879 -1.500011,-0.004 z m 3.974994,4.2757 h -0.460794 l 0.155293,0.52758 -0.947385,-0.0105 -1.252714,-1.41481 c 0.370417,-0.52391 0.587199,-0.82949 0.73212,-1.0341 0.184503,0.1585 0.384281,0.4113 0.587304,0.7099 l 0.669079,-0.76479 -0.186196,-0.1724 -0.223485,0.19459 c -0.138219,-0.2014 -0.269593,-0.3858 -0.433599,-0.5479 0.127987,-0.18249 0.319299,-0.4523 0.715186,-1.01709 l 0.752616,2.62999 h -0.356623 l -0.0188,0.3635 h 1.805799 l -0.0375,-0.3635 h -0.3586 L 14.295792,6.43419 13.029285,8.58088 11.675889,6.44097 9.535481,13.57187 H 9.149895 l -0.0768,0.37871 h 1.808902 v -0.37871 h -0.385692 l 0.814388,-2.8231 0.06639,0.6077 h 0.327907 l 0.005,-0.3634 2.025897,0.0117 -0.356694,0.48299 c -1.502128,-0.54278 -2.546526,0.89112 -1.544814,2.1984 l -1.522306,2.153918 3.464595,-0.002 c 1.056605,1.08031 0.365513,2.4917 -0.812377,2.5497 -0.793609,0.0581 -1.519096,-0.61951 -1.479514,-1.2954 l -0.0087,-0.29521 -1.140107,-0.009 -0.0051,0.3926 0.325896,0.009 c 0.09909,1.18241 1.167518,2.0635 2.251322,2.0635 1.691604,0 2.865684,-1.8519 1.921686,-3.41369 l 1.100808,-0.002 z" />
</svg>
