<?xml version="1.0" encoding="UTF-8"?>
<!DOCTYPE svg PUBLIC "-//W3C//DTD SVG 1.1//EN" "http://www.w3.org/Graphics/SVG/1.1/DTD/svg11.dtd">
<!-- Creator: CorelDRAW X7 -->
<svg xmlns="http://www.w3.org/2000/svg" xml:space="preserve" width="135.434mm" height="33.9826mm" version="1.1" style="shape-rendering:geometricPrecision; text-rendering:geometricPrecision; image-rendering:optimizeQuality; fill-rule:evenodd; clip-rule:evenodd" viewBox="0 0 13223 3318" xmlns:xlink="http://www.w3.org/1999/xlink">
 <defs>
  <style type="text/css">
   <![CDATA[
    .fil1 {fill:#1F1A17}
    .fil0 {fill:#FEFEFE}
   ]]>
  </style>
 </defs>
 <g id="Warstwa_x0020_1">
  <metadata id="CorelCorpID_0Corel-Layer"/>
  <g id="_611492240">
   <rect class="fil0" width="13223" height="3318"/>
   <path id="_252161320" class="fil1" d="M1925 2277c0,56 -23,105 -69,146 -45,41 -101,61 -167,61 -53,0 -98,-8 -135,-25 -19,-8 -35,-16 -48,-23 -14,-8 -27,-16 -40,-24l0 -116c26,17 48,30 66,38 18,9 36,16 54,22 35,13 70,19 103,19 39,0 70,-9 95,-28 23,-17 35,-41 35,-72 0,-21 -9,-40 -26,-56 -20,-19 -65,-42 -137,-68 -29,-11 -55,-22 -77,-35 -23,-12 -42,-26 -58,-42 -34,-33 -51,-75 -51,-127 0,-58 24,-105 72,-143 23,-18 47,-32 73,-42 26,-10 54,-15 84,-15 44,0 84,7 121,21 34,13 62,29 84,48l0 122c-26,-20 -47,-34 -63,-44 -16,-9 -31,-17 -46,-24 -31,-13 -61,-20 -90,-20 -22,0 -41,3 -56,8 -15,5 -29,12 -40,21 -22,20 -32,43 -32,67 0,25 10,46 32,62 13,9 28,18 45,26 17,9 37,17 60,25 61,21 110,47 148,78 42,32 63,79 63,140zm-1167 -713l-1 -333 0 -3 0 -2 0 0c1,-19 4,-39 8,-60 4,-20 9,-40 16,-60l0 -1c37,-102 114,-201 255,-266l23 -11 22 11 2 1 0 0c27,12 52,26 74,41 23,15 43,31 62,48 38,35 67,74 89,114 43,-79 115,-152 227,-204l22 -11 23 11 2 1 0 0c27,12 52,26 74,41 23,15 43,31 62,48 96,88 135,197 141,299l0 3 -1 333 -106 0 2 -331c-5,-77 -35,-160 -108,-226 -14,-14 -30,-26 -48,-38 -13,-8 -26,-16 -40,-24 -98,51 -153,122 -179,195l0 0c-5,15 -9,31 -12,46 -3,15 -5,30 -6,46l0 0 0 1 2 331 -4 0 0 0 -51 0 -51 0 0 0 -3 0 1 -331c-5,-77 -35,-160 -107,-226 -15,-14 -31,-26 -49,-38 -12,-8 -26,-16 -40,-24 -98,51 -153,122 -178,195l0 0c-6,15 -10,31 -13,46 -3,15 -5,30 -6,46l0 0 0 1 2 331 -106 0zm3147 470l90 0 -190 450 -50 0 -107 -283 -108 283 -49 0 -189 -450 91 0 119 287 111 -287 49 0 111 287 122 -287zm4478 444c-34,44 -51,120 32,120 16,0 34,0 48,-8l0 -36c-51,14 -80,-22 -43,-69 1,-2 3,-4 5,-7l11 0c0,0 0,0 0,0l34 0 0 -444 -85 0 0 23c-16,-7 -32,-14 -48,-20 -16,-7 -33,-10 -50,-10 -66,0 -119,23 -161,68 -21,22 -37,48 -47,77 -10,28 -15,60 -15,94 0,63 20,115 61,157 40,41 92,61 153,61 25,0 50,-4 75,-10 4,-1 10,-4 15,-9 5,-4 10,-8 16,-9l0 17c0,3 -1,4 -1,5zm1334 -444l0 442 -87 0 0 -30c-8,6 -16,12 -26,18 -24,13 -50,20 -76,20 -27,0 -52,-4 -74,-11 -21,-7 -41,-19 -57,-36 -17,-16 -29,-36 -37,-59 -8,-22 -12,-48 -12,-76l0 -268 88 0 0 259c0,19 2,35 6,48 3,12 9,23 16,31 7,9 17,15 27,19 10,5 23,7 38,7 25,0 47,-8 66,-23 10,-8 18,-16 25,-24 6,-7 12,-15 16,-22l0 -295 87 0zm-414 359l0 83 -365 0 -13 -40 242 -318 -225 0 0 -84 352 0 11 40 -241 319 239 0zm-423 -30l0 94c-12,4 -22,8 -30,10 -8,2 -18,5 -28,8 -21,6 -45,9 -70,9 -34,0 -64,-5 -91,-16 -27,-10 -51,-26 -71,-47 -20,-21 -36,-45 -45,-73 -9,-28 -14,-59 -14,-92 0,-63 19,-117 57,-160 21,-24 44,-42 70,-53 27,-11 57,-16 90,-16 21,0 41,2 60,6 8,2 17,4 27,7 9,3 22,7 38,12l0 98c-21,-10 -37,-16 -46,-20 -10,-3 -19,-7 -26,-10 -14,-5 -32,-8 -53,-8 -38,0 -69,14 -92,39 -23,27 -36,61 -36,105 0,23 3,43 9,60 7,17 15,32 27,44 23,25 56,38 98,38 19,0 38,-2 55,-7 4,-1 8,-3 12,-4 4,-1 9,-3 14,-5 5,-2 12,-5 19,-8 7,-3 16,-7 26,-11zm-532 29c7,-3 13,-7 19,-13 7,-5 12,-10 18,-13l0 -219c-4,-3 -8,-6 -13,-11 -4,-5 -10,-9 -17,-12 -15,-8 -35,-12 -59,-12 -41,0 -75,15 -102,43 -27,29 -40,66 -40,110 0,43 12,75 36,99 24,24 56,37 96,37 26,0 47,-3 62,-9zm-373 -213c26,29 39,70 39,122 0,50 -19,93 -57,129 -37,36 -83,54 -136,54 -37,0 -72,-7 -104,-21 -15,-7 -28,-13 -40,-20 -13,-6 -25,-14 -37,-24l0 -109c16,11 30,21 42,30 11,8 21,15 30,20 9,5 17,10 23,13 7,4 13,7 18,9 20,9 41,14 60,14 31,0 57,-9 77,-28 20,-19 30,-43 30,-70 0,-15 -2,-28 -7,-39 -4,-10 -11,-20 -20,-27 -10,-9 -24,-17 -41,-25 -16,-9 -37,-17 -62,-26 -51,-17 -90,-39 -116,-65 -14,-15 -25,-32 -31,-51 -7,-20 -10,-41 -10,-65 0,-50 19,-91 58,-127 38,-34 83,-53 135,-53 38,0 71,7 99,17 14,5 27,10 36,15 10,5 19,11 28,17l2 103c-12,-7 -22,-13 -31,-18 -8,-5 -16,-10 -22,-13 -7,-4 -13,-7 -18,-10 -6,-2 -12,-5 -18,-8 -19,-10 -43,-15 -70,-15 -30,0 -56,9 -75,27 -20,19 -30,40 -30,63 0,14 2,26 6,35 4,9 10,17 16,23 17,15 48,31 92,48 31,11 58,22 81,34 22,13 40,26 53,41zm-713 35l0 262 -87 0 0 -249c0,-20 -2,-38 -6,-52 -4,-14 -10,-26 -17,-35 -7,-9 -15,-16 -25,-21 -10,-4 -22,-7 -36,-7 -20,0 -37,8 -52,23 -9,9 -17,18 -24,27 -6,9 -13,18 -19,27l0 287 -86 0 0 -249c0,-20 -2,-38 -6,-52 -5,-14 -10,-26 -16,-35 -13,-19 -33,-28 -59,-28 -24,0 -43,7 -58,20 -8,6 -15,14 -21,22 -7,8 -13,17 -20,26l0 296 -87 0 0 -442 86 0 0 32c8,-7 16,-14 25,-19 24,-14 51,-20 81,-20l10 0c26,0 51,7 75,23 18,11 33,28 46,50 5,-7 10,-13 16,-19 6,-5 12,-11 19,-17 26,-25 60,-37 100,-37l10 0c46,0 82,18 110,54 27,35 41,79 41,133zm-754 -180l93 0 -292 591 -92 0 122 -247 -180 -344 97 0 129 251 123 -251zm-454 0l91 0 -191 450 -49 0 -107 -283 -108 283 -50 0 -188 -450 90 0 120 287 110 -287 50 0 110 287 122 -287zm-729 323c26,-27 39,-61 39,-101 0,-40 -13,-74 -39,-102 -27,-28 -59,-42 -96,-42 -37,0 -69,14 -95,41 -27,28 -40,63 -40,103 0,39 13,73 40,101 26,27 59,41 95,41 37,0 69,-14 96,-41zm64 -264c43,45 65,99 65,163 0,65 -22,118 -64,162 -22,22 -46,39 -73,50 -27,10 -56,16 -88,16 -64,0 -118,-22 -160,-66 -43,-45 -65,-99 -65,-162 0,-65 22,-120 64,-163 22,-23 46,-39 73,-50 27,-11 56,-16 88,-16 64,0 118,22 160,66zm-465 -265l0 648 -72 0 -426 -490 0 490 -91 0 0 -648 72 0c42,51 82,98 120,142 38,44 77,87 116,130 32,36 63,72 95,108 31,37 63,73 95,110l0 -490 91 0zm-4895 657l0 -1803 0 -57 58 0 236 0 0 -229 0 -57 58 0 244 0 0 -248 0 -57 57 0 622 0 621 0 58 0 0 57 0 248 256 0 57 0 0 57 0 229 234 0 57 0 0 57 0 1803 -115 0 0 -1746 -233 0 -58 0 0 -57 0 -228 -256 0 -57 0 0 -58 0 -247 -564 0 -565 0 0 247 0 58 -57 0 -244 0 0 228 0 57 -57 0 -237 0 0 1746 -115 0zm2086 0l0 -926c-16,-280 -93,-512 -230,-693 -134,-177 -326,-309 -577,-395 -251,86 -443,218 -577,395 -137,181 -214,413 -230,693l0 926 -117 0 0 -929 0 -3c18,-304 102,-557 254,-758 152,-200 369,-347 652,-441l18 -6 18 6c283,94 501,241 652,441 152,201 236,454 254,758l0 3 0 929 -117 0zm1845 -1862l0 713 -100 0 0 -546 -228 282 -229 -282 0 546 -101 0 0 -713 88 0 242 295 240 -295 88 0zm6169 710c-1,0 -1,0 -1,1l0 2 -2 0c-5,9 -10,16 -14,21 -7,9 -12,16 -15,20 -5,9 -7,16 -7,21 0,2 1,6 2,10 1,4 2,8 3,12 1,4 5,9 13,14 8,5 15,9 22,8 14,-1 25,-4 31,-6l0 42c-4,3 -11,5 -18,7 -8,2 -20,3 -37,3 -47,0 -70,-23 -70,-70 0,-15 5,-31 16,-48 7,-11 16,-22 28,-34l-372 0 0 -713 413 0 0 92 -312 0 0 217 303 0 0 92 -303 0 0 221 319 0 0 88 1 0zm3070 -88l0 91 -420 0 0 -713 414 0 0 92 -313 0 0 217 304 0 0 92 -304 0 0 221 319 0zm-590 -622l104 0 -285 720 -46 0 -207 -519 -206 519 -47 0 -286 -720 105 0 204 510 206 -510 49 0 205 511 204 -511zm-1134 547c53,-54 80,-117 80,-190 0,-74 -27,-137 -80,-190 -53,-53 -117,-79 -192,-79 -76,0 -140,26 -193,79 -53,52 -79,116 -79,190 0,74 26,138 78,190 53,52 117,79 194,79 75,0 139,-27 192,-79zm75 -451c73,70 109,157 109,261 0,102 -36,189 -109,260 -72,70 -161,105 -267,105 -107,0 -197,-35 -268,-104 -72,-70 -108,-157 -108,-261 0,-104 36,-191 107,-260 72,-70 162,-106 269,-106 105,0 194,35 267,105zm-720 267l0 293c-23,12 -44,21 -63,29 -20,8 -40,14 -61,20 -43,11 -88,17 -135,17 -110,0 -202,-35 -275,-104 -74,-70 -111,-158 -111,-263 0,-103 36,-190 108,-259 72,-70 161,-105 268,-105 54,0 103,8 148,22 22,7 42,14 59,21 16,7 33,15 50,25l0 115c-34,-21 -62,-35 -83,-45 -21,-10 -41,-18 -60,-24 -38,-11 -76,-17 -114,-17 -78,0 -142,25 -194,76 -52,51 -78,114 -78,192 0,82 26,147 78,196 53,49 124,74 211,74 34,0 67,-4 97,-12 12,-3 22,-7 31,-10 9,-3 17,-6 25,-10l0 -140 -141 0 0 -91 240 0zm-1462 -88c12,-9 21,-20 27,-32 6,-13 9,-28 9,-46 0,-32 -11,-58 -35,-76 -26,-20 -63,-29 -109,-29l-91 0 0 211 86 0c26,0 48,-2 67,-7 18,-5 34,-12 46,-21zm124 209l149 229 -119 0 -124 -193c-12,-19 -23,-36 -34,-51 -11,-16 -22,-30 -33,-42 -18,-21 -46,-32 -85,-32l-77 0 0 318 -100 0 0 -713 192 0c37,0 71,4 100,12 30,8 57,20 79,37 23,17 40,39 51,64 12,26 18,54 18,85 0,49 -15,89 -45,120 -19,19 -39,34 -60,47 5,5 11,10 15,16 5,6 10,12 15,20 11,14 21,29 30,42 10,14 19,28 28,41zm-846 -129l373 358 -135 0 -314 -300 0 300 -100 0 0 -713 100 0 0 295 284 -295 131 0 -339 355zm-436 192c53,-54 80,-117 80,-190 0,-74 -27,-137 -80,-190 -53,-53 -117,-79 -192,-79 -76,0 -140,26 -193,79 -52,52 -79,116 -79,190 0,74 26,138 78,190 53,52 117,79 194,79 75,0 139,-27 192,-79zm75 -451c73,70 109,157 109,261 0,102 -36,189 -109,260 -72,70 -161,105 -267,105 -107,0 -196,-35 -268,-104 -72,-70 -108,-157 -108,-261 0,-104 36,-191 107,-260 72,-70 162,-106 269,-106 105,0 195,35 267,105zm-1053 -96l0 713 -100 0 0 -546 -228 282 -229 -282 0 546 -101 0 0 -713 88 0 242 295 240 -295 88 0zm-737 0l0 401c0,46 -7,88 -20,126 -14,39 -34,73 -62,103 -57,62 -130,92 -220,92 -89,0 -161,-29 -218,-89 -56,-59 -85,-135 -85,-228l0 -405 101 0 0 402c0,36 4,68 14,95 9,26 23,50 41,69 37,40 86,60 148,60 62,0 111,-21 146,-62 18,-20 31,-44 41,-71 9,-28 14,-60 14,-96l0 -397 100 0zm-674 622l0 91 -420 0 0 -713 413 0 0 92 -312 0 0 217 303 0 0 92 -303 0 0 221 319 0zm-505 0l0 91 -623 0 -15 -44 473 -577 -448 0 0 -92 599 0 13 49 -473 573 474 0zm-674 -622l0 401c0,46 -7,88 -21,126 -13,39 -34,73 -62,103 -57,62 -130,92 -219,92 -89,0 -162,-29 -219,-89 -56,-59 -84,-135 -84,-228l0 -405 100 0 0 402c0,36 5,68 14,95 10,26 23,50 42,69 36,40 85,60 148,60 61,0 110,-21 146,-62 17,-20 31,-44 40,-71 10,-28 14,-60 14,-96l0 -397 101 0zm-1340 956l9897 0 0 113 -9897 0 0 -113zm-2605 905l-1 -334 0 -3 0 -2 0 0c1,-19 4,-39 8,-60 4,-19 9,-40 16,-60l0 0c37,-103 114,-201 255,-267l22 -10 23 10 2 1 0 0c27,13 52,27 74,41 23,16 43,32 62,49 96,88 135,196 141,298l0 3 -1 334 -106 -1 2 -330c-5,-78 -35,-160 -107,-227 -15,-13 -31,-26 -49,-38 -13,-8 -26,-16 -40,-24 -98,52 -153,123 -178,196l-1 0c-5,14 -9,30 -12,46 -3,14 -5,30 -6,46l0 0 0 1 2 330 -106 1z"/>
   <g>
    <path id="_252153760" class="fil1" d="M29 3280l13 2 14 0 13 0 13 -2 0 -334 -13 -1 -13 -1 -14 1 -13 1 0 334zm147 0l11 2 13 0 13 0 12 -2 0 -249 163 249 12 2 12 0 12 0 12 -2 0 -334 -12 -1 -12 -1 -13 1 -13 1 0 251 -162 -251 -12 -1 -12 -1 -12 1 -12 1 0 334zm337 -29c-3,7 -4,14 -5,21 7,2 14,4 21,6 7,2 14,3 22,4 7,2 15,3 24,3 8,1 18,1 29,1 44,0 78,-9 103,-28 24,-18 36,-43 36,-75 0,-14 -2,-25 -6,-35 -4,-10 -9,-19 -17,-26 -8,-7 -17,-14 -27,-19 -11,-5 -23,-11 -37,-16l-29 -10c-7,-2 -14,-5 -21,-8 -6,-3 -12,-7 -17,-11 -5,-4 -9,-8 -11,-13 -3,-5 -5,-11 -5,-18 0,-15 6,-27 18,-35 11,-8 28,-12 50,-12 15,0 29,1 41,4 13,2 24,5 33,8 6,-13 9,-26 11,-39 -11,-3 -24,-6 -39,-9 -15,-2 -31,-4 -47,-4 -39,0 -69,8 -90,24 -21,16 -32,38 -32,67 0,11 2,22 5,30 3,9 8,16 14,23 6,6 13,12 22,16 8,5 17,9 27,13l30 10c11,5 22,9 30,12 9,4 16,8 22,13 6,4 11,10 13,16 3,6 5,13 5,22 0,18 -7,32 -21,42 -14,11 -35,16 -63,16 -18,0 -33,-2 -46,-4 -12,-3 -24,-6 -36,-10 -2,7 -5,14 -7,21zm365 29c8,1 17,2 27,2 9,0 18,-1 26,-2l0 -293 97 0 1 -10 1 -11 -1 -10 -1 -10 -247 0 -1 10 -1 10 1 11 1 10 97 0 0 293zm292 0l13 2 14 0 13 0 14 -2 0 -122 116 -212 -14 -1 -15 -1 -14 1 -13 1 -86 166 -87 -166c-4,-1 -9,-1 -14,-1 -5,-1 -10,-1 -15,-1 -5,0 -10,0 -15,1 -5,0 -10,0 -15,1l118 212 0 122zm291 0c9,1 18,2 27,2 9,0 18,-1 26,-2l0 -293 97 0 1 -10 1 -11 -1 -10 -1 -10 -246 0 -2 10 0 10 0 11 2 10 96 0 0 293zm207 -136c0,23 2,43 7,60 5,18 12,33 23,45 10,12 24,21 41,28 17,6 37,9 61,9 25,0 45,-3 62,-9 17,-7 31,-16 41,-28 11,-12 18,-27 23,-45 4,-17 7,-37 7,-60l0 -198c-9,-1 -17,-1 -27,-1 -9,0 -18,0 -26,1l0 190c0,19 -2,35 -5,49 -2,14 -7,25 -13,33 -6,9 -14,15 -24,19 -10,4 -23,6 -38,6 -14,0 -27,-2 -37,-6 -10,-4 -18,-10 -25,-19 -6,-8 -10,-19 -13,-33 -3,-14 -4,-30 -4,-49l0 -190c-8,-1 -17,-1 -26,-1 -10,0 -19,0 -27,1l0 198zm559 97c-12,2 -25,3 -39,3 -19,0 -36,-2 -51,-8 -15,-5 -28,-13 -38,-23 -11,-11 -19,-24 -25,-40 -6,-17 -9,-36 -9,-58 0,-43 11,-76 31,-99 21,-23 50,-34 88,-34 9,0 16,0 23,1 7,0 13,1 18,2 6,1 11,2 16,3 5,1 10,3 15,4 3,-7 6,-13 8,-19 2,-6 4,-13 4,-20 -11,-3 -23,-6 -37,-9 -15,-2 -31,-4 -51,-4 -27,0 -51,4 -72,13 -21,8 -40,20 -54,35 -15,15 -26,33 -34,55 -8,22 -12,46 -12,72 0,27 4,50 12,72 8,21 19,39 34,53 14,15 33,26 54,34 22,8 46,12 73,12 17,0 34,-1 49,-4 15,-2 30,-6 44,-12 -2,-12 -6,-25 -14,-38 -10,4 -21,7 -33,9zm181 -43c0,11 -1,19 -5,25 -3,6 -8,11 -13,14 -6,3 -12,5 -18,6 -6,1 -13,2 -19,2 -6,0 -11,-1 -17,-2 -5,-1 -10,-2 -14,-3 -3,7 -5,14 -6,21 -2,7 -2,13 -2,19 7,2 14,3 23,4 8,2 16,2 24,2 16,0 30,-2 42,-5 13,-3 23,-8 32,-16 8,-8 15,-18 19,-31 5,-12 7,-28 7,-47l0 -241 -118 0 -1 10 -1 10 1 11 1 10 65 0 0 211zm353 82l13 2 14 0c5,0 10,0 15,0 5,0 10,-1 14,-2l-121 -334c-4,-1 -10,-1 -15,-1 -5,-1 -10,-1 -15,-1 -5,0 -11,0 -16,1 -5,0 -10,0 -14,1l-121 334 13 2 14 0 13 0 14 -2 25 -77 141 0 26 77zm-97 -289l57 171 -113 0 56 -171zm535 289c5,1 10,2 15,2l13 0c5,0 10,0 15,0 6,0 11,-1 17,-2l-133 -173 118 -161c-6,-1 -11,-1 -16,-1 -5,-1 -10,-1 -15,-1l-12 1 -15 1 -119 165 132 169zm-200 0l12 2 14 0 14 0 12 -2 0 -334 -12 -1 -14 -1 -13 1 -13 1 0 334zm309 -136c0,23 3,43 7,60 5,18 13,33 23,45 11,12 24,21 41,28 17,6 38,9 62,9 24,0 44,-3 61,-9 17,-7 31,-16 41,-28 11,-12 18,-27 23,-45 5,-17 7,-37 7,-60l0 -198c-8,-1 -17,-1 -27,-1 -9,0 -18,0 -26,1l0 190c0,19 -2,35 -4,49 -3,14 -8,25 -14,33 -6,9 -14,15 -24,19 -10,4 -22,6 -37,6 -15,0 -28,-2 -38,-6 -10,-4 -18,-10 -24,-19 -7,-8 -11,-19 -14,-33 -2,-14 -4,-30 -4,-49l0 -190c-8,-1 -16,-1 -26,-1 -9,0 -18,0 -27,1l0 198zm355 136l198 0c1,-6 2,-13 2,-20l-1 -11 -1 -10 -146 0 0 -293 -13 -1 -13 -1 -14 1 -12 1 0 334zm274 0c8,1 17,2 26,2 10,0 18,-1 26,-2l0 -293 97 0 1 -10 1 -11 -1 -10 -1 -10 -246 0 -2 10 0 10 0 11 2 10 97 0 0 293zm206 -136c0,23 3,43 7,60 5,18 13,33 23,45 11,12 24,21 41,28 17,6 38,9 62,9 24,0 44,-3 61,-9 17,-7 31,-16 41,-28 11,-12 18,-27 23,-45 5,-17 7,-37 7,-60l0 -198c-8,-1 -17,-1 -27,-1 -9,0 -18,0 -26,1l0 190c0,19 -2,35 -4,49 -3,14 -8,25 -14,33 -6,9 -14,15 -24,19 -10,4 -23,6 -37,6 -15,0 -28,-2 -38,-6 -10,-4 -18,-10 -24,-19 -7,-8 -11,-19 -14,-33 -3,-14 -4,-30 -4,-49l0 -190c-8,-1 -17,-1 -26,-1 -9,0 -18,0 -27,1l0 198zm356 136l13 2 14 0 13 -1 13 -1 0 -298c6,0 11,-1 16,-1 5,-1 11,-1 17,-1 25,0 44,6 59,17 15,11 22,27 22,50 0,12 -3,22 -9,30 -6,9 -13,16 -22,22 -9,6 -18,11 -29,15 -10,4 -20,7 -29,9l-4 1 0 2 119 154c9,1 18,2 28,2 11,0 22,-1 31,-2l-108 -140 6 -3c9,-4 17,-9 26,-14 9,-6 17,-13 23,-21 7,-8 13,-16 18,-26 4,-10 6,-21 6,-33 0,-20 -4,-37 -12,-50 -9,-13 -20,-24 -33,-32 -14,-7 -29,-13 -46,-16 -17,-3 -35,-5 -53,-5 -7,0 -15,1 -21,1 -7,0 -13,1 -19,1 -6,1 -12,1 -18,2 -7,0 -13,1 -21,2l0 334zm381 0l13 2 14 0 13 0 14 -2 0 -122 116 -212 -14 -1 -14 -1 -14 1 -14 1 -86 166 -86 -166c-5,-1 -9,-1 -15,-1 -5,-1 -10,-1 -14,-1 -6,0 -11,0 -16,1 -5,0 -10,0 -14,1l117 212 0 122z"/>
    <g>
     <path id="_252153160" class="fil1" d="M9240 3281l11 1 13 0 12 0 12 -1 12 -262 88 192c6,1 13,2 20,2 7,0 14,-1 21,-2l91 -191 12 261 12 1 13 0 13 0 13 -1 -18 -335c-4,-1 -8,-1 -14,-1 -5,-1 -10,-1 -15,-1 -4,0 -10,0 -15,1 -5,0 -9,0 -13,1l-96 209 -96 -209c-4,-1 -9,-1 -15,-1 -5,-1 -11,-1 -15,-1 -5,0 -10,0 -16,1 -5,0 -10,0 -14,1l-16 335zm639 0l13 1 14 0c5,0 10,0 15,0 5,0 10,-1 14,-1l-121 -335c-4,-1 -9,-1 -15,-1 -5,-1 -10,-1 -15,-1 -5,0 -10,0 -16,1 -5,0 -10,0 -14,1l-121 335 13 1 14 0 13 0 14 -1 25 -78 141 0 26 78zm-97 -290l57 171 -113 0 56 -171zm220 290l198 0 1 -11 1 -11 -1 -10 -1 -10 -146 0 0 -113 68 -42 1 -10 1 -11c0,-7 -1,-14 -2,-21l-68 42 0 -138c-8,-1 -17,-1 -26,-1 -10,0 -19,0 -26,1l0 171 -34 21 -2 10 -1 10 1 10 2 11c6,-3 11,-6 17,-10 6,-4 11,-7 17,-10l0 122zm453 -8c20,-8 36,-20 49,-36 13,-15 23,-33 29,-54 6,-21 9,-44 9,-70 0,-25 -3,-48 -9,-69 -6,-21 -16,-39 -29,-55 -13,-15 -29,-27 -49,-36 -19,-8 -43,-13 -69,-13 -27,0 -51,5 -70,13 -20,9 -36,21 -49,36 -13,16 -23,34 -29,55 -6,21 -10,44 -10,69 0,26 4,49 10,70 6,21 16,39 29,54 13,16 29,28 49,36 19,9 43,13 70,13 26,0 50,-4 69,-13zm-114 -37c-13,-6 -23,-15 -31,-26 -9,-12 -15,-26 -19,-42 -4,-16 -6,-34 -6,-55 0,-20 2,-38 6,-54 4,-17 10,-30 19,-42 8,-11 18,-20 31,-26 13,-6 28,-9 45,-9 17,0 32,3 44,9 13,6 23,15 32,26 8,12 14,25 18,42 4,16 6,34 6,54 0,21 -2,39 -6,55 -4,16 -10,30 -18,42 -9,11 -19,20 -32,26 -12,6 -27,9 -44,9 -17,0 -32,-3 -45,-9zm278 45l13 1 14 0c9,0 18,-1 26,-1l0 -122c6,1 11,1 16,2 5,0 11,0 18,0 17,0 34,-2 51,-6 17,-3 32,-9 46,-18 13,-9 24,-20 32,-34 8,-15 12,-33 12,-55 0,-21 -4,-38 -12,-52 -7,-13 -17,-25 -30,-33 -13,-8 -28,-14 -45,-18 -17,-3 -35,-5 -54,-5 -8,0 -15,0 -23,1 -8,0 -15,0 -23,1 -8,0 -15,1 -22,2 -7,0 -13,1 -19,1l0 336zm53 -298c10,-1 21,-2 34,-2 12,0 24,1 34,4 11,2 20,5 28,11 7,5 13,12 18,21 4,8 6,19 6,32 0,14 -3,26 -7,35 -5,10 -12,17 -20,22 -9,5 -18,9 -29,11 -10,2 -21,3 -31,3 -8,0 -14,0 -18,-1 -5,0 -9,0 -15,-1l0 -135zm448 290c19,-8 36,-20 49,-36 13,-15 22,-33 28,-54 7,-21 10,-44 10,-70 0,-25 -3,-48 -10,-69 -6,-21 -15,-39 -28,-55 -13,-15 -30,-27 -49,-36 -20,-8 -43,-13 -70,-13 -27,0 -50,5 -70,13 -19,9 -36,21 -49,36 -13,16 -22,34 -29,55 -6,21 -9,44 -9,69 0,26 3,49 9,70 7,21 16,39 29,54 13,16 30,28 49,36 20,9 43,13 70,13 27,0 50,-4 70,-13zm-115 -37c-12,-6 -23,-15 -31,-26 -8,-12 -15,-26 -19,-42 -4,-16 -6,-34 -6,-55 0,-20 2,-38 6,-54 4,-17 11,-30 19,-42 8,-11 19,-20 31,-26 13,-6 28,-9 45,-9 17,0 32,3 45,9 12,6 23,15 31,26 8,12 14,25 19,42 4,16 6,34 6,54 0,21 -2,39 -6,55 -5,16 -11,30 -19,42 -8,11 -19,20 -31,26 -13,6 -28,9 -45,9 -17,0 -32,-3 -45,-9zm279 45l198 0c1,-7 1,-14 1,-22l0 -10 -1 -10 -146 0 0 -293 -13 -1 -14 -1 -13 1 -12 1 0 335zm238 -30c-2,7 -4,14 -4,21 7,2 14,4 21,6 7,2 14,3 21,4 8,2 16,2 24,3 9,1 19,1 29,1 45,0 79,-9 103,-28 25,-18 37,-43 37,-75 0,-14 -2,-25 -6,-35 -4,-10 -10,-19 -17,-26 -8,-7 -17,-14 -28,-19 -10,-6 -23,-11 -36,-16l-29 -10c-8,-2 -14,-5 -21,-8 -7,-3 -12,-7 -17,-11 -5,-4 -9,-8 -12,-13 -3,-5 -4,-11 -4,-18 0,-16 6,-27 17,-35 12,-8 29,-12 51,-12 15,0 29,1 41,4 12,2 23,5 33,8 5,-13 9,-26 11,-39 -11,-3 -25,-6 -39,-9 -15,-2 -31,-4 -47,-4 -39,0 -69,8 -90,24 -22,16 -32,38 -32,67 0,11 1,22 5,30 3,9 8,16 14,23 6,6 13,12 21,16 9,5 18,9 28,12l29 11c12,5 22,9 31,12 9,4 16,8 22,13 6,4 10,9 13,16 3,6 5,13 5,22 0,18 -7,32 -21,42 -14,10 -35,16 -64,16 -18,0 -33,-2 -45,-5 -13,-2 -24,-6 -36,-9 -3,7 -5,14 -8,21zm494 30c5,0 10,1 15,1l14 0c4,0 9,0 15,0 5,0 11,-1 16,-1l-133 -175 118 -160c-5,-1 -11,-1 -16,-1 -5,-1 -10,-1 -14,-1l-13 1 -14 1 -120 165 132 170zm-200 0l13 1 13 0 14 0 13 -1 0 -335 -13 -1 -14 -1 -13 1 -13 1 0 335zm311 0l12 1 14 0 14 0 12 -1 0 -335 -12 -1 -14 -1 -13 1 -13 1 0 335zm143 0l209 0 1 -11 0 -11c0,-7 0,-14 -1,-20l-156 0 0 -114 121 0 2 -11 0 -10 0 -11 -2 -10 -121 0 0 -96 152 0 1 -10 0 -11c0,-7 0,-14 -1,-20l-205 0 0 335zm493 -43c-6,2 -13,3 -22,4 -8,1 -17,2 -29,2 -18,0 -34,-3 -49,-8 -15,-5 -28,-13 -39,-24 -12,-10 -20,-24 -26,-40 -6,-16 -9,-35 -9,-57 0,-21 3,-40 9,-57 6,-16 14,-30 24,-42 11,-11 24,-20 38,-25 16,-6 32,-9 50,-9 17,0 31,1 43,3 11,2 21,5 31,7 3,-6 6,-13 8,-19 2,-6 3,-12 4,-20 -12,-4 -25,-7 -39,-9 -15,-3 -32,-4 -51,-4 -26,0 -50,4 -71,13 -21,8 -39,20 -55,35 -15,15 -27,33 -35,55 -8,22 -12,46 -12,72 0,27 4,51 12,72 8,21 19,39 35,54 15,14 33,26 55,33 23,8 47,12 75,12 8,0 17,0 26,-1 10,-1 19,-1 28,-2 9,-2 18,-3 27,-5 9,-2 17,-5 24,-7l0 -164 -13 -1 -13 0 -13 0 -13 1 0 131zm350 35c19,-8 36,-20 48,-36 13,-15 23,-33 29,-54 6,-21 9,-44 9,-70 0,-25 -3,-48 -9,-69 -6,-21 -16,-39 -29,-55 -12,-15 -29,-27 -48,-36 -20,-8 -43,-13 -70,-13 -27,0 -50,5 -70,13 -20,9 -36,21 -49,36 -13,16 -22,34 -29,55 -6,21 -9,44 -9,69 0,26 3,49 9,70 7,21 16,39 29,54 13,16 29,28 49,36 20,9 43,13 70,13 27,0 50,-4 70,-13zm-115 -37c-12,-6 -23,-15 -31,-26 -8,-12 -15,-26 -19,-42 -4,-16 -6,-34 -6,-55 0,-20 2,-38 6,-54 4,-17 11,-30 19,-42 8,-11 19,-20 31,-26 13,-6 28,-9 45,-9 17,0 32,3 45,9 12,6 23,15 31,26 8,12 14,25 18,42 5,16 7,34 7,54 0,21 -2,39 -7,55 -4,16 -10,30 -18,42 -8,11 -19,20 -31,26 -13,6 -28,9 -45,9 -17,0 -32,-3 -45,-9z"/>
     <path id="_252163096" class="fil1" d="M5254 3280c5,1 9,2 15,2 5,0 10,0 14,0 5,0 10,0 16,0 5,0 11,-1 15,-2l75 -261 73 261c5,1 10,2 16,2 6,0 12,0 16,0 5,0 10,0 15,0 6,0 11,-1 15,-2l89 -334 -13 -1 -15 -1 -12 1 -12 1 -65 281 -77 -281c-4,-1 -8,-1 -14,-1 -5,-1 -9,-1 -14,-1l-14 1 -13 1 -77 279 -64 -279 -13 -1 -15 -1c-5,0 -10,0 -16,1 -5,0 -10,0 -14,1l89 334zm625 -7c20,-8 36,-20 49,-36 13,-15 23,-33 29,-54 6,-21 9,-44 9,-70 0,-25 -3,-48 -9,-69 -6,-21 -16,-39 -29,-55 -13,-15 -29,-27 -49,-36 -19,-8 -42,-13 -69,-13 -27,0 -50,5 -70,13 -20,9 -36,21 -49,36 -13,16 -23,34 -29,55 -6,21 -9,44 -9,69 0,26 3,49 9,70 6,21 16,39 29,54 13,16 29,28 49,36 20,9 43,13 70,13 27,0 50,-4 69,-13zm-114 -37c-13,-6 -23,-15 -31,-26 -9,-12 -15,-25 -19,-42 -4,-16 -6,-34 -6,-55 0,-20 2,-38 6,-54 4,-17 10,-30 19,-42 8,-11 18,-20 31,-26 13,-6 27,-9 45,-9 17,0 32,3 44,9 13,6 23,15 32,26 8,12 14,25 18,42 4,16 7,34 7,54 0,21 -3,39 -7,55 -4,17 -10,30 -18,42 -9,11 -19,20 -32,26 -12,6 -27,9 -44,9 -18,0 -32,-3 -45,-9zm337 -38c0,11 -1,19 -5,25 -3,6 -8,11 -13,14 -6,3 -12,5 -18,6 -7,1 -13,2 -19,2 -6,0 -11,-1 -17,-2 -5,-1 -10,-2 -14,-3 -3,7 -5,14 -6,21 -2,7 -2,13 -2,19 7,2 14,3 22,4 9,2 17,2 25,2 16,0 30,-2 42,-5 13,-3 23,-9 32,-16 8,-8 15,-18 19,-31 5,-12 7,-28 7,-47l0 -241 -118 0 -1 10 -1 10 1 11 1 10 65 0 0 211zm144 82l208 0 2 -10 0 -11c0,-7 -1,-14 -2,-20l-155 0 0 -114 121 0 1 -11 1 -10 -1 -11 -1 -10 -121 0 0 -96 151 0 1 -10 1 -11c0,-7 -1,-14 -2,-20l-204 0 0 334zm338 0c4,1 8,2 14,2 5,0 10,0 14,0 5,0 10,0 16,0 5,0 11,-1 16,-2l74 -261 73 261c5,1 11,2 16,2 6,0 12,0 16,0 5,0 10,0 15,0 6,0 11,-1 15,-2l89 -334 -13 -1 -15 -1 -12 1 -12 1 -65 281 -77 -281c-4,-1 -8,-1 -13,-1 -6,-1 -10,-1 -14,-1l-15 1 -13 1 -77 279 -63 -279 -14 -1 -15 -1c-5,0 -10,0 -16,1 -5,0 -10,0 -14,1l90 334zm625 -7c19,-8 36,-20 48,-36 13,-15 23,-33 29,-54 6,-21 10,-44 10,-70 0,-25 -4,-48 -10,-69 -6,-21 -16,-39 -29,-55 -12,-15 -29,-27 -48,-36 -20,-8 -43,-13 -70,-13 -27,0 -50,5 -70,13 -20,9 -36,21 -49,36 -13,16 -22,34 -29,55 -6,21 -9,44 -9,69 0,26 3,49 9,70 7,21 16,39 29,54 13,16 29,28 49,36 20,9 43,13 70,13 27,0 50,-4 70,-13zm-115 -37c-13,-6 -23,-15 -31,-26 -8,-12 -15,-25 -19,-42 -4,-16 -6,-34 -6,-55 0,-20 2,-38 6,-54 4,-17 11,-30 19,-42 8,-11 18,-20 31,-26 13,-6 28,-9 45,-9 17,0 32,3 45,9 12,6 22,15 31,26 8,12 14,25 18,42 4,16 7,34 7,54 0,21 -3,39 -7,55 -4,17 -10,30 -18,42 -9,11 -19,20 -31,26 -13,6 -28,9 -45,9 -17,0 -32,-3 -45,-9zm128 -368c-5,-1 -10,-1 -16,-2 -6,0 -12,-1 -19,-1 -6,0 -12,1 -18,1 -6,1 -12,1 -18,2l-55 50 14 1 13 1 15 -1 14 -1 70 -50zm154 412c11,2 25,3 40,4 16,2 32,2 48,2 66,0 115,-14 148,-42 32,-29 49,-72 49,-130 0,-56 -16,-99 -48,-129 -33,-29 -81,-44 -146,-44 -16,0 -32,0 -49,1 -17,2 -31,3 -42,4l0 334zm52 -295c6,-1 13,-1 21,-2 7,0 15,0 21,0 20,0 38,2 55,7 17,5 31,12 43,23 11,10 21,24 27,40 7,16 10,36 10,59 0,26 -3,47 -10,64 -6,17 -16,30 -28,40 -12,10 -26,17 -43,21 -17,5 -35,7 -55,7 -8,0 -16,-1 -23,-1 -7,0 -13,-1 -18,-2l0 -256zm269 295l251 0 2 -9 0 -11 0 -11 -2 -10 -174 0 188 -289 -4 -4 -241 0 -2 10 0 11 0 11 2 9 164 0 -187 289 3 4zm389 0c8,1 17,2 27,2 9,0 18,-1 26,-2l0 -293 96 0 2 -10 0 -11 0 -10 -2 -10 -246 0 -1 10 -1 10 1 11 1 10 97 0 0 293zm268 0c4,1 9,2 14,2 6,0 10,0 15,0 4,0 10,0 15,0 6,0 11,-1 16,-2l75 -261 73 261c5,1 10,2 16,2 6,0 11,0 16,0 4,0 10,0 15,0 6,0 10,-1 14,-2l90 -334 -13 -1 -15 -1 -13 1 -12 1 -64 281 -77 -281c-4,-1 -9,-1 -14,-1 -5,-1 -10,-1 -14,-1l-14 1 -14 1 -76 279 -64 -279 -14 -1 -14 -1c-5,0 -10,0 -16,1 -6,0 -11,0 -14,1l89 334zm618 0l14 2 13 0c5,0 10,0 15,0 5,0 10,-1 14,-2l-120 -334c-5,-1 -10,-1 -15,-1 -5,-1 -10,-1 -15,-1 -6,0 -11,0 -16,1 -5,0 -10,0 -15,1l-121 334 13 2 14 0 14 0 13 -2 25 -77 142 0 25 77zm-96 -289l57 171 -114 0 57 -171z"/>
    </g>
   </g>
  </g>
 </g>
</svg>