<?xml version="1.0" encoding="UTF-8" standalone="no"?>
<svg
   xmlns:dc="http://purl.org/dc/elements/1.1/"
   xmlns:cc="http://creativecommons.org/ns#"
   xmlns:rdf="http://www.w3.org/1999/02/22-rdf-syntax-ns#"
   xmlns:svg="http://www.w3.org/2000/svg"
   xmlns="http://www.w3.org/2000/svg"
   version="1.1"
   id="svg2"
   viewBox="0 0 578.62487 126.19875"
   height="35.616093mm"
   width="163.3008mm">
  <defs
     id="defs4" />
  <metadata
     id="metadata7">
    <rdf:RDF>
      <cc:Work
         rdf:about="">
        <dc:format>image/svg+xml</dc:format>
        <dc:type
           rdf:resource="http://purl.org/dc/dcmitype/StillImage" />
        <dc:title></dc:title>
      </cc:Work>
    </rdf:RDF>
  </metadata>
  <g
     style="fill:#ffffff"
     transform="matrix(1.25,0,0,-1.25,-85.7945,850.045)"
     id="g4150">
    <path
       id="path4152"
       style="fill:#ffffff;fill-opacity:1;fill-rule:evenodd;stroke:none"
       d="m 69.0248,579.2749 0.4439,-0.0502 0.4827,-0.0173 0.4808,0.0173 0.4439,0.0502 0,11.7482 -0.4519,0.0481 -0.4728,0.0173 -0.4723,-0.0173 -0.4543,-0.0481 0,-11.7482 z m 250.5427,14.2852 2.3697,0 -2.1574,-1.5563 -0.4904,-0.0493 -0.5077,-0.0153 -0.474,0.0153 -0.4719,0.0493 1.7317,1.5563 z m -66.4232,-14.2852 c 0.1457,-0.023 0.3119,-0.0394 0.4981,-0.0511 0.1902,-0.0107 0.3552,-0.0164 0.5,-0.0164 0.1701,0 0.3552,0.006 0.555,0.0164 0.1999,0.0117 0.3833,0.0281 0.5542,0.0511 l 2.6121,9.2004 2.5793,-9.2004 c 0.1689,-0.023 0.3572,-0.0394 0.5647,-0.0511 0.2046,-0.0107 0.392,-0.0164 0.5609,-0.0164 0.1574,0 0.3331,0.006 0.5261,0.0164 0.1939,0.0117 0.3629,0.0281 0.5106,0.0511 l 3.1413,11.7482 -0.4635,0.051 -0.5173,0.0144 -0.4461,-0.0144 -0.4267,-0.051 -2.2682,-9.8867 -2.706,9.8867 c -0.1341,0.0221 -0.2914,0.0377 -0.4728,0.051 -0.1817,0.009 -0.3447,0.0144 -0.4896,0.0144 l -0.5,-0.0144 -0.4807,-0.051 -2.6864,-9.7875 -2.2329,9.7875 -0.4827,0.051 -0.5174,0.0144 c -0.1697,0 -0.3523,-0.006 -0.5541,-0.0144 -0.1996,-0.0133 -0.3648,-0.0289 -0.4989,-0.051 l 3.141,-11.7482 z m 21.9513,0.2511 c 0.6902,0.2994 1.2617,0.72 1.7163,1.2577 0.4547,0.5409 0.7895,1.181 1.0086,1.9222 0.2163,0.7396 0.3254,1.5514 0.3254,2.433 0,0.8853 -0.1091,1.6962 -0.3254,2.4367 -0.2191,0.7395 -0.5539,1.3813 -1.0086,1.919 -0.4546,0.5409 -1.0261,0.9627 -1.7163,1.2657 -0.6891,0.307 -1.5069,0.4595 -2.4509,0.4595 -0.945,0 -1.7597,-0.1525 -2.45,-0.4595 -0.6922,-0.303 -1.2636,-0.7248 -1.7155,-1.2657 -0.4547,-0.5377 -0.7934,-1.1795 -1.0202,-1.919 -0.2219,-0.7405 -0.3339,-1.5514 -0.3339,-2.4367 0,-0.8816 0.112,-1.6934 0.3339,-2.433 0.2268,-0.7412 0.5655,-1.3813 1.0202,-1.9222 0.4519,-0.5377 1.0233,-0.9583 1.7155,-1.2577 0.6903,-0.2985 1.505,-0.449 2.45,-0.449 0.944,0 1.7618,0.1505 2.4509,0.449 z m -4.0207,1.3082 c -0.4419,0.2112 -0.8079,0.5193 -1.0993,0.9227 -0.2905,0.4028 -0.5088,0.8872 -0.6536,1.455 -0.1449,0.5647 -0.2172,1.2087 -0.2172,1.927 0,0.7095 0.0723,1.3516 0.2172,1.923 0.1448,0.5715 0.3631,1.0562 0.6536,1.4519 0.2914,0.4008 0.6574,0.7039 1.0993,0.9153 0.4402,0.2132 0.9655,0.3206 1.5698,0.3206 0.6052,0 1.1274,-0.1074 1.5704,-0.3206 0.4422,-0.2114 0.8082,-0.5145 1.0967,-0.9153 0.2926,-0.3957 0.5117,-0.8804 0.6563,-1.4519 0.1448,-0.5714 0.2182,-1.2135 0.2182,-1.923 0,-0.7183 -0.0734,-1.3623 -0.2182,-1.927 -0.1446,-0.5678 -0.3637,-1.0522 -0.6563,-1.455 -0.2885,-0.4034 -0.6545,-0.7115 -1.0967,-0.9227 -0.443,-0.2115 -0.9652,-0.3166 -1.5704,-0.3166 -0.6043,0 -1.1296,0.1051 -1.5698,0.3166 z m 11.8465,1.3312 c 0,-0.3717 -0.06,-0.6651 -0.1805,-0.8813 -0.1208,-0.2175 -0.2801,-0.3816 -0.4731,-0.4904 -0.1931,-0.1072 -0.4017,-0.1806 -0.6273,-0.2146 -0.2231,-0.0309 -0.4442,-0.0471 -0.6622,-0.0471 -0.2047,0 -0.4017,0.0173 -0.5899,0.057 -0.1893,0.0386 -0.3543,0.0751 -0.4972,0.1052 -0.0975,-0.25 -0.1718,-0.4952 -0.2191,-0.7339 -0.0482,-0.2412 -0.0743,-0.4692 -0.0743,-0.6854 0.2432,-0.057 0.5077,-0.1012 0.8002,-0.1398 0.2895,-0.0388 0.5803,-0.0581 0.8717,-0.0581 0.5445,0 1.0349,0.0581 1.4712,0.1738 0.4334,0.1119 0.803,0.3033 1.1072,0.5714 0.301,0.2648 0.5329,0.622 0.6882,1.0707 0.1565,0.447 0.2376,0.9964 0.2376,1.6472 l 0,8.483 -4.1394,0 -0.0559,-0.3515 -0.0184,-0.3668 0.0184,-0.3765 0.0559,-0.3603 2.2869,0 0,-7.4026 z m 5.0466,-2.8905 7.3179,0 0.0445,0.3571 0.0108,0.3768 c 0,0.2624 -0.0185,0.502 -0.0553,0.72 l -5.4646,0 0,4.0189 4.2474,0 0.0561,0.3603 0.0182,0.3756 -0.0182,0.3657 -0.0561,0.3515 -4.2474,0 0,3.3672 5.32,0 0.0454,0.3603 0.009,0.3765 c 0,0.2624 -0.0182,0.5008 -0.0539,0.7183 l -7.1733,0 0,-11.7482 z m 11.8559,0 c 0.1457,-0.023 0.3138,-0.0394 0.5011,-0.0511 0.1871,-0.0107 0.3532,-0.0164 0.4981,-0.0164 0.1689,0 0.3552,0.006 0.5542,0.0164 0.1995,0.0117 0.3849,0.0281 0.5538,0.0511 l 2.6142,9.2004 2.5784,-9.2004 c 0.1717,-0.023 0.3571,-0.0394 0.5638,-0.0511 0.2046,-0.0107 0.3928,-0.0164 0.5618,-0.0164 0.1562,0 0.3331,0.006 0.5289,0.0164 0.1902,0.0117 0.3629,0.0281 0.5077,0.0511 l 3.1402,11.7482 -0.4634,0.051 -0.5173,0.0144 -0.4459,-0.0144 -0.4269,-0.051 -2.2675,-9.8867 -2.7056,9.8867 c -0.1324,0.0221 -0.2926,0.0377 -0.474,0.051 -0.1797,0.009 -0.3447,0.0144 -0.4904,0.0144 l -0.498,-0.0144 -0.4819,-0.051 -2.6873,-9.7875 -2.232,9.7875 -0.4816,0.051 -0.5164,0.0144 c -0.171,0 -0.3544,-0.006 -0.5551,-0.0144 -0.1978,-0.0133 -0.3659,-0.0289 -0.498,-0.051 l 3.1391,-11.7482 z m 21.9523,0.2511 c 0.6891,0.2994 1.2626,0.72 1.7144,1.2577 0.4555,0.5409 0.7895,1.181 1.0097,1.9222 0.2171,0.7396 0.3271,1.5514 0.3271,2.433 0,0.8853 -0.11,1.6962 -0.3271,2.4367 -0.2202,0.7395 -0.5542,1.3813 -1.0097,1.919 -0.4518,0.5409 -1.0253,0.9627 -1.7144,1.2657 -0.6913,0.307 -1.506,0.4595 -2.45,0.4595 -0.945,0 -1.7617,-0.1525 -2.4519,-0.4595 -0.6883,-0.303 -1.2637,-0.7248 -1.7153,-1.2657 -0.4547,-0.5377 -0.7937,-1.1795 -1.0165,-1.919 -0.2251,-0.7405 -0.337,-1.5514 -0.337,-2.4367 0,-0.8816 0.1119,-1.6934 0.337,-2.433 0.2228,-0.7412 0.5618,-1.3813 1.0165,-1.9222 0.4516,-0.5377 1.027,-0.9583 1.7153,-1.2577 0.6902,-0.2985 1.5069,-0.449 2.4519,-0.449 0.944,0 1.7587,0.1505 2.45,0.449 z m -4.0206,1.3082 c -0.4431,0.2112 -0.809,0.5193 -1.1013,0.9227 -0.2897,0.4028 -0.5068,0.8872 -0.6528,1.455 -0.1446,0.5647 -0.2172,1.2087 -0.2172,1.927 0,0.7095 0.0726,1.3516 0.2172,1.923 0.146,0.5715 0.3631,1.0562 0.6528,1.4519 0.2923,0.4008 0.6582,0.7039 1.1013,0.9153 0.4402,0.2132 0.9643,0.3206 1.5706,0.3206 0.6032,0 1.1285,-0.1074 1.5684,-0.3206 0.4423,-0.2114 0.8091,-0.5145 1.1007,-0.9153 0.2886,-0.3957 0.5086,-0.8804 0.6526,-1.4519 0.1437,-0.5714 0.218,-1.2135 0.218,-1.923 0,-0.7183 -0.0743,-1.3623 -0.218,-1.927 -0.144,-0.5678 -0.364,-1.0522 -0.6526,-1.455 -0.2916,-0.4034 -0.6584,-0.7115 -1.1007,-0.9227 -0.4399,-0.2115 -0.9652,-0.3166 -1.5684,-0.3166 -0.6063,0 -1.1304,0.1051 -1.5706,0.3166 z m 9.8847,-1.5593 c 0.3996,-0.057 0.8767,-0.1012 1.4354,-0.1398 0.555,-0.0388 1.118,-0.0581 1.6883,-0.0581 2.287,0 4.0099,0.4964 5.1656,1.4876 1.1534,0.9924 1.7345,2.5101 1.7345,4.5598 0,1.9608 -0.5675,3.4628 -1.6988,4.5094 -1.1313,1.0454 -2.842,1.5698 -5.1298,1.5698 -0.5559,0 -1.1254,-0.0184 -1.7065,-0.057 -0.5794,-0.0388 -1.0755,-0.0793 -1.4887,-0.1235 l 0,-11.7482 z m 1.8515,10.3753 c 0.2056,0.0338 0.4439,0.0522 0.7183,0.0579 0.2722,0.006 0.5213,0.007 0.7529,0.007 0.7019,0 1.3436,-0.0811 1.9259,-0.2444 0.58,-0.163 1.08,-0.4274 1.4961,-0.7906 0.419,-0.3668 0.7413,-0.839 0.972,-1.4133 0.2299,-0.5783 0.3467,-1.2773 0.3467,-2.094 0,-0.8929 -0.1168,-1.6373 -0.3467,-2.2311 -0.2307,-0.5936 -0.5579,-1.0627 -0.9796,-1.4122 -0.4258,-0.3496 -0.9298,-0.5976 -1.5177,-0.7456 -0.5876,-0.1465 -1.2365,-0.2191 -1.9497,-0.2191 -0.2809,0 -0.5425,0.007 -0.7917,0.0244 -0.2472,0.0173 -0.4555,0.0346 -0.6265,0.0567 l 0,9.0045 z m 9.4235,-10.3753 8.8421,0 0.055,0.3427 0.0176,0.3756 -0.0176,0.3843 -0.055,0.3513 -6.118,0 6.5912,10.1474 -0.1285,0.1469 -8.4792,0 -0.0542,-0.3583 -0.0184,-0.3745 0.0184,-0.3776 0.0542,-0.3447 5.756,0 -6.5718,-10.1471 0.1082,-0.146 z m 13.6707,0 c 0.2925,-0.0346 0.6072,-0.0511 0.9459,-0.0511 0.3274,0 0.6296,0.0165 0.9094,0.0511 l 0,10.2931 3.393,0 0.053,0.3688 0.0224,0.3844 -0.0224,0.358 -0.053,0.3439 -8.6414,0 -0.053,-0.3515 -0.0213,-0.3668 0.0213,-0.3765 0.053,-0.3603 3.3931,0 0,-10.2931 z m 9.4243,0 c 0.1449,-0.023 0.3127,-0.0394 0.4992,-0.0511 0.1882,-0.0107 0.356,-0.0164 0.4989,-0.0164 0.169,0 0.3543,0.006 0.553,0.0164 0.1999,0.0117 0.3853,0.0281 0.5554,0.0511 l 2.6149,9.2004 2.5784,-9.2004 c 0.167,-0.023 0.3572,-0.0394 0.5618,-0.0511 0.2055,-0.0107 0.3938,-0.0164 0.5627,-0.0164 0.1565,0 0.3351,0.006 0.527,0.0164 0.1941,0.0117 0.3631,0.0281 0.5088,0.0511 l 3.1419,11.7482 -0.4632,0.051 -0.5184,0.0144 -0.4439,-0.0144 -0.4266,-0.051 -2.2706,-9.8867 -2.7057,9.8867 c -0.1343,0.0221 -0.2916,0.0377 -0.4722,0.051 -0.1823,0.009 -0.3444,0.0144 -0.4904,0.0144 l -0.4989,-0.0144 -0.4799,-0.051 -2.6884,-9.7875 -2.2317,9.7875 -0.4827,0.051 -0.5165,0.0144 c -0.1718,0 -0.3552,-0.006 -0.5539,-0.0144 -0.1999,-0.0133 -0.3679,-0.0289 -0.5012,-0.051 l 3.1422,-11.7482 z m 21.7157,0 0.4623,-0.0511 0.4808,-0.0164 c 0.1709,0 0.3455,0.006 0.5281,0.0164 0.1805,0.0117 0.3435,0.0281 0.4892,0.0511 l -4.2318,11.7482 c -0.169,0.0221 -0.3427,0.0377 -0.5253,0.051 -0.1814,0.009 -0.356,0.0144 -0.5258,0.0144 -0.1942,0 -0.3815,-0.006 -0.5638,-0.0144 -0.1797,-0.0133 -0.3515,-0.0289 -0.5088,-0.051 l -4.2463,-11.7482 0.4439,-0.0511 0.4972,-0.0164 0.4731,0.0164 0.4728,0.0511 0.8881,2.7099 4.9569,0 0.9094,-2.7099 z m -3.3959,10.1627 1.9961,-5.9978 -3.9761,0 1.98,5.9978 z m 12.13,-10.1636 0.417,-0.0473 0.4538,-0.0193 0.4178,0.0193 0.4153,0.0473 0.4198,9.1848 3.0869,-6.749 c 0.2291,-0.0348 0.4607,-0.0504 0.6883,-0.0504 0.2568,0 0.5031,0.0156 0.7435,0.0504 l 3.1969,6.6989 0.4181,-9.1347 0.4267,-0.0473 0.4634,-0.0193 0.4624,0.0193 0.4439,0.0473 -0.6177,11.7491 c -0.1332,0.0221 -0.2965,0.0394 -0.4896,0.051 -0.193,0.0116 -0.3696,0.0144 -0.5269,0.0144 -0.1681,0 -0.3447,-0.003 -0.5253,-0.0144 -0.1814,-0.0116 -0.3328,-0.0289 -0.4544,-0.051 l -3.3942,-7.3517 -3.3794,7.3517 c -0.1324,0.0221 -0.2982,0.0394 -0.4972,0.051 -0.2019,0.0116 -0.3853,0.0144 -0.5531,0.0144 -0.1709,0 -0.3503,-0.003 -0.5369,-0.0144 -0.1882,-0.0116 -0.3551,-0.0289 -0.4989,-0.051 l -0.5802,-11.7491 z m 22.4589,0 0.4635,-0.0473 0.4807,-0.0193 c 0.1698,0 0.3436,0.006 0.5261,0.0193 0.1814,0.009 0.3436,0.0252 0.4904,0.0473 l -4.2301,11.7491 c -0.169,0.0221 -0.3464,0.0394 -0.5281,0.051 -0.1814,0.0116 -0.3561,0.0144 -0.525,0.0144 -0.1942,0 -0.3813,-0.003 -0.563,-0.0144 -0.1802,-0.0116 -0.3532,-0.0289 -0.5085,-0.051 l -4.2483,-11.7491 0.4451,-0.0473 0.4989,-0.0193 0.4711,0.0193 0.4731,0.0473 0.8889,2.7136 4.957,0 0.9082,-2.7136 z m -3.3951,10.1656 1.9965,-5.9961 -3.9762,0 1.9797,5.9961 z m 7.6967,-10.1656 6.9559,0 0.053,0.3688 0.0184,0.3679 -0.0184,0.3581 -0.053,0.3764 -5.1219,0 0,3.9543 2.3794,1.4712 0.0638,0.3592 0.026,0.3767 c 0,0.2392 -0.0309,0.4844 -0.0898,0.7356 l -2.3794,-1.4715 0,4.8524 c -0.2761,0.0337 -0.5803,0.051 -0.9074,0.051 -0.3503,0 -0.6602,-0.0173 -0.9266,-0.051 l 0,-6.0126 -1.1614,-0.7183 -0.0819,-0.3592 -0.0281,-0.3611 0.0281,-0.36 0.0819,-0.392 c 0.1931,0.1207 0.3881,0.2443 0.582,0.3679 0.1933,0.1264 0.3863,0.2489 0.5794,0.3677 l 0,-4.2815 z m 15.942,0.2529 c 0.6891,0.3013 1.2606,0.7191 1.7164,1.26 0.4547,0.5377 0.7894,1.1797 1.0077,1.919 0.2171,0.7396 0.3254,1.5534 0.3254,2.4358 0,0.8825 -0.1083,1.6943 -0.3254,2.4347 -0.2183,0.7416 -0.553,1.3796 -1.0077,1.9213 -0.4558,0.5378 -1.0273,0.9596 -1.7164,1.2666 -0.6891,0.3041 -1.5069,0.4566 -2.4508,0.4566 -0.9451,0 -1.7629,-0.1525 -2.4511,-0.4566 -0.6911,-0.307 -1.2626,-0.7288 -1.7173,-1.2666 -0.4518,-0.5417 -0.7925,-1.1797 -1.0165,-1.9213 -0.2228,-0.7404 -0.3339,-1.5522 -0.3339,-2.4347 0,-0.8824 0.1111,-1.6962 0.3339,-2.4358 0.224,-0.7393 0.5647,-1.3813 1.0165,-1.919 0.4547,-0.5409 1.0262,-0.9587 1.7173,-1.26 0.6882,-0.2982 1.506,-0.4499 2.4511,-0.4499 0.9439,0 1.7617,0.1517 2.4508,0.4499 z m -4.0223,1.3073 c -0.4394,0.2143 -0.8071,0.5213 -1.0976,0.9238 -0.2897,0.4034 -0.508,0.8881 -0.6537,1.4539 -0.1448,0.5686 -0.2171,1.2115 -0.2171,1.9298 0,0.7067 0.0723,1.3488 0.2171,1.9202 0.1457,0.5715 0.364,1.0562 0.6537,1.4559 0.2905,0.3957 0.6582,0.7019 1.0976,0.9142 0.4439,0.2123 0.968,0.3177 1.5715,0.3177 0.606,0 1.1265,-0.1054 1.5695,-0.3177 0.4422,-0.2123 0.8099,-0.5185 1.0984,-0.9142 0.2917,-0.3997 0.5077,-0.8844 0.6566,-1.4559 0.1437,-0.5714 0.2162,-1.2135 0.2162,-1.9202 0,-0.7183 -0.0725,-1.3612 -0.2162,-1.9298 -0.1489,-0.5658 -0.3649,-1.0505 -0.6566,-1.4539 -0.2885,-0.4025 -0.6562,-0.7095 -1.0984,-0.9238 -0.443,-0.2126 -0.9635,-0.3178 -1.5695,-0.3178 -0.6035,0 -1.1276,0.1052 -1.5715,0.3178 z m 9.7783,-1.5602 0.4615,-0.0405 0.4655,-0.007 c 0.3243,0 0.6341,0.0156 0.9238,0.0473 l 0,4.2506 c 0.2063,-0.0221 0.3977,-0.0375 0.5723,-0.0414 0.1766,-0.008 0.3793,-0.009 0.608,-0.009 0.618,0 1.2252,0.0629 1.8151,0.1874 0.5944,0.1264 1.1245,0.3418 1.5908,0.6457 0.4643,0.3042 0.8427,0.7115 1.1253,1.2166 0.284,0.5069 0.4258,1.143 0.4258,1.9058 0,0.7296 -0.1313,1.3379 -0.3986,1.8215 -0.2676,0.4827 -0.6264,0.8756 -1.0811,1.1693 -0.4538,0.2934 -0.9808,0.5 -1.5775,0.6205 -0.6004,0.1199 -1.2336,0.1797 -1.8998,0.1797 -0.2517,0 -0.5162,-0.006 -0.7886,-0.0173 -0.2732,-0.0116 -0.5454,-0.0244 -0.8175,-0.0416 -0.2713,-0.0137 -0.532,-0.0338 -0.7809,-0.0559 -0.2472,-0.0204 -0.4624,-0.0436 -0.6441,-0.0649 l 0,-11.7672 z m 1.8508,10.4593 c 0.3396,0.0337 0.7336,0.049 1.1803,0.049 0.4366,0 0.8411,-0.0385 1.2184,-0.1148 0.3744,-0.0754 0.695,-0.2055 0.9615,-0.3909 0.2653,-0.1865 0.4748,-0.4306 0.6264,-0.7356 0.1506,-0.3061 0.2268,-0.6817 0.2268,-1.1287 0,-0.5117 -0.0879,-0.9278 -0.2625,-1.2492 -0.1757,-0.3235 -0.4085,-0.5755 -0.7007,-0.7626 -0.2906,-0.1834 -0.6188,-0.3101 -0.9896,-0.3815 -0.3688,-0.0703 -0.7424,-0.108 -1.1168,-0.108 -0.2781,0 -0.4904,0.006 -0.6353,0.0193 -0.1457,0.009 -0.3138,0.0252 -0.5085,0.0473 l 0,4.7557 z m 15.7257,-10.2064 c 0.6883,0.3013 1.2609,0.7191 1.7153,1.26 0.453,0.5377 0.7889,1.1797 1.008,1.919 0.2163,0.7396 0.3251,1.5534 0.3251,2.4358 0,0.8825 -0.1088,1.6943 -0.3251,2.4347 -0.2191,0.7416 -0.555,1.3796 -1.008,1.9213 -0.4544,0.5378 -1.027,0.9596 -1.7153,1.2666 -0.6922,0.3041 -1.5097,0.4566 -2.4519,0.4566 -0.944,0 -1.7618,-0.1525 -2.4509,-0.4566 -0.6922,-0.307 -1.2617,-0.7288 -1.7163,-1.2666 -0.4536,-0.5417 -0.7926,-1.1797 -1.0165,-1.9213 -0.226,-0.7404 -0.3368,-1.5522 -0.3368,-2.4347 0,-0.8824 0.1108,-1.6962 0.3368,-2.4358 0.2239,-0.7393 0.5629,-1.3813 1.0165,-1.919 0.4546,-0.5409 1.0241,-0.9587 1.7163,-1.26 0.6891,-0.2982 1.5069,-0.4499 2.4509,-0.4499 0.9422,0 1.7597,0.1517 2.4519,0.4499 z m -4.0234,1.3073 c -0.4411,0.2143 -0.8088,0.5213 -1.0985,0.9238 -0.2885,0.4034 -0.5068,0.8881 -0.6525,1.4539 -0.1437,0.5686 -0.2183,1.2115 -0.2183,1.9298 0,0.7067 0.0746,1.3488 0.2183,1.9202 0.1457,0.5715 0.364,1.0562 0.6525,1.4559 0.2897,0.3957 0.6574,0.7019 1.0985,0.9142 0.4413,0.2123 0.9663,0.3177 1.5715,0.3177 0.6063,0 1.1276,-0.1054 1.5707,-0.3177 0.4402,-0.2123 0.807,-0.5185 1.0975,-0.9142 0.2926,-0.3997 0.5077,-0.8844 0.6546,-1.4559 0.1457,-0.5714 0.2162,-1.2135 0.2162,-1.9202 0,-0.7183 -0.0705,-1.3612 -0.2162,-1.9298 -0.1469,-0.5658 -0.362,-1.0505 -0.6546,-1.4539 -0.2905,-0.4025 -0.6573,-0.7095 -1.0975,-0.9238 -0.4431,-0.2126 -0.9644,-0.3178 -1.5707,-0.3178 -0.6052,0 -1.1302,0.1052 -1.5715,0.3178 z m 9.7766,-1.5602 6.9531,0 c 0.0389,0.2296 0.0562,0.474 0.0562,0.7367 l -0.0108,0.3581 -0.0454,0.3764 -5.1179,0 0,10.2779 -0.4547,0.051 -0.4719,0.0144 -0.4819,-0.0144 -0.4267,-0.051 0,-11.7491 z m 8.3886,1.0466 c -0.0839,-0.2512 -0.1389,-0.4964 -0.163,-0.7356 0.2549,-0.0763 0.5037,-0.1469 0.7452,-0.2115 0.2413,-0.0666 0.4921,-0.1216 0.7521,-0.1661 0.2596,-0.0417 0.5422,-0.0743 0.8464,-0.0967 0.3013,-0.0221 0.6401,-0.0337 1.0157,-0.0337 1.5482,0 2.753,0.3263 3.611,0.9731 0.8612,0.6497 1.2906,1.533 1.2906,2.6558 0,0.4692 -0.0703,0.8776 -0.2103,1.2271 -0.1372,0.3467 -0.3407,0.6497 -0.6052,0.9057 -0.2676,0.2557 -0.5879,0.4796 -0.9635,0.671 -0.3764,0.1899 -0.803,0.3736 -1.2886,0.5462 l -1.0157,0.3603 c -0.2565,0.0867 -0.498,0.1851 -0.7276,0.2934 -0.2288,0.1091 -0.4298,0.2327 -0.5987,0.3676 -0.1718,0.1372 -0.307,0.2945 -0.4082,0.4751 -0.1043,0.1806 -0.1565,0.3852 -0.1565,0.6131 0,0.5559 0.2067,0.972 0.6188,1.2513 0.4094,0.2741 0.9981,0.4141 1.7626,0.4141 0.5437,0 1.029,-0.0454 1.4596,-0.1284 0.4286,-0.0879 0.807,-0.1865 1.1353,-0.2974 0.2055,0.4479 0.3378,0.8998 0.3996,1.3593 -0.3996,0.1303 -0.8591,0.2383 -1.3785,0.3242 -0.5241,0.0871 -1.0723,0.1324 -1.6545,0.1324 -1.3553,0 -2.4075,-0.2809 -3.1584,-0.8419 -0.7532,-0.5598 -1.1276,-1.3399 -1.1276,-2.3286 0,-0.415 0.0618,-0.7702 0.1845,-1.0695 0.1185,-0.3014 0.2866,-0.5647 0.4981,-0.7926 0.2111,-0.2299 0.4643,-0.4229 0.7528,-0.5823 0.2906,-0.1553 0.6129,-0.301 0.9635,-0.4334 l 1.0327,-0.3744 c 0.4141,-0.1517 0.7724,-0.2926 1.0823,-0.4241 0.3078,-0.1321 0.5655,-0.2761 0.7701,-0.4334 0.2075,-0.1582 0.362,-0.3464 0.4655,-0.5627 0.1003,-0.2202 0.1514,-0.4807 0.1514,-0.7869 0,-0.6188 -0.2433,-1.114 -0.7336,-1.478 -0.4904,-0.3651 -1.2337,-0.5473 -2.2261,-0.5473 -0.6293,0 -1.1611,0.0482 -1.5956,0.1465 -0.4354,0.0987 -0.8552,0.2135 -1.2538,0.3439 -0.0975,-0.2396 -0.1865,-0.4856 -0.2724,-0.7356 z m 17.341,-1.0466 c 0.1794,-0.0221 0.3563,-0.0385 0.5261,-0.0473 l 0.4719,-0.0193 c 0.1681,0 0.3476,0.006 0.5338,0.0193 0.1882,0.009 0.3796,0.0252 0.5734,0.0473 l -4.6663,6.1121 4.1394,5.637 c -0.1931,0.0221 -0.3813,0.0394 -0.561,0.051 -0.1854,0.0116 -0.3532,0.0144 -0.5097,0.0144 l -0.445,-0.0144 -0.5,-0.051 -4.1942,-5.783 4.6316,-5.9661 z m -7.0266,0 0.4354,-0.0473 0.4884,-0.0193 0.4732,0.0193 0.4546,0.0473 0,11.7491 -0.4546,0.051 -0.4732,0.0144 -0.4711,-0.0144 -0.4527,-0.051 0,-11.7491 z m 10.9109,0 0.4442,-0.0473 0.4827,-0.0193 0.4796,0.0193 0.4451,0.0473 0,11.7491 -0.4547,0.051 -0.47,0.0144 -0.4722,-0.0144 -0.4547,-0.051 0,-11.7491 z m 5.0476,0 7.3171,0 0.0454,0.358 0.009,0.3787 c 0,0.2586 -0.0173,0.5001 -0.0541,0.7181 l -5.4646,0 0,4.0209 4.2483,0 0.0541,0.3583 0.0173,0.3784 -0.0173,0.3648 -0.0541,0.3535 -4.2483,0 0,3.3653 5.318,0 0.0471,0.36 0.007,0.3748 c 0,0.2616 -0.0181,0.502 -0.0539,0.7183 l -7.1705,0 0,-11.7491 z m 17.284,1.4857 c -0.2055,-0.0531 -0.4527,-0.0984 -0.7432,-0.1381 -0.2906,-0.0385 -0.6293,-0.0558 -1.0166,-0.0558 -0.6429,0 -1.2259,0.0887 -1.752,0.2684 -0.5262,0.1803 -0.9857,0.4575 -1.3717,0.834 -0.3889,0.3764 -0.6883,0.8458 -0.8978,1.4057 -0.2123,0.5618 -0.3174,1.2279 -0.3174,2.0032 0,0.7492 0.1012,1.419 0.3069,2.0001 0.2075,0.5834 0.4933,1.0738 0.8638,1.4704 0.3668,0.3968 0.8158,0.701 1.3419,0.9076 0.5289,0.2067 1.1112,0.3118 1.7521,0.3118 0.5944,0 1.0859,-0.0405 1.4816,-0.1159 0.3921,-0.0771 0.7589,-0.1622 1.0976,-0.2617 0.11,0.2424 0.2027,0.4663 0.2818,0.6798 0.0782,0.2115 0.1284,0.4431 0.1556,0.6951 -0.4133,0.1408 -0.8748,0.252 -1.3833,0.333 -0.5068,0.0819 -1.1072,0.1236 -1.7955,0.1236 -0.9085,0 -1.7348,-0.1457 -2.478,-0.4326 -0.7461,-0.2877 -1.3873,-0.7007 -1.9259,-1.2336 -0.5377,-0.534 -0.9527,-1.1818 -1.2432,-1.9366 -0.2906,-0.7589 -0.4363,-1.6056 -0.4363,-2.541 0,-0.9385 0.1429,-1.7773 0.4258,-2.5189 0.2866,-0.7395 0.693,-1.368 1.2288,-1.8873 0.5309,-0.5164 1.1843,-0.9122 1.9584,-1.1846 0.7753,-0.2732 1.6458,-0.4093 2.615,-0.4093 0.2906,0 0.6007,0.0116 0.9258,0.0337 0.3283,0.0224 0.6545,0.0522 0.9799,0.0899 0.3272,0.0397 0.6449,0.0927 0.946,0.1641 0.3001,0.0686 0.5802,0.1554 0.835,0.254 l 0,5.7345 -0.4365,0.0473 -0.4728,0.0202 -0.4711,-0.0202 -0.4547,-0.0473 0,-4.5935 z m 12.2933,-1.2328 c 0.6882,0.3013 1.2606,0.7191 1.7152,1.26 0.4558,0.5377 0.7898,1.1797 1.0089,1.919 0.2163,0.7396 0.3243,1.5534 0.3243,2.4358 0,0.8825 -0.108,1.6943 -0.3243,2.4347 -0.2191,0.7416 -0.5531,1.3796 -1.0089,1.9213 -0.4546,0.5378 -1.027,0.9596 -1.7152,1.2666 -0.6894,0.3041 -1.5078,0.4566 -2.4508,0.4566 -0.9463,0 -1.7638,-0.1525 -2.452,-0.4566 -0.6903,-0.307 -1.2626,-0.7288 -1.7172,-1.2666 -0.4519,-0.5417 -0.7906,-1.1797 -1.0157,-1.9213 -0.2239,-0.7404 -0.3351,-1.5522 -0.3351,-2.4347 0,-0.8824 0.1112,-1.6962 0.3351,-2.4358 0.2251,-0.7393 0.5638,-1.3813 1.0157,-1.919 0.4546,-0.5409 1.0269,-0.9587 1.7172,-1.26 0.6882,-0.2982 1.5057,-0.4499 2.452,-0.4499 0.943,0 1.7614,0.1517 2.4508,0.4499 z m -4.0215,1.3073 c -0.4431,0.2143 -0.811,0.5213 -1.0996,0.9238 -0.2905,0.4034 -0.5077,0.8881 -0.6525,1.4539 -0.1457,0.5686 -0.2183,1.2115 -0.2183,1.9298 0,0.7067 0.0726,1.3488 0.2183,1.9202 0.1448,0.5715 0.362,1.0562 0.6525,1.4559 0.2886,0.3957 0.6565,0.7019 1.0996,0.9142 0.4422,0.2123 0.9652,0.3177 1.5707,0.3177 0.6051,0 1.1264,-0.1054 1.5695,-0.3177 0.4431,-0.2123 0.8087,-0.5185 1.0964,-0.9142 0.2934,-0.3997 0.5097,-0.8844 0.6557,-1.4559 0.1446,-0.5714 0.2191,-1.2135 0.2191,-1.9202 0,-0.7183 -0.0745,-1.3612 -0.2191,-1.9298 -0.146,-0.5658 -0.3623,-1.0505 -0.6557,-1.4539 -0.2877,-0.4025 -0.6533,-0.7095 -1.0964,-0.9238 -0.4431,-0.2126 -0.9644,-0.3178 -1.5695,-0.3178 -0.6055,0 -1.1285,0.1052 -1.5707,0.3178 z m -450.3025,-1.5593 0.4082,-0.0502 0.4623,-0.0173 0.4459,0.0173 0.4269,0.0502 0,8.7738 5.6991,-8.7738 0.4277,-0.0502 0.4266,-0.0173 0.4278,0.0173 0.4275,0.0502 0,11.7482 -0.4179,0.0481 -0.4201,0.0173 -0.4691,-0.0173 -0.4547,-0.0481 0,-8.8249 -5.6817,8.8249 -0.4286,0.0481 -0.4267,0.0173 -0.4266,-0.0173 -0.4266,-0.0481 0,-11.7482 z m 11.8383,1.0437 c -0.0858,-0.25 -0.1397,-0.4944 -0.1629,-0.7348 0.2548,-0.0771 0.502,-0.1468 0.746,-0.2131 0.2404,-0.0649 0.4916,-0.1188 0.7521,-0.1633 0.2588,-0.0434 0.5405,-0.0774 0.8436,-0.0975 0.3021,-0.0221 0.642,-0.0329 1.0165,-0.0329 1.5494,0 2.7533,0.3243 3.6122,0.9743 0.8611,0.6466 1.2906,1.5301 1.2906,2.6526 0,0.4675 -0.0715,0.8776 -0.2104,1.2263 -0.1389,0.3484 -0.3407,0.6525 -0.6071,0.9085 -0.2657,0.2557 -0.586,0.4788 -0.9635,0.6679 -0.3745,0.1913 -0.8051,0.3727 -1.2867,0.5485 l -1.0185,0.3591 c -0.2557,0.0879 -0.496,0.1843 -0.7248,0.2934 -0.2288,0.11 -0.4306,0.2327 -0.5995,0.3688 -0.1718,0.1372 -0.3059,0.2945 -0.4074,0.4731 -0.1043,0.1805 -0.1553,0.3852 -0.1553,0.614 0,0.5561 0.2055,0.972 0.6168,1.2512 0.411,0.2769 0.9981,0.4161 1.7598,0.4161 0.5473,0 1.0329,-0.0445 1.4643,-0.1304 0.4267,-0.087 0.8059,-0.1882 1.1333,-0.2945 0.2055,0.445 0.3388,0.8977 0.4006,1.3544 -0.4006,0.1332 -0.8601,0.2423 -1.3805,0.3282 -0.5213,0.0851 -1.0704,0.1304 -1.6526,0.1304 -1.3552,0 -2.4094,-0.28 -3.1584,-0.8427 -0.7528,-0.5582 -1.1276,-1.3351 -1.1276,-2.3275 0,-0.4133 0.061,-0.7705 0.1826,-1.0707 0.1216,-0.2993 0.2885,-0.5638 0.4972,-0.7917 0.2143,-0.2299 0.466,-0.4229 0.7557,-0.5803 0.2905,-0.1593 0.612,-0.3041 0.9635,-0.4342 l 1.0338,-0.3748 c 0.4101,-0.1544 0.7713,-0.2945 1.0791,-0.4246 0.311,-0.1324 0.5667,-0.2761 0.7722,-0.4326 0.2058,-0.1584 0.3611,-0.3475 0.4615,-0.5649 0.1043,-0.218 0.1564,-0.4796 0.1564,-0.7838 0,-0.6208 -0.2452,-1.1151 -0.7356,-1.478 -0.4904,-0.3668 -1.2316,-0.5485 -2.224,-0.5485 -0.6304,0 -1.1614,0.0485 -1.5996,0.1469 -0.4323,0.0975 -0.8524,0.2114 -1.2509,0.3438 -0.0976,-0.2407 -0.1854,-0.4847 -0.2725,-0.7367 z m 12.8367,-1.0437 c 0.2889,-0.0346 0.6064,-0.0502 0.9451,-0.0502 0.3263,0 0.6296,0.0156 0.9065,0.0502 l 0,10.2931 3.3951,0 0.055,0.368 0.0173,0.3852 -0.0173,0.358 -0.055,0.3439 -8.6434,0 -0.053,-0.3515 -0.0176,-0.368 0.0176,-0.3753 0.053,-0.3603 3.3967,0 0,-10.2931 z m 10.2575,0 0.445,-0.0502 0.4799,-0.0173 0.4729,0.0173 0.4722,0.0502 0,4.297 4.085,7.4512 -0.4904,0.0481 -0.5077,0.0173 -0.4904,-0.0173 -0.4719,-0.0481 -3.0138,-5.8332 -3.0493,5.8332 c -0.1459,0.0221 -0.3129,0.0394 -0.5,0.0481 -0.1874,0.0117 -0.3611,0.0173 -0.5184,0.0173 -0.1815,0 -0.362,-0.006 -0.5434,-0.0173 -0.1817,-0.009 -0.3507,-0.026 -0.5089,-0.0481 l 4.1392,-7.4512 0,-4.297 z m 10.2229,0 c 0.2905,-0.0346 0.606,-0.0502 0.9439,-0.0502 0.3274,0 0.6293,0.0156 0.9085,0.0502 l 0,10.2931 3.3948,0 0.055,0.368 0.0175,0.3852 -0.0175,0.358 -0.055,0.3439 -8.6443,0 -0.053,-0.3515 -0.0184,-0.368 0.0184,-0.3753 0.053,-0.3603 3.3971,0 0,-10.2931 z m 7.2629,4.7874 c 0,-0.7877 0.0811,-1.4885 0.244,-2.1073 0.1633,-0.6236 0.4298,-1.146 0.7986,-1.5707 0.3688,-0.4257 0.8523,-0.7492 1.4439,-0.9742 0.5908,-0.222 1.313,-0.3331 2.1603,-0.3331 0.8476,0 1.5687,0.1111 2.1626,0.3331 0.5916,0.225 1.0743,0.5485 1.442,0.9742 0.3699,0.4247 0.6361,0.9471 0.7985,1.5707 0.165,0.6188 0.2452,1.3196 0.2452,2.1073 l 0,6.9608 c -0.2897,0.0337 -0.6044,0.0481 -0.9434,0.0481 -0.3146,0 -0.6233,-0.0144 -0.9266,-0.0481 l 0,-6.6671 c 0,-0.6778 -0.0482,-1.2541 -0.1429,-1.7331 -0.0975,-0.4788 -0.2568,-0.8697 -0.4728,-1.1682 -0.2191,-0.299 -0.504,-0.5213 -0.8544,-0.6622 -0.3515,-0.1408 -0.7886,-0.2134 -1.3082,-0.2134 -0.5201,0 -0.9584,0.0726 -1.3155,0.2134 -0.3564,0.1409 -0.6458,0.3632 -0.8621,0.6622 -0.2182,0.2985 -0.3755,0.6894 -0.4731,1.1682 -0.0955,0.479 -0.1428,1.0553 -0.1428,1.7331 l 0,6.6671 c -0.2798,0.0337 -0.582,0.0481 -0.9094,0.0481 -0.3396,0 -0.6534,-0.0144 -0.9439,-0.0481 l 0,-6.9608 z m 19.6276,-3.401 c -0.4121,-0.0763 -0.8736,-0.1131 -1.3813,-0.1131 -0.6537,0 -1.2424,0.0918 -1.7694,0.2781 -0.5281,0.1845 -0.9779,0.4634 -1.3524,0.8314 -0.3756,0.3716 -0.6661,0.8407 -0.8716,1.4065 -0.2087,0.5667 -0.311,1.2368 -0.311,2.0101 0,1.5157 0.3668,2.6739 1.1016,3.482 0.7296,0.8062 1.7569,1.2087 3.0753,1.2087 0.3033,0 0.5726,-0.009 0.8081,-0.026 0.2364,-0.0165 0.4536,-0.0386 0.6446,-0.0723 0.1942,-0.0329 0.3756,-0.0706 0.5457,-0.1151 0.1686,-0.0425 0.3435,-0.0927 0.5258,-0.1457 0.1091,0.2384 0.203,0.4654 0.2829,0.6758 0.0774,0.2123 0.1284,0.445 0.1536,0.6962 -0.3892,0.1196 -0.8294,0.2247 -1.3254,0.3106 -0.4981,0.0851 -1.0908,0.1304 -1.7799,0.1304 -0.9306,0 -1.7714,-0.1437 -2.5226,-0.4345 -0.752,-0.2866 -1.3889,-0.6968 -1.9082,-1.2328 -0.5205,-0.5329 -0.919,-1.1778 -1.1971,-1.9375 -0.2801,-0.7549 -0.419,-1.6016 -0.419,-2.5398 0,-0.9261 0.1389,-1.7592 0.419,-2.5005 0.2781,-0.7415 0.6766,-1.3708 1.1971,-1.8856 0.5193,-0.5193 1.1593,-0.9161 1.9159,-1.1931 0.756,-0.2781 1.6084,-0.4181 2.5495,-0.4181 0.6179,0 1.1931,0.0445 1.726,0.1304 0.5329,0.0859 1.0531,0.2296 1.561,0.4246 -0.0706,0.4366 -0.2415,0.8884 -0.5079,1.3575 -0.3629,-0.142 -0.7501,-0.25 -1.1603,-0.3282 z m 6.372,1.5049 c 0,-0.3705 -0.0598,-0.665 -0.1805,-0.8833 -0.1225,-0.2191 -0.2798,-0.3821 -0.4728,-0.4904 -0.1942,-0.1091 -0.4026,-0.1794 -0.6276,-0.2134 -0.224,-0.0309 -0.4451,-0.0482 -0.6622,-0.0482 -0.2047,0 -0.4025,0.0193 -0.5899,0.057 -0.1862,0.0368 -0.3543,0.0734 -0.5,0.1071 -0.0956,-0.252 -0.1698,-0.4972 -0.2172,-0.7364 -0.0482,-0.2395 -0.0722,-0.4683 -0.0722,-0.6837 0.2412,-0.057 0.5076,-0.1032 0.8002,-0.1398 0.2877,-0.0408 0.5791,-0.0581 0.8705,-0.0581 0.5437,0 1.0341,0.0581 1.4712,0.1701 0.4334,0.1156 0.8042,0.307 1.1063,0.5723 0.3011,0.2676 0.5329,0.6236 0.6903,1.0735 0.1545,0.4433 0.2355,0.9944 0.2355,1.648 l 0,8.4822 -4.1394,0 -0.0539,-0.3515 -0.0195,-0.368 0.0195,-0.3753 0.0539,-0.3603 2.2878,0 0,-7.4018 z m 12.3832,-2.8913 0.4612,-0.0502 0.4827,-0.0173 c 0.169,0 0.3447,0.004 0.5253,0.0173 0.1823,0.01 0.3455,0.0272 0.4904,0.0502 l -4.231,11.7482 c -0.1681,0.0221 -0.3439,0.0394 -0.5253,0.0481 -0.1822,0.0117 -0.356,0.0173 -0.5249,0.0173 -0.1951,0 -0.3844,-0.006 -0.5658,-0.0173 -0.1806,-0.009 -0.3504,-0.026 -0.5077,-0.0481 l -4.2494,-11.7482 0.4478,-0.0502 0.4964,-0.0173 0.4728,0.0173 0.4731,0.0502 0.8881,2.7099 4.9569,0 0.9094,-2.7099 z m -3.3971,10.1627 1.9973,-5.9961 -3.9761,0 1.9788,5.9961 z m 18.7733,-10.1627 c 0.1826,-0.023 0.3583,-0.0406 0.5273,-0.0502 l 0.472,-0.0173 c 0.1689,0 0.3483,0.004 0.5366,0.0173 0.1865,0.01 0.3784,0.0272 0.5726,0.0502 l -4.6684,6.1081 4.1422,5.6401 c -0.1961,0.0221 -0.3812,0.0394 -0.5646,0.0481 -0.1817,0.0117 -0.3515,0.0173 -0.5088,0.0173 l -0.4442,-0.0173 -0.4981,-0.0481 -4.1953,-5.7867 4.6287,-5.9615 z m -7.0265,0 0.4374,-0.0502 0.4896,-0.0173 0.4719,0.0173 0.4547,0.0502 0,11.7482 -0.4547,0.0481 -0.4719,0.0173 -0.4723,-0.0173 -0.4547,-0.0481 0,-11.7482 z m 10.8754,4.7874 c 0,-0.7877 0.0819,-1.4885 0.2481,-2.1073 0.1612,-0.6236 0.4274,-1.146 0.7962,-1.5707 0.3708,-0.4257 0.8524,-0.7492 1.4431,-0.9742 0.5939,-0.222 1.3159,-0.3331 2.1626,-0.3331 0.8473,0 1.5675,0.1111 2.1603,0.3331 0.5915,0.225 1.0751,0.5485 1.4439,0.9742 0.3688,0.4247 0.6353,0.9471 0.7985,1.5707 0.163,0.6188 0.2461,1.3196 0.2461,2.1073 l 0,6.9608 c -0.2925,0.0337 -0.6063,0.0481 -0.9459,0.0481 -0.3158,0 -0.6228,-0.0144 -0.927,-0.0481 l 0,-6.6671 c 0,-0.6778 -0.0481,-1.2541 -0.1437,-1.7331 -0.0975,-0.4788 -0.2548,-0.8697 -0.4719,-1.1682 -0.2183,-0.299 -0.5021,-0.5213 -0.8553,-0.6622 -0.3475,-0.1408 -0.7849,-0.2134 -1.305,-0.2134 -0.5196,0 -0.9596,0.0726 -1.3167,0.2134 -0.3572,0.1409 -0.644,0.3632 -0.8632,0.6622 -0.2182,0.2985 -0.3756,0.6894 -0.4731,1.1682 -0.0955,0.479 -0.1437,1.0553 -0.1437,1.7331 l 0,6.6671 c -0.2781,0.0337 -0.5802,0.0481 -0.9082,0.0481 -0.339,0 -0.6525,-0.0144 -0.9451,-0.0481 l 0,-6.9608 z m 12.4563,-4.7874 6.9551,0 c 0.0366,0.2279 0.055,0.4711 0.055,0.7339 l -0.0105,0.358 -0.0445,0.3756 -5.1211,0 0,10.2807 -0.4547,0.0481 -0.4728,0.0173 -0.4799,-0.0173 -0.4266,-0.0481 0,-11.7482 z m 9.6058,0 c 0.2897,-0.0346 0.6052,-0.0502 0.9442,-0.0502 0.3263,0 0.6301,0.0156 0.9062,0.0502 l 0,10.2931 3.3962,0 0.0559,0.368 0.0172,0.3852 -0.0172,0.358 -0.0559,0.3439 -8.6406,0 -0.0569,-0.3515 -0.0173,-0.368 0.0173,-0.3753 0.0569,-0.3603 3.394,0 0,-10.2931 z m 7.264,4.7874 c 0,-0.7877 0.082,-1.4885 0.2432,-2.1073 0.1662,-0.6236 0.4306,-1.146 0.7983,-1.5707 0.3716,-0.4257 0.8507,-0.7492 1.4451,-0.9742 0.5927,-0.222 1.3147,-0.3331 2.1614,-0.3331 0.8456,0 1.5659,0.1111 2.1594,0.3331 0.5916,0.225 1.0744,0.5485 1.4432,0.9742 0.3676,0.4247 0.6352,0.9471 0.7993,1.5707 0.163,0.6188 0.2441,1.3196 0.2441,2.1073 l 0,6.9608 c -0.2906,0.0337 -0.6052,0.0481 -0.9423,0.0481 -0.3163,0 -0.6264,-0.0144 -0.9286,-0.0481 l 0,-6.6671 c 0,-0.6778 -0.047,-1.2541 -0.1428,-1.7331 -0.0984,-0.4788 -0.2549,-0.8697 -0.4729,-1.1682 -0.2202,-0.299 -0.502,-0.5213 -0.8523,-0.6622 -0.3544,-0.1408 -0.7878,-0.2134 -1.3071,-0.2134 -0.5241,0 -0.9624,0.0726 -1.3187,0.2134 -0.356,0.1409 -0.6429,0.3632 -0.8628,0.6622 -0.2172,0.2985 -0.3748,0.6894 -0.4703,1.1682 -0.0975,0.479 -0.1457,1.0553 -0.1457,1.7331 l 0,6.6671 c -0.2789,0.0337 -0.582,0.0481 -0.9082,0.0481 -0.3391,0 -0.6546,-0.0144 -0.9423,-0.0481 l 0,-6.9608 z m 12.49,-4.7874 0.4723,-0.0426 0.472,-0.008 0.4634,0.0156 0.4431,0.0346 0,10.4748 c 0.2208,0.0182 0.415,0.0366 0.5887,0.0462 0.1786,0.0125 0.3697,0.0173 0.5724,0.0173 0.8756,0 1.5678,-0.191 2.0812,-0.5714 0.5127,-0.3813 0.7732,-0.9635 0.7732,-1.7501 0,-0.4241 -0.1051,-0.785 -0.3098,-1.0863 -0.2086,-0.2993 -0.4634,-0.555 -0.7741,-0.7673 -0.3062,-0.2135 -0.6421,-0.3835 -1.006,-0.5137 -0.362,-0.1315 -0.7076,-0.2347 -1.0347,-0.3109 l -0.1448,-0.0329 0,-0.0646 4.176,-5.4411 c 0.3251,-0.0346 0.6514,-0.0502 0.9788,-0.0502 0.4121,0 0.7818,0.0156 1.1092,0.0502 l -3.7948,4.9498 0.2183,0.0984 c 0.2894,0.1304 0.5888,0.2962 0.8977,0.498 0.3087,0.2027 0.5831,0.4374 0.8263,0.7127 0.2413,0.2712 0.4411,0.5802 0.6013,0.9294 0.1556,0.3487 0.2335,0.7348 0.2335,1.1597 0,0.7084 -0.1477,1.2954 -0.4467,1.758 -0.2965,0.4624 -0.6786,0.83 -1.1509,1.1033 -0.4728,0.2704 -1.0114,0.4626 -1.6149,0.5726 -0.6052,0.1071 -1.2163,0.1621 -1.8348,0.1621 -0.2793,0 -0.533,-0.005 -0.7617,-0.0164 -0.2307,-0.0105 -0.4527,-0.0233 -0.6633,-0.0405 -0.2103,-0.0173 -0.4266,-0.0349 -0.6457,-0.057 -0.2172,-0.0221 -0.4587,-0.0425 -0.7252,-0.0655 l 0,-11.7646 z m 13.4017,0 0.443,-0.0502 0.4808,-0.0173 0.4728,0.0173 0.4711,0.0502 0,4.297 4.0873,7.4512 -0.4915,0.0481 -0.5077,0.0173 -0.4904,-0.0173 -0.4731,-0.0481 -3.0146,-5.8332 -3.0493,5.8332 c -0.146,0.0221 -0.3109,0.0394 -0.5,0.0481 -0.1882,0.0117 -0.3592,0.0173 -0.5165,0.0173 -0.1834,0 -0.3631,-0.006 -0.5465,-0.0173 -0.1803,-0.009 -0.3512,-0.026 -0.5077,-0.0481 l 4.1423,-7.4512 0,-4.297 z" />
    <path
       id="path4154"
       style="fill:#ffffff;fill-opacity:1;fill-rule:evenodd;stroke:none"
       d="m 121.8986,617.0097 c 0,-1.5928 -0.6429,-2.9608 -1.9316,-4.1069 -1.2597,-1.1449 -2.8264,-1.7192 -4.7041,-1.7192 -1.4845,0 -2.7442,0.2384 -3.7791,0.7124 -0.5327,0.225 -0.9873,0.441 -1.3658,0.6505 -0.3784,0.2095 -0.7483,0.4269 -1.1131,0.65 l 0,3.2698 c 0.7279,-0.4771 1.3447,-0.8331 1.8487,-1.0698 0.5029,-0.2376 1.0078,-0.4411 1.5115,-0.6072 1.0088,-0.3631 1.9743,-0.5465 2.8978,-0.5465 1.0928,0 1.9888,0.2676 2.6887,0.7974 0.6429,0.4742 0.9652,1.1452 0.9652,2.0128 0,0.5862 -0.2364,1.1172 -0.7135,1.5911 -0.5607,0.531 -1.8476,1.1605 -3.8639,1.8865 -0.8118,0.3078 -1.5321,0.6352 -2.1625,0.9856 -0.6302,0.3495 -1.1708,0.7472 -1.6178,1.1951 -0.9519,0.9221 -1.4278,2.1095 -1.4278,3.5626 0,1.6197 0.671,2.9607 2.0157,4.0226 0.6449,0.5032 1.33,0.8949 2.0591,1.1741 0.7277,0.2798 1.5114,0.4198 2.3513,0.4198 1.2328,0 2.365,-0.197 3.4028,-0.5879 0.9518,-0.3631 1.7356,-0.809 2.3504,-1.3399 l 0,-3.4379 c -0.7268,0.559 -1.3155,0.9703 -1.7634,1.2376 -0.447,0.2637 -0.8824,0.4952 -1.3022,0.6903 -0.8669,0.3631 -1.7076,0.5445 -2.5195,0.5445 -0.6159,0 -1.142,-0.0686 -1.5746,-0.2086 -0.4351,-0.1389 -0.805,-0.3359 -1.1137,-0.5879 -0.616,-0.5868 -0.9238,-1.2144 -0.9238,-1.8854 0,-0.7259 0.3078,-1.3138 0.9238,-1.7608 0.3628,-0.252 0.7837,-0.4964 1.2605,-0.7328 0.4751,-0.2384 1.035,-0.4683 1.6807,-0.6922 1.7067,-0.5859 3.0937,-1.3139 4.1567,-2.1799 1.1755,-0.9221 1.7635,-2.2359 1.7635,-3.9398 z m -32.7734,20.0197 -0.0462,9.3721 0,0.0927 0.0037,0.0434 0,0.006 c 0.034,0.5329 0.1063,1.0939 0.2222,1.6778 0.11,0.5562 0.2634,1.1268 0.4672,1.7002 l 0,0.006 c 1.0165,2.8876 3.2009,5.6517 7.1646,7.4993 l 0.6196,0.2877 0.6293,-0.2953 0.059,-0.0261 0.0059,0 c 0.7557,-0.3563 1.4468,-0.7472 2.0772,-1.1633 0.6381,-0.425 1.2153,-0.8796 1.7337,-1.3524 1.0743,-0.9868 1.897,-2.0662 2.5098,-3.1879 1.2096,2.2244 3.2358,4.2698 6.3828,5.7373 l 0.6205,0.2877 0.6284,-0.2953 0.059,-0.0261 0.006,0 c 0.7558,-0.3563 1.4468,-0.7472 2.0764,-1.1633 0.6398,-0.425 1.2181,-0.8796 1.7345,-1.3524 2.6944,-2.4736 3.8112,-5.529 3.981,-8.3827 l 0,-0.0927 -0.0465,-9.3721 -2.9605,0.0116 0.0474,9.288 c -0.1333,2.1741 -0.9808,4.4997 -3.0223,6.3717 -0.4057,0.3727 -0.8604,0.7299 -1.3632,1.065 -0.3532,0.2335 -0.7288,0.4555 -1.1313,0.6678 -2.7482,-1.4459 -4.2852,-3.4347 -5.008,-5.4881 l -0.001,0 c -0.1466,-0.4173 -0.2625,-0.8487 -0.3504,-1.2898 -0.0811,-0.4142 -0.1352,-0.8496 -0.1641,-1.2977 l 0,0 -9e-4,-0.0289 0.0445,-9.288 -0.1063,0 0,-0.0116 -1.4266,0.006 -1.4278,-0.006 0,0.0116 -0.1061,0 0.0454,9.288 c -0.1313,2.1741 -0.9799,4.4997 -3.0215,6.3717 -0.4056,0.3727 -0.86,0.7299 -1.364,1.065 -0.3523,0.2335 -0.7279,0.4555 -1.1304,0.6678 -2.7482,-1.4459 -4.2849,-3.4347 -5.008,-5.4881 l -9e-4,0 c -0.146,-0.4173 -0.2627,-0.8487 -0.3506,-1.2898 -0.0811,-0.4142 -0.1341,-0.8496 -0.163,-1.2977 l 0,0 -0.002,-0.0289 0.0445,-9.288 -2.9608,-0.0116 z m 88.4149,-13.2126 2.5359,0 -5.3448,-12.6284 -1.3912,0 -3.0098,7.9558 -3.0311,-7.9558 -1.393,0 -5.2937,12.6284 2.5351,0 3.3562,-8.0535 3.1065,8.0535 1.3918,0 3.1085,-8.0535 3.4296,8.0535 z m 125.8257,-12.4605 c -0.9576,-1.2368 -1.4327,-3.3857 0.9005,-3.3857 0.4459,0 0.9519,0.006 1.3485,0.2451 l 0,1.0149 c -1.4344,-0.4094 -2.249,0.6032 -1.2084,1.9258 0.0433,0.055 0.0935,0.1247 0.1465,0.1999 l 0.3013,0 c 9e-4,0.002 0.002,0.003 0.003,0.007 l 0.9731,0 0,12.4537 -2.4114,0 0,-0.6199 c -0.4306,0.1817 -0.8757,0.3687 -1.3303,0.5589 -0.4536,0.1885 -0.9238,0.2858 -1.4054,0.2858 -1.8553,0 -3.3565,-0.6497 -4.5236,-1.9143 -0.5859,-0.6361 -1.0366,-1.3524 -1.3167,-2.1634 -0.2797,-0.811 -0.4226,-1.699 -0.4226,-2.6597 0,-1.7572 0.5522,-3.238 1.6903,-4.3994 1.1285,-1.1557 2.5849,-1.7164 4.3254,-1.7164 0.6962,0 1.3921,0.0944 2.0871,0.2742 0.1304,0.0328 0.2733,0.1159 0.4238,0.2471 0.1477,0.1321 0.2982,0.2248 0.4459,0.2733 l 0,-0.4964 c -0.0405,-0.0413 -0.0802,-0.085 -0.1208,-0.1303 l 0.0939,0 z m 37.4944,12.4605 0,-12.4056 -2.4593,0 0,0.8459 c -0.199,-0.1817 -0.4442,-0.3447 -0.7223,-0.4972 -0.6795,-0.3736 -1.3918,-0.5715 -2.1382,-0.5715 -0.7617,0 -1.4516,0.1052 -2.0619,0.3099 -0.612,0.2055 -1.1514,0.5434 -1.6169,1.0077 -0.4643,0.4634 -0.8099,1.0176 -1.031,1.6537 -0.2219,0.6353 -0.3347,1.3547 -0.3347,2.1492 l 0,7.5079 2.4596,0 0,-7.2578 c 0,-0.5261 0.057,-0.9811 0.1621,-1.3431 0.1052,-0.3628 0.2586,-0.6698 0.4604,-0.8949 0.2086,-0.2336 0.4691,-0.4121 0.7577,-0.5349 0.2877,-0.1224 0.6497,-0.1862 1.0811,-0.1862 0.6962,0 1.313,0.2163 1.8391,0.6468 0.281,0.2279 0.5154,0.4567 0.6959,0.671 0.1795,0.2123 0.3399,0.4218 0.472,0.6208 l 0,8.2783 2.4364,0 z m -11.6272,-10.0673 0,-2.3383 -10.267,0 -0.3725,1.12 6.8122,8.9493 -6.3403,0 0,2.3363 9.9188,0 0.2982,-1.118 -6.761,-8.9493 6.7116,0 z m -11.8876,0.8439 0,-2.6589 c -0.3311,-0.1156 -0.6148,-0.2095 -0.8447,-0.2741 -0.2308,-0.0638 -0.5001,-0.1437 -0.7963,-0.2231 -0.5947,-0.163 -1.2512,-0.2489 -1.9627,-0.2489 -0.9459,0 -1.7983,0.1457 -2.562,0.4354 -0.7605,0.2886 -1.4187,0.7433 -1.9873,1.3292 -0.5706,0.5871 -1.0041,1.2657 -1.2677,2.0514 -0.2644,0.7841 -0.3985,1.6538 -0.3985,2.598 0,1.7725 0.5482,3.2698 1.616,4.4989 0.5695,0.6545 1.22,1.1545 1.9644,1.4683 0.7433,0.3118 1.5832,0.472 2.5107,0.472 0.6131,0 1.1766,-0.0627 1.6894,-0.1746 0.2288,-0.0502 0.4873,-0.1188 0.7577,-0.1979 0.2733,-0.0811 0.6353,-0.199 1.0811,-0.3487 l 0,-2.7348 c -0.5955,0.2644 -1.0329,0.4498 -1.303,0.5465 -0.2725,0.0984 -0.5205,0.193 -0.7348,0.273 -0.3957,0.1479 -0.8861,0.2242 -1.4652,0.2242 -1.0939,0 -1.9443,-0.3796 -2.5861,-1.0939 -0.6624,-0.7396 -1.0204,-1.7059 -1.0204,-2.933 0,-0.6457 0.0907,-1.2124 0.2616,-1.6914 0.1726,-0.4788 0.4178,-0.8986 0.7345,-1.2433 0.6565,-0.7126 1.5823,-1.0678 2.7581,-1.0678 0.5473,0 1.0627,0.0686 1.5415,0.1978 0.1139,0.0309 0.2347,0.0746 0.3483,0.112 0.114,0.0397 0.25,0.0938 0.3977,0.1497 0.1469,0.0569 0.3303,0.1304 0.5349,0.2114 0.2047,0.0811 0.4507,0.1911 0.7328,0.3226 z m -14.9471,-0.8186 c 0.1837,0.0714 0.3631,0.2035 0.5357,0.36 0.1721,0.1545 0.3351,0.2769 0.4848,0.3591 l 0,6.1659 c -0.0995,0.0678 -0.2152,0.171 -0.3484,0.3119 -0.1332,0.14 -0.2925,0.2511 -0.4731,0.3342 -0.4459,0.2103 -1.0009,0.3234 -1.6642,0.3234 -1.1614,0 -2.1141,-0.3988 -2.8593,-1.1934 -0.7597,-0.8099 -1.1438,-1.8468 -1.1438,-3.1068 0,-1.1939 0.3591,-2.0996 1.0202,-2.7609 0.6769,-0.6766 1.565,-1.0437 2.7088,-1.0437 0.7296,0 1.3138,0.0793 1.7393,0.2503 z m -10.4947,5.9901 c 0.7296,-0.8291 1.0956,-1.9723 1.0956,-3.431 0,-1.4085 -0.5329,-2.6192 -1.5928,-3.6289 -1.057,-1.0089 -2.336,-1.5166 -3.8265,-1.5166 -1.0446,0 -2.027,0.1959 -2.9344,0.5965 -0.3969,0.1748 -0.7713,0.3659 -1.1189,0.5473 -0.3466,0.1806 -0.6862,0.4065 -1.0184,0.671 l 0,3.0827 c 0.4478,-0.3323 0.835,-0.614 1.1565,-0.8459 0.3214,-0.2288 0.6092,-0.4246 0.8572,-0.5723 0.246,-0.1457 0.4663,-0.2741 0.6466,-0.3728 0.1786,-0.0963 0.3515,-0.1822 0.4972,-0.2472 0.5791,-0.2616 1.142,-0.3977 1.6894,-0.3977 0.862,0 1.5928,0.2589 2.1631,0.7957 0.5687,0.5366 0.8448,1.2019 0.8448,1.9625 0,0.4317 -0.0627,0.7985 -0.1854,1.0947 -0.1245,0.2957 -0.307,0.563 -0.5599,0.7705 -0.2905,0.2366 -0.6862,0.4691 -1.1554,0.7086 -0.4711,0.2395 -1.061,0.4731 -1.754,0.7075 -1.4403,0.4907 -2.5339,1.1084 -3.2551,1.8403 -0.4016,0.4073 -0.6942,0.8969 -0.8824,1.4423 -0.1899,0.5453 -0.2857,1.1517 -0.2857,1.8139 0,1.3932 0.559,2.567 1.6401,3.5557 1.0706,0.9808 2.3275,1.4925 3.8024,1.4925 1.0618,0 1.9857,-0.1738 2.785,-0.4723 0.3909,-0.1457 0.7356,-0.2721 1.0058,-0.4102 0.2721,-0.1388 0.5357,-0.3021 0.7829,-0.4864 l 0.0502,-2.8837 c -0.332,0.1987 -0.6188,0.3717 -0.8581,0.5106 -0.2375,0.1391 -0.4498,0.2596 -0.6324,0.3591 -0.1834,0.1015 -0.3543,0.1874 -0.5105,0.2616 -0.1573,0.0743 -0.3215,0.1545 -0.4847,0.2376 -0.5454,0.2769 -1.2096,0.4218 -1.9877,0.4218 -0.8456,0 -1.5522,-0.2412 -2.0888,-0.7461 -0.5707,-0.5349 -0.8456,-1.1421 -0.8456,-1.7889 0,-0.3977 0.0598,-0.728 0.1746,-0.982 0.1131,-0.2556 0.2665,-0.4711 0.4479,-0.6341 0.477,-0.4306 1.3399,-0.8872 2.5843,-1.343 0.8737,-0.3203 1.6322,-0.6421 2.2626,-0.9817 0.6293,-0.3398 1.1265,-0.7174 1.4905,-1.1316 z m -20.0361,-0.9932 0,-7.3605 -2.4356,0 0,6.9869 c 0,0.5791 -0.0578,1.0686 -0.1746,1.4663 -0.1159,0.3977 -0.2693,0.7336 -0.4719,0.9953 -0.1942,0.25 -0.4346,0.4402 -0.7076,0.5706 -0.2741,0.1324 -0.6091,0.199 -1.008,0.199 -0.5627,0 -1.0491,-0.2183 -1.4661,-0.6449 -0.2451,-0.2511 -0.4682,-0.5003 -0.6593,-0.7472 -0.1882,-0.2472 -0.3679,-0.506 -0.5338,-0.7705 l 0,-8.0555 -2.4355,0 0,6.9869 c 0,0.5791 -0.0581,1.0686 -0.1737,1.4663 -0.116,0.3977 -0.2637,0.7328 -0.4491,0.9953 -0.36,0.5145 -0.9102,0.7696 -1.6401,0.7696 -0.6786,0 -1.2248,-0.1854 -1.641,-0.5457 -0.2114,-0.1854 -0.4141,-0.3909 -0.5955,-0.6236 -0.1814,-0.2296 -0.366,-0.4796 -0.5474,-0.7444 l 0,-8.3044 -2.4355,0 0,12.4056 2.4114,0 0,-0.8941 c 0.2155,0.2155 0.4442,0.4037 0.6951,0.5474 0.6766,0.3864 1.4343,0.5715 2.2626,0.5715 l 0.2985,0 c 0.7288,0 1.4371,-0.2132 2.1129,-0.6466 0.4816,-0.3101 0.9114,-0.7878 1.2915,-1.4173 0.1343,0.1814 0.282,0.3571 0.4481,0.5213 0.165,0.1661 0.3416,0.331 0.5222,0.498 0.7461,0.6922 1.6815,1.0446 2.808,1.0446 l 0.2982,0 c 1.2773,0 2.2986,-0.5193 3.0832,-1.5426 0.756,-0.9828 1.143,-2.2204 1.143,-3.7273 z m -21.1819,5.0451 2.6093,0 -8.1888,-16.5858 -2.6081,0 3.4384,6.9403 -5.0457,9.6455 2.7097,0 3.6295,-7.0359 3.4557,7.0359 z m -12.7477,0 2.5367,0 -5.3458,-12.6284 -1.391,0 -3.009,7.9558 -3.0311,-7.9558 -1.3938,0 -5.2928,12.6284 2.5347,0 3.3565,-8.0535 3.1074,8.0535 1.3909,0 3.1085,-8.0535 3.4288,8.0535 z m -20.5033,-9.0729 c 0.7461,0.7597 1.1197,1.7156 1.1197,2.8585 0,1.1112 -0.3668,2.071 -1.1197,2.8576 -0.7529,0.7877 -1.6574,1.1693 -2.6855,1.1693 -1.0435,0 -1.946,-0.3747 -2.6844,-1.1432 -0.7532,-0.7866 -1.118,-1.7561 -1.118,-2.8837 0,-1.0947 0.3648,-2.0475 1.118,-2.8344 0.7528,-0.7857 1.6574,-1.1681 2.6844,-1.1681 1.0454,0 1.9403,0.3824 2.6855,1.144 z m 1.8156,7.4328 c 1.2087,-1.26 1.8139,-2.7854 1.8139,-4.5743 0,-1.8235 -0.5995,-3.3372 -1.7907,-4.5499 -0.6139,-0.6265 -1.2962,-1.0987 -2.0494,-1.4037 -0.7537,-0.307 -1.578,-0.4604 -2.4749,-0.4604 -1.8051,0 -3.3052,0.6237 -4.4975,1.8641 -1.2104,1.2589 -1.8147,2.7765 -1.8147,4.5499 0,1.8238 0.5967,3.348 1.7886,4.5743 0.612,0.6293 1.2975,1.0975 2.0503,1.4045 0.7549,0.305 1.5804,0.4604 2.4733,0.4604 1.8079,0 3.308,-0.6225 4.5011,-1.8649 z m -13.0711,7.4324 0,-18.1979 -2.0137,0 -11.9804,13.7725 0,-13.7725 -2.5619,0 0,18.1979 2.0386,0 c 1.1603,-1.4085 2.2791,-2.7349 3.3554,-3.9773 1.0763,-1.2424 2.1719,-2.4522 3.257,-3.6541 0.9045,-1.0032 1.7867,-2.0265 2.6719,-3.0459 0.8853,-1.0184 1.7771,-2.0514 2.6711,-3.0951 l 0,13.7724 2.562,0 z m -137.5435,-18.4516 0,50.6662 0,1.6124 1.614,0 6.6509,0 0,6.4179 0,1.6112 1.6112,0 6.8517,0 0,6.9588 0,1.612 1.612,0 17.4694,0 17.4713,0 1.611,0 0,-1.612 0,-6.9588 7.1926,0 1.612,0 0,-1.6112 0,-6.4179 6.5603,0 1.612,0 0,-1.6124 0,-50.6662 -3.2241,0 0,49.055 -6.5602,0 -1.6121,0 0,1.6112 0,6.4171 -7.1915,0 -1.612,0 0,1.6132 0,6.9576 -15.8593,0 -15.8573,0 0,-6.9576 0,-1.6132 -1.6121,0 -6.8516,0 0,-6.4171 0,-1.6112 -1.6121,0 -6.65,0 0,-49.055 -3.2261,0 z m 58.6148,0 0,26.0108 c -0.4615,7.893 -2.619,14.3903 -6.4676,19.4887 -3.757,4.9757 -9.161,8.6703 -16.2124,11.0838 -7.0507,-2.4135 -12.4566,-6.1081 -16.2117,-11.0838 -3.8505,-5.0984 -6.006,-11.5957 -6.4675,-19.4887 l 0,-26.0108 -3.2907,0 0,26.1006 0,0.0899 c 0.5011,8.5532 2.8805,15.6492 7.1376,21.289 4.2619,5.6438 10.3683,9.7776 18.3186,12.4004 l 0.5137,0.169 0.5145,-0.169 c 7.9511,-2.6228 14.0578,-6.7566 18.3186,-12.4004 4.257,-5.6398 6.6364,-12.7358 7.1356,-21.289 l 0,-0.0899 0,-26.1006 -3.2887,0 z m 51.8391,52.3199 0,-20.0389 -2.8196,0 0,15.3578 -6.4069,-7.9387 -6.4329,7.9387 0,-15.3578 -2.8177,0 0,20.0389 2.4625,0 6.7881,-8.2936 6.7629,8.2936 2.4636,0 z m 173.3324,-19.9451 c -0.005,-0.006 -0.01,-0.0116 -0.0145,-0.0173 l 0,-0.0765 -0.0482,0 c -0.1604,-0.2421 -0.2965,-0.4371 -0.4093,-0.5839 -0.2018,-0.2569 -0.3399,-0.4442 -0.4065,-0.5658 -0.1361,-0.2549 -0.2018,-0.4527 -0.2018,-0.5879 0,-0.0655 0.0184,-0.1594 0.0501,-0.2722 0.0329,-0.1151 0.0658,-0.2307 0.0919,-0.3427 0.0269,-0.1159 0.1497,-0.2491 0.3648,-0.3968 0.2143,-0.1469 0.419,-0.2396 0.6052,-0.222 0.4073,0.0366 0.703,0.1089 0.8921,0.1622 l 0,-1.173 c -0.1352,-0.0811 -0.311,-0.1505 -0.5261,-0.2038 -0.2152,-0.053 -0.5599,-0.0811 -1.033,-0.0811 -1.3079,0 -1.9616,0.6613 -1.9616,1.9848 0,0.4181 0.148,0.864 0.4442,1.3351 0.1979,0.315 0.4587,0.6316 0.7781,0.9471 l -10.436,0 0,20.0389 11.6059,0 0,-2.5735 -8.7863,0 0,-6.1044 8.5402,0 0,-2.5739 -8.5402,0 0,-6.2133 8.9765,0 0,-2.48 0.0145,0 z m 86.2891,2.48 0,-2.5738 -11.7981,0 0,20.0389 11.6062,0 0,-2.5735 -8.7862,0 0,-6.1044 8.541,0 0,-2.5739 -8.541,0 0,-6.2133 8.9781,0 z m -16.5897,17.4651 2.9296,0 -8.0207,-20.2308 -1.2877,0 -5.8014,14.591 -5.8045,-14.591 -1.3139,0 -8.0478,20.2308 2.9559,0 5.7212,-14.3169 5.8037,14.3169 1.3697,0 5.7744,-14.3458 5.7215,14.3458 z m -31.87,-15.3575 c 1.4953,1.4964 2.2437,3.2766 2.2437,5.3376 0,2.0622 -0.7484,3.8433 -2.2437,5.3388 -1.4768,1.4771 -3.276,2.2176 -5.3932,2.2176 -2.135,0 -3.9412,-0.7388 -5.419,-2.2176 -1.4799,-1.4791 -2.2175,-3.2584 -2.2175,-5.3388 0,-2.0979 0.7299,-3.878 2.1895,-5.3376 1.4768,-1.4791 3.2936,-2.2175 5.447,-2.2175 2.1172,0 3.9164,0.7404 5.3932,2.2175 z m 2.1084,12.6757 c 2.0512,-1.9792 3.0649,-4.4359 3.0649,-7.3381 0,-2.8836 -1.0222,-5.3203 -3.0649,-7.3091 -2.0262,-1.9712 -4.5263,-2.956 -7.5016,-2.956 -3.0115,0 -5.5213,0.9771 -7.5274,2.9282 -2.025,1.9712 -3.0387,4.4175 -3.0387,7.3369 0,2.9203 1.004,5.3589 3.0118,7.31 2.0251,1.9695 4.5428,2.9563 7.5543,2.9563 2.956,0 5.4658,-0.9664 7.5016,-2.9282 z m -20.23,-7.501 0,-8.2418 c -0.6392,-0.3282 -1.2319,-0.6023 -1.779,-0.8198 -0.5485,-0.2199 -1.1168,-0.3948 -1.6979,-0.5482 -1.2068,-0.3194 -2.4724,-0.4924 -3.8056,-0.4924 -3.0841,0 -5.6576,0.9771 -7.7195,2.9282 -2.0781,1.9712 -3.1207,4.436 -3.1207,7.3919 0,2.903 1.0193,5.3263 3.0396,7.2831 2.0097,1.9463 4.5167,2.9282 7.5285,2.9282 1.5146,0 2.9027,-0.1999 4.1596,-0.6027 0.6196,-0.1978 1.1681,-0.3977 1.6421,-0.5887 0.4748,-0.1894 0.9496,-0.423 1.4238,-0.6971 l 0,-3.2303 c -0.9663,0.5649 -1.7472,0.9847 -2.3411,1.2591 -0.5916,0.273 -1.1534,0.4952 -1.6835,0.6574 -1.0743,0.3282 -2.143,0.4924 -3.2009,0.4924 -2.1912,0 -4.0022,-0.7175 -5.449,-2.1357 -1.4548,-1.4266 -2.1895,-3.2204 -2.1895,-5.3917 0,-2.3006 0.7279,-4.1395 2.1895,-5.5038 1.4933,-1.391 3.4682,-2.0803 5.9133,-2.0803 0.9683,0 1.8825,0.1051 2.7366,0.3271 0.3294,0.087 0.6208,0.1837 0.8768,0.2752 0.2565,0.0907 0.4835,0.1814 0.6842,0.2741 l 0,3.9408 -3.9424,0 0,2.575 6.7351,0 z m -41.0731,2.4635 c 0.3322,0.2501 0.5802,0.5562 0.7528,0.9037 0.1738,0.3456 0.2608,0.7742 0.2608,1.2858 0,0.9125 -0.3214,1.6353 -0.9856,2.1356 -0.7404,0.5571 -1.7722,0.8207 -3.0659,0.8207 l -2.5455,0 0,-5.9395 2.4074,0 c 0.73,0 1.3564,0.0686 1.8757,0.2039 0.5193,0.138 0.9576,0.3291 1.3003,0.5898 z m 3.4769,-5.8861 4.1877,-6.4335 -3.339,0 -3.4769,5.4198 c -0.341,0.5321 -0.6721,1.0148 -0.9712,1.4519 -0.3022,0.4374 -0.6131,0.8246 -0.917,1.1761 -0.5156,0.5976 -1.3071,0.9034 -2.3817,0.9034 l -2.1622,0 0,-8.9512 -2.8197,0 0,20.0389 5.3913,0 c 1.0406,0 1.9819,-0.1099 2.8196,-0.3282 0.8399,-0.2191 1.5831,-0.5598 2.2175,-1.0398 0.6429,-0.4875 1.1197,-1.0967 1.4372,-1.8082 0.3197,-0.7095 0.4788,-1.5049 0.4788,-2.3816 0,-1.3853 -0.4159,-2.5118 -1.2578,-3.3662 -0.525,-0.5329 -1.0859,-0.9674 -1.6699,-1.315 0.1457,-0.1448 0.2878,-0.3013 0.4227,-0.4643 0.138,-0.1641 0.284,-0.3455 0.4257,-0.5485 0.2934,-0.4158 0.5715,-0.8223 0.8351,-1.2039 0.2637,-0.3832 0.525,-0.7673 0.7798,-1.1497 z m -23.76,3.6405 10.4831,-10.074 -3.8041,0 -8.8143,8.4319 0,-8.4319 -2.8196,0 0,20.0389 2.8196,0 0,-8.2936 7.9648,8.2936 3.6952,0 -9.5247,-9.9649 z m -12.2643,-5.3926 c 1.4952,1.4964 2.2444,3.2766 2.2444,5.3376 0,2.0622 -0.7492,3.8424 -2.2444,5.3388 -1.478,1.4771 -3.2752,2.2176 -5.3932,2.2176 -2.1354,0 -3.9405,-0.7388 -5.4193,-2.2176 -1.4788,-1.4791 -2.2173,-3.2584 -2.2173,-5.3388 0,-2.0979 0.7308,-3.878 2.1904,-5.3376 1.4768,-1.4791 3.2927,-2.2175 5.4462,-2.2175 2.118,0 3.9163,0.7384 5.3932,2.2175 z m 2.1084,12.6757 c 2.0511,-1.9792 3.0648,-4.4359 3.0648,-7.3381 0,-2.8836 -1.0213,-5.3203 -3.0648,-7.3091 -2.0254,-1.9712 -4.5255,-2.956 -7.5016,-2.956 -3.0107,0 -5.5205,0.9771 -7.5266,2.9282 -2.0251,1.9712 -3.0396,4.4175 -3.0396,7.3369 0,2.9203 1.0038,5.3581 3.0116,7.31 2.0253,1.9715 4.5439,2.9563 7.5546,2.9563 2.9576,0 5.4666,-0.9664 7.5016,-2.9282 z m -29.5861,2.6818 0,-20.0389 -2.8196,0 0,15.3578 -6.4049,-7.9387 -6.4326,7.9387 0,-15.3578 -2.8199,0 0,20.0389 2.4635,0 6.789,-8.2936 6.7612,8.2936 2.4633,0 z m -20.702,0 0,-11.2518 c 0,-1.2946 -0.1921,-2.482 -0.5762,-3.5595 -0.3813,-1.0754 -0.9635,-2.0466 -1.7513,-2.9018 -1.5829,-1.7175 -3.6411,-2.5719 -6.1594,-2.5719 -2.4993,0 -4.5439,0.8303 -6.1308,2.4897 -1.5871,1.6617 -2.3813,3.7982 -2.3813,6.4074 l 0,11.3879 2.8196,0 0,-11.2787 c 0,-1.0213 0.1312,-1.9114 0.3965,-2.6694 0.2637,-0.7577 0.6546,-1.4074 1.1625,-1.9568 1.0242,-1.1103 2.4103,-1.6701 4.1613,-1.6701 1.7337,0 3.1025,0.5743 4.1057,1.7243 0.4921,0.5646 0.8716,1.2364 1.137,2.0126 0.2636,0.7753 0.3968,1.675 0.3968,2.6966 l 0,11.1415 2.8196,0 z m -18.947,-17.4651 0,-2.5738 -11.7981,0 0,20.0389 11.6059,0 0,-2.5735 -8.7863,0 0,-6.1044 8.5403,0 0,-2.5739 -8.5403,0 0,-6.2133 8.9785,0 z m -14.1891,0 0,-2.5738 -17.5195,0 -0.4113,1.2319 13.3038,16.2335 -12.5924,0 0,2.5735 16.8361,0 0.3561,-1.368 -13.305,-16.0971 13.3322,0 z m -18.953,17.4651 0,-11.2518 c 0,-1.2954 -0.1922,-2.4809 -0.5735,-3.5595 -0.3841,-1.0754 -0.9643,-2.0454 -1.7521,-2.9018 -1.5851,-1.7175 -3.6411,-2.5719 -6.1597,-2.5719 -2.501,0 -4.5445,0.8303 -6.1324,2.4897 -1.5871,1.6625 -2.3814,3.7982 -2.3814,6.4074 l 0,11.3879 2.8196,0 0,-11.2787 c 0,-1.0225 0.1332,-1.9114 0.3966,-2.6694 0.2656,-0.7577 0.6565,-1.4074 1.1653,-1.9568 1.023,-1.1103 2.4075,-1.6701 4.1596,-1.6701 1.7336,0 3.1042,0.5743 4.1074,1.7243 0.4912,0.5655 0.8705,1.2364 1.1341,2.0126 0.2653,0.7764 0.3977,1.675 0.3977,2.6966 l 0,11.1415 2.8188,0 z m -37.628,-26.8594 278.0833,0 0,-3.1637 -278.0833,0 0,3.1637 z m -73.2035,-25.4239 -0.0463,9.3742 0,0.0915 0.004,0.0434 0,0.005 c 0.0337,0.5338 0.106,1.0936 0.222,1.6787 0.11,0.557 0.2636,1.1256 0.4671,1.7002 l 0,0.006 c 1.0165,2.8865 3.2009,5.6506 7.1646,7.4982 l 0.6196,0.2877 0.6285,-0.2934 0.0598,-0.028 0.0059,0 c 0.7569,-0.3552 1.4468,-0.7464 2.0764,-1.1634 0.6389,-0.4246 1.2172,-0.8784 1.7345,-1.3524 2.6924,-2.4735 3.8112,-5.529 3.981,-8.3818 l 0,-0.0915 -0.0462,-9.3742 -2.9596,0.0125 0.0462,9.2871 c -0.1321,2.1742 -0.9817,4.5009 -3.0223,6.3717 -0.4065,0.3737 -0.8601,0.73 -1.3641,1.0659 -0.3523,0.2336 -0.7279,0.4558 -1.1304,0.6673 -2.7482,-1.4463 -4.2849,-3.4351 -5.008,-5.4885 l -8e-4,0 c -0.146,-0.4161 -0.2628,-0.8487 -0.3504,-1.2898 -0.0814,-0.4132 -0.1352,-0.8495 -0.1633,-1.2974 l 0,0 -0.002,-0.0292 0.0445,-9.2871 -2.9607,-0.0125 z" />
  </g>
</svg>
