<?xml version="1.0" encoding="UTF-8" standalone="no"?>
<svg
   xmlns:dc="http://purl.org/dc/elements/1.1/"
   xmlns:cc="http://creativecommons.org/ns#"
   xmlns:rdf="http://www.w3.org/1999/02/22-rdf-syntax-ns#"
   xmlns:svg="http://www.w3.org/2000/svg"
   xmlns="http://www.w3.org/2000/svg"
   id="svg8"
   version="1.1"
   viewBox="0 0 154.741 39.299999"
   height="39.299999mm"
   width="154.741mm">
  <defs
     id="defs2">
    <clipPath
       clipPathUnits="userSpaceOnUse"
       id="clipPath851">
      <path
         d="M 0,595.276 H 841.89 V 0 H 0 Z"
         id="path849" />
    </clipPath>
    <clipPath
       clipPathUnits="userSpaceOnUse"
       id="clipPath859">
      <path
         d="M 685.693,130.622 H 872.189 V -66.9684 H 685.693 Z"
         id="path857" />
    </clipPath>
    <clipPath
       clipPathUnits="userSpaceOnUse"
       id="clipPath863">
      <path
         d="M 686.693,-60.421 H 871.188 V 124.074 H 686.693 Z"
         id="path861" />
    </clipPath>
    <clipPath
       clipPathUnits="userSpaceOnUse"
       id="clipPath887">
      <path
         d="m 94.961,503.511 h 49.325 v 49.325 H 94.961 Z"
         id="path885" />
    </clipPath>
    <clipPath
       clipPathUnits="userSpaceOnUse"
       id="clipPath909">
      <path
         d="M 0,595.276 H 841.89 V 0 H 0 Z"
         id="path907" />
    </clipPath>
    <clipPath
       clipPathUnits="userSpaceOnUse"
       id="clipPath941">
      <path
         d="M 289.265,364.346 H 727.9 V 475.748 H 289.265 Z"
         id="path939" />
    </clipPath>
    <clipPath
       clipPathUnits="userSpaceOnUse"
       id="clipPath961">
      <path
         d="m 575.414,263.326 h 113.348 v 28.787 H 575.414 Z"
         id="path959" />
    </clipPath>
    <clipPath
       id="clipPath941-7"
       clipPathUnits="userSpaceOnUse">
      <path
         id="path939-1"
         d="M 289.265,364.346 H 727.9 V 475.748 H 289.265 Z" />
    </clipPath>
  </defs>
  <metadata
     id="metadata5">
    <rdf:RDF>
      <cc:Work
         rdf:about="">
        <dc:format>image/svg+xml</dc:format>
        <dc:type
           rdf:resource="http://purl.org/dc/dcmitype/StillImage" />
        <dc:title></dc:title>
      </cc:Work>
    </rdf:RDF>
  </metadata>
  <g
     id="g935"
     transform="matrix(0.35277777,0,0,-0.35277777,-102.0463,167.83332)">
    <g
       id="g937"
       clip-path="url(#clipPath941-7)">
      <g
         id="g943"
         transform="translate(340.8011,411.0251)">
        <path
           d="M 0,0 2.091,2.872 4.662,0 Z M 4.404,12.689 1.642,8.712 c -1.738,1.827 0,4.75 2.762,3.977 m 0.545,7.954 4.397,7.291 2.076,-7.306 z m -7.018,0.022 2.098,7.269 4.375,-7.284 z M 15.082,2.217 h -1.988 l 0.67,-2.276 -4.087,0.044 -5.406,6.106 C 5.869,8.351 6.805,9.67 7.43,10.553 8.226,9.869 9.088,8.778 9.964,7.489 l 2.887,3.3 -0.803,0.744 -0.964,-0.84 c -0.597,0.869 -1.164,1.665 -1.871,2.364 0.552,0.788 1.377,1.952 3.086,4.389 L 15.546,6.098 H 14.008 L 13.926,4.529 h 7.792 l -0.162,1.569 h -1.547 l -9.861,30.864 -5.464,-9.264 -5.84,9.234 -9.235,-30.768 h -1.665 l -0.331,-1.635 h 7.806 v 1.635 h -1.664 l 3.513,12.181 0.287,-2.622 h 1.414 L -1.009,17.292 7.733,17.24 6.194,15.156 C -0.287,17.498 -4.794,11.311 -0.472,5.671 L -7.04,-3.623 7.909,-3.616 c 4.559,-4.662 1.576,-10.752 -3.505,-11.003 -3.424,-0.25 -6.555,2.674 -6.385,5.59 l -0.037,1.274 -4.919,0.037 -0.023,-1.694 1.407,-0.037 c 0.427,-5.103 5.037,-8.903 9.714,-8.903 7.298,0 12.365,7.99 8.292,14.729 l 4.75,0.007 z"
           style="fill:#231f20;fill-opacity:1;fill-rule:evenodd;stroke:none"
           id="path945" />
      </g>
      <g
         id="g947"
         transform="translate(346.9641,456.1432)">
        <path
           d="M 0,0 7.025,-0.95 7.341,1.383 3.081,1.959 3.479,4.594 6.711,4.157 6.984,6.18 3.753,6.616 l 0.536,4.279 4.26,-0.576 0.317,2.336 -4.261,0.576 v 0.011 L 1.84,13.616 Z m -2.444,0.146 -9.68,-1.282 4.626,11.681 -5.458,-0.744 0.188,2.858 9.728,1.311 -4.705,-11.692 5.748,0.784 z m -13.704,-2.526 1.151,14.371 -3.067,-0.968 -0.437,-8.788 -6.675,5.794 -2.711,-1.725 11.161,-8.942 z m 28.663,-0.258 11.471,8.707 -2.767,1.643 -6.844,-5.529 -0.125,8.837 -3.094,0.872 0.767,-14.26 z m -43.652,7.279 1.854,-9.537 -9.288,2.853 -0.406,-0.366 9.274,-10.314 2.075,1.865 -3.397,3.778 5.125,-1.58 -1.028,5.264 3.396,-3.777 2.075,1.865 -9.273,10.314 z m 65.463,-6.551 -9.244,-2.992 1.712,9.565 -0.412,0.36 -9.119,-10.451 2.102,-1.837 3.34,3.829 -0.949,-5.279 5.101,1.658 -3.341,-3.829 2.103,-1.834 9.119,10.451 z m -74.305,-12.153 c 1.025,0.083 1.925,-0.682 2.008,-1.706 0.083,-1.027 -0.681,-1.927 -1.707,-2.01 -1.025,-0.082 -1.925,0.682 -2.008,1.707 -0.083,1.026 0.682,1.926 1.707,2.009 m 75.799,0 c 1.025,0.083 1.924,-0.682 2.008,-1.706 0.083,-1.027 -0.683,-1.927 -1.708,-2.01 -1.025,-0.082 -1.925,0.682 -2.007,1.707 -0.084,1.026 0.68,1.925 1.707,2.009 m 5.429,-8.293 c 0.643,0.149 1.674,0.383 2.385,0.245 1.725,-0.336 3.033,-1.78 3.359,-3.516 0.22,-1.172 -0.307,-2.949 -0.766,-3.476 l -2.331,0.723 c 0.458,0.333 0.802,1.652 0.771,2.113 -0.093,1.421 -1.348,1.771 -2.603,1.437 v -0.001 l -8.957,-2.188 -0.626,2.72 z m -92.889,-9.206 1.548,9.573 9.861,-7.787 0.853,5.441 2.607,-1.473 -1.461,-9.222 -9.848,7.864 -0.899,-5.729 z m 13.643,-7.164 -0.153,2.786 -13.72,-0.755 0.155,-2.786 z m 85.658,-0.123 0.013,7.089 -2.355,0.006 -0.008,-4.299 -2.472,0.007 0.006,3.261 -2.041,0.005 -0.007,-3.263 -4.502,0.009 0.009,4.298 -2.358,0.005 -0.009,-4.299 -0.01,10e-4 -0.007,-2.791 z m -13.925,-2.926 -0.515,-2.744 13.505,-2.534 0.515,2.743 z m -84.665,-2.998 1.547,-6.919 2.297,0.514 -0.937,4.195 2.431,0.544 0.713,-3.183 1.99,0.446 -0.712,3.182 4.376,0.979 0.938,-4.196 2.301,0.516 -0.937,4.194 0.01,0.003 -0.609,2.723 z m 88.596,-8.694 7.963,1.931 -1.228,-2.616 -5.65,-1.196 0.735,-1.276 3.075,-1.445 -1.186,-2.527 -12.437,5.84 1.185,2.526 5.884,-2.761 -4.044,6.678 1.228,2.617 z m -67.648,-5.42 -9.716,-0.044 4.534,8.593 -0.284,0.468 -11.861,-7.19 1.446,-2.387 4.345,2.634 -2.507,-4.741 5.363,0.031 -4.346,-2.635 1.448,-2.386 11.862,7.189 z m 27.983,53.803 c 17.117,0 31.013,-13.896 31.013,-31.013 0,-17.118 -13.896,-31.013 -31.013,-31.013 -17.117,0 -31.014,13.895 -31.014,31.013 0,17.117 13.897,31.013 31.014,31.013 m 0,2.978 c 18.76,0 33.992,-15.232 33.992,-33.991 0,-18.76 -15.232,-33.991 -33.992,-33.991 -18.76,0 -33.99,15.231 -33.99,33.991 0,18.759 15.231,33.991 33.99,33.991 m 31.021,-55.172 0.887,-2.274 c -0.544,0.15 -1.682,-0.481 -1.976,-0.837 -1.613,-1.951 -1.402,-4.27 0.734,-6.028 2.093,-1.721 4.317,-1.333 5.934,0.614 0.434,0.522 0.586,1.455 0.623,1.978 l 2.376,-0.285 c 0,0 0.094,-1.823 -0.939,-3.332 -2.146,-3.134 -6.207,-3.777 -9.586,-0.974 -3.589,2.979 -3.667,6.766 -1.247,9.569 0.779,0.903 2.497,1.597 3.194,1.569 m -54.985,-6.048 -1.944,2.004 -9.862,-9.566 1.943,-2.003 z m 2.448,-7.997 c 1.025,0.083 1.925,-0.682 2.008,-1.707 0.084,-1.026 -0.682,-1.926 -1.706,-2.009 -1.026,-0.083 -1.926,0.682 -2.009,1.707 -0.084,1.025 0.681,1.925 1.707,2.009 m 45.9,-8.445 5.887,3.948 -1.311,1.956 -3.57,-2.394 -1.393,1.981 2.708,1.818 -1.137,1.694 -2.709,-1.817 -2.492,3.812 3.571,2.394 -1.314,1.959 -3.57,-2.395 -0.006,0.01 -2.318,-1.555 z m -25.503,-1.653 3.54,0.035 -1.81,4.173 z m 11.002,7.74 c 2.393,0.641 4.354,-0.256 5.079,-2.827 0.741,-2.625 -0.3,-4.5 -2.669,-5.21 z m -22.167,-2.992 c -0.432,0.686 -0.832,1.419 -0.898,2.257 -0.174,2.208 1.496,3.85 3.55,3.875 1.888,0.023 3.578,-1.223 4.191,-2.91 l -2.104,-1.511 c 0,0.019 -0.002,0.038 -0.003,0.058 -0.063,0.811 -0.962,2.044 -2.055,2.126 -0.895,0.068 -1.258,-0.656 -1.154,-1.395 0.06,-0.432 0.79,-1.496 1.096,-1.876 l 1.605,-2.313 c 0.138,-0.194 0.274,-0.402 0.4,-0.61 0.325,-0.542 0.602,-1.145 0.654,-1.795 0.172,-2.207 -1.637,-4.045 -3.906,-4.058 -1.888,-0.011 -3.578,1.223 -4.191,2.911 -0.204,0.489 -0.352,0.989 -0.433,1.499 l 2.338,0.528 c 10e-4,-0.02 0.151,-0.584 0.157,-0.602 0.262,-0.868 0.943,-1.924 2.035,-2.007 0.895,-0.067 1.46,0.559 1.298,1.363 -0.088,0.44 -0.38,1.039 -0.795,1.664 z m 21.4,5.555 c 3.562,1.005 7.374,-0.022 8.686,-4.557 1.295,-4.48 -1.175,-7.606 -4.743,-8.602 l -2.672,-0.802 -3.945,13.16 2.654,0.797 z M 2.801,-85.609 c -0.23,-0.738 -0.166,-1.53 0.385,-2.06 l 0.058,-0.052 c -1.068,-0.108 -2.145,-0.188 -3.232,-0.23 -28.619,-1.109 -52.756,21.226 -53.865,49.845 -1.109,28.619 21.225,52.755 49.844,53.864 28.62,1.11 52.755,-21.225 53.865,-49.843 1.043,-26.905 -18.632,-49.843 -44.77,-53.419 l 0.155,0.551 c -0.324,-0.024 -0.851,0.138 -1.05,0.337 -0.326,0.328 -0.355,0.694 -0.255,1.019 l 1.483,0.018 -6.427,12.929 -0.862,0.01 -6.12,-13.089 3.128,0.036 0.948,2.22 5.181,0.056 0.997,-2.199 z M -1.998,19.605 c 30.743,0 55.702,-24.959 55.702,-55.701 0,-30.743 -24.959,-55.702 -55.702,-55.702 -30.742,0 -55.701,24.959 -55.701,55.702 0,30.742 24.959,55.701 55.701,55.701"
           style="fill:#231f20;fill-opacity:1;fill-rule:evenodd;stroke:none"
           id="path949" />
      </g>
      <g
         id="g951"
         transform="translate(625.0371,412.9002)">
        <path
           d="m 0,0 -1.356,3.694 h -6.422 l -1.305,-3.719 h -3.696 l 7.47,18.595 h 1.458 L 3.683,-0.025 H 3.108 c -0.179,0 -0.441,-0.176 -0.787,-0.526 -0.345,-0.35 -0.518,-0.793 -0.518,-1.327 0,-0.367 0.163,-0.675 0.486,-0.921 0.325,-0.246 0.696,-0.369 1.113,-0.369 0.443,0 0.845,0.163 1.202,0.488 L 5.436,-4.233 C 4.771,-4.717 3.91,-4.958 2.852,-4.958 c -1.04,0 -1.863,0.248 -2.469,0.745 -0.605,0.496 -0.908,1.141 -0.908,1.934 0,0.901 0.176,1.661 0.525,2.279 m -25.212,0.989 1.228,2.918 c 1.312,-0.902 2.605,-1.353 3.875,-1.353 1.953,0 2.929,0.669 2.929,2.004 0,0.626 -0.23,1.223 -0.69,1.791 -0.461,0.567 -1.409,1.204 -2.846,1.909 -1.438,0.706 -2.405,1.286 -2.904,1.741 -0.499,0.455 -0.883,0.996 -1.151,1.621 -0.269,0.626 -0.403,1.319 -0.403,2.079 0,1.419 0.531,2.596 1.592,3.532 1.062,0.935 2.424,1.402 4.087,1.402 2.167,0 3.756,-0.397 4.771,-1.19 l -1.011,-2.805 c -1.167,0.819 -2.4,1.227 -3.696,1.227 -0.767,0 -1.362,-0.198 -1.784,-0.594 -0.422,-0.397 -0.634,-0.912 -0.634,-1.547 0,-1.052 1.19,-2.145 3.569,-3.281 1.254,-0.601 2.158,-1.154 2.712,-1.659 0.554,-0.505 0.977,-1.093 1.267,-1.766 0.29,-0.671 0.434,-1.421 0.434,-2.247 0,-1.486 -0.598,-2.709 -1.796,-3.669 -1.199,-0.96 -2.804,-1.44 -4.816,-1.44 -1.749,0 -3.326,0.443 -4.733,1.327 M -189.157,18.32 h 3.326 V 5.885 c 0,-0.985 0.307,-1.786 0.921,-2.404 0.614,-0.618 1.458,-0.927 2.533,-0.927 1.202,0 2.138,0.303 2.808,0.909 0.669,0.605 1.003,1.433 1.003,2.485 V 18.32 h 3.327 V 5.698 c 0,-1.887 -0.647,-3.364 -1.939,-4.433 -1.292,-1.069 -3.016,-1.603 -5.174,-1.603 -2.175,0 -3.852,0.522 -5.033,1.566 -1.182,1.043 -1.772,2.537 -1.772,4.482 z M 50.245,17.343 48.877,14.651 c -0.742,0.726 -1.937,1.089 -3.582,1.089 -1.561,0 -2.84,-0.64 -3.838,-1.921 -0.998,-1.282 -1.496,-2.904 -1.496,-4.866 0,-1.962 0.462,-3.518 1.388,-4.671 0.925,-1.152 2.159,-1.728 3.702,-1.728 1.766,0 3.147,0.618 4.146,1.854 l 1.548,-2.63 c -1.357,-1.411 -3.344,-2.116 -5.962,-2.116 -2.617,0 -4.652,0.843 -6.102,2.529 -1.449,1.687 -2.174,3.986 -2.174,6.9 0,2.713 0.803,4.982 2.41,6.806 1.608,1.823 3.666,2.736 6.173,2.736 2.149,0 3.867,-0.43 5.155,-1.29 m -192.073,0.977 h 3.326 V 5.885 c 0,-0.985 0.307,-1.786 0.921,-2.404 0.613,-0.618 1.458,-0.927 2.533,-0.927 1.202,0 2.138,0.303 2.807,0.909 0.67,0.605 1.004,1.433 1.004,2.485 V 18.32 h 3.326 V 5.698 c 0,-1.887 -0.646,-3.364 -1.937,-4.433 -1.292,-1.069 -3.017,-1.603 -5.175,-1.603 -2.175,0 -3.852,0.522 -5.033,1.566 -1.181,1.043 -1.772,2.537 -1.772,4.482 z M 90.85,4.22 h 2.968 c 0.281,-1.069 1.194,-1.603 2.738,-1.603 1.091,0 1.861,0.347 2.309,1.039 0.448,0.694 0.671,1.745 0.671,3.156 V 18.32 h 3.327 V 6.912 c 0,-2.438 -0.529,-4.245 -1.587,-5.422 -1.057,-1.177 -2.754,-1.766 -5.091,-1.766 -1.552,0 -2.806,0.397 -3.761,1.19 C 91.469,1.707 90.945,2.809 90.85,4.22 M -106.6,-0.037 h -3.224 l -1.944,9.892 -3.773,-10.131 h -1.19 l -3.773,10.131 -2.022,-9.892 h -3.211 l 3.774,18.357 h 1.766 l 4.055,-12.359 3.965,12.359 h 1.752 z m 65.052,0 h -3.223 l -1.944,9.892 -3.774,-10.131 h -1.189 l -3.774,10.131 -2.021,-9.892 h -3.211 l 3.773,18.357 h 1.766 l 4.055,-12.359 3.965,12.359 h 1.753 z m -149.656,0 h -3.223 l -1.944,9.892 -3.774,-10.131 h -1.19 l -3.772,10.131 -2.022,-9.892 h -3.211 l 3.773,18.357 h 1.766 l 4.055,-12.359 3.965,12.359 h 1.753 z m 272.94,15.465 v -4.299 h 6.191 V 8.362 H 81.736 V 2.867 h 8.493 V -0.025 H 78.41 V 18.32 h 11.959 v -2.892 z m -235.141,0 0.041,-4.299 h 6.191 V 8.362 h -6.191 l -0.041,-5.495 h 8.494 V -0.025 H -156.73 V 18.32 h 11.96 v -2.892 z m 82.808,0 v -4.299 h 6.191 V 8.257 l -6.191,0.105 V 2.867 h 8.493 V -0.025 H -73.923 V 18.32 h 11.96 V 15.428 Z M -172.298,-0.025 v 1.052 l 7.816,14.401 h -7.688 v 2.892 h 12.217 v -1.052 l -7.842,-14.401 h 8.123 v -2.892 z m 182.122,0 H 5.667 v 18.332 c 2.652,0.092 4.318,0.138 5.001,0.138 2.729,0 4.893,-0.783 6.492,-2.348 1.598,-1.565 2.398,-3.642 2.398,-6.229 0,-6.596 -3.245,-9.893 -9.734,-9.893 m 54.237,0 -5.22,7.814 -2.085,-2.793 V -0.025 H 53.431 V 18.32 h 3.325 V 9.542 l 6.371,8.778 h 3.785 l -5.87,-8.015 6.996,-10.33 z m -160.842,0 v 1.052 l 7.815,14.401 h -7.688 v 2.892 h 12.216 V 17.268 L -92.279,2.867 h 8.123 v -2.892 z m 15.631,0 h 3.326 V 18.32 h -3.326 z m 41.713,0 h 3.326 V 18.32 h -3.326 z m 109.86,0 h 3.326 V 18.32 H 70.423 Z M 25.826,15.428 v -4.299 h 6.191 V 8.362 H 25.826 V 2.867 h 8.493 V -0.025 H 22.5 V 18.32 H 34.46 V 15.428 Z M 8.993,15.465 V 2.942 c 0.536,-0.049 1.116,-0.075 1.738,-0.075 1.68,0 2.997,0.597 3.947,1.792 0.95,1.193 1.426,2.863 1.426,5.008 0,3.924 -1.863,5.886 -5.589,5.886 -0.358,0 -0.866,-0.029 -1.522,-0.088 M -4.58,12.96 -6.831,6.186 h 4.503 z"
           style="fill:#000000;fill-opacity:1;fill-rule:evenodd;stroke:none"
           id="path953" />
      </g>
    </g>
  </g>
</svg>
