<?xml version="1.0" encoding="UTF-8" standalone="no"?>
<svg
   xmlns:dc="http://purl.org/dc/elements/1.1/"
   xmlns:cc="http://creativecommons.org/ns#"
   xmlns:rdf="http://www.w3.org/1999/02/22-rdf-syntax-ns#"
   xmlns:svg="http://www.w3.org/2000/svg"
   xmlns="http://www.w3.org/2000/svg"
   id="svg1288"
   version="1.1"
   viewBox="0 0 155.12494 39.39752"
   height="148.90401"
   width="586.29901">
  <defs
     id="defs1282">
    <clipPath
       id="clipPath957"
       clipPathUnits="userSpaceOnUse">
      <path
         id="path955"
         d="M 289.265,150.717 H 727.9 V 262.119 H 289.265 Z" />
    </clipPath>
    <clipPath
       id="clipPath999"
       clipPathUnits="userSpaceOnUse">
      <path
         id="path997"
         d="M 287.03,166.169 H 726.754 V 277.847 H 287.03 Z" />
    </clipPath>
    <clipPath
       clipPathUnits="userSpaceOnUse"
       id="clipPath999-8">
      <path
         d="M 287.03,166.169 H 726.754 V 277.847 H 287.03 Z"
         id="path997-2" />
    </clipPath>
  </defs>
  <metadata
     id="metadata1285">
    <rdf:RDF>
      <cc:Work
         rdf:about="">
        <dc:format>image/svg+xml</dc:format>
        <dc:type
           rdf:resource="http://purl.org/dc/dcmitype/StillImage" />
        <dc:title></dc:title>
      </cc:Work>
    </rdf:RDF>
  </metadata>
  <g
     id="layer1" />
  <g
     transform="matrix(0.3527783,0,0,-0.35277777,-101.25795,98.018245)"
     id="g993">
    <g
       clip-path="url(#clipPath999-8)"
       id="g995">
      <g
         transform="translate(338.6935,212.9639)"
         id="g1001">
        <path
           id="path1003"
           style="fill:#ffffff;fill-opacity:1;fill-rule:evenodd;stroke:none"
           d="M 0,0 2.096,2.879 4.673,0 Z M 4.415,12.721 1.646,8.734 c -1.742,1.831 0,4.762 2.769,3.987 m 0.546,7.973 4.408,7.309 2.082,-7.324 z m -7.036,0.022 2.104,7.287 4.386,-7.301 z M 15.12,2.222 H 13.126 L 13.798,-0.059 9.701,-0.015 4.282,6.106 C 5.884,8.372 6.822,9.694 7.449,10.579 8.246,9.893 9.11,8.8 9.989,7.508 l 2.894,3.307 -0.805,0.747 -0.967,-0.842 c -0.598,0.871 -1.167,1.669 -1.876,2.37 0.554,0.789 1.382,1.956 3.094,4.4 L 15.585,6.113 H 14.042 L 13.961,4.54 h 7.81 l -0.162,1.573 h -1.55 L 10.173,37.054 4.696,27.767 -1.159,37.024 -10.417,6.18 h -1.669 l -0.332,-1.64 h 7.825 v 1.64 h -1.668 l 3.522,12.21 0.288,-2.628 h 1.418 l 0.021,1.573 8.764,-0.052 -1.543,-2.089 C -0.288,17.542 -4.806,11.34 -0.473,5.685 l -6.585,-9.317 14.987,0.007 c 4.57,-4.673 1.58,-10.779 -3.514,-11.03 -3.433,-0.251 -6.571,2.68 -6.401,5.604 l -0.037,1.277 -4.931,0.037 -0.023,-1.698 1.41,-0.037 c 0.429,-5.116 5.05,-8.926 9.738,-8.926 7.317,0 12.396,8.01 8.313,14.766 l 4.762,0.007 z" />
      </g>
      <g
         transform="translate(344.8717,258.1941)"
         id="g1005">
        <path
           id="path1007"
           style="fill:#ffffff;fill-opacity:1;fill-rule:evenodd;stroke:none"
           d="M 0,0 7.043,-0.953 7.36,1.387 3.089,1.964 3.488,4.605 6.728,4.167 7.002,6.195 3.763,6.632 4.3,10.922 8.57,10.344 8.888,12.687 4.617,13.263 v 0.011 L 1.845,13.65 Z m -2.45,0.147 -9.704,-1.286 4.638,11.71 -5.472,-0.745 0.189,2.864 9.752,1.314 -4.717,-11.721 5.762,0.786 z m -13.738,-2.533 1.153,14.406 -3.074,-0.97 -0.438,-8.809 -6.691,5.808 -2.718,-1.73 11.189,-8.964 z m 28.734,-0.259 11.5,8.729 -2.775,1.648 -6.86,-5.543 -0.126,8.859 -3.101,0.873 0.768,-14.295 z m -43.76,7.297 1.858,-9.561 -9.31,2.861 -0.408,-0.367 9.298,-10.34 2.08,1.87 -3.406,3.788 5.138,-1.584 -1.03,5.276 3.403,-3.786 2.081,1.87 -9.297,10.34 z m 65.626,-6.567 -9.268,-2.999 1.717,9.589 -0.414,0.36 -9.141,-10.477 2.108,-1.841 3.347,3.839 -0.951,-5.292 5.114,1.661 -3.35,-3.838 2.109,-1.839 9.142,10.477 z m -74.491,-12.183 c 1.028,0.083 1.931,-0.683 2.014,-1.711 0.083,-1.029 -0.683,-1.931 -1.712,-2.014 -1.028,-0.083 -1.93,0.684 -2.013,1.711 -0.083,1.029 0.684,1.931 1.711,2.014 m 75.988,0 c 1.028,0.083 1.929,-0.683 2.013,-1.711 0.083,-1.029 -0.684,-1.931 -1.712,-2.014 -1.027,-0.083 -1.93,0.684 -2.013,1.711 -0.084,1.029 0.683,1.93 1.712,2.014 m 5.443,-8.313 c 0.644,0.149 1.678,0.383 2.391,0.245 1.729,-0.337 3.04,-1.784 3.367,-3.525 0.22,-1.175 -0.308,-2.956 -0.768,-3.484 l -2.337,0.725 c 0.459,0.334 0.804,1.656 0.773,2.118 -0.093,1.424 -1.351,1.775 -2.609,1.44 v -0.001 l -8.979,-2.193 -0.628,2.727 z m -93.12,-9.23 1.552,9.598 9.885,-7.807 0.856,5.455 2.613,-1.477 -1.465,-9.245 -9.872,7.883 -0.902,-5.743 z m 13.677,-7.181 -0.154,2.793 -13.754,-0.757 0.155,-2.793 z m 85.87,-0.123 0.013,7.106 -2.36,0.006 -0.008,-4.31 -2.479,0.007 0.006,3.269 -2.045,0.005 -0.007,-3.27 -4.514,0.008 0.009,4.309 -2.364,0.005 -0.009,-4.31 -0.01,10e-4 -0.006,-2.797 z m -13.959,-2.933 -0.516,-2.751 13.538,-2.541 0.516,2.75 z m -84.876,-3.006 1.551,-6.936 2.304,0.515 -0.941,4.205 2.438,0.546 0.715,-3.191 1.995,0.446 -0.714,3.191 4.386,0.981 0.941,-4.206 2.306,0.517 -0.939,4.205 0.01,0.002 -0.61,2.731 z m 88.817,-8.716 7.982,1.936 -1.231,-2.622 -5.664,-1.2 0.737,-1.279 3.083,-1.448 -1.189,-2.533 -12.468,5.854 1.188,2.532 5.898,-2.768 -4.053,6.695 1.23,2.624 z m -67.816,-5.433 -9.74,-0.045 4.545,8.615 -0.285,0.469 -11.891,-7.208 1.45,-2.393 4.356,2.641 -2.513,-4.753 5.376,0.031 -4.357,-2.641 1.451,-2.393 11.892,7.208 z m 28.052,53.937 c 17.159,0 31.09,-13.931 31.09,-31.09 0,-17.161 -13.931,-31.091 -31.09,-31.091 -17.16,0 -31.091,13.93 -31.091,31.091 0,17.159 13.931,31.09 31.091,31.09 m 0,2.985 c 18.806,0 34.076,-15.27 34.076,-34.075 0,-18.807 -15.269,-34.076 -34.076,-34.076 -18.807,0 -34.075,15.268 -34.075,34.076 0,18.805 15.269,34.075 34.075,34.075 m 31.098,-55.31 0.889,-2.278 c -0.545,0.149 -1.686,-0.483 -1.981,-0.84 -1.616,-1.956 -1.405,-4.281 0.736,-6.043 2.098,-1.725 4.328,-1.336 5.949,0.615 0.436,0.524 0.587,1.459 0.625,1.983 l 2.381,-0.285 c 0,0 0.095,-1.828 -0.941,-3.341 -2.151,-3.141 -6.222,-3.786 -9.609,-0.976 -3.599,2.987 -3.677,6.782 -1.251,9.593 0.782,0.905 2.503,1.601 3.202,1.572 m -55.121,-6.062 -1.949,2.009 -9.887,-9.59 1.948,-2.009 z m 2.453,-8.017 c 1.028,0.083 1.93,-0.684 2.013,-1.711 0.084,-1.029 -0.683,-1.931 -1.71,-2.015 -1.028,-0.083 -1.931,0.685 -2.013,1.712 -0.085,1.028 0.682,1.93 1.71,2.014 m 46.015,-8.466 5.901,3.958 -1.314,1.96 -3.579,-2.4 -1.397,1.986 2.715,1.823 -1.139,1.699 -2.716,-1.822 -2.499,3.821 3.58,2.4 -1.316,1.964 -3.58,-2.401 -0.006,0.01 -2.323,-1.559 z m -25.566,-1.657 3.548,0.035 -1.815,4.183 z m 11.029,7.759 c 2.399,0.642 4.364,-0.257 5.091,-2.834 0.744,-2.632 -0.301,-4.511 -2.676,-5.223 z m -22.223,-3 c -0.432,0.688 -0.834,1.423 -0.9,2.264 -0.174,2.212 1.5,3.858 3.559,3.884 1.893,0.023 3.587,-1.226 4.202,-2.917 l -2.109,-1.516 c -10e-4,0.02 -0.003,0.039 -0.004,0.059 -0.063,0.813 -0.964,2.049 -2.06,2.132 -0.897,0.067 -1.261,-0.659 -1.157,-1.399 0.06,-0.434 0.792,-1.499 1.099,-1.881 l 1.609,-2.318 c 0.139,-0.195 0.275,-0.404 0.401,-0.612 0.326,-0.544 0.604,-1.148 0.655,-1.8 0.173,-2.212 -1.64,-4.054 -3.915,-4.068 -1.892,-0.01 -3.587,1.226 -4.201,2.918 -0.205,0.491 -0.354,0.992 -0.434,1.503 l 2.344,0.529 c 0,-0.019 0.151,-0.585 0.156,-0.603 0.264,-0.871 0.946,-1.929 2.041,-2.012 0.897,-0.067 1.463,0.56 1.301,1.367 -0.088,0.441 -0.381,1.041 -0.797,1.667 z m 21.453,5.57 c 3.572,1.007 7.393,-0.023 8.708,-4.569 1.299,-4.491 -1.177,-7.625 -4.754,-8.624 l -2.68,-0.803 -3.954,13.192 2.661,0.799 z M 2.808,-85.822 c -0.231,-0.739 -0.167,-1.533 0.386,-2.065 l 0.058,-0.052 c -1.071,-0.108 -2.15,-0.188 -3.24,-0.23 -28.69,-1.112 -52.887,21.278 -53.999,49.968 -1.111,28.691 21.278,52.886 49.968,53.998 C 24.672,16.91 48.867,-5.481 49.98,-34.17 51.025,-61.141 31.301,-84.136 5.099,-87.721 l 0.155,0.552 c -0.324,-0.024 -0.853,0.138 -1.053,0.338 -0.327,0.329 -0.355,0.695 -0.255,1.021 l 1.487,0.018 -6.443,12.962 -0.865,0.01 -6.135,-13.122 3.136,0.036 0.95,2.226 5.194,0.056 0.999,-2.205 z M -2.003,19.653 c 30.82,0 55.841,-25.02 55.841,-55.839 0,-30.819 -25.021,-55.84 -55.841,-55.84 -30.818,0 -55.839,25.021 -55.839,55.84 0,30.819 25.021,55.839 55.839,55.839" />
      </g>
      <g
         transform="translate(623.6356,214.8436)"
         id="g1009">
        <path
           id="path1011"
           style="fill:#ffffff;fill-opacity:1;fill-rule:evenodd;stroke:none"
           d="m 0,0 -1.36,3.704 h -6.437 l -1.308,-3.729 h -3.706 l 7.489,18.641 H -3.86 L 3.693,-0.025 H 3.116 c -0.18,0 -0.442,-0.176 -0.789,-0.527 -0.346,-0.352 -0.52,-0.795 -0.52,-1.331 0,-0.368 0.164,-0.676 0.488,-0.923 0.325,-0.247 0.697,-0.37 1.116,-0.37 0.444,0 0.846,0.164 1.205,0.49 L 5.45,-4.243 C 4.783,-4.728 3.92,-4.971 2.86,-4.971 c -1.043,0 -1.869,0.249 -2.476,0.747 -0.606,0.498 -0.91,1.145 -0.91,1.939 0,0.904 0.176,1.665 0.526,2.285 m -25.275,0.991 1.231,2.925 c 1.316,-0.904 2.612,-1.355 3.885,-1.355 1.958,0 2.937,0.67 2.937,2.008 0,0.628 -0.231,1.226 -0.692,1.795 -0.462,0.569 -1.413,1.208 -2.854,1.915 -1.441,0.707 -2.41,1.289 -2.91,1.745 -0.501,0.456 -0.886,0.998 -1.155,1.625 -0.269,0.628 -0.404,1.323 -0.404,2.084 0,1.423 0.533,2.603 1.597,3.541 1.064,0.937 2.43,1.405 4.097,1.405 2.171,0 3.765,-0.397 4.783,-1.193 l -1.014,-2.812 c -1.17,0.821 -2.406,1.231 -3.706,1.231 -0.768,0 -1.365,-0.199 -1.788,-0.596 -0.423,-0.398 -0.635,-0.914 -0.635,-1.551 0,-1.054 1.193,-2.151 3.578,-3.289 1.257,-0.602 2.163,-1.157 2.718,-1.663 0.556,-0.506 0.979,-1.096 1.27,-1.77 0.291,-0.673 0.436,-1.425 0.436,-2.253 0,-1.489 -0.6,-2.716 -1.801,-3.678 -1.202,-0.963 -2.811,-1.444 -4.828,-1.444 -1.753,0 -3.334,0.444 -4.745,1.33 m -164.352,17.374 h 3.334 V 5.9 c 0,-0.988 0.308,-1.791 0.923,-2.41 0.616,-0.62 1.462,-0.929 2.54,-0.929 1.205,0 2.143,0.303 2.815,0.91 0.67,0.607 1.006,1.438 1.006,2.492 v 12.402 h 3.335 V 5.712 c 0,-1.891 -0.649,-3.373 -1.944,-4.444 -1.295,-1.072 -3.024,-1.607 -5.187,-1.607 -2.18,0 -3.862,0.523 -5.045,1.57 -1.185,1.045 -1.777,2.543 -1.777,4.494 z M 50.37,17.386 48.998,14.687 c -0.744,0.728 -1.941,1.092 -3.591,1.092 -1.564,0 -2.847,-0.642 -3.847,-1.926 -1,-1.285 -1.5,-2.911 -1.5,-4.878 0,-1.966 0.463,-3.527 1.391,-4.681 0.928,-1.156 2.165,-1.733 3.712,-1.733 1.77,0 3.155,0.619 4.156,1.858 l 1.552,-2.636 c -1.361,-1.415 -3.352,-2.122 -5.977,-2.122 -2.624,0 -4.663,0.845 -6.117,2.535 -1.452,1.692 -2.179,3.997 -2.179,6.918 0,2.719 0.805,4.993 2.416,6.823 1.612,1.827 3.675,2.742 6.188,2.742 2.155,0 3.877,-0.431 5.168,-1.293 m -192.55,0.979 h 3.334 V 5.9 c 0,-0.988 0.308,-1.791 0.923,-2.41 0.615,-0.62 1.462,-0.929 2.539,-0.929 1.205,0 2.144,0.303 2.815,0.91 0.671,0.607 1.006,1.438 1.006,2.492 v 12.402 h 3.335 V 5.712 c 0,-1.891 -0.648,-3.373 -1.943,-4.444 -1.295,-1.072 -3.024,-1.607 -5.187,-1.607 -2.18,0 -3.862,0.523 -5.046,1.57 -1.184,1.045 -1.776,2.543 -1.776,4.494 z M 91.076,4.231 h 2.975 c 0.282,-1.072 1.197,-1.607 2.745,-1.607 1.094,0 1.866,0.347 2.314,1.041 0.449,0.695 0.674,1.75 0.674,3.164 v 11.536 h 3.334 V 6.93 c 0,-2.445 -0.53,-4.256 -1.591,-5.436 -1.059,-1.18 -2.761,-1.77 -5.103,-1.77 -1.556,0 -2.813,0.397 -3.77,1.192 -0.958,0.795 -1.483,1.9 -1.578,3.315 m -197.94,-4.268 h -3.233 l -1.949,9.916 -3.782,-10.155 h -1.193 l -3.782,10.155 -2.027,-9.916 h -3.219 l 3.783,18.402 h 1.77 l 4.065,-12.39 3.976,12.39 h 1.756 z m 65.213,0 h -3.231 l -1.949,9.916 -3.784,-10.155 h -1.191 l -3.784,10.155 -2.026,-9.916 h -3.219 l 3.783,18.402 h 1.77 l 4.065,-12.39 3.975,12.39 h 1.757 z m -150.028,0 h -3.231 l -1.949,9.916 -3.783,-10.155 h -1.193 l -3.782,10.155 -2.026,-9.916 h -3.219 l 3.782,18.402 h 1.77 l 4.065,-12.39 3.975,12.39 h 1.757 z M 81.939,15.466 v -4.309 h 6.206 V 8.383 H 81.939 V 2.874 h 8.514 V -0.025 H 78.605 v 18.39 h 11.989 v -2.899 z m -235.725,0 0.041,-4.309 h 6.206 V 8.383 h -6.206 l -0.041,-5.509 h 8.515 v -2.899 h -11.849 v 18.39 h 11.991 v -2.899 z m 83.014,0 v -4.309 h 6.206 v -2.88 l -6.206,0.106 V 2.874 h 8.514 v -2.899 h -11.849 v 18.39 h 11.99 V 15.466 Z M -172.726,-0.025 V 1.03 l 7.835,14.436 h -7.707 v 2.899 h 12.248 v -1.054 l -7.862,-14.437 h 8.144 v -2.899 z m 182.574,0 H 5.681 v 18.378 c 2.658,0.092 4.329,0.138 5.013,0.138 2.736,0 4.906,-0.785 6.508,-2.354 1.603,-1.569 2.405,-3.651 2.405,-6.245 0,-6.612 -3.253,-9.917 -9.759,-9.917 m 54.372,0 -5.233,7.833 -2.09,-2.799 v -5.034 h -3.334 v 18.39 h 3.334 v -8.8 l 6.386,8.8 h 3.796 l -5.886,-8.034 7.014,-10.356 z m -161.242,0 V 1.03 l 7.835,14.436 h -7.707 v 2.899 h 12.247 V 17.311 L -92.509,2.874 h 8.144 v -2.899 z m 15.671,0 h 3.334 v 18.39 h -3.334 z m 41.816,0 h 3.334 v 18.39 h -3.334 z m 110.133,0 h 3.334 v 18.39 H 70.598 Z M 25.89,15.466 v -4.309 h 6.207 V 8.383 H 25.89 V 2.874 h 8.515 V -0.025 H 22.556 v 18.39 h 11.99 V 15.466 Z M 9.015,15.503 V 2.95 c 0.538,-0.05 1.12,-0.076 1.743,-0.076 1.684,0 3.004,0.599 3.957,1.796 0.952,1.197 1.429,2.871 1.429,5.021 0,3.934 -1.867,5.9 -5.603,5.9 -0.359,0 -0.868,-0.028 -1.526,-0.088 M -4.591,12.993 -6.848,6.201 h 4.514 z" />
      </g>
    </g>
  </g>
</svg>
