<?xml version="1.0" encoding="UTF-8" standalone="no"?>
<!-- Created with Inkscape (http://www.inkscape.org/) -->

<svg
   xmlns:dc="http://purl.org/dc/elements/1.1/"
   xmlns:cc="http://creativecommons.org/ns#"
   xmlns:rdf="http://www.w3.org/1999/02/22-rdf-syntax-ns#"
   xmlns:svg="http://www.w3.org/2000/svg"
   xmlns="http://www.w3.org/2000/svg"
   xmlns:sodipodi="http://sodipodi.sourceforge.net/DTD/sodipodi-0.dtd"
   xmlns:inkscape="http://www.inkscape.org/namespaces/inkscape"
   width="50.034542mm"
   height="54.777401mm"
   viewBox="0 0 177.28775 194.09315"
   id="svg5733"
   version="1.1"
   inkscape:version="0.91 r13725"
   sodipodi:docname="ns.svg">
  <defs
     id="defs5735" />
  <sodipodi:namedview
     id="base"
     pagecolor="#ffffff"
     bordercolor="#666666"
     borderopacity="1.0"
     inkscape:pageopacity="0.0"
     inkscape:pageshadow="2"
     inkscape:zoom="0.98994949"
     inkscape:cx="-251.63137"
     inkscape:cy="89.448347"
     inkscape:document-units="px"
     inkscape:current-layer="svg5733"
     showgrid="false"
     fit-margin-top="0"
     fit-margin-left="0"
     fit-margin-right="0"
     fit-margin-bottom="0"
     inkscape:window-width="2560"
     inkscape:window-height="1017"
     inkscape:window-x="-8"
     inkscape:window-y="-8"
     inkscape:window-maximized="1" />
  <metadata
     id="metadata5738">
    <rdf:RDF>
      <cc:Work
         rdf:about="">
        <dc:format>image/svg+xml</dc:format>
        <dc:type
           rdf:resource="http://purl.org/dc/dcmitype/StillImage" />
        <dc:title></dc:title>
      </cc:Work>
    </rdf:RDF>
  </metadata>
  <g
     id="g4827"
     transform="matrix(1.25,0,0,-1.25,-83.235314,439.96801)">
    <path
       d="m 208.3918,267.6186 -0.004,84.3262 -141.768,0 -0.0054,-84.3262 c 0,-39.151 31.7381,-70.8891 70.8882,-70.8891 39.1519,0 70.8897,31.7381 70.8897,70.8891"
       style="fill:#35312f;fill-opacity:1;fill-rule:nonzero;stroke:none"
       id="path4829"
       inkscape:connector-curvature="0" />
    <path
       d="m 207.6894,267.7623 -0.005,83.4903 -140.3631,0 -0.0052,-83.4903 c 0,-38.764 31.4241,-70.1883 70.1864,-70.1883 38.7647,0 70.1873,31.4243 70.1873,70.1883"
       style="fill:#007ec5;fill-opacity:1;fill-rule:nonzero;stroke:none"
       id="path4831"
       inkscape:connector-curvature="0" />
    <path
       d="m 131.7759,205.1796 c -0.1052,0 -0.2075,0.007 -0.3033,0.0235 -1.1067,0.1914 -1.605,0.9306 -1.9854,1.6087 -0.1846,0.3248 -0.2645,0.6361 -0.2764,1.072 -0.0419,1.4494 0.6973,2.9869 1.3161,4.2424 -1.2838,-0.2342 -5.015,-1.628 -5.1341,-2.0807 0,-0.3909 0.2228,-0.7492 0.6837,-1.0862 0.1605,-0.1159 0.2192,-0.1437 0.4221,-0.1905 l 0.2475,-0.0558 -0.1435,-0.2101 c -0.3452,-0.5057 -0.9246,-0.7852 -1.6276,-0.7852 -0.7492,0 -1.5769,0.3178 -2.0622,0.7875 -1.1188,1.0811 -1.1064,2.4829 -0.7552,3.3571 0.3124,0.7778 1.9897,2.1367 5.0466,3.4741 -0.9454,0.3481 -3.2681,0.8938 -4.3096,0.8938 -0.0867,0 -0.1627,-0.003 -0.2253,-0.0139 l -0.1273,-0.0159 c -0.2336,-0.0312 -0.2336,-0.0312 -0.5238,-0.1709 -0.1009,-0.0513 -0.2923,-0.1488 -0.3317,-0.2676 -0.1723,-0.5338 -0.0921,-1.1506 0.2404,-1.8343 0.0439,-0.0913 0.1522,-0.1965 0.2415,-0.2364 l 0.2772,-0.1213 -0.2457,-0.1781 c -0.1755,-0.1269 -0.4125,-0.1916 -0.7056,-0.1916 -0.2956,0 -0.5703,0.0675 -0.7086,0.1052 -1.2989,0.3631 -2.1393,1.5571 -2.0903,2.9724 0.0454,1.2455 1.1421,3.1683 3.4376,3.5518 0.6854,0.1131 1.3745,0.1775 1.9924,0.1857 l 0.1608,0.001 c 1.2243,0 2.7391,-0.2049 4.5054,-0.6134 0.4464,-0.1018 0.8747,-0.2092 1.2824,-0.3118 0.9547,-0.2407 1.7781,-0.4493 2.5027,-0.512 0.231,-0.0204 0.4643,-0.03 0.697,-0.03 0.8235,0 1.9828,0.131 2.8372,0.7461 0.5088,0.5221 1.0959,1.1248 1.2322,1.5296 -0.4283,0.1216 -1.101,0.2568 -1.6058,0.3588 -0.2636,0.0536 -0.4856,0.0984 -0.6103,0.129 l -0.1426,0.0408 c -1.3343,0.3872 -2.6359,0.743 -3.8676,1.0528 -2.8777,0.7274 -5.0584,1.1455 -6.482,1.2421 -3.3162,0.224 -6.4953,0.3674 -9.7211,0.4366 -0.7617,-0.6174 -1.0701,-3.3095 0.0618,-5.9213 l 0.0941,-0.2154 -0.2336,-0.0264 c 0,0 -0.214,-0.0238 -0.4708,-0.0238 -0.2747,0 -0.4946,0.0275 -0.6548,0.0805 -0.4289,0.0357 -2.0565,0.6117 -3.1626,2.0667 -0.9133,1.2022 -1.2402,2.6731 -0.9749,4.3773 l -0.8416,0.1437 -0.9632,0.1621 c -0.0952,-0.0153 -0.466,-0.3605 -0.8396,-1.0785 -0.6432,-1.2297 -1.0491,-3.0564 -0.2659,-4.4893 l 0.1074,-0.1967 -0.2168,-0.0533 c -0.0921,-0.0244 -0.1939,-0.0354 -0.3042,-0.0354 -0.4178,0 -0.8985,0.1664 -1.1695,0.3209 -2.5036,1.4346 -3.314,3.5642 -2.5524,6.705 0.0947,0.383 0.2404,0.7855 0.3221,0.995 -0.0397,0.0408 -0.0769,0.0777 -0.1109,0.1125 -0.1635,0.167 -0.2622,0.2679 -0.5592,0.3714 -0.237,0.087 -0.4794,0.1281 -0.7192,0.1281 -1.8771,0 -3.3253,-2.5537 -3.3588,-3.6383 -0.0062,-0.1851 -0.1272,-0.267 -0.244,-0.267 -0.1075,0 -0.1999,0.0646 -0.2452,0.1052 -0.3997,0.3407 -1.0806,1.4516 -1.2974,1.9221 -0.9162,1.9885 -0.2679,4.1381 1.872,6.2218 -0.1353,0.2835 -0.6427,1.0242 -0.851,1.1747 -0.3421,0.244 -0.7143,0.3682 -1.1044,0.3682 -1.3085,0 -2.6722,-1.3791 -3.344,-2.7408 l -0.0706,-0.1409 -0.1477,0.057 c -0.4799,0.1825 -0.8132,2.2592 -0.8206,2.5622 -0.053,2.4571 1.0261,3.9524 3.604,4.9748 l -0.0193,0.176 -0.1117,0.7592 c -0.0689,0.4563 -0.2276,0.7894 -0.2512,1.1072 -0.1768,0.002 -6.3864,-0.1528 -6.5318,0.4394 -0.0389,0.1595 -0.0584,0.2585 2.7192,2.6314 1.1557,0.9861 2.3718,1.9967 2.8194,2.3652 -0.1987,0.3557 -0.2937,0.9014 -0.2846,1.6259 -1.1058,0.1352 -6.1019,1.0177 -6.7859,1.5755 l -0.1074,0.0882 0.0632,0.1239 c 0.256,0.515 6.9591,1.8039 7.8168,1.9604 0.1503,0.2058 0.2631,0.4184 0.3838,0.6423 0.0924,0.1766 0.1891,0.3575 0.3059,0.5361 -1.349,1.0573 -4.8603,4.3364 -4.9436,4.8444 l -0.0238,0.1411 0.1363,0.0499 c 0.0573,0.0213 0.129,0.0306 0.22,0.0306 1.1222,0 5.8059,-1.7628 6.8298,-2.2382 0.0723,0.0632 0.165,0.1415 0.2727,0.2313 0.2792,0.2339 0.6624,0.5516 1.0309,0.9105 0.7345,0.7055 1.126,1.2838 1.1671,1.7167 l 0.0198,0.1939 0.1896,-0.0423 c 0.6375,-0.1335 0.934,-0.6647 1.1291,-1.1574 0.0995,0.1758 0.2072,0.3549 0.3622,0.5182 0.3566,0.3716 0.8717,0.6117 1.6178,0.7481 0.2253,0.729 0.7789,1.0709 1.2861,1.3354 l 0.1162,0.0595 c 0.0802,0.0408 0.159,0.0799 0.2333,0.1219 -0.0468,0.8532 -0.0794,1.8816 0.4365,2.6186 0.1848,0.2654 0.6894,0.8867 1.3859,0.8867 0.1459,0 0.2919,-0.0266 0.4348,-0.0813 0.1193,-0.0437 0.563,-0.2685 0.8226,-0.5347 0.3813,0.2492 0.8195,0.3759 1.3017,0.3759 0.2103,0 0.4286,-0.0227 0.6491,-0.0714 0.5944,-0.1281 1.0474,-0.3938 1.082,-0.4278 0.2554,-0.1494 1.3779,-1.0335 1.641,-2.046 l -0.006,-0.1111 -0.1031,-0.0414 c -0.5276,-0.2089 -1.2292,-0.5848 -1.7142,-0.9873 0.5228,-0.3901 0.9119,-1.1455 1.0812,-1.7462 2.2478,3.0521 4.3979,5.9916 4.8909,6.666 -0.5791,0.7305 -2.3516,3.7672 -2.4117,4.1649 -0.0193,0.1219 0.0618,0.9556 1.2566,9.3844 0.295,2.0866 0.5932,4.1746 0.8322,5.8408 0.2679,1.8771 0.4816,3.3616 0.4893,3.4472 0.0598,0.6018 0.5899,4.248 1.1523,8.0994 l 0.7296,4.9885 c 0.2321,1.5797 0.3186,2.2019 0.3248,2.2524 -0.003,0.0326 -0.0377,0.2086 -0.2369,0.8149 l -0.1661,0.4862 c -0.0511,0.1488 -0.0876,0.2551 -0.093,0.2795 -0.0403,0.144 -0.0913,0.583 -0.0703,1.1956 0.0422,1.1931 0.4121,2.0835 1.4125,3.3783 -0.277,0.0451 -0.5431,0.0859 -0.8042,0.1262 -0.8566,0.1304 -1.6668,0.2531 -2.6858,0.5553 -0.8757,0.2605 -1.1642,0.3676 -1.9922,0.8206 -2.1487,1.1804 -3.5368,4.0099 -3.6043,4.7319 l -0.0127,0.1335 c -0.8153,0.4825 -2.4259,1.603 -3.1006,3.2604 -0.2503,0.6072 -0.6704,1.6665 -0.6803,1.9151 l -0.007,0.1378 c -0.1556,0.1474 -0.314,0.3254 -0.5025,0.5391 -0.224,0.2515 -0.4938,0.5539 -0.8581,0.9193 -0.8637,0.8674 -1.762,3.1929 -1.4641,4.2956 0.0136,0.131 0.0581,0.1987 0.1046,0.2344 -0.1145,0.1826 -0.2888,0.489 -0.5763,1.0684 -0.3549,0.7098 -0.3211,2.2521 -0.2996,3.1748 0.006,0.2781 0.0131,0.5647 0.002,0.6256 l 0.2344,0.1148 c -0.003,0.004 -0.007,0.0111 -0.009,0.0176 -0.1381,0.2823 -0.3476,0.7095 -0.3612,1.6824 -0.0249,1.6375 0.3164,3.0551 1.0145,4.2111 l 0.0414,0.0689 0.0493,0.089 0.1211,0.0153 c 0.0187,0 0.0349,-0.002 0.0502,-0.005 0.0467,0.4252 0.21,0.8626 0.4864,1.6078 l 0.2585,0.7087 c 0.3022,0.8384 1.2124,1.9856 1.2515,2.0349 l 0.3093,0.3873 0,-0.4958 c 0,-3.3375 2.6348,-8.7792 4.2063,-11.7292 2.1265,-3.9929 6.5667,-9.9666 7.8766,-11.7023 1.1532,-1.5256 3.7055,-4.7812 4.3152,-5.5205 0.1148,0.1503 0.3759,0.4414 0.3787,0.5899 l -0.1825,0.2036 c 0.1825,0.244 0.6862,0.9544 0.7407,1.0275 0.4266,0.5874 3.0234,4.0972 3.1226,4.1876 0.534,0.4918 2.1438,1.2212 2.588,1.3802 -0.0813,0.0533 -0.2355,0.1755 -0.2355,0.1755 -3.837,2.3743 -6.1175,6.3762 -6.1175,10.7127 0,7.0333 6.003,12.7553 13.3804,12.7553 7.3809,0 13.3826,-5.722 13.3826,-12.7553 0,-3.0322 -1.1369,-5.9732 -3.2017,-8.2792 -0.0195,-0.0229 -0.0856,-0.0876 -0.1514,-0.1488 -0.0104,-0.0125 -0.0232,-0.0249 -0.0345,-0.0357 0.4473,-0.9136 0.3347,-1.6464 0.2647,-2.0911 -0.0173,-0.1103 -0.0351,-0.2157 -0.036,-0.2943 0.2186,-0.0807 0.4785,-0.2177 0.6608,-0.3138 0.0629,-0.0345 0.1159,-0.0623 0.1431,-0.0728 0.8178,-0.3645 1.4769,-1.0967 1.7898,-1.6118 0.3269,-0.5369 1.6271,-2.605 2.1348,-3.8755 0.0445,-0.1106 0.3991,-0.8252 0.4326,-0.9193 -0.1177,-0.1083 -0.2747,-0.1964 -0.2747,-0.1964 0.1533,-0.3824 0.1689,-0.4547 0.2225,-0.6177 1.2711,1.6954 6.4431,8.6933 7.3596,9.9533 -0.049,0.0351 -0.097,0.0751 -0.1355,0.1117 -0.0972,0.0564 -0.163,0.1732 -0.201,0.267 -0.1057,0.2577 -0.1457,0.671 0.0598,1.063 0.1024,0.2018 0.2554,0.3453 0.4425,0.4181 -0.1108,0.3319 -0.0402,0.6987 0.0732,0.9462 0.0969,0.2103 0.3007,0.4473 0.5791,0.5137 -0.0366,0.2247 -0.076,0.496 0.1428,0.7894 0.1616,0.2166 0.4578,0.4898 0.8552,0.4898 0.0942,0 0.1834,-0.0113 0.2708,-0.0314 0.0674,0.2999 0.0955,0.5076 0.3818,0.7285 0.0876,0.068 0.3175,0.1542 0.5301,0.1542 0.0915,0 0.187,-0.009 0.2749,-0.0298 0,0 0.0335,0.0958 0.0335,0.0964 -0.0862,0.4773 -0.167,1.1582 -0.0335,1.5863 0.2302,0.7279 0.8635,0.8435 1.2904,0.8861 l 0.011,-0.1599 c 0,0 0.1973,-0.8484 0.2384,-1.0199 l 3.4126,4.7823 c -0.8917,0.5857 -4.428,2.8936 -4.731,3.0447 -0.5839,0.2897 -1.8317,0.3796 -1.8448,0.3824 l -0.3186,0.0193 0.1899,0.2568 2.763,3.7352 0.2341,0.2594 0.144,-0.3127 c 0.1148,-0.299 0.523,-1.2336 0.8858,-1.5743 0.1735,-0.1523 3.6933,-2.5064 4.6131,-3.1213 0.9621,1.3283 2.3338,3.2256 2.4072,3.3483 0.2639,0.4827 0.4065,1.6829 0.4286,1.9786 l 0.0264,0.3044 0.2472,-0.1757 3.9543,-2.806 0.3336,-0.2379 -0.4011,-0.0748 c -0.3708,-0.0692 -1.4122,-0.593 -1.8649,-1.0281 -0.1233,-0.1307 -1.9052,-2.5484 -2.3913,-3.2139 1.8618,-1.2252 4.5405,-2.9829 4.6817,-3.0598 0.5893,-0.2919 2.039,-0.4515 2.0537,-0.4538 l 0.2971,-0.0295 -0.1729,-0.2435 -2.7352,-3.8415 -0.2863,-0.4104 c -0.0411,0.2778 -0.379,1.1157 -0.4961,1.3289 -0.1899,0.3361 -0.4685,0.6888 -0.8444,0.9742 -0.1735,0.1367 -3.3676,2.2655 -4.4266,2.9651 l -4.8435,-6.569 c -0.0165,-0.0681 0.1304,-0.6676 0.2888,-1.446 0.0366,-0.186 0.2308,-1.6656 0.1834,-1.9063 -0.0771,-0.4003 -2.3887,-3.6099 -2.4092,-3.6329 -0.4022,-0.4688 -1.4983,-2.48 -1.5823,-2.8533 0.007,0 0.019,-0.0896 0.0366,-0.2285 0.1162,-0.8799 0.4677,-3.5532 0.3288,-6.1101 l 0,-0.14 c 0.002,-3.1292 0.002,-8.9538 -2.4312,-9.5613 -0.1679,-10e-4 -0.3161,-10e-4 -0.4465,-10e-4 -0.3849,0 -0.6267,0.003 -0.8546,0.008 -0.2608,0.007 -0.5018,0.0102 -0.8864,0.0102 l -0.0632,0 c 0.117,-1.1503 1.1619,-8.1482 2.3329,-15.1523 0.5082,-3.0413 2.4942,-15.2272 2.4879,-15.4142 -1.1471,-3.6998 -4.2885,-8.011 -6.7249,-10.4718 -0.1437,-0.1443 -0.4374,-0.4116 -0.6775,-0.6281 -0.1193,-0.1097 -0.2245,-0.2036 -0.2868,-0.2622 l 0.0124,-0.0916 c 0.5477,-3.9781 0.7767,-5.2977 0.8714,-5.671 0.7654,-0.4431 8.2437,-4.8223 14.4689,-9.9896 0.7458,0.3059 3.6323,2.4543 4.9334,5.0219 0.6171,1.2158 0.7535,2.3082 0.4065,3.2468 -0.0575,0.053 -0.1695,0.1409 -0.3013,0.2446 -0.2733,0.2189 -0.6137,0.4873 -0.8002,0.6877 -1.073,0.8447 -2.3086,3.3571 -2.5447,3.8495 -0.4068,0.8444 -0.9695,2.7314 -0.9522,4.2817 0.004,0.3314 0.017,1.3365 0.2946,2.4332 0.2508,1.0049 0.8016,1.9066 1.7265,3.2191 0.3535,0.4997 0.6702,0.9144 0.9706,1.3019 1.0933,1.4205 1.8834,2.446 3.1547,6.0999 0.1752,0.5057 0.5474,0.8609 0.9057,0.8609 0.074,0 0.144,-0.015 0.21,-0.044 0.4833,-0.2157 0.6171,-1.7668 0.6149,-1.8978 l -0.003,-0.1272 c -0.0663,-2.9013 -0.1026,-4.4989 -2.6237,-7.3259 -1.3133,-1.4723 -2.0061,-5.2189 -0.2393,-7.1821 0.142,-0.1579 0.279,-0.2364 0.3751,-0.2886 0.6542,1.0355 3.0659,4.3163 7.3785,4.3163 0.1664,0 0.3371,-0.007 0.5097,-0.0159 1.9205,-0.1139 3.2862,-1.0859 4.3673,-2.0213 0.6764,-0.5848 1.7876,-2.2411 2.0841,-4.4139 0.2086,-1.5378 -0.5811,-3.5648 -1.4304,-4.693 -0.97,-1.2841 -2.463,-2.7607 -5.4281,-2.7607 -0.2378,0 -0.4861,0.01 -0.7398,0.0284 0.4428,-4.7084 -1.7013,-10.6807 -4.6066,-12.4019 0.0315,-0.0706 1.9829,-3.9586 2.3332,-4.9853 0,0 0.7988,-2.2804 0.9471,-3.0384 0.2698,-1.3505 -0.2934,-3.1128 -1.2056,-3.7678 -0.6197,-0.4439 -1.2929,-0.6687 -2.0041,-0.6687 -0.8351,0 -1.3717,0.6066 -1.3717,0.6066 0,0 0.2826,0.1562 0.4207,0.2296 0.9601,0.4955 1.108,1.576 0.7755,2.9276 -0.1811,0.7461 -1.7518,1.4508 -3.2292,1.4508 -0.561,0 -1.0618,-0.1046 -1.4502,-0.3053 -0.4326,-0.2214 -1.7481,-0.8992 -1.9916,-1.7847 -0.0167,-0.0646 -0.0281,-0.1168 -0.0394,-0.1582 0.4283,-0.7307 1.8572,-3.952 0.7004,-6.374 -0.3291,-0.6848 -0.6845,-1.2109 -1.1177,-1.6599 -0.2381,-0.2038 -0.8524,-0.6466 -1.7118,-0.6466 -0.656,0 -1.6095,0.28 -2.2604,1.3881 -0.0484,0.0856 0.0182,0.3906 0.0182,0.3906 0.0774,-0.0904 0.2208,-0.1406 0.4031,-0.1406 0.4025,0 0.8767,0.2308 1.2126,0.5848 0.2634,0.2781 0.5698,0.7668 0.5301,1.5092 -0.1071,1.9349 -2.9375,2.3595 -4.0207,2.3595 -0.1071,0 -0.2012,-0.005 -0.2732,-0.0119 -0.4652,-0.0419 -1.2073,-0.1647 -2.274,-0.729 -0.36,-0.1905 -0.7112,-0.703 -0.8104,-1.1767 0.0774,-0.2971 0.1616,-0.5865 0.2444,-0.8736 0.3537,-1.2062 0.6848,-2.3457 0.2945,-3.689 -0.1466,-0.5089 -0.2449,-0.8411 -0.5264,-1.2909 -0.4573,-0.7305 -1.1614,-1.3054 -2.0931,-1.7093 -0.487,-0.2095 -0.9873,-0.3161 -1.4905,-0.3161 -1.7334,0 -2.8264,1.095 -2.9157,1.4987 l -0.2018,0.2514 0.0861,0.2075 c 0.4595,-0.1145 1.2909,0.0513 1.4423,0.0692 0.8377,0.1023 1.5378,0.5692 2.1388,1.4241 0.2891,0.413 -0.5128,3.6516 -2.3607,7.0483 -4.6789,-1.5261 -7.8979,-2.2362 -10.122,-2.2362 -0.775,0 -1.4374,0.0845 -2.0225,0.2551 -0.2018,-0.2625 -0.6565,-1.2951 -0.4703,-1.8349 0.0672,-0.1944 0.2262,-0.4237 0.4981,-0.7202 0.155,-0.1678 0.3302,-0.3422 0.5133,-0.5259 0.125,-0.1221 0.2509,-0.2483 0.3782,-0.3798 0.6499,-0.6681 1.3495,-1.493 1.6288,-2.5498 0.3231,-1.2356 -0.6795,-2.7201 -1.3213,-3.4007 -0.6298,-0.669 -1.5434,-1.0508 -2.5069,-1.0508 -0.0936,0 -0.1874,0.003 -0.2832,0.0116 -0.7257,0.0528 -1.1461,0.3141 -1.6277,0.7475 -0.1828,0.1639 -0.3818,0.5063 -0.3869,0.8637 l -0.003,0.2004 0.1982,-0.0283 c 0.0527,-0.005 0.1035,-0.009 0.1559,-0.009 0.9017,0 1.9636,0.9998 2.0384,1.1917 -0.1794,1.1665 -0.9936,1.7099 -2.6456,1.7099 -0.3362,0 -0.7075,-0.0202 -1.2067,-0.0664 -1.5069,-0.1352 -3.8066,-1.6324 -4.566,-2.3626 -1.3318,-1.2793 -2.7513,-3.4189 -2.5833,-4.2549 0.027,-0.1403 0.0973,-0.2247 0.2228,-0.2743 0.0522,-0.0162 0.1259,-0.0267 0.2115,-0.0267 0.4462,0 1.0287,0.2713 1.1452,0.3436 l 0.2101,0.1343 0.0515,-0.2463 c 0.2226,-1.0743 -0.6471,-2.3168 -1.1758,-2.6065 -0.3313,-0.1822 -1.1001,-0.4705 -1.7577,-0.4705"
       style="fill:#35312f;fill-opacity:1;fill-rule:nonzero;stroke:none"
       id="path4833"
       inkscape:connector-curvature="0" />
    <path
       d="m 108.3424,252.2075 c -0.8691,0.1522 -2.0452,0.0961 -2.0622,0.0221 -0.0913,-0.4014 -0.3926,-1.4468 0.2271,-2.4885 0.159,0.161 0.7991,1.0777 1.8351,2.4664"
       style="fill:#007ec5;fill-opacity:1;fill-rule:nonzero;stroke:none"
       id="path4835"
       inkscape:connector-curvature="0" />
    <path
       d="m 108.955,253.0497 c 0.3903,0.5238 0.5542,0.7449 0.9935,1.3379 0.0505,0.1415 -1.8527,0.5054 -2.5616,0.1534 l -0.0958,-0.1344 c 0.151,-0.0142 1.3186,-0.1156 1.6639,-1.3569"
       style="fill:#007ec5;fill-opacity:1;fill-rule:nonzero;stroke:none"
       id="path4837"
       inkscape:connector-curvature="0" />
    <path
       d="m 110.389,255.0574 c 0.4369,0.5897 0.7331,1.048 1.1849,1.6631 -0.0215,0.1934 -0.394,0.3388 -0.6913,0.4193 -0.5228,0.1392 -1.649,0.2353 -1.8891,-0.0899 l -0.2681,-0.2732 c 1.0185,-0.203 1.6242,-1.1347 1.6636,-1.7193"
       style="fill:#007ec5;fill-opacity:1;fill-rule:nonzero;stroke:none"
       id="path4839"
       inkscape:connector-curvature="0" />
    <path
       d="m 91.9913,256.2508 c 1.484,-0.28 3.7253,-1.3779 5.1288,-1.8192 -0.4043,-0.425 -0.9431,-1.1444 -1.2498,-1.5809 -0.4924,0.1783 -3.7055,3.071 -3.879,3.4001"
       style="fill:#0c9641;fill-opacity:1;fill-rule:nonzero;stroke:none"
       id="path4841"
       inkscape:connector-curvature="0" />
    <path
       d="m 102.2737,251.9413 c -0.3977,-1.3067 -0.998,-1.7549 -2.0582,-1.8405 -0.6409,-0.0499 -1.2526,0.3183 -1.5483,0.6426 0.0666,0.0332 1.1058,1.4587 1.4032,1.5463 0.3642,-0.3274 0.642,-0.6352 1.2325,-0.5978 0.8645,0 0.9436,0.2494 0.9708,0.2494"
       style="fill:#ffffff;fill-opacity:1;fill-rule:nonzero;stroke:none"
       id="path4843"
       inkscape:connector-curvature="0" />
    <path
       d="m 94.3923,250.1229 c -0.2668,-0.7379 -0.5142,-1.5718 -0.5618,-2.0911 -0.0953,-0.0851 -4.1188,0.5102 -5.1911,0.8382 0.5856,0.2302 5.6086,1.2849 5.7529,1.2529"
       style="fill:#0c9641;fill-opacity:1;fill-rule:nonzero;stroke:none"
       id="path4845"
       inkscape:connector-curvature="0" />
    <path
       d="m 132.7986,290.4908 c -0.4796,0.042 -0.877,0.2072 -0.877,0.2072 0.0964,-1.0754 0.1664,-1.5636 0.1871,-2.7008 0.2443,-0.1046 1.2432,0.5068 1.6001,0.8396 0.042,0.0374 -0.0255,0.7549 -0.1292,1.4916 -0.01,0.0723 -0.2166,0.049 -0.781,0.1624"
       style="fill:#ffcd00;fill-opacity:1;fill-rule:nonzero;stroke:none"
       id="path4847"
       inkscape:connector-curvature="0" />
    <path
       d="m 92.4931,232.9849 c -0.0241,-0.2075 0.163,-1.1149 0.2868,-1.3147 0.4048,0.716 1.3235,2.0265 2.8214,2.3006 0.5978,0.0502 1.1732,0.0609 1.6095,-0.1165 -0.8076,1.1565 -1.2141,3.3917 -1.3916,3.6128 -2.6971,-1.1784 -3.3953,-2.3043 -3.3261,-4.4822"
       style="fill:#0c9641;fill-opacity:1;fill-rule:nonzero;stroke:none"
       id="path4849"
       inkscape:connector-curvature="0" />
    <path
       d="m 119.6169,303.9593 c -0.0839,0.3626 -0.7063,2.4282 1.3845,4.3521 1.3796,-0.1792 2.92,-0.5791 4.0915,-1.0361 0.7078,-0.8053 2.2442,-2.8981 2.418,-3.162 -0.8895,0.3438 -1.497,0.2602 -2.5237,-0.5049 -2.1793,-1.6206 -2.8029,-7.3964 -2.8165,-7.5455 0,0 -2.4608,7.4953 -2.5538,7.8964"
       style="fill:#ffffff;fill-opacity:1;fill-rule:nonzero;stroke:none"
       id="path4851"
       inkscape:connector-curvature="0" />
    <path
       d="m 158.5446,315.1227 c -0.2543,-0.6786 -0.5352,-5.1426 -0.3955,-6.5695 0.1352,-2.7692 0.3235,-8.1689 2.134,-8.5913 -1.5427,-0.087 -4.0065,0.33 -5.5211,0.7274 -0.6939,0.8407 -0.868,7.2323 0.0547,9.4036 0,0 2.6011,3.3804 3.7279,5.0298"
       style="fill:#ffffff;fill-opacity:1;fill-rule:nonzero;stroke:none"
       id="path4853"
       inkscape:connector-curvature="0" />
    <path
       d="m 122.8734,256.7197 c -0.0581,1.1302 1.4595,11.3663 1.5488,12.0642 0,0 21.9289,29.7017 21.8909,29.7496 1.3385,-1.5332 2.4528,-6.0553 3.0495,-9.3067 0.7614,-3.1991 2.9834,-15.7957 3.225,-18.3994 0.2641,-2.844 2.6268,-17.793 2.8077,-18.5629 -4.5389,2.592 -7.227,3.0118 -7.3114,3.0353 -0.8422,0.2483 -1.5798,0.3733 -1.8661,0.3807 2.0121,2.1467 -0.3571,7.903 -4.8438,5.8635 -0.8632,-0.3921 -0.5604,-0.9683 -0.5604,-0.9683 1.131,-0.2623 3.0866,-1.4539 0.9178,-2.9571 -0.6276,-0.4496 -0.8625,-0.6568 -1.4278,-1.0707 -2.9401,-2.1591 -4.3364,-4.7234 -4.8427,-5.7107 -1.2557,-2.0673 -3.0759,-6.8513 -3.4172,-10.3501 -0.001,-0.0221 -1.5049,-0.7552 -3.1181,-0.7401 -1.9116,0.0192 -3.0526,0.4915 -5.3521,-0.7079 -0.3716,-0.193 -1.4646,-1.1673 -2.2858,-1.2276 -0.1151,0.0127 -3.1609,-0.567 -3.2896,-0.5352 0.0334,0.1468 1.0057,1.4998 1.7974,4.5881 0.3816,0.6339 0.8079,1.2481 1.5928,1.6696 3.602,1.4922 4.03,1.8372 5.0369,2.4651 0.4762,0.3044 0.752,0.7568 0.671,0.8966 -0.1123,0.1496 -0.3102,0.3789 -0.671,0.1646 -1.1429,-0.6803 -2.9803,-1.8496 -4.8402,-2.3873 0.8754,5.4405 1.3091,11.632 1.2884,12.0467"
       style="fill:#ffffff;fill-opacity:1;fill-rule:nonzero;stroke:none"
       id="path4855"
       inkscape:connector-curvature="0" />
    <path
       d="m 155.0897,259.7083 c -0.3716,1.1154 -3.5283,25.6155 -6.5115,35.3545 -0.487,1.5902 -1.2642,3.1632 -1.9012,3.9872 1.3011,1.671 2.026,2.7204 2.753,3.6519 0.3266,-0.5411 0.5361,-1.1526 1.1883,-1.4366 1.031,-0.2696 2.1671,-0.0635 3.3358,0.0227 0.0661,-0.3359 0.1863,-0.7146 0.3552,-1.0902 0.8011,-0.3793 2.7981,-0.544 3.2698,-0.6461 -0.0182,-0.0328 4.5862,-29.6373 4.7758,-30.6822 -0.3166,-1.548 -4.002,-7.6532 -7.0611,-10.2319 l -0.2041,1.0707 z"
       style="fill:#e31f39;fill-opacity:1;fill-rule:nonzero;stroke:none"
       id="path4857"
       inkscape:connector-curvature="0" />
    <path
       d="m 136.8933,312.6161 c -0.7161,-0.1491 -1.2949,-0.2818 -2.6173,-0.3651 -0.6091,-0.0383 -4.4266,0.0388 -5.4754,0.2233 -0.6403,0.1111 -3.7032,0.5213 -4.1369,0.8728 0.1327,0.2838 0.5922,0.8754 0.7889,1.1483 0.3008,0.4181 2.5373,3.3577 2.7204,3.5334 0.4559,0.4332 1.3816,0.9689 1.7323,1.0772 1.508,0.4598 3.5623,0.7282 3.5623,0.7282 0,0 2.857,-3.6351 4.2551,-5.0321 0,0 -0.6667,-1.9193 -0.8294,-2.186"
       style="fill:#e31f39;fill-opacity:1;fill-rule:nonzero;stroke:none"
       id="path4859"
       inkscape:connector-curvature="0" />
    <path
       d="m 158.8459,307.2257 c 0.3778,0.7441 2.4846,4.8047 3.2476,7.0503 0.0973,0.1817 0.33,-3.5532 0.1806,-4.5198 -0.0244,-1.0446 0.3742,-9.3844 -1.6245,-9.4969 -0.6472,-0.1154 -1.6651,1.7178 -1.8037,6.9664"
       style="fill:#ffffff;fill-opacity:1;fill-rule:nonzero;stroke:none"
       id="path4861"
       inkscape:connector-curvature="0" />
    <path
       d="m 127.5035,295.8143 c 0.0448,0.006 1.319,-3.0016 1.5352,-3.2945 0.1664,-0.2267 0.6758,-0.907 0.8096,-0.9487 -0.0958,-0.6673 -0.4464,-2.492 -0.557,-2.9033 -0.1386,-0.513 -0.1508,-0.9425 -0.4589,-1.2741 -0.1942,-0.279 -0.7866,-0.6336 -1.1217,0.0774 -0.1287,0.2741 -0.9201,1.4127 -0.3325,7.069 0.0505,0.4955 0.0564,0.9309 0.1253,1.2742"
       style="fill:#ffffff;fill-opacity:1;fill-rule:nonzero;stroke:none"
       id="path4863"
       inkscape:connector-curvature="0" />
    <path
       d="m 183.7219,247.1644 c -0.1392,0.5992 -0.8283,3.2 -0.8045,4.1527 0.9286,-0.3347 2.0568,-0.2721 2.7907,0.1588 1.9556,1.3379 1.3264,2.7479 1.23,3.0917 -0.2183,0.764 -1.1169,1.336 -2.122,1.0437 -1.62,-0.5581 -2.0282,-1.5088 -2.2663,-2.0953 -0.6109,-1.296 -0.0196,-4.6262 0.019,-4.923 1.6727,-4.9351 -1.4743,-13.1448 -4.2308,-13.9175 -3.3732,4.1485 -4.1884,4.1584 -7.0863,6.5769 1.3085,0.6347 2.888,1.7589 4.6709,4.4076 1.7076,2.5334 0.796,4.1661 0.83,4.7549 0.008,0.1224 -0.2001,4.4733 1.0976,5.8291 0.1426,0.2183 2.1215,3.392 6.6685,3.4838 3.7857,-0.0918 5.9482,-3.4588 6.029,-5.6999 0.3013,-1.5834 -0.6451,-3.5283 -1.4122,-4.5215 -0.9536,-1.2376 -2.5228,-2.3794 -4.82,-2.2989 -0.3972,0.0147 -0.5936,-0.0431 -0.5936,-0.0431"
       style="fill:#0c9641;fill-opacity:1;fill-rule:nonzero;stroke:none"
       id="path4865"
       inkscape:connector-curvature="0" />
    <path
       d="m 151.8772,313.2935 c -0.8912,-0.4107 -8.3628,-1.7044 -10.948,-0.6774 -0.0958,0.0388 -1.0057,1.9635 -1.0253,2.2099 1.3176,1.6934 3.6573,4.6598 4.0454,5.1154 0.1992,0.0147 1.9828,-0.3266 2.6158,-0.4644 0.4872,-0.1046 1.669,-0.4801 2.4758,-1.1829 0.9476,-0.8591 2.3062,-3.7179 2.8363,-5.0006"
       style="fill:#e31f39;fill-opacity:1;fill-rule:nonzero;stroke:none"
       id="path4867"
       inkscape:connector-curvature="0" />
    <path
       d="m 148.1394,306.2049 c 0,0 -2.1809,-3.0738 -2.8967,-4.0192 0.0204,0.7322 0.0743,1.2146 0.1707,1.9267 0.0365,0.256 0.4895,2.3434 0.8223,3.9144 0.517,0.6012 0.6743,0.9343 0.6673,1.0445 l 1.2364,-2.8664 z"
       style="fill:#e31f39;fill-opacity:1;fill-rule:nonzero;stroke:none"
       id="path4869"
       inkscape:connector-curvature="0" />
    <path
       d="m 123.6957,267.8672 c -0.3906,-1.8612 -1.2943,-9.3855 -1.4153,-10.2486 -1.177,1.379 -2.124,2.8967 -2.9055,4.3968 0.3472,0.5085 4.3375,5.6058 4.3208,5.8518"
       style="fill:#e31f39;fill-opacity:1;fill-rule:nonzero;stroke:none"
       id="path4871"
       inkscape:connector-curvature="0" />
    <path
       d="m 164.374,340.4231 c 0.1369,-0.3013 0.4363,-0.8904 0.7452,-1.1994 0.2478,-0.2451 5.2314,-3.5736 5.2314,-3.5736 0,0 2.6203,3.6264 2.7935,3.9345 0.3209,0.5766 0.3501,1.4142 0.3501,1.4142 l 2.6827,-1.8635 c -0.3178,-0.1312 -0.9436,-0.5828 -1.2693,-0.8773 -0.2569,-0.2359 -2.8795,-3.8007 -2.8795,-3.8007 0,0 5.0763,-3.3409 5.4026,-3.5067 0.6029,-0.3062 1.4729,-0.3603 1.4729,-0.3603 l -2.0279,-2.8517 c -0.137,0.3019 -0.3819,0.9754 -0.8621,1.3927 -0.2622,0.2284 -5.2594,3.5898 -5.2594,3.5898 l -4.9067,-6.7437 c 0,0 -0.3544,0.6089 -0.5304,0.7722 -0.174,0.161 -0.993,0.618 -0.993,0.618 l 4.7526,6.5454 c 0,0 -5.0479,3.3262 -5.3734,3.492 -0.6043,0.3042 -1.3084,0.3235 -1.3084,0.3235 l 1.9791,2.6946 z"
       style="fill:#ffcd00;fill-opacity:1;fill-rule:nonzero;stroke:none"
       id="path4873"
       inkscape:connector-curvature="0" />
    <path
       d="m 164.4466,326.5897 -0.9896,0.5363 c -0.273,0.0664 -0.5003,-0.01 -0.6497,-0.1598 -0.1287,-0.1321 -0.0896,-0.3799 -0.0612,-0.5247 0.5916,-0.3484 1.1131,-0.6784 1.2767,-0.7682 0.2962,-0.163 0.591,-0.5924 0.3254,-0.8385 -0.2131,0.1967 -2.1172,1.4542 -2.3508,1.4746 -0.3387,0.028 -0.515,-0.1131 -0.5955,-0.343 -0.0936,-0.2588 -0.0649,-0.411 -0.0431,-0.4544 0.1962,-0.127 0.9386,-0.5556 1.2541,-0.7398 0.3557,-0.2098 0.8793,-0.8414 0.5286,-1.0826 -0.4671,0.3036 -1.273,0.9587 -1.8436,1.1571 -0.2469,0.0561 -0.3909,0.1349 -0.5341,-0.1026 -0.1179,-0.2659 -0.1094,-0.5151 -0.1094,-0.6137 0.0907,-0.1202 0.7722,-0.383 0.97,-0.5066 0.4082,-0.2539 0.8337,-0.4926 0.8924,-0.6417 0.0929,-0.1083 0.0223,-0.5502 -0.0499,-0.5003 -0.8513,0.5933 -1.546,1.0587 -1.7924,1.0936 -0.1786,0.0258 -0.3702,-0.0403 -0.4286,-0.1693 -0.0663,-0.1411 -0.089,-0.4203 -0.0584,-0.6086 0.2685,-0.1595 0.466,-0.3143 0.6863,-0.4498 0.0791,-0.0491 0.5797,-0.4448 0.6693,-0.5094 0.3764,-0.2724 0.7741,-1.3935 0.7741,-1.3935 0,0 -0.5275,-0.7971 -0.7277,-1.1086 -0.7441,-1.1571 -2.1642,-3.0014 -2.3388,-3.3086 -0.4434,-0.7801 -0.54,-7.0657 -0.4666,-7.5238 0.3475,0.6166 0.775,1.4868 1.0831,2.0399 0.4915,0.8855 1.783,4.1383 1.9528,4.5099 0.0808,0.1786 1.2166,2.8454 1.912,3.7091 0.2021,0.2529 1.8728,2.5058 2.0644,2.8678 0.3649,0.6914 0.0278,2.3528 -0.0635,2.7556 -0.1006,0.4462 -0.3072,1.2141 -0.4716,1.542 -0.0976,0.1942 -0.3257,0.3833 -0.7251,0.5919 l -0.0896,0.0697 z"
       style="fill:#ffffff;fill-opacity:1;fill-rule:nonzero;stroke:none"
       id="path4875"
       inkscape:connector-curvature="0" />
    <path
       d="m 140.2305,322.8599 c 0.3041,0.2993 0.7089,0.9176 0.7492,0.9882 0.1786,-2.5844 1.2665,-3.0504 2.2762,-3.7659 -0.1723,-0.3197 -3.4115,-4.3934 -3.6913,-4.7491 -0.1377,-0.04 -1.436,-0.0128 -1.504,0.0513 -0.8808,0.807 -3.7202,4.1034 -3.8965,4.538 1.6784,0.481 2.0712,0.9833 1.7951,2.7819 0.7373,-0.5814 1.4378,-0.8759 2.3236,-0.9343 0.057,-0.003 0.112,-0.007 0.1735,0 0.843,0.1046 1.2824,0.6032 1.7742,1.0899"
       style="fill:#ffffff;fill-opacity:1;fill-rule:nonzero;stroke:none"
       id="path4877"
       inkscape:connector-curvature="0" />
    <path
       d="m 146.9733,319.9615 c 0.0246,0.2302 0.0683,0.9618 0.0683,1.1588 8e-4,0.8067 -0.9187,1.5928 -1.2512,2.1784 -0.3436,0.6001 0.0204,2.0064 -0.4113,2.643 -0.3873,0.5723 -1.253,0.7118 -1.3247,1.7439 0.2957,1.8992 -0.8716,2.041 -1.0341,2.1852 -0.5748,0.5176 -0.3767,1.3598 -0.6562,2.1096 -0.121,0.3197 -0.3846,0.6562 -0.5193,0.9337 -0.3815,0.2645 -3.4721,0.7866 -4.9598,0.4354 0.1313,-0.318 0.3918,-0.5542 0.7081,-0.6871 0.597,-0.2843 1.8825,-0.2489 2.5535,-0.5151 0.5559,-0.2029 1.1642,-0.9113 1.3308,-1.2435 0.2623,-0.3923 0.408,-2.1093 0.4927,-2.8332 0.0607,-0.508 0.1128,-1.0613 0.2364,-1.5662 0.1658,-0.6772 0.6789,-1.3107 0.8578,-1.9105 0.1726,-0.5718 0.0666,-1.6067 0.2854,-2.0177 0.0281,-0.0519 -0.4725,-0.093 -0.5927,0.3095 -0.1664,0.5593 0.1026,1.158 -0.1607,1.7697 -0.1052,0.2446 -0.4887,0.4943 -0.7628,1.8819 -0.0834,-1.393 -0.3612,-1.6345 -0.5607,-2.1155 -0.0853,-0.2072 0.2046,-1.2263 0.2874,-1.5559 0.4099,-1.6402 1.9687,-2.4021 2.1989,-2.429 0.6774,-0.0814 3.2142,-0.4754 3.2142,-0.4754"
       style="fill:#ffffff;fill-opacity:1;fill-rule:nonzero;stroke:none"
       id="path4879"
       inkscape:connector-curvature="0" />
    <path
       d="m 132.029,331.5163 c -0.0417,-0.0462 -0.9184,-0.928 -0.5669,-2.1344 0.0198,-0.1131 0.2401,-0.9034 0.2443,-1.1336 0.009,-0.5545 -0.4325,-0.7254 -0.5901,-1.1546 -0.0669,-0.1803 -0.1534,-0.6565 -0.099,-0.9187 0.0964,-0.4702 0.3697,-0.8036 0.4493,-1.1834 0.0836,-0.9187 -0.5953,-1.9525 -0.646,-2.1734 -0.1366,-0.61 0.483,-1.1174 0.5043,-1.6792 0.0181,-0.5125 0.0323,-0.788 -0.3827,-1.1721 0.3399,0.1624 2.0835,0.3631 2.4659,0.4014 0.2318,0.0235 2.0284,0.3673 2.0871,1.322 0.0292,0.4476 0.0476,1.0985 -0.0417,1.4409 -0.0694,0.1298 -0.5459,0.7381 -0.6689,0.8816 -0.3546,0.4155 -0.5962,0.9504 -0.8771,1.4136 0.0686,-0.8325 -0.2511,-1.5508 -0.1978,-2.3057 0.0167,-0.2293 0.1783,-0.5862 0.3322,-0.9357 0.1369,-0.3113 -0.2702,-0.6511 -0.2897,-0.6027 -0.1576,0.3952 -0.5125,1.1311 -0.5414,1.7133 -0.0253,0.5624 0.3296,1.1747 0.3007,1.802 -0.0113,0.2661 -0.0833,0.7041 -0.1284,0.9657 -0.2168,1.2643 -0.6562,2.4509 -0.665,3.6689 0.0777,0.559 0.468,1.0514 0.8583,1.3309 0.2844,0.2035 1.965,0.9558 2.2096,1.1792 0.2668,0.3373 0.6276,0.591 0.6957,1.065 -1.8204,-0.2605 -4.3144,-1.6373 -4.4527,-1.791"
       style="fill:#ffffff;fill-opacity:1;fill-rule:nonzero;stroke:none"
       id="path4881"
       inkscape:connector-curvature="0" />
    <path
       d="m 136.5599,333.8113 c -2.6478,-0.474 -4.8019,-1.8434 -4.8019,-1.8434 0,0 -2.694,4.4484 -3.3327,5.0187 0.3243,0.127 3.2482,0.012 3.1592,-0.0898 -0.3203,-0.3702 -0.5258,-1.1741 -0.1998,-1.8964 0.4022,-0.8892 1.29,-1.4791 2.5106,-1.0375 1.6654,0.603 1.3797,2.0311 1.3303,2.3287 -0.161,0.9683 -1.3246,1.334 -1.3246,1.334 -0.0173,0.1037 1.3141,1.8008 1.6597,2.1937 0.4558,-0.2724 2.2688,-1.495 2.2844,-1.599 0,0 -0.9612,-0.7801 -0.8002,-1.747 0.0502,-0.2976 0.3263,-1.6172 1.8468,-1.7141 1.5704,-0.0989 2.1997,1.0902 2.2317,1.8346 0.0357,0.8325 -0.3115,1.3603 -0.7353,1.6168 -0.0147,0.009 -0.1162,-0.0184 -0.0601,0.012 0.7458,0.4257 2.624,1.0244 2.9322,1.0011 -0.4218,-0.729 -1.4193,-5.7356 -1.4193,-5.7356 0,0 -2.5218,0.8246 -5.281,0.3232"
       style="fill:#ffcd00;fill-opacity:1;fill-rule:nonzero;stroke:none"
       id="path4883"
       inkscape:connector-curvature="0" />
    <path
       d="m 164.4435,328.6264 c -0.0414,0.2016 -0.1633,1.0123 -0.1633,1.0123 -0.0802,0.003 -0.1525,-0.0131 -0.2163,-0.0454 -0.4493,-0.2245 -0.5125,-1.2141 -0.2126,-1.7739 0,0 0.4813,0.6523 0.5922,0.807"
       style="fill:#ffffff;fill-opacity:1;fill-rule:nonzero;stroke:none"
       id="path4885"
       inkscape:connector-curvature="0" />
    <path
       d="m 137.0602,312.033 c 0,0 -2.1251,-0.3186 -2.944,-0.3634 -0.8853,-0.0485 -3.4929,0.0221 -3.4929,0.0221 0,0 0.038,-2.482 1.3799,-3.2324 0.0394,-0.0218 0.0411,-0.1116 0.0411,-0.1116 l 1.0956,-3.8107 c 0,0 3.5172,-0.4314 5.853,-0.3225 1.8595,-0.0737 5.8226,0.259 5.8226,0.259 l 0.7535,4.0023 c 0.574,0.4924 1.3671,1.7835 1.3121,3.3125 -0.7523,-0.0283 -2.7311,-0.2426 -3.3009,-0.2148 -1.2923,0.0657 -0.9978,0.0595 -2.8111,0.4209 l -1.8423,-2.3955 -1.8666,2.4341 z"
       style="fill:#ffffff;fill-opacity:1;fill-rule:nonzero;stroke:none"
       id="path4887"
       inkscape:connector-curvature="0" />
    <path
       d="m 127.8896,303.4791 c -0.584,0.1319 -1.5146,0.5565 -2.3361,-0.0822 -1.1573,-0.8886 -2.5469,-3.8143 -3.1682,-8.884 -0.1418,-0.7855 -0.1664,-1.3482 -0.1338,-2.0177 1.2163,-1.9171 3.8123,-4.4473 3.9948,-4.6151 0.171,-0.1559 0.5834,-0.5848 0.8632,-0.4609 -0.648,1.5871 -0.6214,3.0739 -0.4555,4.8183 0.0238,0.2435 0.2596,4.2486 0.4396,5.8436 0.0621,0.5531 0.341,3.6287 1.4615,3.3665 0.3926,-0.129 0.4255,-0.381 0.8377,-0.671 -0.0848,0.2653 -1.4205,2.4488 -1.5032,2.7025"
       style="fill:#ffffff;fill-opacity:1;fill-rule:nonzero;stroke:none"
       id="path4889"
       inkscape:connector-curvature="0" />
    <path
       d="m 133.2935,297.3875 c 0.51,-0.5868 1.7876,-1.0633 2.0844,-0.4927 -0.6531,0.438 -0.8408,0.7869 -1.2666,1.1926 -0.0737,0.0603 -0.9382,0.4867 -1.2523,0.6256 0.2055,-0.6815 0.4345,-1.3255 0.4345,-1.3255"
       style="fill:#ffffff;fill-opacity:1;fill-rule:nonzero;stroke:none"
       id="path4891"
       inkscape:connector-curvature="0" />
    <path
       d="m 125.5306,275.5905 c 7.842,10.6965 17.6669,24.1095 18.4892,24.9318 -0.2667,-0.178 -4.1354,-1.1432 -4.8886,-1.4028 -0.9961,0.2851 -4.6247,1.2889 -6.1327,1.9219 -0.0236,-0.0723 -0.6565,-0.7776 -0.6565,-0.8524 0.1159,-0.186 0.2698,-0.7163 0.4305,-0.8598 0.6608,-0.3217 1.3349,-0.7004 1.6753,-0.8521 0.3115,-0.2996 1.2974,-1.3325 1.4905,-1.5154 0.1675,-0.1593 -0.0227,-0.3818 -0.2926,-0.5371 -1.061,-0.6103 -2.1277,0.1947 -2.3649,0.4201 0.0459,-0.5009 0.1908,-0.9114 0.1908,-0.9114 0.1893,-0.0983 0.2177,-0.0187 0.4529,-0.1817 0.4,-0.0255 0.5925,-0.0292 1.0041,-0.1893 0.0255,-0.0102 0.1511,-0.0349 0.1817,-0.0312 0.6803,0.1069 1.3033,-0.222 1.5125,-0.6217 0.074,-0.1417 0.3671,-0.7491 0.2693,-0.9294 l -0.8314,-0.0482 c 0,0 0.6733,-0.2747 0.5383,-1.4664 0,0 -0.0561,-0.0212 -0.1596,-0.0212 -0.3472,0.003 -0.9989,-0.0539 -1.063,-0.0525 0.2597,-0.1312 0.4584,-0.9204 0.2464,-0.9845 -0.0468,-0.0141 -0.1304,-0.0147 -0.2118,-0.0161 -0.3135,-0.006 -1.0193,0.002 -1.2858,0.0819 0.3252,-0.0981 0.3425,-0.8345 0.2764,-0.9981 -0.0408,-0.1037 -0.3719,-0.0759 -0.3657,-0.1046 0.1616,-0.8498 0.1387,-1.8133 0.1387,-1.8133 0,0 -1.5532,-1.427 -2.5399,-1.453 0.0111,1.4456 -0.0666,2.8224 -0.174,3.6997 -0.007,0.0539 0.008,-0.0552 0,0 -0.3422,0.1066 -0.8521,0.4227 -1.1444,0.5684 0.0264,-0.013 0.006,0.0377 0,0 -0.1069,-0.6531 -0.4019,-2.6005 -0.5139,-2.8891 -0.1653,-0.4238 -0.256,-0.9782 -0.5029,-1.3447 -0.559,-0.9596 -1.0564,-1.0026 -1.9953,-0.5556 -0.0734,-0.3935 -1.7736,-10.9922 -1.7736,-10.9922"
       style="fill:#ffffff;fill-opacity:1;fill-rule:nonzero;stroke:none"
       id="path4893"
       inkscape:connector-curvature="0" />
    <path
       d="m 124.6133,274.4813 c 0.6928,3.9555 1.9514,11.9222 1.9879,12.3128 -1.1109,0.5607 -4.2415,4.4561 -4.3582,4.6653 -0.1245,0.2231 -0.4808,0.6202 -0.5244,0.8578 -0.1027,0.5675 0.1349,2.2969 0.1332,2.3916 -10e-4,0.1281 -0.2702,1.4938 -0.3203,1.6412 -0.2101,0.6327 -1.4159,4.1976 -1.5662,4.6817 -0.1202,-0.4884 -4.5958,-32.3501 -4.5677,-32.6296 0.0482,-0.4938 1.7643,-3.0744 2.0656,-3.5566 0.176,0.1848 7.1501,9.6358 7.1501,9.6358"
       style="fill:#e31f39;fill-opacity:1;fill-rule:nonzero;stroke:none"
       id="path4895"
       inkscape:connector-curvature="0" />
    <path
       d="m 134.5703,292.4892 c 0.3104,-0.1077 0.5978,-0.4303 0.5626,-0.7327 -0.8231,0.055 -1.9561,0.2625 -2.5188,0.3594 -0.1622,0.0272 -1.2872,0.491 -1.4032,0.5771 -0.0859,0.0647 -0.1822,-0.1167 -0.1304,-0.2925 0.0428,-0.1412 1.0579,-0.5221 1.0579,-0.5221 0,0 1.4457,-0.3206 1.5636,-0.3895 0.3473,-0.2007 0.2891,-0.546 0.1933,-0.6718 -0.644,-0.0295 -2.1308,0.4595 -2.1308,0.4595 0,0 -1.5295,0.7004 -1.9363,1.0907 -0.0729,0.0706 -0.775,1.493 -0.9525,1.8491 -0.1371,0.2744 -1.2291,2.8389 -1.2699,3.0787 -0.0663,0.3889 0.1015,2.8652 0.8697,3.6366 0.1363,-0.0261 1.2302,-0.7515 1.6313,-1.7346 0.2685,-0.8291 1.126,-2.5545 1.2345,-2.6124 0.447,-0.2327 1.5441,-0.6556 2.1441,-1.2566 0.2231,0.1007 1.3805,-0.2412 1.3805,-0.2412 0,0 0.7929,0.2268 1.2969,-0.4011 0.0459,-0.0578 0.2265,-0.4425 0.2265,-0.4425 0,0 -2.3596,0.0462 -2.5039,0.0842 -0.3781,0.0989 -1.2688,0.3328 -1.7946,0.5632 -0.3453,0.0423 -0.436,-0.0731 -0.309,-0.2281 0.1038,-0.1287 0.2928,-0.2158 0.4882,-0.2603 0.8356,-0.195 1.1758,-0.4952 1.1758,-0.4952 0,0 0.5363,0.0794 1.1712,-0.0791 0.2209,-0.0533 0.5585,-8e-4 0.868,-0.0929 0.2755,-0.0805 0.7013,-0.362 0.7342,-0.8638 -0.3218,0.0304 -2.5263,0.1506 -2.6337,0.1735 -0.5445,0.1086 -0.8881,0.2747 -1.4471,0.4533 -0.5386,0.1726 -0.6579,0.2038 -0.7313,-0.0227 -0.0462,-0.1426 0.1712,-0.2333 0.4765,-0.3064 0.3064,-0.0726 1.2013,-0.3858 1.2435,-0.3813 0.2418,0.0264 1.1163,-0.1848 1.4432,-0.2985"
       style="fill:#ffffff;fill-opacity:1;fill-rule:nonzero;stroke:none"
       id="path4897"
       inkscape:connector-curvature="0" />
    <path
       d="m 144.612,301.4779 c -0.148,-0.1443 -5.4967,-1.6073 -5.4967,-1.6073 0,0 -4.6298,1.2391 -5.8847,1.7037 0.057,0.3265 0.2412,1.5579 0.0252,2.351 1.4837,-0.2494 3.536,-0.4419 5.6464,-0.4462 2.8213,-0.006 5.3969,0.3385 5.8487,0.4349 0.0604,0.0125 -0.2993,-1.1804 -0.1389,-2.4361"
       style="fill:#ffcd00;fill-opacity:1;fill-rule:nonzero;stroke:none"
       id="path4899"
       inkscape:connector-curvature="0" />
    <path
       d="m 138.2709,314.5825 c -0.2574,-0.6531 -0.4595,-1.6328 -0.7455,-2.2068 0.29,-0.3716 0.9604,-1.3785 1.3292,-1.7065 0.4285,0.3901 1.2211,1.5645 1.4235,1.783 -0.4147,0.5995 -0.5652,1.4417 -0.9102,2.1076 -0.3504,0.009 -0.6347,-0.0165 -1.097,0.0227"
       style="fill:#ffcd00;fill-opacity:1;fill-rule:nonzero;stroke:none"
       id="path4901"
       inkscape:connector-curvature="0" />
    <path
       d="m 130.2347,310.1017 c -0.2464,0.7345 -0.2979,1.4329 -0.2685,1.5872 -1.4865,0.1119 -4.9237,0.7236 -5.3915,0.9943 -0.0235,0.002 -0.4677,-0.6165 -0.4583,-0.6134 0.1669,-0.1468 3.2077,-3.598 3.6964,-4.2826 0.1136,0.1579 2.4219,2.3145 2.4219,2.3145"
       style="fill:#ffffff;fill-opacity:1;fill-rule:nonzero;stroke:none"
       id="path4903"
       inkscape:connector-curvature="0" />
    <path
       d="m 147.5436,311.815 c -0.0536,-0.7279 -0.2512,-1.923 -0.3654,-2.0855 0.0669,-0.2469 0.9468,-1.9476 1.3161,-2.9993 0.5335,0.6228 3.7548,4.9765 3.7548,4.9765 0,0 -0.3404,0.9111 -0.3722,0.9493 -1.5185,-0.3557 -2.6654,-0.6587 -4.3333,-0.841"
       style="fill:#ffffff;fill-opacity:1;fill-rule:nonzero;stroke:none"
       id="path4905"
       inkscape:connector-curvature="0" />
    <path
       d="m 132.4933,301.5459 c 0,0 0.1333,0.5599 0.1721,1.1832 0.0286,0.4649 -0.0862,1.4638 -0.0862,1.4638 l -1.1188,3.9382 c -0.6843,0.5465 -0.9289,1.0641 -1.0542,1.3963 l -2.2363,-2.1727 c 1.5809,-1.9452 3.8492,-6.3904 3.8492,-6.3904 l 0.4742,0.5816 z"
       style="fill:#e31f39;fill-opacity:1;fill-rule:nonzero;stroke:none"
       id="path4907"
       inkscape:connector-curvature="0" />
    <path
       d="m 149.8385,303.245 c 0.4176,-1.1449 0.7183,-1.2915 1.1591,-1.4553 0.3725,-0.1383 2.1461,-0.0281 2.8916,0.0876 -0.3359,2.9979 -0.4422,3.9682 0.0885,7.0903 -0.2472,-0.4127 -2.8693,-4.0235 -4.1392,-5.7226"
       style="fill:#ffffff;fill-opacity:1;fill-rule:nonzero;stroke:none"
       id="path4909"
       inkscape:connector-curvature="0" />
    <path
       d="m 97.1118,225.4368 c 0.1721,-0.3007 0.3929,-0.6789 0.584,-0.8234 0.1077,0.8056 1.1514,2.5001 2.1005,3.0381 0.5649,0.3237 1.3844,0.5383 1.8581,0.5208 -1.2847,1.0938 -2.899,3.2887 -2.899,3.2887 -2.7309,-2.8604 -2.2964,-4.35 -1.6436,-6.0242"
       style="fill:#0c9641;fill-opacity:1;fill-rule:nonzero;stroke:none"
       id="path4911"
       inkscape:connector-curvature="0" />
    <path
       d="m 107.0237,224.8866 c -1.8068,0.504 -3.5818,1.7728 -3.5948,1.7589 0,0 -1.9435,-4.555 1.6443,-6.6311 0,0 0.5414,-0.3509 0.7821,-0.3926 -0.3016,0.7591 -0.1964,3.0966 0.3427,4.0445 0.2866,0.5043 0.8257,1.2203 0.8257,1.2203"
       style="fill:#0c9641;fill-opacity:1;fill-rule:nonzero;stroke:none"
       id="path4913"
       inkscape:connector-curvature="0" />
    <path
       d="m 100.8417,252.957 c 0,0.273 0.2338,0.4943 0.5213,0.4943 0.2874,0 0.5204,-0.2213 0.5204,-0.4943 0,-0.2741 -0.233,-0.4972 -0.5204,-0.4972 -0.2875,0 -0.5213,0.2231 -0.5213,0.4972"
       style="fill:#ffffff;fill-opacity:1;fill-rule:nonzero;stroke:none"
       id="path4915"
       inkscape:connector-curvature="0" />
    <path
       d="m 113.3578,218.8638 c 0.1785,-0.1196 0.8328,-0.3106 0.822,-0.3084 -0.4612,0.6829 -1.3394,4.0026 -0.1199,5.5279 -1.8782,0.1363 -3.7003,0.2457 -3.7086,0.2299 0,0 -0.9561,-4.1295 3.0065,-5.4494"
       style="fill:#0c9641;fill-opacity:1;fill-rule:nonzero;stroke:none"
       id="path4917"
       inkscape:connector-curvature="0" />
    <path
       d="m 182.9577,252.1891 c 0.7044,-0.3742 2.679,-0.7617 3.3154,0.9975 0.2001,0.6417 0.008,1.5247 -0.5602,1.7484 -0.5938,0.233 -1.5086,-0.2237 -1.8306,-0.5411 -0.9354,-0.781 -0.9246,-2.2048 -0.9246,-2.2048"
       style="fill:#2881c4;fill-opacity:1;fill-rule:nonzero;stroke:none"
       id="path4919"
       inkscape:connector-curvature="0" />
    <path
       d="m 111.7675,257.2481 c -0.8983,0.5139 -1.6234,0.5349 -2.2388,0.4464 -0.0266,0.1488 0.6554,0.9686 1.1274,1.1288 0.6156,-0.0148 0.8889,-0.8343 1.1114,-1.5752"
       style="fill:#ffffff;fill-opacity:1;fill-rule:nonzero;stroke:none"
       id="path4921"
       inkscape:connector-curvature="0" />
    <path
       d="m 113.3901,253.7116 c 0.542,0.009 1.4955,-0.8263 1.4978,-1.1328 0.002,-0.2542 -0.6505,-1.1934 -0.7931,-1.3861 0,0.7427 -0.3555,1.804 -0.7047,2.5189"
       style="fill:#ffffff;fill-opacity:1;fill-rule:nonzero;stroke:none"
       id="path4923"
       inkscape:connector-curvature="0" />
    <path
       d="m 109.796,249.1302 c 0.2637,-0.8048 0.4456,-1.0307 0.4456,-1.9018 -0.894,-0.5533 -1.6378,-0.7287 -1.9749,-0.2775 -0.0357,0.0462 0.6132,0.9221 1.5293,2.1793"
       style="fill:#007ec5;fill-opacity:1;fill-rule:nonzero;stroke:none"
       id="path4925"
       inkscape:connector-curvature="0" />
    <path
       d="m 111.4217,251.2706 c 0.4173,-0.9399 0.7897,-2.2838 0.688,-2.41 -0.1086,-0.1321 -0.0292,-0.0255 -0.1537,-0.1516 -0.2072,0.3087 -0.6069,1.351 -1.5868,1.2243 0.4246,0.5791 0.6452,0.7971 1.0525,1.3373"
       style="fill:#007ec5;fill-opacity:1;fill-rule:nonzero;stroke:none"
       id="path4927"
       inkscape:connector-curvature="0" />
    <path
       d="m 111.9183,251.9212 c 0.6106,0.8127 1.0069,1.3507 1.1279,1.4539 0.1792,-0.055 0.7634,-1.5049 0.6395,-2.3786 l -0.0552,-0.1009 c -0.0916,-0.1068 0.0532,0.1409 -0.1588,-0.1468 -0.2511,0.7033 -1.1032,1.3484 -1.5534,1.1724"
       style="fill:#007ec5;fill-opacity:1;fill-rule:nonzero;stroke:none"
       id="path4929"
       inkscape:connector-curvature="0" />
    <path
       d="m 110.069,254.8596 c -0.832,0.3163 -1.7991,0.3328 -2.4154,0.2441 -0.0281,0.1485 0.3815,1.1395 0.8535,1.2974 0.616,-0.0151 1.34,-0.8022 1.5619,-1.5415"
       style="fill:#ffffff;fill-opacity:1;fill-rule:nonzero;stroke:none"
       id="path4931"
       inkscape:connector-curvature="0" />
    <path
       d="m 108.7081,252.5658 c -0.8314,0.3158 -1.7212,0.2534 -2.3372,0.1653 -0.0278,0.1493 0.2299,1.1381 0.7013,1.2968 0.6168,-0.0136 1.4287,-0.7359 1.6498,-1.4757 l -0.0139,0.0136 z"
       style="fill:#ffffff;fill-opacity:1;fill-rule:nonzero;stroke:none"
       id="path4933"
       inkscape:connector-curvature="0" />
    <path
       d="m 111.852,251.5921 c 0.542,0.009 1.4573,-0.9726 1.4601,-1.2784 0.003,-0.254 -0.75,-1.063 -0.892,-1.2578 0,0.7444 -0.3561,1.806 -0.705,2.5198 l 0.1369,0.0164 z"
       style="fill:#ffffff;fill-opacity:1;fill-rule:nonzero;stroke:none"
       id="path4935"
       inkscape:connector-curvature="0" />
    <path
       d="m 110.2416,249.5639 c 0.5415,0.009 1.6181,-1.0956 1.4953,-1.3765 -0.1811,-0.1811 -0.7308,-0.4887 -1.1415,-0.8237 0,0.7429 -0.1171,1.4674 -0.4669,2.1826 l 0.1131,0.0176 z"
       style="fill:#ffffff;fill-opacity:1;fill-rule:nonzero;stroke:none"
       id="path4937"
       inkscape:connector-curvature="0" />
    <path
       d="m 113.6395,254.2538 c 0.6724,-0.0864 1.0985,-0.5831 1.548,-1.0326 0.4249,0.5082 0.6888,1.2566 0.9372,1.9321 1.2129,-0.5103 2.412,-4.5774 1.7963,-5.2586 -0.7628,-0.8461 -3.3384,-2.7042 -4.4731,-4.206 -0.3436,-0.4536 -1.2583,-2.1297 -2.2567,-2.7922 -0.6947,-0.5045 -2.0435,-1.0933 -3.1348,-0.8044 -0.1539,-0.5361 1.5778,-2.4483 3.9376,-0.6869 0.4204,-2.6903 -1.288,-4.1825 -1.7206,-3.7848 2.5832,-2.3672 3.2831,-0.6565 6.8836,-0.3444 0.1086,0.0573 1.1356,1.5131 1.8726,4.4734 0.3606,1.1327 1.2705,1.9326 1.7218,2.4854 0,0 1.4969,10.9375 1.3765,12.4273 -0.383,0.245 -1.8831,2.1365 -3.2125,4.7047 -0.6409,-0.7824 -5.0658,-6.9026 -5.2759,-7.113"
       style="fill:#007ec5;fill-opacity:1;fill-rule:nonzero;stroke:none"
       id="path4939"
       inkscape:connector-curvature="0" />
    <path
       d="m 127.5321,235.8437 c 0.4692,1.1043 0.8623,1.8768 1.1146,2.9301 -1.6455,0.3116 -3.5521,0.6228 -6.0287,-1.4431 -0.2183,-0.498 -0.4629,-0.8716 -0.7254,-2.2654 l -0.0431,-0.4797 c 0.2753,-1.0043 0.752,-3.0041 2.2303,-3.234 0.2251,-0.2741 2.4517,2.4741 2.5189,2.5693 0.0524,0.1086 0.4719,0.8374 0.9334,1.9228"
       style="fill:#ffffff;fill-opacity:1;fill-rule:nonzero;stroke:none"
       id="path4941"
       inkscape:connector-curvature="0" />
    <path
       d="m 122.6259,211.1029 c 0.1117,0.5232 0.3648,0.9314 0.6806,1.2064 2.3497,1.8309 5.4227,2.9503 5.3861,3.1504 -0.0351,0.2001 -5.0743,1.9486 -6.6821,1.2132 -0.0757,-0.0419 -0.161,0.0363 -0.2262,-0.008 -0.4989,-0.0496 -1.7149,-0.0692 -1.912,0.8802 0.4584,0.7741 1.3088,1.5355 2.9382,1.6752 3.2995,0.5531 7.7283,-1.0383 8.1238,-1.1182 1.2571,-0.2503 2.5849,-0.3793 3.8914,-0.2622 0.8614,0.0748 2.6932,1.4289 3.0469,2.0814 0.8927,1.6441 0.8221,2.3199 0.7387,4.2254 -0.2128,3.0557 -4.6658,7.0568 -5.3648,7.5192 -0.2401,0.1587 -0.4451,-0.1389 -0.4456,-0.1395 -0.003,-3e-4 -0.074,-0.4096 0.0581,-0.5718 0.1661,-0.2032 2.6875,-2.0902 4.1817,-4.8957 0.7497,-1.4096 0.8977,-2.7816 0.6125,-4.2817 -1.487,0.2596 -3.0458,0.4357 -3.077,0.4337 -1.0207,0.1672 -5.0649,1.7339 -9.5337,2.1226 -4.5346,0.3963 -11.2686,0.324 -15.5056,0.7591 -7.0812,0.7155 -13.4498,9.5298 -13.4498,15.1665 0,0.2032 2.1294,0.1766 4.678,2.3439 0.201,0.171 0.4842,0.637 0.2963,1.1917 -0.171,0.5023 -0.5432,-0.4623 -0.8008,-0.6848 -0.9933,-0.972 -2.7162,-1.7428 -4.4161,-2.0424 -0.0899,0.003 -5.8003,-0.3098 -5.9987,-0.1253 0.0323,0.1812 3.8809,3.5467 4.9297,4.2999 0.3328,0.2412 2.5254,1.5049 3.6156,1.3414 0.068,0.2103 -0.2585,0.5402 -0.4048,0.6332 -1.1888,0.0207 -3.1079,-1.0207 -3.1861,-1.1469 -0.3818,0.3552 -0.6233,1.2637 0.1054,3.3489 0.6324,2.0727 2.0781,3.8664 3.3401,5.1794 0.6891,0.6752 1.9888,1.3476 2.3956,2.5832 0.9345,-1.2356 0.6658,-2.5979 0.2004,-3.0305 -2.0072,-1.457 -3.6284,-4.3092 -3.5499,-4.5813 0.0304,-0.1032 0.2129,-0.3487 0.3464,-0.3339 0.4465,0.0464 0.5497,0.5666 0.8584,0.7613 0.0187,-0.2437 1.8445,-1.4031 3.645,0.2033 1.7683,2.0384 -0.1981,3.9821 -0.2038,4.1547 -0.002,0.0692 0.1826,0.9649 -0.1153,1.6586 -0.1143,0.2661 0.5212,1.5792 1.5111,1.2223 0.0102,-0.3858 0.1026,-0.7209 0.2103,-1.1659 0.1148,-0.4779 0.3847,-0.9184 0.8448,-0.4419 -0.2163,0.657 -0.7078,1.7305 -0.3039,2.4188 0.1658,0.2829 0.6763,0.8815 1.1029,0.9099 0.0808,-0.2492 0.1579,-1.5293 0.5545,-1.4718 0.1267,0.006 0.2444,0.1755 0.2599,0.3189 0.0491,0.508 -0.7381,2.6827 -0.0552,3.8909 0.225,0.3982 0.7001,1.0854 1.3518,0.7103 0.3345,-0.195 0.4881,-0.7653 0.8005,-0.7642 0.8056,0.7742 1.8978,0.692 2.651,0.288 0.4399,-0.3535 1.3765,-1.3501 1.3765,-1.3501 0,0 -0.8975,-0.5891 -1.5653,-1.086 -0.6483,-0.481 -2.2003,-1.9885 -3.5564,-4.2446 -0.1369,-0.2265 -1.3308,-1.87 -1.4981,-3.3157 -0.1854,-2.7116 2.0523,-5.6007 2.8806,-5.8368 0.7979,-0.2282 3.1005,0.6256 4.5383,2.5994 0.7219,0.8507 2.8678,3.5124 3.4151,5.3283 0.262,-0.1956 1.2873,-2.4092 0.9783,-3.6165 -0.1846,-0.9266 -3.7355,-2.9423 -4.9765,-5.0814 -1.1367,-2.279 -3.0932,-2.6608 -4.1213,-2.582 -2.8735,0.6182 -2.905,2.4086 -3.1079,3.0526 -0.0496,0.1553 -0.1366,0.4 -0.4238,0.3671 -0.1701,-0.1831 -0.3101,-0.6327 -0.2537,-0.8323 0.1485,-0.801 0.5581,-1.4604 0.9184,-1.938 0.4986,-0.4779 1.0795,-0.9539 1.7839,-1.1469 -0.0559,-0.3643 0.8543,-3.2454 4.2814,-1.9191 -0.3943,-2.1478 -1.7869,-2.2875 -2.2096,-2.5154 2.6175,-3.6111 4.3971,-1.9242 8.9314,-1.0959 0.4972,0.0717 2.6411,0.3282 3.4109,0.4966 l -0.5621,-2.9114 c 0.3008,-1.1773 1.2776,-3.367 2.5858,-3.7764 0.5618,-0.5465 1.8394,0.9811 2.1512,1.2238 1.4465,1.1279 2.5841,4.1071 2.5841,4.1071 0.5264,1.239 0.9071,1.8674 1.1585,3.0155 0,0 2.4568,0.775 2.7502,0.7614 0.0439,-0.3878 0.2384,-1.1101 0.8679,-1.6481 0.2313,-0.1794 0.6608,-0.1259 0.6092,0.0862 -0.6707,0.712 -1.118,1.6254 -0.6914,3.5044 0.271,0.9312 1.7788,10.2941 8.269,14.7042 0.6474,0.4402 1.1727,0.9247 1.9536,1.4729 1.3193,1.3195 -0.2171,2.7969 -1.417,3.0872 2.6084,1.6157 5.932,-2.5892 3.1946,-5.489 0.2271,-0.1196 0.8547,-0.1721 1.6554,-0.3481 7.38,-1.6308 19.9364,-10.5075 24.2816,-14.4601 1.3462,-1.332 7.3228,-4.1916 10.1183,-12.5082 0.3594,-1.0689 0.6418,-2.0573 0.595,-3.2323 -0.1741,-2.1433 -2.3182,-2.6717 -2.8307,-2.4457 0.0468,0.2194 1.6124,1.2534 0.5547,3.7074 -0.6922,1.1579 -2.5492,1.499 -4.0691,1.5052 -1.4434,0.007 -2.4854,-1.0009 -3.4979,-2.1725 -0.6597,0.9479 -4.4507,6.4718 -7.4064,9.4408 -4.0122,4.3078 -7.1014,6.287 -7.4869,6.4865 -0.3517,0.1843 -1.1077,-0.1808 -0.9637,-0.2843 1.0689,-0.6072 4.4064,-2.9191 7.9582,-6.6308 2.0588,-2.1518 7.3619,-9.2707 7.7346,-10.1976 0.1616,-0.3677 2.005,-3.7398 0.1381,-6.5968 -1.4817,-1.8641 -2.8812,-0.6174 -3.1187,-0.4476 0.5321,0.0538 3.1232,1.3076 1.3731,4.1306 -0.4969,0.7339 -2.1991,1.2759 -3.4002,1.393 -1.3524,0.1338 -2.9803,-0.2764 -3.9455,-0.9964 -0.2217,-0.1681 -0.3801,-0.1531 -0.3665,-0.2738 -3.3324,9.0076 -11.1413,16.3936 -11.6748,16.8766 -0.2435,0.2174 -0.8555,0.447 -1.2246,0.1437 0.2172,-0.2398 0.5131,-0.5031 0.7396,-0.7132 0.9714,-0.8912 8.5022,-8.4489 11.7023,-17.2695 0.0748,-0.2653 0.1026,-0.5332 0.1933,-0.8147 0.2404,-0.7398 0.4626,-1.6727 0.5241,-2.4979 0.0754,-0.998 -0.29,-2.1208 -0.6891,-2.7065 -2.3071,-2.5741 -4.6641,-1.1171 -4.8296,-0.8393 1.2696,-0.003 2.5225,0.5108 3.2278,1.9959 0.1828,0.5819 -0.5936,4.4917 -3.0283,9.0805 -0.2979,0.6142 -5.1069,7.5676 -5.267,7.7782 -0.6753,0.885 -2.1243,2.7083 -3.1301,3.6176 -3.3457,3.026 -7.1073,4.4172 -8.0036,4.4949 -0.3705,0.0332 -0.9527,-0.1171 -0.9227,-0.5372 2.6723,-0.1978 7.9141,-2.9582 11.2216,-7.8363 0.3934,-0.5797 5.339,-7.4509 5.7058,-8.6312 -0.8858,-0.2773 -7.4392,-3.026 -11.3128,-2.1943 0.1914,0.3945 2.5302,2.62 2.6963,2.9089 -0.006,0.7585 -1.3529,5.5077 -1.3765,6.3728 -0.2333,0.1582 -0.678,0.5831 -0.7684,0.402 -0.091,-0.902 1.4969,-6.3953 1.3804,-6.5004 -4.346,-3.8954 -3.7105,-5.4457 -3.3485,-6.1943 0.2834,-0.5899 3.069,-2.8508 2.7876,-4.3642 -0.1245,-0.6645 -0.2812,-1.0094 -0.5613,-1.4171 -0.5632,-0.2021 -1.582,0.3359 -1.7969,0.7643 0.007,1.0238 -0.248,1.2276 -0.8646,1.7447 -0.9932,0.8302 -3.7182,0.8456 -5.0161,0.2361 -1.7363,-0.6542 -2.8182,-1.41 -3.5399,-2.1076 -0.8374,-0.8118 -1.2598,-1.3835 -1.5821,-1.8068 -1.0374,-1.3609 -1.47,-2.5489 -1.3385,-3.2051 -0.3135,-0.5664 -1.3898,-1.3459 -2.0749,-1.1704 -0.3025,0.4294 -0.1817,0.5386 -0.171,1.0216 0.0216,1.0003 0.4011,2.1098 0.7438,2.9166 0.2305,0.3982 0.5763,1.0975 0.8558,1.631 0.1009,0.1905 0.2713,0.4105 0.2211,0.5258 -0.14,0.3238 -6.537,-1.7849 -6.8505,-2.4244 -0.6003,-0.0953 -1.9468,-0.1486 -2.3312,0.4028 z m -0.0289,-0.6761 0.0357,-0.034 c 0.5148,-0.5151 1.467,-0.3974 1.9902,-0.2815 0.008,-0.1837 0.0681,-0.3815 0.1673,-0.6114 0.1204,-0.2784 0.7075,-0.9326 1.0718,-1.0378 -0.3921,-0.3027 -1.3697,-0.1721 -1.7232,-0.0473 -0.7265,0.2545 -1.4414,1.1613 -1.5418,2.012 z m -24.7379,34.215 c 0.1947,0.0448 0.7747,0.4941 0.7704,0.6758 -0.0062,0.3353 -0.8359,0.0522 -1.0531,0 -0.5405,-0.1295 -3.2887,-1.8635 -3.363,-2.3068 0.4099,-0.0888 0.6968,-0.2157 1.8612,-0.2033 0.2518,0.0885 0.4088,0.0587 0.3853,0.3402 -0.0258,0.326 0.0734,0.2715 -0.8949,0.2715 0.174,0 1.4516,1.0268 2.2941,1.2226 z m 58.5354,-6.0763 c -3.5819,3.1062 -7.5135,4.989 -8.0839,5.2288 -0.587,0.2236 -0.9362,-0.1871 -0.9192,-0.298 2.9004,-1.4638 6.5993,-3.7893 8.6924,-5.6987 1.3065,-1.1143 6.2776,-5.764 8.2293,-8.2094 1.0117,-1.1744 3.4353,-3.9124 3.8795,-4.9567 0.146,-0.14 0.5054,-0.8376 0.6627,-1.2234 0.4048,0.214 0.3277,1.0615 0.0388,1.5344 -3.6898,5.9825 -12.1609,13.2386 -12.4996,13.623 z m 19.9559,-8.5808 c 0.252,0.2027 -0.0462,1.1112 -0.1616,1.3329 -0.4717,0.9107 -3.1651,4.5442 -7.7995,7.7437 -4.212,3.3803 -18.0624,12.3516 -24.2992,13.3579 -0.3211,0.0281 -0.8455,0.1103 -1.095,0.0213 -0.595,-0.072 -1.3535,-0.7747 -1.635,-1.2997 -1.1945,-1.9857 -4.009,-8.1377 -3.9081,-9.7736 0.0201,-0.3223 0.409,-1.5052 0.8121,-1.3892 0,0 -0.0357,0.5805 -0.0502,0.7135 -0.2707,1.1474 0.9074,4.382 3.7344,10.0074 0.6134,1.0171 0.8628,1.0188 2.1858,0.9116 3.3434,-0.5556 8.8772,-3.4455 14.7642,-7.0662 8.1122,-4.9759 14.48,-9.8818 16.7891,-13.6922 0.2931,-0.4887 0.5303,-0.9263 0.663,-0.8674 z m -45.2055,-23.989 c -0.1332,0.0394 -0.5797,0.3024 -0.692,0.3917 0.7702,-0.087 1.7893,0.8003 2.056,1.2748 0.3013,-0.3541 0.8161,-0.5437 1.6515,-0.0221 0.0385,-0.4023 -0.4578,-1.1121 -0.7481,-1.3204 -0.5425,-0.3949 -1.4196,-0.5806 -2.2674,-0.324 z m -10.0117,10.0956 c -0.6347,-0.9219 0.3073,-2.0909 0.2894,-2.3426 -2.1702,0.7231 -2.1246,2.0753 -2.0866,2.6099 0.0204,0.2721 0.1066,0.3625 0.1335,0.4779 0.5018,-0.6035 1.3148,-0.7398 1.6637,-0.7452 z m 24.7297,-4.2083 c -0.5933,-0.5899 -1.2231,-0.7997 -1.3765,-0.834 -0.6417,-0.1386 -1.7487,0.0916 -2.0245,0.5519 0.7421,0.2702 1.3663,0.6562 1.8839,1.1424 0.3252,-0.328 0.9099,-0.8229 1.5171,-0.8603"
       style="fill:#0c9641;fill-opacity:1;fill-rule:nonzero;stroke:none"
       id="path4943"
       inkscape:connector-curvature="0" />
    <path
       d="m 106.7871,249.1203 c -0.0383,-0.2438 0.8676,-1.5874 1.0584,-1.7107 0.87,1.2798 53.6531,72.5907 53.871,73.1114 -0.0907,0.6137 -0.9269,1.4352 -1.2461,1.3397 l -53.6833,-72.7404 z"
       style="fill:#ffcd00;fill-opacity:1;fill-rule:nonzero;stroke:none"
       id="path4945"
       inkscape:connector-curvature="0" />
    <path
       d="m 147.0506,322.7377 c -0.2602,0.2004 -0.5071,0.5199 -0.7075,0.8156 -0.305,0.4487 -0.0595,1.4014 -0.1497,1.9091 -0.051,0.2761 -0.089,0.6469 -0.2588,0.8365 -0.3532,0.3988 -1.148,0.6446 -1.2866,1.2875 -0.0411,0.1947 0.0249,0.4025 0.0215,0.6018 -0.011,0.5644 -0.1252,1.3065 -0.5153,1.652 -0.2435,0.214 -0.7186,0.4011 -0.9011,0.7075 -0.2773,0.4431 -0.1338,1.0222 -0.387,1.717 -0.1712,0.4649 -0.621,0.9876 -0.621,0.9876 0,0 0.9791,4.9583 1.5216,6.2665 0.0213,0.0505 0.0703,0.2027 0.0856,0.2322 -0.032,0.013 -0.1508,-0.0278 -0.2392,-0.0354 -0.5528,-0.0539 -1.6926,-0.3552 -2.2272,-0.5641 -0.8048,-0.3127 -1.408,-0.6251 -1.6767,-0.7892 -0.0927,-0.0581 -0.167,-0.1392 -0.167,-0.1392 0,0 1.1424,-0.4547 1.063,-1.4913 -0.0606,-0.7772 -0.5913,-1.4938 -1.3354,-1.5213 -0.7772,-0.0295 -1.5063,0.2349 -1.7056,1.3473 -0.1737,0.9649 0.9644,1.6769 0.9644,1.6769 -0.0306,0.0233 -0.0502,0.078 -0.112,0.1276 -0.5131,0.4068 -2.037,1.6568 -2.9341,1.9636 -0.6268,-0.5647 -1.7286,-1.935 -2.1201,-2.8375 -0.0258,-0.059 -0.0153,-0.091 -0.0343,-0.1457 0,0 0.1636,0.005 0.2534,-0.0244 0.313,-0.1026 0.9394,-0.358 1.1342,-1.1344 0.1806,-0.7243 -0.1684,-1.5083 -0.9652,-1.7734 -1.044,-0.3495 -1.6923,0.1466 -1.9794,0.9286 -0.3059,0.8343 0.3268,1.6138 0.5193,1.7246 -0.0202,0.0468 -0.0907,0.0916 -0.2019,0.1347 -0.7276,0.2778 -3.1912,0.4462 -4.4248,0.0283 0.4118,-0.2848 3.0084,-4.301 3.7465,-5.6429 -0.087,-0.2078 -0.428,-0.7574 -0.4725,-0.8864 -0.4918,-1.2693 0.3396,-2.0015 0.235,-2.5316 -0.0559,-0.2886 -0.3422,-0.5369 -0.4714,-0.7931 -0.2124,-0.423 -0.3501,-0.9284 -0.2149,-1.4159 0.174,-0.6268 0.5664,-1.1401 0.4085,-1.6742 -0.186,-0.6211 -0.7186,-1.1687 -0.6659,-1.8023 0.0354,-0.4215 0.3433,-0.7809 0.4723,-1.2452 0.1091,-0.3889 -0.0275,-0.5893 -0.0856,-0.8785 -0.0409,0.0236 -0.0179,0.0102 -0.0596,0.0338 -3.615,2.1469 -6.0208,5.9692 -6.0208,10.328 0,6.717 5.7181,12.1637 12.7715,12.1637 7.0538,0 12.7715,-5.4467 12.7715,-12.1637 0,-2.9778 -1.1231,-5.7053 -2.9874,-7.8191 -0.0258,-0.0281 -0.161,-0.1567 -0.186,-0.1851 l 0.1457,0.0235 z"
       style="fill:#ffcd00;fill-opacity:1;fill-rule:nonzero;stroke:none"
       id="path4947"
       inkscape:connector-curvature="0" />
    <path
       d="m 104.1437,333.0298 c 0.1242,-1.3686 0.4632,-2.3208 1.2433,-3.5133 1.1251,-1.7189 3.2142,-2.5418 3.9884,-2.9954 0.4949,-0.2894 1.7342,-0.788 2.0746,-1.0457 0.9137,-0.693 1.6971,-1.2118 1.5231,-1.8014 -0.5854,0.4672 -1.04,0.8192 -1.9602,1.3059 -0.2236,0.1177 -2.3323,1.0715 -3.0906,1.5701 -0.7211,0.4734 -1.9666,1.3009 -2.3754,1.8264 -0.4141,0.3716 -1.133,1.8261 -1.2098,2.0554 -0.0295,-0.8385 -0.3271,-2.8806 0.9076,-4.1737 0.7132,-0.9547 1.2212,-1.3918 1.9505,-1.912 1.0273,-0.7333 4.0525,-2.3335 4.4173,-2.5359 0.7307,-0.4053 3.5685,-1.5638 3.9841,-1.9627 0.0711,-0.0983 0.485,-0.3481 0.5351,-0.7645 -0.9759,0.5721 -2.368,1.0721 -2.9579,1.3343 -0.7265,0.375 -3.9053,1.9375 -5.7589,3.1178 -0.7628,0.4862 -2.0185,1.6359 -2.3607,2.0013 -0.1329,0.1426 0.004,-1.0491 0.0562,-1.192 0.1964,-0.553 0.4838,-1.2246 1.1007,-2.0013 1.7149,-2.1608 4.0748,-3.5934 6.292,-4.2774 0.487,-0.144 3.7528,-1.1926 4.1193,-1.3876 1.3859,-0.5797 2.2842,-0.9377 2.7678,-1.5069 0.2486,-0.2818 0.4184,-0.6933 0.4201,-0.9099 -1.2861,1.2591 -3.5629,2.0387 -4.5151,2.3321 -3.2408,0.839 -5.5156,1.8708 -7.1492,3.0086 -0.042,-0.1805 0.6403,-1.8513 0.9703,-2.262 0.8277,-1.0287 2.1158,-1.9242 3.1297,-2.3607 2.7882,-1.5528 5.9046,-1.8771 7.1836,-2.387 1.0049,-0.3416 1.756,-0.7745 2.5492,-1.247 0.7588,-0.4263 1.0814,-0.8334 1.1752,-1.3723 -0.5644,0.307 -1.849,1.5469 -3.9875,2.0929 -0.7183,0.2194 -2.5333,0.7239 -2.8995,0.8075 -3.1578,0.7198 -4.1485,1.7411 -4.4385,1.6864 0.1811,-0.8119 1.6667,-2.9007 2.1608,-3.2641 0.7557,-0.8442 2.3531,-1.2963 3.0858,-1.5653 1.5976,-0.5117 4.2225,-0.7807 5.0703,-0.957 0.0258,-0.006 0.0516,-0.009 0.0769,-0.015 0.9377,-0.2514 2.8732,-0.7733 3.1099,-0.9054 0.2426,-0.1329 2.8275,-3.7525 3.0617,-4.1139 0.1488,-0.2291 1.3932,-2.4165 1.4326,-2.5109 0.6392,-1.0559 1.3405,-2.9523 1.6401,-3.9734 0.0695,-0.235 0.474,-0.2636 1.2461,-0.8064 0.0295,-0.021 0.29,-0.1588 0.2931,-0.1956 -0.009,0.1151 -0.0334,0.0901 -0.0431,0.1638 -0.1332,1.0917 -0.5085,1.9327 -0.8163,2.9585 -0.0426,0.0627 -2.4645,5.4746 -5.3399,8.6967 -0.1415,0.1548 -2.5932,3.0513 -3.4294,3.9654 -0.606,0.6611 -2.7264,3.2426 -2.9375,3.4781 -0.1953,0.2186 -5.6537,7.7264 -6.3454,8.8149 -0.6729,0.9071 -3.1802,5.3547 -3.2403,5.3949 -0.8634,1.4698 -2.0534,3.892 -2.791,5.783 -0.2857,0.7373 -1.2988,3.2108 -1.199,5.1993 -0.5182,-0.8864 -1.3119,-2.6691 -1.3848,-3.3729 -0.161,-1.2932 -0.0685,-3.1496 1.7159,-5.637 0.6738,-0.9397 2.5344,-2.0985 3.4528,-3.7505 0.0856,-0.1523 -0.0626,-0.4774 -0.1267,-0.5432 -1.9241,2.5087 -2.4451,2.1697 -3.9826,4.3288 -1.5183,2.2425 -1.4777,4.193 -1.6036,4.5142 -0.1732,-0.3642 -0.7152,-1.0409 -0.7912,-3.217"
       style="fill:#ffcd00;fill-opacity:1;fill-rule:nonzero;stroke:none"
       id="path4949"
       inkscape:connector-curvature="0" />
    <path
       d="m 139.3617,328.7069 0.0436,0.0482 c 0.1514,0.0615 0.1919,0.2574 0.2004,0.5601 l 0.036,-0.007 c 0.1423,0.006 0.2662,-0.007 0.3932,-0.0941 -0.1964,-0.2574 -0.3232,-0.4763 -0.6732,-0.5069 z m -0.326,0 0,0 c -0.2999,0.0499 -0.5766,0.2594 -0.7588,0.1718 -0.01,0.057 0.3197,0.3974 0.4816,0.3745 5e-4,-0.2603 0.1369,-0.468 0.2772,-0.5463"
       style="fill:#ffffff;fill-opacity:1;fill-rule:nonzero;stroke:none"
       id="path4951"
       inkscape:connector-curvature="0" />
    <path
       d="m 141.4721,328.1431 c -0.0221,0.4346 -0.025,0.8836 -0.0624,1.3215 -0.0564,0.6545 -0.1698,1.0902 -0.428,1.4517 -0.3357,0.4714 -0.4989,0.5093 -0.9958,0.7826 -0.5205,0.2843 -1.1112,0.2752 -1.853,0.3847 -0.4958,0.0691 -1.088,0.2806 -1.3542,0.754 -0.008,-0.1304 -0.396,-0.7951 -0.8807,-1.0891 -0.434,-0.1859 -0.7429,-0.354 -1.1166,-0.5151 -0.6684,-0.2885 -1.4694,-0.8897 -1.5454,-1.4587 -0.0473,-0.3583 0.0408,-0.8688 0.1304,-1.2838 0.1142,-0.532 0.2869,-1.417 0.4944,-1.9752 0.3112,-0.8416 1.2926,-2.2841 1.7827,-2.8184 0.8047,-0.8737 2.1642,-1.8973 3.5909,-1.1302 0.767,0.5749 1.355,1.3467 1.8799,2.5149 0.3631,0.8093 0.3813,2.5852 0.3578,3.0611 z m -3.7769,2.1223 c 0.7968,0.9595 1.7748,0.7943 2.6053,0.4366 0.1426,-0.0995 0.1324,-0.258 0.0734,-0.3742 -0.1961,0.1349 -0.333,0.1805 -0.5323,0.2123 -0.7909,0.1315 -1.4468,-0.0258 -1.7844,-0.4779 -0.1412,-0.1863 -0.4179,-0.5057 -0.5896,-0.4181 -0.2155,0.1114 0.2276,0.6213 0.2276,0.6213 z m -1.9548,-0.6627 c -0.752,0.2846 -1.2637,0.1479 -1.8167,-0.114 -0.178,-0.0896 -0.3379,-0.2304 -0.4385,-0.3254 -0.1097,-0.007 -0.1361,0.2778 -0.0329,0.4133 0.5967,0.6729 1.7969,0.794 2.5534,0.3243 0.2197,-0.1364 1.0443,-0.2897 1.0137,-3.1465 -0.0363,-0.1037 -0.3288,-0.3427 -0.3291,-0.2109 -0.0315,2.7352 -0.6877,2.9449 -0.9499,3.0592 z m 0.8116,-3.5252 0,0 c 0.064,0.0612 0.1284,0.0958 0.2214,0.0442 0.007,-0.0978 -0.0247,-0.1281 -0.0247,-0.2214 0.0564,-0.1564 0.2948,-0.1068 0.375,0.0193 0.1619,-0.2735 0.8269,-0.1511 0.8691,0.1579 0.273,-0.1196 0.5797,0.0499 0.4312,0.3739 0.2976,-0.0539 0.6242,-0.4048 0.1845,-0.7679 -0.1071,-0.089 -0.3067,-0.003 -0.4116,-0.0604 -0.1616,-0.0881 -0.1641,-0.2151 -0.4566,-0.2565 -0.1681,-0.0445 -0.432,0.0317 -0.6259,0.0618 -0.3337,-0.0836 -0.4272,-0.0321 -0.5576,0.1587 -0.0896,0.1307 -0.1004,0.3935 -0.005,0.4904 z m 1.5225,-2.5812 0,0 c -0.3391,-0.0556 -0.7237,0.01 -0.7501,0.3101 0.4391,-0.049 1.1018,0.0544 1.4678,0.2486 -0.007,-0.2248 -0.0697,-0.4524 -0.7177,-0.5587 z m -0.0973,0.665 c -0.1757,-0.0221 -0.4872,0.1122 -0.6752,0.0839 -0.3931,-0.0587 -0.6902,-0.1559 -0.8223,0.1514 0.1321,-0.0414 0.3518,0.0966 0.3835,0.1031 0.2789,0.0539 0.3149,0.1681 0.6387,0.2373 0.1139,0.0238 0.2837,-0.1616 0.4005,-0.1267 0.0918,-0.021 0.2568,0.1826 0.3824,0.2183 0.3107,0.0912 0.4396,0.0691 0.6562,-0.0182 0.0714,-0.0467 0.3495,-0.002 0.5015,0.0539 -0.1086,-0.3954 -0.4941,-0.3546 -0.9017,-0.4726 0,0 -0.423,-0.2117 -0.5636,-0.2304 z m -3.8956,3.8069 c -0.0454,0.0207 -0.3966,0.2013 -0.3799,0.362 0.4159,0.1553 0.8124,0.682 1.2359,0.7758 0.1752,0.0394 0.5375,0.0247 0.7878,-0.0569 0.182,-0.0587 0.646,-0.4831 0.5941,-0.7288 -0.0706,-0.0899 -0.1834,-0.0732 -0.3591,-0.1038 -0.1792,-0.0309 -0.4706,-0.3413 -0.6659,-0.4118 -0.661,-0.3073 -1.2129,0.1635 -1.2129,0.1635 z m 0.1474,0.3192 c 0.0881,0.125 0.2165,0.1497 0.3356,0.2254 l 0.0289,0.0198 c 0.0598,-0.2704 0.2662,-0.4983 0.4297,-0.5032 l -0.0564,0.004 c -0.3532,-0.0924 -0.4646,0.0817 -0.7378,0.2543 z m 1.1579,0.4842 c 0.144,0.0788 0.5718,-0.1233 0.5814,-0.1812 -0.2012,0.0193 -0.3569,-0.2231 -0.6199,-0.3739 l 0.0215,0.0462 c 0.1052,0.1231 0.1086,0.2654 0.017,0.5089 z m 3.7979,-0.3365 c -0.2081,-0.003 -0.7291,0.1216 -0.826,0.1375 -0.1749,0.0283 -0.2523,-0.0893 -0.3504,-0.0301 -0.1349,0.2126 0.1743,0.7787 0.3538,0.9201 0.2086,0.1625 0.521,0.2795 0.8129,0.3056 0.4326,0.0394 0.9142,-0.2928 1.3584,-0.2928 0.0717,-0.1446 -0.2713,-0.4416 -0.3058,-0.4762 0,0 -0.4176,-0.5831 -1.0429,-0.5641"
       style="fill:#ffffff;fill-opacity:1;fill-rule:nonzero;stroke:none"
       id="path4953"
       inkscape:connector-curvature="0" />
    <path
       d="m 177.7122,265.8847 c -0.1231,-0.1976 -1.8417,-2.4248 -2.1068,-2.9416 -0.7846,-1.538 -1.9063,-5.3543 0.9556,-7.4732 -0.6905,-1.9497 -0.595,-3.8838 -0.4235,-4.6602 -0.2475,0.044 -0.8725,0.7974 -1.029,0.9621 -0.7112,0.7532 -3.8885,4.8405 -2.6495,9.6466 0.3574,1.3683 2.1886,3.892 2.9534,4.7582 2.0449,2.314 2.6317,5.9148 3.0645,6.2289 0.2662,-0.0301 0.6974,-4.1698 -0.7647,-6.5208"
       style="fill:#0c9641;fill-opacity:1;fill-rule:nonzero;stroke:none"
       id="path4955"
       inkscape:connector-curvature="0" />
  </g>
</svg>
