<?xml version="1.0" encoding="UTF-8" standalone="no"?>
<svg
   xmlns:dc="http://purl.org/dc/elements/1.1/"
   xmlns:cc="http://creativecommons.org/ns#"
   xmlns:rdf="http://www.w3.org/1999/02/22-rdf-syntax-ns#"
   xmlns:svg="http://www.w3.org/2000/svg"
   xmlns="http://www.w3.org/2000/svg"
   version="1.1"
   id="svg4755"
   viewBox="0 0 198.98942 197.97669"
   height="55.873421mm"
   width="56.159237mm">
  <defs
     id="defs4757" />
  <metadata
     id="metadata4760">
    <rdf:RDF>
      <cc:Work
         rdf:about="">
        <dc:format>image/svg+xml</dc:format>
        <dc:type
           rdf:resource="http://purl.org/dc/dcmitype/StillImage" />
        <dc:title></dc:title>
      </cc:Work>
    </rdf:RDF>
  </metadata>
  <path
     id="path1350"
     style="fill:#000000;fill-opacity:1;fill-rule:evenodd;stroke:#ffffff;stroke-width:0.33905861px;stroke-linecap:butt;stroke-linejoin:miter;stroke-opacity:1"
     d="m 7.5418195,28.450044 2.37341,1.42405 1.6274815,1.01717 c 0,0 2.23778,2.89895 2.84809,2.8481 0.61031,-0.0509 0,-2.03436 0,-2.03436 l 0.61031,-2.84809 1.22061,-2.03435 -0.81374,-2.23779 c 0,0 -0.91546,1.06804 -2.03436,0.61031 -1.11889,-0.45773 -2.44122,-1.83092 -2.44122,-1.83092 l -2.0343515,1.42405 -2.03435,-1.01718 0,-4.0687 2.03435,1.42405 2.0343515,0.6103 3.05153,-1.01718 3.66183,-0.20343 4.06871,-0.61031 3.86526,-0.81374 5.28932,-1.42404 3.66183,-0.81374 3.25496,-0.61031 4.27214,-0.6103 c 0,0 2.49208,0 3.86527,-1.01718 1.37319,-1.01718 2.03435,-3.05153 2.03435,-3.05153 l 2.64466,-2.2377798 3.25496,-2.23779 3.4584,-1.22061 4.47557,-0.40687 5.08588,-1.01718 4.47558,-0.81374 5.69618,-0.20343 4.068695,-1.01718 2.03436,-1.01717 3.45839,-1.01718001 3.05153,-0.20344 5.69619,3.25497001 2.23778,2.23778 c 0,0 1.16862,1.52626 1.83092,3.05153 0.20364,0.46899 -1.22061,-0.20343 -1.22061,-0.20343 l -0.91546,-2.13607 -1.11889,-1.32233 -3.05153,-2.33951 -2.84809,-1.32232 0,3.05152 0.20343,3.05153 0.61031,3.0515298 0.20343,3.05153 2.23779,2.03435 1.83092,2.03435 3.86526,0.6103 3.051534,-0.20343 4.88245,-1.01718 2.84809,-1.22061 c 0,0 1.4749,-1.78006 2.64465,-1.83091 1.16976,-0.0509 2.03436,1.62748 2.03436,1.62748 l 9.15458,1.01717 6.10305,2.03435 8.95115,1.42405 7.73054,1.22061 4.67901,0.81374 5.08588,0.61031 6.10305,0 3.05153,-1.01718 3.05153,0 4.0687,-1.01718 2.69551,0.0509 3.81441,2.18693 1.62749,2.84809 3.05152,2.03436 1.52577,1.78005 0.50858,4.323 0,4.0687 1.27147,2.8481 0.15258,4.88244 1.11889,3.25496 0.50859,5.08588 1.41181,3.66184 c 0,0 0.20408,2.12056 0.38166,3.40375 0.25816,1.86538 0.63122,0.77534 0.78526,2.65219 0.11421,1.39149 0.93035,1.46829 1.01317,2.81891 0.0827,1.34776 -0.35512,2.33226 0.27337,3.73813 0.57693,1.29054 1.83092,3.66183 1.83092,3.66183 l -1.22061,2.84809 -2.8481,2.64466 c 0,0 -1.62748,1.4749 -3.05152,2.03435 -1.42405,0.55945 -1.32233,1.42405 -2.8481,2.44122 -1.52576,1.01718 -2.84809,2.84809 -2.84809,2.84809 0,0 -2.94981,1.47491 -2.44122,3.25497 0.50859,1.78005 4.27214,3.45839 4.27214,3.45839 l 3.4584,2.44123 0.81374,4.068686 0,5.08588 -0.27125,5.05197 0.33906,3.62793 -0.40687,4.88244 1.01717,4.06871 2.03436,4.0687 2.03435,2.03435 2.03435,4.0687 1.01717,2.03436 2.03436,1.62748 c -0.74593,0.20345 -1.28843,0.77396 -2.03436,0.40687 l -2.03435,3.05153 2.03435,3.05152 3.05153,2.03435 -2.03435,4.06871 -2.23779,0.40687 -6.35735,6.00134 -6.56078,6.81507 -6.15391,6.20478 -6.35735,7.42538 -2.84809,1.62748 2.64465,4.27214 -1.22061,2.64466 0.61031,5.28931 2.44122,3.4584 -0.20344,4.27214 -2.84809,-2.23779 -3.4584,-0.40687 -5.08588,-3.05153 -5.08587,-1.01717 -4.06871,-3.05153 -3.05153,-2.03435 -5.08587,-2.03435 -4.06871,-3.05153 -4.0687,1.01717 -4.0687,3.05153 -4.06871,1.01718 -3.05153,-2.03435 -3.05152,-3.05153 -4.06871,1.01717 -2.03435,2.03436 -2.03435,5.08588 -4.0687,-2.03436 -4.06871,1.01718 1.01718,-5.08588 -1.01718,-3.05153 -2.03435,-5.08588 -2.034354,-2.03435 -2.03435,1.01718 -3.05153,3.05153 -1.01717,2.03435 -2.03436,0 -3.05152,1.01717 -2.28865,-3.72964 c -0.50859,-1.69529 -0.76288,-4.74682 -0.76288,-4.74682 l -3.05153,-3.05153 0,-3.05153 -4.068695,-4.0687 -4.06871,-3.05153 -4.0687,-2.03435 -4.0687,4.0687 -3.05153,-4.0687 -3.05153,-4.0687 2.03435,-3.05153 2.03436,-2.03435 -3.05153,-2.03435 -4.0687,0 -6.10306,-1.01718 c 0,0 -3.30582,-3.05153 -4.0687,-3.05153 -0.76288,0 -0.38239,0.90185 1.01717,3.86527 0.64871,1.37356 0.2543,1.83092 1.1189,2.84809 0.7857,0.92437 -0.10172,2.44123 -0.10172,2.44123 l -2.03435,-0.40688 -2.03435,1.22062 c 0,0 -1.88178,2.54294 -3.05153,2.23778 -1.16975,-0.30515 -2.64466,-3.25496 -2.64466,-3.25496 l -1.01717,-2.84809 -2.03436,-4.06871 -2.64465,-2.64465 2.03435,-2.64466 c 0,0 3.00067,-0.30515 3.25496,-1.83092 0.25429,-1.52576 -1.42405,-3.05152 -1.42405,-3.05152 l -1.62748,-2.03436 -5.08588,-1.01717 -6.10305,-1.01718 -5.08588,-1.01717 -3.05153,-5.08588 -1.01717,-3.05153 -3.66184,-1.01718 c 0,0 -0.91545,0.61031 -1.2206115,1.42405 -0.30515,0.81374 -0.20343,2.03435 -0.20343,2.03435 l -2.03435,-0.40687 c 0,0 1.11889,-1.93263 1.62748,-3.4584 0.50858,-1.52576 0.40687,-2.64465 0.40687,-2.64465 0,0 2.2377815,-4.27214 2.2377815,-4.27214 0,0 0.55945,-2.39036 -1.22061,-6.50993 -0.8900315,-2.05978 -1.7037615,-4.19767 -3.0324415,-5.946846 -1.32868,-1.74918 -0.88367,-3.13326 -1.85,-4.8352 0.45772,-1.70194 0.81374,-3.86527 0.81374,-3.86527 l 3.05153,-4.0687 1.0171715,-4.06871 -1.0171715,-2.03435 0,-3.05152 -2.03435,-3.05153 0.20343,-3.86527 1.83092,-3.25496 c 0,0 -0.8646,-1.06804 -2.13607,-2.33951 -1.27147,-1.27147 -2.94981,-2.74637 -2.94981,-2.74637 l -1.42405,-3.05153 -2.84809,-2.84809 2.03435,-3.05153 c 0,0 1.62748,-0.8646 3.4584,-3.4584 1.83092,-2.5938 3.25496,-6.10305 3.25496,-6.10305 l 0.61031,-3.86527 -2.03435,-3.05153 0,-7.5271 z" />
  <path
     style="fill:#650a32;fill-opacity:1"
     id="path4729"
     d="m 127.75471,152.5564 c -5.22833,0 -9.45693,4.2286 -9.45693,9.45693 0,7.09269 9.45693,17.56286 9.45693,17.56286 0,0 9.45694,-10.47017 9.45694,-17.56286 0,-5.22833 -4.2286,-9.45693 -9.45694,-9.45693 z m 0,12.8344 c -1.86436,0 -3.37746,-1.5131 -3.37746,-3.37747 0,-1.86436 1.5131,-3.37748 3.37746,-3.37748 1.86437,0 3.37747,1.51312 3.37747,3.37748 0,1.86437 -1.5131,3.37747 -3.37747,3.37747 z" />
</svg>
