<?xml version="1.0" encoding="UTF-8" standalone="no"?>
<svg
   xmlns:dc="http://purl.org/dc/elements/1.1/"
   xmlns:cc="http://creativecommons.org/ns#"
   xmlns:rdf="http://www.w3.org/1999/02/22-rdf-syntax-ns#"
   xmlns:svg="http://www.w3.org/2000/svg"
   xmlns="http://www.w3.org/2000/svg"
   version="1.1"
   id="svg4425"
   viewBox="0 0 404.41382 85.584449"
   height="24.153833mm"
   width="114.13457mm">
  <defs
     id="defs4427" />
  <metadata
     id="metadata4430">
    <rdf:RDF>
      <cc:Work
         rdf:about="">
        <dc:format>image/svg+xml</dc:format>
        <dc:type
           rdf:resource="http://purl.org/dc/dcmitype/StillImage" />
        <dc:title></dc:title>
      </cc:Work>
    </rdf:RDF>
  </metadata>
  <g
     transform="translate(433.63548,117.20778)"
     id="g5179">
    <path
       id="path4218"
       style="font-style:normal;font-variant:normal;font-weight:300;font-stretch:normal;font-size:medium;line-height:125%;font-family:'Segoe UI';-inkscape-font-specification:'Segoe UI Light';text-align:start;letter-spacing:0px;word-spacing:0px;text-anchor:start;fill:#ffffff;fill-opacity:1;stroke:none;stroke-width:1px;stroke-linecap:butt;stroke-linejoin:miter;stroke-opacity:1"
       d="m -430.52525,-86.940406 17.90993,0 0,1.87867 -21.02017,0 0,-0.6471 18.11868,-27.386754 -16.67837,0 0,-1.89954 19.8721,0 0,0.5636 -18.20217,27.491124 z" />
    <path
       id="path4220"
       style="font-style:normal;font-weight:bold;font-size:medium;line-height:125%;font-family:sans-serif;text-align:start;letter-spacing:0px;word-spacing:0px;text-anchor:start;fill:#ffffff;fill-opacity:1;stroke:none;stroke-width:1px;stroke-linecap:butt;stroke-linejoin:miter;stroke-opacity:1"
       d="m -380.28142,-85.061736 -6.80494,0 -12.33656,-18.807524 q -1.08545,-1.64905 -1.50293,-2.48401 l -0.0835,0 q 0.16699,1.58643 0.16699,4.84278 l 0,16.448754 -6.36659,0 0,-29.933394 7.26417,0 11.87734,18.223054 q 0.81408,1.23156 1.50293,2.44226 l 0.0835,0 q -0.16699,-1.0437 -0.16699,-4.11219 l 0,-16.553124 6.36658,0 0,29.933394 z" />
    <path
       id="path4222"
       style="font-style:normal;font-weight:bold;font-size:medium;line-height:125%;font-family:sans-serif;text-align:start;letter-spacing:0px;word-spacing:0px;text-anchor:start;fill:#ffffff;fill-opacity:1;stroke:none;stroke-width:1px;stroke-linecap:butt;stroke-linejoin:miter;stroke-opacity:1"
       d="m -370.70023,-109.81836 q -1.66993,0 -2.7345,-0.98108 -1.06458,-1.00196 -1.06458,-2.44227 0,-1.48205 1.06458,-2.42139 1.06457,-0.93933 2.7345,-0.93933 1.6908,0 2.7345,0.93933 1.06457,0.93934 1.06457,2.42139 0,1.50293 -1.06457,2.46314 -1.0437,0.96021 -2.7345,0.96021 z m 3.25635,24.756624 -6.5962,0 0,-21.375034 6.5962,0 0,21.375034 z" />
    <path
       id="path4224"
       style="font-style:normal;font-weight:bold;font-size:medium;line-height:125%;font-family:sans-serif;text-align:start;letter-spacing:0px;word-spacing:0px;text-anchor:start;fill:#ffffff;fill-opacity:1;stroke:none;stroke-width:1px;stroke-linecap:butt;stroke-linejoin:miter;stroke-opacity:1"
       d="m -340.43286,-85.061736 -7.91127,0 -6.82581,-10.60402 -0.0835,0 0,10.60402 -6.5962,0 0,-31.645064 6.5962,0 0,20.143464 0.0835,0 6.36658,-9.873434 7.82777,0 -7.66077,10.040424 8.2035,11.33461 z" />
    <path
       id="path4226"
       style="font-style:normal;font-weight:bold;font-size:medium;line-height:125%;font-family:sans-serif;text-align:start;letter-spacing:0px;word-spacing:0px;text-anchor:start;fill:#ffffff;fill-opacity:1;stroke:none;stroke-width:1px;stroke-linecap:butt;stroke-linejoin:miter;stroke-opacity:1"
       d="m -334.62988,-109.81836 q -1.66993,0 -2.7345,-0.98108 -1.06458,-1.00196 -1.06458,-2.44227 0,-1.48205 1.06458,-2.42139 1.06457,-0.93933 2.7345,-0.93933 1.6908,0 2.7345,0.93933 1.06457,0.93934 1.06457,2.42139 0,1.50293 -1.06457,2.46314 -1.0437,0.96021 -2.7345,0.96021 z m 3.25635,24.756624 -6.5962,0 0,-21.375034 6.5962,0 0,21.375034 z" />
    <path
       id="path4228"
       style="font-style:normal;font-weight:bold;font-size:medium;line-height:125%;font-family:sans-serif;text-align:start;letter-spacing:0px;word-spacing:0px;text-anchor:start;fill:#ffffff;fill-opacity:1;stroke:none;stroke-width:1px;stroke-linecap:butt;stroke-linejoin:miter;stroke-opacity:1"
       d="m -311.83542,-111.65528 q -1.27332,-0.50098 -2.44226,-0.50098 -3.17286,0 -3.17286,3.44422 l 0,2.27527 4.88453,0 0,4.86366 -4.88453,0 0,16.511374 -6.57533,0 0,-16.511374 -3.59033,0 0,-4.86366 3.59033,0 0,-2.651 q 0,-3.65296 2.37965,-5.88648 2.37964,-2.23353 6.47095,-2.23353 2.00391,0 3.33985,0.41748 l 0,5.13502 z" />
    <path
       id="path4230"
       style="font-style:normal;font-weight:bold;font-size:medium;line-height:125%;font-family:sans-serif;text-align:start;letter-spacing:0px;word-spacing:0px;text-anchor:start;fill:#ffffff;fill-opacity:1;stroke:none;stroke-width:1px;stroke-linecap:butt;stroke-linejoin:miter;stroke-opacity:1"
       d="m -299.22749,-84.539886 q -5.34376,0 -8.41224,-2.98499 -3.04761,-3.00586 -3.04761,-8.14088 0,-5.302014 3.17285,-8.287004 3.17286,-3.00586 8.57923,-3.00586 5.32289,0 8.34962,3.00586 3.02674,2.98499 3.02674,7.911274 0,5.32288 -3.13111,8.41224 -3.11023,3.08936 -8.53748,3.08936 z m 0.16699,-17.367214 q -2.33789,0 -3.63208,1.6073 -1.2942,1.607304 -1.2942,4.550544 0,6.15785 4.96803,6.15785 4.73841,0 4.73841,-6.32484 0,-5.990854 -4.78016,-5.990854 z" />
    <path
       id="path4232"
       style="font-style:normal;font-weight:bold;font-size:medium;line-height:125%;font-family:sans-serif;text-align:start;letter-spacing:0px;word-spacing:0px;text-anchor:start;fill:#ffffff;fill-opacity:1;stroke:none;stroke-width:1px;stroke-linecap:butt;stroke-linejoin:miter;stroke-opacity:1"
       d="m -269.33586,-100.48766 q -1.18982,-0.6471 -2.77625,-0.6471 -2.15003,0 -3.36072,1.586434 -1.2107,1.56555 -1.2107,4.27918 l 0,10.20741 -6.5962,0 0,-21.375034 6.5962,0 0,3.96607 0.0835,0 q 1.56555,-4.3418 5.63599,-4.3418 1.0437,0 1.62818,0.25049 l 0,6.07435 z" />
    <path
       id="path4234"
       style="font-style:normal;font-weight:bold;font-size:medium;line-height:125%;font-family:sans-serif;text-align:start;letter-spacing:0px;word-spacing:0px;text-anchor:start;fill:#ffffff;fill-opacity:1;stroke:none;stroke-width:1px;stroke-linecap:butt;stroke-linejoin:miter;stroke-opacity:1"
       d="m -247.20936,-93.870586 -13.94387,0 q 0.33399,4.65491 5.86561,4.65491 3.52772,0 6.19959,-1.66992 l 0,4.75928 q -2.96411,1.58643 -7.70252,1.58643 -5.17676,0 -8.03651,-2.85975 -2.85974,-2.88062 -2.85974,-8.01563 0,-5.322884 3.08936,-8.433124 3.08935,-3.11023 7.59815,-3.11023 4.67579,0 7.22242,2.77625 2.56751,2.77625 2.56751,7.535534 l 0,2.77625 z m -6.1161,-4.04957 q 0,-4.592294 -3.71558,-4.592294 -1.58643,0 -2.75537,1.31507 -1.14808,1.315064 -1.39856,3.277224 l 7.86951,0 z" />
    <path
       id="path4236"
       style="font-style:normal;font-weight:bold;font-size:medium;line-height:125%;font-family:sans-serif;text-align:start;letter-spacing:0px;word-spacing:0px;text-anchor:start;fill:#ffffff;fill-opacity:1;stroke:none;stroke-width:1px;stroke-linecap:butt;stroke-linejoin:miter;stroke-opacity:1"
       d="m -209.34385,-85.061736 -6.57533,0 0,-12.19045 q 0,-4.654914 -3.42334,-4.654914 -1.62818,0 -2.651,1.39856 -1.02283,1.398564 -1.02283,3.485974 l 0,11.96083 -6.5962,0 0,-12.31569 q 0,-4.529674 -3.36072,-4.529674 -1.6908,0 -2.71363,1.33594 -1.00195,1.335944 -1.00195,3.632084 l 0,11.87734 -6.5962,0 0,-21.375034 6.5962,0 0,3.33985 0.0835,0 q 1.02283,-1.71167 2.85975,-2.77625 1.85779,-1.08545 4.04956,-1.08545 4.52967,0 6.19959,3.98694 2.44227,-3.98694 7.18068,-3.98694 6.97193,0 6.97193,8.600114 l 0,13.29677 z" />
    <path
       id="path4238"
       style="font-style:normal;font-variant:normal;font-weight:300;font-stretch:normal;font-size:medium;line-height:125%;font-family:'Segoe UI';-inkscape-font-specification:'Segoe UI Light';text-align:start;letter-spacing:0px;word-spacing:0px;text-anchor:start;fill:#ffffff;fill-opacity:1;stroke:none;stroke-width:1px;stroke-linecap:butt;stroke-linejoin:miter;stroke-opacity:1"
       d="m -188.94991,-85.061736 0,-12.44094 q 0,-7.702524 -5.55249,-7.702524 -3.08936,0 -5.0724,2.27527 -1.98303,2.2544 -1.98303,5.594254 l 0,12.27394 -1.92041,0 0,-21.375034 1.92041,0 0,3.88257 0.0835,0 q 2.3379,-4.40442 7.30592,-4.40442 3.46509,0 5.30201,2.31702 1.83692,2.29615 1.83692,6.575334 l 0,13.00453 -1.92042,0 z" />
    <path
       id="path4240"
       style="font-style:normal;font-variant:normal;font-weight:300;font-stretch:normal;font-size:medium;line-height:125%;font-family:'Segoe UI';-inkscape-font-specification:'Segoe UI Light';text-align:start;letter-spacing:0px;word-spacing:0px;text-anchor:start;fill:#ffffff;fill-opacity:1;stroke:none;stroke-width:1px;stroke-linecap:butt;stroke-linejoin:miter;stroke-opacity:1"
       d="m -167.82537,-85.061736 0,-4.27918 -0.0835,0 q -1.02283,2.19177 -2.98499,3.50684 -1.94129,1.29419 -4.32093,1.29419 -3.04761,0 -4.8219,-1.71167 -1.7743,-1.71168 -1.7743,-4.32093 0,-5.59425 7.41029,-6.76319 l 6.57532,-0.98108 q 0,-6.888444 -5.17676,-6.888444 -3.52771,0 -6.86756,2.83887 l 0,-2.31702 q 1.18982,-0.93933 3.2146,-1.6073 2.04566,-0.66797 3.84083,-0.66797 3.2981,0 5.09326,2.04566 1.81605,2.04565 1.81605,5.949104 l 0,13.90212 -1.92042,0 z m -5.88648,-10.64577 q -3.36072,0.48011 -4.71753,1.56556 -1.35682,1.06457 -1.35682,3.48596 0,1.89954 1.25245,3.13111 1.27331,1.23157 3.52771,1.23157 3.08936,0 5.13502,-2.27527 2.04565,-2.29615 2.04565,-5.90736 l 0,-2.0874 -5.88648,0.85583 z" />
    <path
       id="path4242"
       style="font-style:normal;font-weight:bold;font-size:medium;line-height:125%;font-family:sans-serif;text-align:start;letter-spacing:0px;word-spacing:0px;text-anchor:start;fill:#cd2a3e;fill-opacity:1;stroke:none;stroke-width:1px;stroke-linecap:butt;stroke-linejoin:miter;stroke-opacity:1"
       d="m -120.31604,-114.99513 -7.91127,29.933394 -7.47291,0 -4.96802,-19.204134 q -0.39661,-1.50293 -0.4801,-3.36072 l -0.0835,0 q -0.18787,2.04566 -0.54272,3.36072 l -5.09327,19.204134 -7.78602,0 -7.86952,-29.933394 7.36854,0 4.21656,19.934724 q 0.27136,1.27331 0.39661,3.42334 l 0.12524,0 q 0.0835,-1.6073 0.60535,-3.50684 l 5.42725,-19.851224 7.22242,0 4.9054,20.101714 q 0.27136,1.10632 0.4801,3.2146 l 0.0835,0 q 0.0835,-1.64905 0.43836,-3.33984 l 4.13306,-19.976474 6.80494,0 z" />
    <path
       id="path4244"
       style="font-style:normal;font-weight:bold;font-size:medium;line-height:125%;font-family:sans-serif;text-align:start;letter-spacing:0px;word-spacing:0px;text-anchor:start;fill:#cd2a3e;fill-opacity:1;stroke:none;stroke-width:1px;stroke-linecap:butt;stroke-linejoin:miter;stroke-opacity:1"
       d="m -98.753136,-93.870586 -13.943864,0 q 0.33398,4.65491 5.8656,4.65491 3.52772,0 6.1996,-1.66992 l 0,4.75928 q -2.96412,1.58643 -7.70253,1.58643 -5.17676,0 -8.03651,-2.85975 -2.85974,-2.88062 -2.85974,-8.01563 0,-5.322884 3.08936,-8.433124 3.08936,-3.11023 7.59815,-3.11023 4.67579,0 7.22242,2.77625 2.567514,2.77625 2.567514,7.535534 l 0,2.77625 z m -6.116104,-4.04957 q 0,-4.592294 -3.71558,-4.592294 -1.58642,0 -2.75537,1.31507 -1.14807,1.315064 -1.39856,3.277224 l 7.86951,0 z m 1.00196,21.20804 q -0.50098,0.16699 -1.2107,0.27136 -0.68884,0.12524 -1.41943,0.12524 -1.7743,0 -2.83887,-0.93933 -1.06458,-0.91846 -1.06458,-2.69275 0,-0.6471 0.22962,-1.35681 0.22961,-0.68885 0.66797,-1.37769 0.43835,-0.66797 1.08545,-1.27332 0.64709,-0.60535 1.48205,-1.10632 l 3.23548,0 q -1.62817,1.18982 -2.42139,2.31702 -0.77234,1.14807 -0.77234,2.02478 0,0.68884 0.35486,1.02283 0.35486,0.35486 0.96021,0.35486 0.3966,0 0.83496,-0.0626 0.43835,-0.0626 0.85583,-0.18787 l 0.0209,2.88062 z" />
    <path
       id="path4246"
       style="font-style:normal;font-weight:bold;font-size:medium;line-height:125%;font-family:sans-serif;text-align:start;letter-spacing:0px;word-spacing:0px;text-anchor:start;fill:#ffffff;fill-opacity:1;stroke:none;stroke-width:1px;stroke-linecap:butt;stroke-linejoin:miter;stroke-opacity:1"
       d="m -73.871266,-87.504006 q 0,5.94911 -3.44422,9.20546 -3.44422,3.27722 -9.97779,3.27722 -4.32093,0 -6.84669,-1.23157 l 0,-5.55249 q 3.2981,1.92041 6.65882,1.92041 3.33985,0 5.17676,-1.77429 1.83692,-1.75342 1.83692,-4.78016 l 0,-1.6908 -0.0835,0 q -2.25439,3.59034 -6.65882,3.59034 -4.09131,0 -6.49183,-2.88062 -2.40051,-2.88062 -2.40051,-7.7234 0,-5.427254 2.67188,-8.620984 2.67187,-3.19373 7.03455,-3.19373 3.90345,0 5.84473,3.00586 l 0.0835,0 0,-2.48401 6.5962,0 0,18.932764 z m -6.5127,-7.82776 0,-1.6908 q 0,-2.02479 -1.2107,-3.444224 -1.18982,-1.44031 -3.11023,-1.44031 -2.19178,0 -3.44422,1.71167 -1.25244,1.711674 -1.25244,4.821914 0,2.67188 1.18982,4.23743 1.18982,1.54468 3.25635,1.54468 2.04566,0 3.2981,-1.56556 1.27332,-1.58642 1.27332,-4.1748 z" />
    <path
       id="path4248"
       style="font-style:normal;font-weight:bold;font-size:medium;line-height:125%;font-family:sans-serif;text-align:start;letter-spacing:0px;word-spacing:0px;text-anchor:start;fill:#436f4d;fill-opacity:1;stroke:none;stroke-width:1px;stroke-linecap:butt;stroke-linejoin:miter;stroke-opacity:1"
       d="m -54.416656,-100.48766 q -1.18982,-0.6471 -2.77625,-0.6471 -2.15002,0 -3.36072,1.586434 -1.21069,1.56555 -1.21069,4.27918 l 0,10.20741 -6.5962,0 0,-21.375034 6.5962,0 0,3.96607 0.0835,0 q 1.56556,-4.3418 5.636,-4.3418 1.0437,0 1.62817,0.25049 l 0,6.07435 z" />
    <path
       id="path4250"
       style="font-style:normal;font-weight:bold;font-size:medium;line-height:125%;font-family:sans-serif;text-align:start;letter-spacing:0px;word-spacing:0px;text-anchor:start;fill:#436f4d;fill-opacity:1;stroke:none;stroke-width:1px;stroke-linecap:butt;stroke-linejoin:miter;stroke-opacity:1"
       d="m -29.221666,-106.43677 -8.68361,23.086704 q -3.13111,8.32874 -9.43507,8.32874 -2.40051,0 -3.94519,-0.54272 l 0,-5.26026 q 1.31506,0.77234 2.85974,0.77234 2.54664,0 3.54859,-2.40052 l 1.1272,-2.651 -8.68361,-21.333284 7.30592,0 3.98694,13.004534 q 0.37574,1.2107 0.58448,2.85975 l 0.0835,0 q 0.18787,-1.2107 0.68885,-2.818 l 4.02869,-13.046284 6.53358,0 z" />
    <path
       id="path4179"
       style="font-style:normal;font-variant:normal;font-weight:300;font-stretch:normal;font-size:medium;line-height:125%;font-family:'Segoe UI';-inkscape-font-specification:'Segoe UI Light';text-align:start;letter-spacing:0px;word-spacing:0px;text-anchor:start;fill:#ffffff;fill-opacity:1;stroke:none;stroke-width:1px;stroke-linecap:butt;stroke-linejoin:miter;stroke-opacity:1"
       d="m -430.52525,-42.605366 17.90993,0 0,1.87866 -21.02017,0 0,-0.64709 18.11868,-27.38675 -16.67837,0 0,-1.89954 19.8721,0 0,0.5636 -18.20217,27.49112 z" />
    <g
       id="g4279"
       transform="matrix(0.97539983,0,0,1,-449.67087,-153.81481)"
       style="fill:#ffffff">
      <path
         d="m 71.129868,83.511867 -10.31178,29.933383 -7.639901,0 -10.186535,-29.933383 7.264168,0 6.241341,20.832303 q 0.500977,1.69079 0.605347,2.98499 l 0.125244,0 q 0.146119,-1.39857 0.647096,-3.06849 l 6.199592,-20.748803 7.055428,0 z"
         style="font-style:normal;font-weight:bold;font-size:medium;line-height:125%;font-family:sans-serif;text-align:start;letter-spacing:0px;word-spacing:0px;text-anchor:start;fill:#ffffff;fill-opacity:1;stroke:none;stroke-width:1px;stroke-linecap:butt;stroke-linejoin:miter;stroke-opacity:1"
         id="path4181" />
      <path
         d="m 77.454704,88.688631 q -1.669924,0 -2.7345,-0.98108 -1.064577,-1.001955 -1.064577,-2.442264 0,-1.482057 1.064577,-2.421389 1.064576,-0.939333 2.7345,-0.939333 1.690798,0 2.7345,0.939333 1.064576,0.939332 1.064576,2.421389 0,1.502932 -1.064576,2.463138 -1.043702,0.960206 -2.7345,0.960206 z m 3.256351,24.756619 -6.596199,0 0,-21.375023 6.596199,0 0,21.375023 z"
         style="font-style:normal;font-weight:bold;font-size:medium;line-height:125%;font-family:sans-serif;text-align:start;letter-spacing:0px;word-spacing:0px;text-anchor:start;fill:#ffffff;fill-opacity:1;stroke:none;stroke-width:1px;stroke-linecap:butt;stroke-linejoin:miter;stroke-opacity:1"
         id="path4183" />
      <path
         d="m 96.491836,113.9671 q -5.343756,0 -8.412241,-2.98499 -3.047611,-3.00586 -3.047611,-8.14087 0,-5.302013 3.172855,-8.287002 3.172856,-3.005863 8.579234,-3.005863 5.322887,0 8.349617,3.005863 3.02674,2.984989 3.02674,7.911262 0,5.32288 -3.13111,8.41224 -3.11023,3.08936 -8.537484,3.08936 z m 0.166993,-17.367205 q -2.337894,0 -3.632085,1.607302 -1.294191,1.607301 -1.294191,4.550543 0,6.15784 4.968024,6.15784 4.738413,0 4.738413,-6.32483 0,-5.990855 -4.780161,-5.990855 z"
         style="font-style:normal;font-weight:bold;font-size:medium;line-height:125%;font-family:sans-serif;text-align:start;letter-spacing:0px;word-spacing:0px;text-anchor:start;fill:#ffffff;fill-opacity:1;stroke:none;stroke-width:1px;stroke-linecap:butt;stroke-linejoin:miter;stroke-opacity:1"
         id="path4185" />
      <path
         d="m 119.03581,113.44525 -6.5962,0 0,-31.645055 6.5962,0 0,31.645055 z"
         style="font-style:normal;font-weight:bold;font-size:medium;line-height:125%;font-family:sans-serif;text-align:start;letter-spacing:0px;word-spacing:0px;text-anchor:start;fill:#ffffff;fill-opacity:1;stroke:none;stroke-width:1px;stroke-linecap:butt;stroke-linejoin:miter;stroke-opacity:1"
         id="path4187" />
      <path
         d="m 142.41474,113.44525 -6.24134,0 0,-3.06848 -0.0835,0 q -2.15003,3.59033 -6.36659,3.59033 -3.11023,0 -4.9054,-1.75342 -1.77429,-1.77429 -1.77429,-4.71753 0,-6.22047 7.36854,-7.18067 l 5.80298,-0.772344 q 0,-3.50684 -3.79908,-3.50684 -3.81995,0 -7.26416,2.275271 l 0,-4.968023 q 1.37768,-0.709718 3.75732,-1.252443 2.40052,-0.542726 4.36268,-0.542726 9.14283,0 9.14283,9.121955 l 0,12.77492 z m -6.19959,-8.6836 0,-1.44031 -3.88257,0.50098 q -3.21461,0.41748 -3.21461,2.90149 0,1.1272 0.77234,1.85779 0.79322,0.70972 2.12916,0.70972 1.85779,0 3.02673,-1.27332 1.16895,-1.29419 1.16895,-3.25635 z m 3.04761,17.03322 q -0.50098,0.16699 -1.21069,0.27136 -0.68885,0.12525 -1.41944,0.12525 -1.77429,0 -2.83887,-0.93933 -1.06458,-0.91846 -1.06458,-2.69276 0,-0.64709 0.22962,-1.35681 0.22961,-0.68884 0.66797,-1.37769 0.43835,-0.66797 1.08545,-1.27331 0.64709,-0.60535 1.48206,-1.10633 l 3.23547,0 q -1.62817,1.18982 -2.42139,2.31702 -0.77234,1.14807 -0.77234,2.02478 0,0.68885 0.35486,1.02283 0.35486,0.35486 0.96021,0.35486 0.39661,0 0.83496,-0.0626 0.43836,-0.0626 0.85584,-0.18787 l 0.0209,2.88062 z"
         style="font-style:normal;font-weight:bold;font-size:medium;line-height:125%;font-family:sans-serif;text-align:start;letter-spacing:0px;word-spacing:0px;text-anchor:start;fill:#ffffff;fill-opacity:1;stroke:none;stroke-width:1px;stroke-linecap:butt;stroke-linejoin:miter;stroke-opacity:1"
         id="path4189" />
      <path
         d="m 148.32209,113.44525 0,-29.933383 10.89626,0 q 5.00977,0 7.70252,1.836916 2.69275,1.836917 2.69275,5.176764 0,2.42139 -1.64905,4.237432 -1.62817,1.816042 -4.17481,2.52576 l 0,0.0835 q 3.19373,0.396607 5.09327,2.358767 1.92041,1.962154 1.92041,4.780154 0,4.11219 -2.94324,6.53358 -2.94324,2.40051 -8.03651,2.40051 l -11.5016,0 z m 6.74232,-24.96536 0,7.097177 2.96412,0 q 2.0874,0 3.27722,-1.001955 1.2107,-1.022828 1.2107,-2.797122 0,-3.2981 -4.92628,-3.2981 l -2.52576,0 z m 0,12.10695 0,7.89039 3.65296,0 q 2.33789,0 3.65296,-1.08545 1.33594,-1.08545 1.33594,-2.96412 0,-1.79517 -1.31507,-2.81799 -1.29419,-1.02283 -3.63208,-1.02283 l -3.69471,0 z"
         style="font-style:normal;font-weight:bold;font-size:medium;line-height:125%;font-family:sans-serif;text-align:start;letter-spacing:0px;word-spacing:0px;text-anchor:start;fill:#ffffff;fill-opacity:1;stroke:none;stroke-width:1px;stroke-linecap:butt;stroke-linejoin:miter;stroke-opacity:1"
         id="path4191" />
      <path
         d="m 194.26588,104.6364 -13.94386,0 q 0.33398,4.65492 5.8656,4.65492 3.52772,0 6.1996,-1.66993 l 0,4.75929 q -2.96412,1.58642 -7.70253,1.58642 -5.17676,0 -8.03651,-2.85974 -2.85974,-2.88062 -2.85974,-8.01564 0,-5.322878 3.08936,-8.433111 3.08936,-3.110234 7.59815,-3.110234 4.67579,0 7.22242,2.776249 2.56751,2.776248 2.56751,7.535536 l 0,2.77624 z m -6.1161,-4.04956 q 0,-4.592292 -3.71558,-4.592292 -1.58642,0 -2.75537,1.315065 -1.14807,1.315065 -1.39856,3.277227 l 7.86951,0 z"
         style="font-style:normal;font-weight:bold;font-size:medium;line-height:125%;font-family:sans-serif;text-align:start;letter-spacing:0px;word-spacing:0px;text-anchor:start;fill:#ffffff;fill-opacity:1;stroke:none;stroke-width:1px;stroke-linecap:butt;stroke-linejoin:miter;stroke-opacity:1"
         id="path4193" />
      <path
         d="m 212.13407,98.01933 q -1.18982,-0.647095 -2.77625,-0.647095 -2.15003,0 -3.36072,1.586427 -1.2107,1.565558 -1.2107,4.279178 l 0,10.20741 -6.5962,0 0,-21.375023 6.5962,0 0,3.966069 0.0835,0 q 1.56555,-4.341802 5.63599,-4.341802 1.0437,0 1.62818,0.250488 l 0,6.074348 z"
         style="font-style:normal;font-weight:bold;font-size:medium;line-height:125%;font-family:sans-serif;text-align:start;letter-spacing:0px;word-spacing:0px;text-anchor:start;fill:#ffffff;fill-opacity:1;stroke:none;stroke-width:1px;stroke-linecap:butt;stroke-linejoin:miter;stroke-opacity:1"
         id="path4195" />
      <path
         d="m 236.6402,113.44525 -7.91127,0 -6.82581,-10.60401 -0.0835,0 0,10.60401 -6.5962,0 0,-31.645055 6.5962,0 0,20.143455 0.0835,0 6.36658,-9.873423 7.82777,0 -7.66078,10.040413 8.20351,11.33461 z"
         style="font-style:normal;font-weight:bold;font-size:medium;line-height:125%;font-family:sans-serif;text-align:start;letter-spacing:0px;word-spacing:0px;text-anchor:start;fill:#ffffff;fill-opacity:1;stroke:none;stroke-width:1px;stroke-linecap:butt;stroke-linejoin:miter;stroke-opacity:1"
         id="path4197" />
      <path
         d="m 242.44318,88.688631 q -1.66992,0 -2.7345,-0.98108 -1.06457,-1.001955 -1.06457,-2.442264 0,-1.482057 1.06457,-2.421389 1.06458,-0.939333 2.7345,-0.939333 1.6908,0 2.7345,0.939333 1.06458,0.939332 1.06458,2.421389 0,1.502932 -1.06458,2.463138 -1.0437,0.960206 -2.7345,0.960206 z m 3.25635,24.756619 -6.59619,0 0,-21.375023 6.59619,0 0,21.375023 z"
         style="font-style:normal;font-weight:bold;font-size:medium;line-height:125%;font-family:sans-serif;text-align:start;letter-spacing:0px;word-spacing:0px;text-anchor:start;fill:#ffffff;fill-opacity:1;stroke:none;stroke-width:1px;stroke-linecap:butt;stroke-linejoin:miter;stroke-opacity:1"
         id="path4199" />
    </g>
    <g
       id="g4291"
       transform="matrix(0.84644349,0,0,1,-415.49279,-154.17196)"
       style="fill:#ffffff">
      <path
         d="m 267.11631,113.44525 0,-3.88257 -0.0835,0 q -1.0437,2.02478 -3.08936,3.2146 -2.04565,1.18982 -4.61316,1.18982 -3.9452,0 -6.45008,-2.88062 -2.48401,-2.88061 -2.48401,-7.95301 0,-5.176762 2.71362,-8.370491 2.7345,-3.214604 7.0763,-3.214604 4.80104,0 6.84669,3.945195 l 0.0835,0 0,-13.693375 1.92041,0 0,31.645055 -1.92041,0 z m 0,-13.00453 q 0,-2.984989 -1.89954,-5.05152 -1.87866,-2.087405 -5.07239,-2.087405 -3.36072,0 -5.5525,2.588382 -2.19177,2.567508 -2.19177,7.076303 0,4.4253 1.96216,6.84669 1.98303,2.40051 5.09326,2.40051 3.65296,0 5.65687,-2.25439 2.00391,-2.27528 2.00391,-5.53163 l 0,-3.98694 z"
         style="font-style:normal;font-variant:normal;font-weight:300;font-stretch:normal;font-size:medium;line-height:125%;font-family:'Segoe UI';-inkscape-font-specification:'Segoe UI Light';text-align:start;letter-spacing:0px;word-spacing:0px;text-anchor:start;fill:#ffffff;fill-opacity:1;stroke:none;stroke-width:1px;stroke-linecap:butt;stroke-linejoin:miter;stroke-opacity:1"
         id="path4201" />
      <path
         d="m 284.4835,113.9671 q -4.67578,0 -7.41028,-3.06848 -2.71363,-3.08936 -2.71363,-8.01564 0,-5.322879 2.83887,-8.328742 2.85975,-3.005863 7.51466,-3.005863 4.57141,0 7.22242,2.984989 2.651,2.984989 2.651,8.266126 0,4.98889 -2.71362,8.07825 -2.69276,3.08936 -7.38942,3.08936 z m 0.14612,-20.665305 q -3.7782,0 -6.0326,2.546634 -2.23352,2.546634 -2.23352,7.076301 0,4.19569 2.19177,6.74232 2.19178,2.54663 5.99086,2.54663 3.86169,0 5.9491,-2.50488 2.0874,-2.50489 2.0874,-6.95106 0,-4.571417 -2.0874,-7.013681 -2.06653,-2.442264 -5.86561,-2.442264 z"
         style="font-style:normal;font-variant:normal;font-weight:300;font-stretch:normal;font-size:medium;line-height:125%;font-family:'Segoe UI';-inkscape-font-specification:'Segoe UI Light';text-align:start;letter-spacing:0px;word-spacing:0px;text-anchor:start;fill:#ffffff;fill-opacity:1;stroke:none;stroke-width:1px;stroke-linecap:butt;stroke-linejoin:miter;stroke-opacity:1"
         id="path4203" />
    </g>
    <path
       id="path4205"
       style="font-style:normal;font-weight:bold;font-size:medium;line-height:125%;font-family:sans-serif;text-align:start;letter-spacing:0px;word-spacing:0px;text-anchor:start;fill:#ffffff;fill-opacity:1;stroke:none;stroke-width:1px;stroke-linecap:butt;stroke-linejoin:miter;stroke-opacity:1"
       d="m -150.4556,-51.038486 0,10.31178 -7.72663,0 0,-29.93338 12.10425,0 q 12.96544,0 12.96544,9.53944 0,4.50879 -3.73175,7.30591 -3.70783,2.77625 -9.9274,2.77625 l -3.68391,0 z m 0,-14.44484 0,9.3307 3.03803,0 q 6.17173,0 6.17173,-4.71753 0,-4.61317 -6.17173,-4.61317 l -3.03803,0 z" />
    <path
       id="path4207"
       style="font-style:normal;font-weight:bold;font-size:medium;line-height:125%;font-family:sans-serif;text-align:start;letter-spacing:0px;word-spacing:0px;text-anchor:start;fill:#ffffff;fill-opacity:1;stroke:none;stroke-width:1px;stroke-linecap:butt;stroke-linejoin:miter;stroke-opacity:1"
       d="m -118.54438,-40.204856 q -6.12389,0 -9.64035,-2.98499 -3.49253,-3.00586 -3.49253,-8.14087 0,-5.30201 3.63607,-8.287 3.63605,-3.00586 9.83171,-3.00586 6.09997,0 9.56858,3.00586 3.46862,2.98499 3.46862,7.91126 0,5.32288 -3.58822,8.41224 -3.5643,3.08936 -9.78388,3.08936 z m 0.19138,-17.3672 q -2.67921,0 -4.16234,1.6073 -1.48313,1.6073 -1.48313,4.55054 0,6.15784 5.6933,6.15784 5.43017,0 5.43017,-6.32483 0,-5.99085 -5.478,-5.99085 z" />
    <path
       id="path4209"
       style="font-style:normal;font-weight:bold;font-size:medium;line-height:125%;font-family:sans-serif;text-align:start;letter-spacing:0px;word-spacing:0px;text-anchor:start;fill:#ffffff;fill-opacity:1;stroke:none;stroke-width:1px;stroke-linecap:butt;stroke-linejoin:miter;stroke-opacity:1"
       d="m -92.709196,-40.726706 -7.559184,0 0,-31.64505 7.559184,0 0,31.64505 z" />
    <path
       id="path4211"
       style="font-style:normal;font-weight:bold;font-size:medium;line-height:125%;font-family:sans-serif;text-align:start;letter-spacing:0px;word-spacing:0px;text-anchor:start;fill:#dc143c;fill-opacity:1;stroke:none;stroke-width:1px;stroke-linecap:butt;stroke-linejoin:miter;stroke-opacity:1"
       d="m -87.901016,-41.290306 0,-5.34375 q 1.86588,0.98108 3.70783,1.46118 1.86588,0.4801 3.51646,0.4801 2.0094,0 3.15763,-0.4801 1.17215,-0.4801 1.17215,-1.46118 0,-0.62623 -0.52627,-1.04371 -0.52628,-0.41748 -1.36353,-0.73059 -0.81333,-0.31311 -1.7941,-0.5636 -0.98079,-0.25049 -1.8898,-0.5636 -1.45921,-0.4801 -2.58352,-1.02282 -1.10039,-0.5636 -1.86587,-1.2942 -0.74156,-0.73059 -1.14823,-1.69079 -0.38275,-0.96021 -0.38275,-2.27527 0,-1.79517 0.8851,-3.08936 0.90902,-1.29419 2.39215,-2.10828 1.50704,-0.83496 3.42077,-1.2107 1.93764,-0.3966 4.0188,-0.3966 1.62665,0 3.30116,0.22961 1.6745,0.20874 3.30116,0.62622 l 0,5.09327 q -1.43529,-0.73059 -3.08587,-1.08545 -1.62665,-0.37573 -3.20547,-0.37573 -0.74156,0 -1.41137,0.12524 -0.64588,0.10437 -1.14823,0.33399 -0.50235,0.20874 -0.78941,0.5636 -0.28705,0.33398 -0.28705,0.77234 0,0.58447 0.43058,1.00195 0.43059,0.41748 1.12431,0.73059 0.69373,0.29224 1.53098,0.54273 0.86116,0.22961 1.69841,0.4801 1.50706,0.45923 2.72706,1.00195 1.21998,0.54273 2.08116,1.27332 0.88509,0.73059 1.33961,1.71167 0.47842,0.98108 0.47842,2.33789 0,1.89954 -0.95686,3.25636 -0.93293,1.33594 -2.51175,2.19177 -1.55489,0.83496 -3.61214,1.2107 -2.03333,0.3966 -4.2341,0.3966 -4.04272,0 -7.48742,-1.08545 z" />
    <path
       id="path4213"
       style="font-style:normal;font-weight:bold;font-size:medium;line-height:125%;font-family:sans-serif;text-align:start;letter-spacing:0px;word-spacing:0px;text-anchor:start;fill:#dc143c;fill-opacity:1;stroke:none;stroke-width:1px;stroke-linecap:butt;stroke-linejoin:miter;stroke-opacity:1"
       d="m -40.225546,-40.726706 -9.06622,0 -7.82233,-10.60401 -0.0957,0 0,10.60401 -7.55918,0 0,-31.64505 7.55918,0 0,20.14345 0.0957,0 7.29605,-9.87342 8.97054,0 -8.77917,10.04041 9.40113,11.33461 z" />
    <path
       id="path4215"
       style="font-style:normal;font-weight:bold;font-size:medium;line-height:125%;font-family:sans-serif;text-align:start;letter-spacing:0px;word-spacing:0px;text-anchor:start;fill:#dc143c;fill-opacity:1;stroke:none;stroke-width:1px;stroke-linecap:butt;stroke-linejoin:miter;stroke-opacity:1"
       d="m -33.575376,-65.483326 q -1.91372,0 -3.13371,-0.98108 -1.21999,-1.00195 -1.21999,-2.44226 0,-1.48206 1.21999,-2.42139 1.21999,-0.93933 3.13371,-0.93933 1.93764,0 3.13371,0.93933 1.21999,0.93933 1.21999,2.42139 0,1.50293 -1.21999,2.46314 -1.19607,0.9602 -3.13371,0.9602 z m 3.73175,24.75662 -7.55918,0 0,-21.37502 7.55918,0 0,21.37502 z" />
  </g>
</svg>
