<?xml version="1.0" encoding="UTF-8" standalone="no"?>
<svg
   xmlns:svg="http://www.w3.org/2000/svg"
   xmlns="http://www.w3.org/2000/svg"
   version="1.1"
   viewBox="0 0 8.385273 8.4666672"
   height="8.4666672mm"
   width="8.385273mm"> 
  <path
     d="M 3.7276709,4.8977538e-8 A 3.7283717,3.7283717 0 0 0 1.091972,1.0920705 a 3.7283717,3.7283717 0 0 0 0,5.2726283 3.7283717,3.7283717 0 0 0 4.8306501,0.37791 l 1.7240581,1.724058 0.7385932,-0.738594 -1.712545,-1.712545 A 3.7283717,3.7283717 0 0 0 6.3646879,1.0920705 3.7283717,3.7283717 0 0 0 3.7276709,4.8977538e-8 Z M 3.7180909,1.028529 a 2.6998553,2.6998553 0 0 1 1.919341,0.7907975 2.6998553,2.6998553 0 0 1 0,3.8181163 2.6998553,2.6998553 0 0 1 -3.8182044,0 2.6998553,2.6998553 0 0 1 0,-3.8181163 2.6998553,2.6998553 0 0 1 1.8988634,-0.7907975 z"
     style="fill:#ffffff;stroke:none;stroke-width:0.255105"
     id="path6892" />
</svg>
